<svg width="17" height="17" viewBox="0 0 17 17" fill="none" xmlns="http://www.w3.org/2000/svg">
<rect x="5.80469" y="5.80078" width="10.199" height="10.2029" rx="1" stroke="currentColor" stroke-width="1.4"/>
<path fill-rule="evenodd" clip-rule="evenodd" d="M1.69927 0C0.760382 0 -0.000732422 0.761119 -0.000732422 1.7V9.90292C-0.000732422 10.8418 0.760383 11.6029 1.69927 11.6029H3.3977C3.7843 11.6029 4.0977 11.2895 4.0977 10.9029C4.0977 10.5163 3.7843 10.2029 3.39771 10.2029H1.69927C1.53358 10.2029 1.39927 10.0686 1.39927 9.90292V1.7C1.39927 1.53431 1.53358 1.4 1.69927 1.4H9.89826C10.064 1.4 10.1983 1.53431 10.1983 1.7V3.40234C10.1983 3.78894 10.5117 4.10234 10.8983 4.10234C11.2849 4.10234 11.5983 3.78894 11.5983 3.40234V1.7C11.5983 0.761116 10.8371 0 9.89826 0H1.69927Z" fill="currentColor"/>
</svg>
