<svg xmlns="http://www.w3.org/2000/svg" fill="none" viewBox="0 0 321 64">
  <g stroke="#172136" stroke-linecap="round" stroke-width="2" clip-path="url(#a)">
    <path d="M3.41016 40.8164c.61622 5.0452-.52381 9.639-1.54837 21.3114m.4183.3106c2.77197-1.9757 6.73844-5.1207 14.38681-12.1374"/>
    <path d="M3.64389 60.8971s-.04654-9.4632 17.90461-22.4624c21.6809-15.7012 47.4016-13.1711 47.4016-13.1711"/>
  </g>
  <path fill="#172136" d="M92.65 12.412c0 .8653-.4473 1.7087-1.342 2.53-.8947.8067-2.0533 1.4593-3.476 1.958-1.4227.484-2.8747.726-4.356.726-.8653 0-1.6427-.242-2.332-.726-.6747-.484-1.012-.9313-1.012-1.342 0-.4253.1247-.638.374-.638.0587 0 .3447.1613.858.484.528.308 1.078.4693 1.65.484-.2053-.1027-.4033-.2933-.594-.572-.176-.2787-.264-.5427-.264-.792 0-.2493.176-.946.528-2.09 1.0853-3.44667 1.6427-6.094 1.672-7.942h-.176c-.264 0-.5353-.16133-.814-.484-.2787-.33733-.418-.60867-.418-.814 0-.24933.308-.462.924-.638.6307-.19067 1.386-.286 2.266-.286 2.0533 0 3.6373.27867 4.752.836 1.1147.55733 1.672 1.364 1.672 2.42 0 .88-.374 1.67933-1.122 2.398-.7333.71867-1.8113 1.298-3.234 1.738l.198.022c1.232.07333 2.244.374 3.036.902.8067.528 1.21 1.1367 1.21 1.826Zm-2.068-6.776c0-.484-.2493-.858-.748-1.122-.484-.27867-1.078-.418-1.782-.418-.6893 0-1.5327.088-2.53.264.4107.44.616.86533.616 1.276 0 .396-.2567 1.606-.77 3.63.352-.22.902-.46933 1.65-.748.748-.29333 1.3347-.55 1.76-.77.44-.22.7553-.41067.946-.572.2053-.176.396-.40333.572-.682.1907-.27867.286-.56467.286-.858Zm.154 6.688c0-.44-.5133-.8067-1.54-1.1-1.012-.308-2.024-.462-3.036-.462-.396 0-.7407-.2053-1.034-.616-.8947 3.5347-1.4813 5.4487-1.76 5.742 1.0413-.0293 2.134-.2127 3.278-.55 1.144-.352 2.112-.8067 2.904-1.364.792-.5573 1.188-1.1073 1.188-1.65Zm11.302-4.95c.058-.23467.117-.396.176-.484.058-.088.183-.132.374-.132.205 0 .447.19067.726.572.293.38133.44.748.44 1.1 0 .19067-.323 1.32-.968 3.388-.646 2.068-1.144 3.7107-1.496 4.928-.176.616-.426.924-.748.924-.191 0-.352-.0807-.484-.242-.1322-.1613-.1982-.4547-.1982-.88s.1682-1.1953.5062-2.31c-.6162.9973-1.2835 1.8187-2.0022 2.464-.7187.6453-1.3787.968-1.98.968-.5867 0-1.144-.2787-1.672-.836-.528-.5573-.792-1.1293-.792-1.716 0-1.3933.4033-3.1313 1.21-5.214.8213-2.09733 1.5033-3.146 2.046-3.146.264 0 .4913.12467.682.374.2053.23467.308.506.308.814 0 .132-.198.60867-.594 1.43-.396.8067-.792 1.76-1.188 2.86-.396 1.0853-.594 2.0387-.594 2.86 0 .2347.0733.4327.22.594.1467.1467.3227.22.528.22.5573 0 1.2173-.4913 1.98-1.474.7773-.9827 1.4813-2.1267 2.1122-3.432.63-1.30533 1.1-2.51533 1.408-3.63Zm5.18-3.74c0-.29333.117-.572.352-.836.234-.264.469-.396.704-.396.249 0 .542.30067.88.902.337.58667.506 1.078.506 1.474 0 .14667-.066.27867-.198.396-.132.11733-.272.176-.418.176-.352 0-.748-.21267-1.188-.638-.426-.42533-.638-.78467-.638-1.078Zm-.11 3.124c.278 0 .542.16867.792.506.249.33733.374.66733.374.99s-.213 1.29067-.638 2.904c-.426 1.5987-.961 3.3953-1.606 5.39-.25.7333-.565 1.1-.946 1.1-.206 0-.382-.0807-.528-.242-.147-.176-.22-.3667-.22-.572 0-.22.051-.5573.154-1.012.117-.4693.278-1.0853.484-1.848.22-.7773.388-1.408.506-1.892.132-.484.264-1.0267.396-1.628.132-.616.234-1.10733.308-1.474.088-.38133.183-.76267.286-1.144.205-.71867.418-1.078.638-1.078Zm6.43-4.312c0 2.75733-.572 6.336-1.716 10.736-.734 2.992-1.247 4.488-1.54 4.488-.206 0-.448-.1613-.726-.484-.264-.3227-.396-.572-.396-.748 0-.176.212-1.0853.638-2.728.425-1.6427.85-3.6593 1.276-6.05.425-2.40533.638-4.56867.638-6.49 0-.205334.029-.352001.088-.440001.058-.087999.183-.131999.374-.131999.19 0 .462.212666.814.638.366.41067.55.814.55 1.21Zm3.082 13.024c0 .2787.162.418.484.418.558 0 1.232-.154 2.024-.462.807-.3227 1.254-.484 1.342-.484.264 0 .396.1393.396.418 0 .4253-.44.9167-1.32 1.474-.865.5573-1.657.836-2.376.836-.704 0-1.29-.1907-1.76-.572-.469-.396-.704-.7993-.704-1.21 0-.4107.088-.9313.264-1.562.176-.6453.426-1.4887.748-2.53.338-1.056.602-1.92867.792-2.618-.689.16133-1.151.242-1.386.242-.234 0-.469-.11733-.704-.352-.22-.24933-.33-.484-.33-.704 0-.352.954-.68933 2.86-1.012.264-1.21733.396-2.29533.396-3.234 0-.44.147-.66.44-.66.25 0 .558.16133.924.484.367.308.55.66.55 1.056s-.124 1.09267-.374 2.09c.836-.07333 1.504-.11 2.002-.11.88 0 1.32.19067 1.32.572 0 .22-.242.40333-.726.55-.469.14667-1.466.374-2.992.682-.308 1.15867-.696 2.486-1.166 3.982-.469 1.4813-.704 2.3833-.704 2.706Zm14.94 2.2c-.205 0-.447-.154-.726-.462-.278-.3227-.418-.6233-.418-.902 0-.2787.228-1.232.682-2.86.47-1.628.932-3.586 1.386-5.874.47-2.30267.704-4.40733.704-6.314 0-.44.162-.66.484-.66.235 0 .521.22.858.66.338.42533.506.84333.506 1.254 0 1.804-.396 4.378-1.188 7.722 1.746-2.36133 3.33-3.542 4.752-3.542.69 0 1.269.33733 1.738 1.012.484.67467.726 1.48133.726 2.42 0 .924-.271 1.9873-.814 3.19-.528 1.2027-1.246 2.2367-2.156 3.102-.909.8507-1.862 1.276-2.86 1.276-.997 0-1.98-.506-2.948-1.518l-.022.022c-.322.9827-.557 1.474-.704 1.474Zm3.498-1.694c.954 0 1.885-.6453 2.794-1.936.924-1.3053 1.386-2.6767 1.386-4.114 0-.86533-.264-1.298-.792-1.298-.85 0-1.804.594-2.86 1.782-1.041 1.188-1.943 2.6033-2.706 4.246.69.88 1.416 1.32 2.178 1.32Zm15.277-9.218c.235 0 .484.176.748.528.279.33733.418.71867.418 1.144 0 .29333-.301 1.29067-.902 2.992-.601 1.7013-1.012 2.86-1.232 3.476-.205.6013-.491 1.408-.858 2.42-.352.9973-.697 1.9727-1.034 2.926-.733 2.0973-1.833 3.146-3.3 3.146-.836 0-1.635-.2567-2.398-.77-.763-.4987-1.144-1.0193-1.144-1.562 0-.2053.095-.4327.286-.682.176-.2493.33-.374.462-.374s.345.1613.638.484c.851.968 1.577 1.452 2.178 1.452.455 0 .865-.4033 1.232-1.21.367-.792.711-1.694 1.034-2.706.337-.9973.521-1.5473.55-1.65.044-.1027.088-.2347.132-.396.059-.1613.11-.308.154-.44-1.041 1.4227-2.068 2.134-3.08 2.134-.616 0-1.188-.286-1.716-.858-.513-.572-.77-1.2467-.77-2.024 0-.7773.191-1.826.572-3.146.381-1.32.829-2.464 1.342-3.432.513-.968.931-1.452 1.254-1.452.264 0 .506.12467.726.374.235.23467.352.47667.352.726s-.191.77-.572 1.562c-1.188 2.4347-1.782 4.3267-1.782 5.676 0 .2347.073.4327.22.594.147.1467.323.22.528.22.528 0 1.159-.4693 1.892-1.408.733-.9387 1.408-2.0533 2.024-3.344.513-1.0853 1.049-2.47133 1.606-4.158.059-.16133.205-.242.44-.242Zm18.438 3.652c0 .7773-.425 1.4153-1.276 1.914-.836.484-1.789.726-2.86.726-1.056 0-2.016-.1173-2.882-.352-.205.6453-.308 1.2247-.308 1.738 0 .4987.154.8873.462 1.166.323.2787.844.418 1.562.418.734 0 1.482-.1247 2.244-.374.778-.264 1.203-.396 1.276-.396.382 0 .572.1467.572.44 0 .396-.447.8287-1.342 1.298-.894.4547-1.767.682-2.618.682-1.144 0-2.075-.3373-2.794-1.012-.718-.6893-1.078-1.5547-1.078-2.596 0-1.0413.279-2.1267.836-3.256.558-1.144 1.276-2.10467 2.156-2.882.88-.77733 1.753-1.166 2.618-1.166.866 0 1.65.41067 2.354 1.232.719.82133 1.078 1.628 1.078 2.42Zm-3.322-1.914c-.542 0-1.107.286-1.694.858-.586.55733-1.085 1.254-1.496 2.09.587.132 1.254.198 2.002.198.748 0 1.401-.1173 1.958-.352.558-.2493.836-.572.836-.968s-.183-.79933-.55-1.21c-.352-.41067-.704-.616-1.056-.616Zm6.165 5.346c1.408-2.3907 2.552-4.16533 3.432-5.324.894-1.17333 1.62-1.76 2.178-1.76.572 0 1.107.30067 1.606.902.513.60133.77 1.23933.77 1.914 0 1.056-.242 2.3467-.726 3.872-.88 2.816-1.672 4.224-2.376 4.224-.323 0-.484-.22-.484-.66 0-.308.154-.9313.462-1.87.322-.9533.616-1.8847.88-2.794.278-.924.418-1.6133.418-2.068 0-.46933-.074-.814-.22-1.034-.132-.22-.272-.33-.418-.33-.132 0-.272.044-.418.132-.147.088-.316.23467-.506.44-.176.20533-.345.41067-.506.616-.162.1907-.367.4693-.616.836-.235.3667-.433.682-.594.946-.162.2493-.396.616-.704 1.1-.308.484-.543.8507-.704 1.1-.162.2493-.374.5867-.638 1.012s-.477.7553-.638.99c-.147.2347-.316.4913-.506.77-.367.5427-.66.814-.88.814-.206 0-.448-.1613-.726-.484-.279-.3373-.418-.6307-.418-.88 0-.0733.051-.2713.154-.594.278-.8507.586-1.8993.924-3.146.337-1.2613.52-2.69133.55-4.29.044-1.07067.198-1.606.462-1.606.322 0 .645.16867.968.506.322.33733.484.71133.484 1.122 0 .396-.125 1.17333-.374 2.332-.235 1.144-.514 2.2147-.836 3.212Zm17.846-2.112c0 .5867-.256 1.254-.77 2.002-.396.8947-.821 2.1853-1.276 3.872-.454 1.672-.836 2.8673-1.144 3.586-.616 1.496-1.562 2.244-2.838 2.244-1.041 0-1.921-.286-2.64-.858-.704-.5573-1.056-1.1147-1.056-1.672 0-.2347.074-.4693.22-.704.132-.2347.272-.352.418-.352.162 0 .338.11.528.33.191.22.367.4547.528.704.176.264.433.506.77.726.352.22.69.33 1.012.33.323 0 .565-.0513.726-.154.162-.088.316-.242.462-.462.147-.2053.272-.418.374-.638.103-.2053.213-.506.33-.902.132-.3813.235-.7113.308-.99.074-.2787.176-.6673.308-1.166.132-.5133.242-.924.33-1.232-1.144.8507-2.075 1.276-2.794 1.276-.718 0-1.342-.286-1.87-.858-.528-.5867-.792-1.2613-.792-2.024 0-.7773.286-1.804.858-3.08.587-1.276 1.372-2.42 2.354-3.432.983-1.012 1.944-1.518 2.882-1.518.602 0 1.108.22733 1.518.682.675.748 1.012 1.81133 1.012 3.19 0 .176-.007.3007-.022.374.176.2493.264.4913.264.726Zm-7.084 3.278c0 .2493.081.4547.242.616.162.1467.367.22.616.22.734 0 1.599-.4327 2.596-1.298.998-.88 1.702-1.8993 2.112-3.058-.058-.1907-.11-.484-.154-.88s-.088-.71133-.132-.946c-.044-.23467-.139-.46933-.286-.704-.146-.24933-.337-.374-.572-.374-.572 0-1.217.41067-1.936 1.232-.718.8213-1.312 1.738-1.782 2.75-.469 1.012-.704 1.826-.704 2.442Zm11.19-11.374c0-.29333.117-.572.352-.836.234-.264.469-.396.704-.396.249 0 .542.30067.88.902.337.58667.506 1.078.506 1.474 0 .14667-.066.27867-.198.396-.132.11733-.272.176-.418.176-.352 0-.748-.21267-1.188-.638-.426-.42533-.638-.78467-.638-1.078Zm-.11 3.124c.278 0 .542.16867.792.506.249.33733.374.66733.374.99s-.213 1.29067-.638 2.904c-.426 1.5987-.961 3.3953-1.606 5.39-.25.7333-.565 1.1-.946 1.1-.206 0-.382-.0807-.528-.242-.147-.176-.22-.3667-.22-.572 0-.22.051-.5573.154-1.012.117-.4693.278-1.0853.484-1.848.22-.7773.388-1.408.506-1.892.132-.484.264-1.0267.396-1.628.132-.616.234-1.10733.308-1.474.088-.38133.183-.76267.286-1.144.205-.71867.418-1.078.638-1.078Zm4.252 7.084c1.408-2.3907 2.552-4.16533 3.432-5.324.894-1.17333 1.62-1.76 2.178-1.76.572 0 1.107.30067 1.606.902.513.60133.77 1.23933.77 1.914 0 1.056-.242 2.3467-.726 3.872-.88 2.816-1.672 4.224-2.376 4.224-.323 0-.484-.22-.484-.66 0-.308.154-.9313.462-1.87.322-.9533.616-1.8847.88-2.794.278-.924.418-1.6133.418-2.068 0-.46933-.074-.814-.22-1.034-.132-.22-.272-.33-.418-.33-.132 0-.272.044-.418.132-.147.088-.316.23467-.506.44-.176.20533-.345.41067-.506.616-.162.1907-.367.4693-.616.836-.235.3667-.433.682-.594.946-.162.2493-.396.616-.704 1.1-.308.484-.543.8507-.704 1.1-.162.2493-.374.5867-.638 1.012s-.477.7553-.638.99c-.147.2347-.316.4913-.506.77-.367.5427-.66.814-.88.814-.206 0-.448-.1613-.726-.484-.279-.3373-.418-.6307-.418-.88 0-.0733.051-.2713.154-.594.278-.8507.586-1.8993.924-3.146.337-1.2613.52-2.69133.55-4.29.044-1.07067.198-1.606.462-1.606.322 0 .645.16867.968.506.322.33733.484.71133.484 1.122 0 .396-.125 1.17333-.374 2.332-.235 1.144-.514 2.2147-.836 3.212Zm17.912-3.432c0 .7773-.425 1.4153-1.276 1.914-.836.484-1.789.726-2.86.726-1.056 0-2.016-.1173-2.882-.352-.205.6453-.308 1.2247-.308 1.738 0 .4987.154.8873.462 1.166.323.2787.844.418 1.562.418.734 0 1.482-.1247 2.244-.374.778-.264 1.203-.396 1.276-.396.382 0 .572.1467.572.44 0 .396-.447.8287-1.342 1.298-.894.4547-1.767.682-2.618.682-1.144 0-2.075-.3373-2.794-1.012-.718-.6893-1.078-1.5547-1.078-2.596 0-1.0413.279-2.1267.836-3.256.558-1.144 1.276-2.10467 2.156-2.882.88-.77733 1.753-1.166 2.618-1.166.866 0 1.65.41067 2.354 1.232.719.82133 1.078 1.628 1.078 2.42ZM212.3 8.496c-.542 0-1.107.286-1.694.858-.586.55733-1.085 1.254-1.496 2.09.587.132 1.254.198 2.002.198.748 0 1.401-.1173 1.958-.352.558-.2493.836-.572.836-.968s-.183-.79933-.55-1.21c-.352-.41067-.704-.616-1.056-.616Zm12.787 1.914c0 .7773-.426 1.4153-1.276 1.914-.836.484-1.79.726-2.86.726-1.056 0-2.017-.1173-2.882-.352-.206.6453-.308 1.2247-.308 1.738 0 .4987.154.8873.462 1.166.322.2787.843.418 1.562.418.733 0 1.481-.1247 2.244-.374.777-.264 1.202-.396 1.276-.396.381 0 .572.1467.572.44 0 .396-.448.8287-1.342 1.298-.895.4547-1.768.682-2.618.682-1.144 0-2.076-.3373-2.794-1.012-.719-.6893-1.078-1.5547-1.078-2.596 0-1.0413.278-2.1267.836-3.256.557-1.144 1.276-2.10467 2.156-2.882.88-.77733 1.752-1.166 2.618-1.166.865 0 1.65.41067 2.354 1.232.718.82133 1.078 1.628 1.078 2.42Zm-3.322-1.914c-.543 0-1.108.286-1.694.858-.587.55733-1.086 1.254-1.496 2.09.586.132 1.254.198 2.002.198.748 0 1.4-.1173 1.958-.352.557-.2493.836-.572.836-.968s-.184-.79933-.55-1.21c-.352-.41067-.704-.616-1.056-.616Zm5.328.946-.066-1.65c0-.68933.161-1.034.484-1.034.279 0 .543.18333.792.55.264.352.396.77733.396 1.276 0 .484-.015.85067-.044 1.1 1.276-1.936 2.486-2.904 3.63-2.904.719 0 1.078.176 1.078.528 0 .176-.081.33733-.242.484-.161.14667-.418.31533-.77.506-.777.33733-1.437.858-1.98 1.562-.528.6893-.961 1.474-1.298 2.354-.337.88-.609 1.6207-.814 2.222-.191.6013-.337 1.0707-.44 1.408-.103.3373-.22.6673-.352.99-.235.5867-.506.88-.814.88-.249 0-.455-.1393-.616-.418-.147-.2933-.22-.572-.22-.836 0-.2787.125-.8213.374-1.628.601-1.848.902-3.6447.902-5.39Zm11.815-2.684c.499 0 .968.27867 1.408.836.44.54267.66 1.01933.66 1.43 0 .24933-.117.374-.352.374-.161 0-.411-.12467-.748-.374-.337-.264-.682-.396-1.034-.396s-.909.20533-1.672.616c-.748.41067-1.122.8433-1.122 1.298 0 .3373.675.9167 2.024 1.738.513.3227.975.7407 1.386 1.254.425.4987.638 1.0413.638 1.628 0 .572-.403 1.1367-1.21 1.694-.792.5427-1.723.814-2.794.814-1.056 0-1.995-.2567-2.816-.77-.807-.5133-1.21-.9973-1.21-1.452 0-.1907.044-.3373.132-.44.103-.1173.227-.176.374-.176s.352.0953.616.286c.792.572 1.613.858 2.464.858.865 0 1.489-.0953 1.87-.286.381-.2053.572-.4693.572-.792 0-.3373-.213-.6893-.638-1.056-.425-.3813-.895-.7187-1.408-1.012-.499-.2933-.961-.6527-1.386-1.078-.425-.4253-.638-.858-.638-1.298 0-.77733.609-1.584 1.826-2.42 1.232-.85067 2.251-1.276 3.058-1.276Zm20.749 1.188c0 .132-.652.82133-1.958 2.068-.484.4693-.931 1.0267-1.342 1.672-.396.6307-.594 1.21-.594 1.738s.154 1.0193.462 1.474c.323.44.668.7773 1.034 1.012.382.22.726.44 1.034.66.323.22.484.4033.484.55 0 .3667-.293.55-.88.55-.572 0-1.261-.3227-2.068-.968-.792-.66-1.283-1.3933-1.474-2.2-.073-.1467-.132-.286-.176-.418-.997 1.3493-1.723 2.288-2.178 2.816-.44.5133-.77.77-.99.77-.22 0-.462-.1687-.726-.506-.264-.352-.396-.638-.396-.858 0-.2347.235-1.1807.704-2.838.484-1.672.961-3.674 1.43-6.006.484-2.332.726-4.41467.726-6.248 0-.234667.03-.396001.088-.484001.074-.087999.22-.131999.44-.131999s.492.22.814.66c.323.42533.484.84333.484 1.254 0 1.30533-.264 3.13133-.792 5.478-.528 2.3467-1.158 4.576-1.892 6.688 1.658-2.3613 3.088-4.268 4.29-5.72 1.218-1.46667 1.966-2.2 2.244-2.2.294 0 .572.13933.836.418s.396.53533.396.77Zm2.305 5.896c1.408-2.3907 2.552-4.16533 3.432-5.324.894-1.17333 1.62-1.76 2.178-1.76.572 0 1.107.30067 1.606.902.513.60133.77 1.23933.77 1.914 0 1.056-.242 2.3467-.726 3.872-.88 2.816-1.672 4.224-2.376 4.224-.323 0-.484-.22-.484-.66 0-.308.154-.9313.462-1.87.322-.9533.616-1.8847.88-2.794.278-.924.418-1.6133.418-2.068 0-.46933-.074-.814-.22-1.034-.132-.22-.272-.33-.418-.33-.132 0-.272.044-.418.132-.147.088-.316.23467-.506.44-.176.20533-.345.41067-.506.616-.162.1907-.367.4693-.616.836-.235.3667-.433.682-.594.946-.162.2493-.396.616-.704 1.1-.308.484-.543.8507-.704 1.1-.162.2493-.374.5867-.638 1.012s-.477.7553-.638.99c-.147.2347-.316.4913-.506.77-.367.5427-.66.814-.88.814-.206 0-.448-.1613-.726-.484-.279-.3373-.418-.6307-.418-.88 0-.0733.051-.2713.154-.594.278-.8507.586-1.8993.924-3.146.337-1.2613.52-2.69133.55-4.29.044-1.07067.198-1.606.462-1.606.322 0 .645.16867.968.506.322.33733.484.71133.484 1.122 0 .396-.125 1.17333-.374 2.332-.235 1.144-.514 2.2147-.836 3.212Zm15.778-3.344c0-.49867-.08-.968-.242-1.408-.161-.45467-.396-.78467-.704-.99-1.012.27867-1.884 1.06333-2.618 2.354-.718 1.276-1.078 2.4787-1.078 3.608 0 1.1293.279 1.8333.836 2.112 1.056-.2053 1.951-.924 2.684-2.156.748-1.2467 1.122-2.42 1.122-3.52Zm-5.786.198c.514-1.144 1.181-2.08267 2.002-2.816.836-.748 1.687-1.122 2.552-1.122.88 0 1.614.374 2.2 1.122.587.73333.88 1.63533.88 2.706 0 1.056-.256 2.1413-.77 3.256-.513 1.1-1.224 2.0167-2.134 2.75-.894.7187-1.848 1.078-2.86 1.078-.748 0-1.371-.3447-1.87-1.034-.498-.6893-.748-1.562-.748-2.618 0-1.0707.25-2.178.748-3.322Zm17.515-1.606-.154 4.136c0 1.144.051 1.9727.154 2.486.631-.66 1.173-1.43 1.628-2.31.469-.8947.814-1.7233 1.034-2.486.235-.7627.433-1.474.594-2.134.176-.67467.337-1.21.484-1.606.147-.396.315-.594.506-.594.279 0 .528.11733.748.352.22.22.33.47667.33.77 0 .748-.337 1.98-1.012 3.696-.572 1.584-1.32 3.036-2.244 4.356-.924 1.3053-1.643 1.958-2.156 1.958-.513 0-.902-.286-1.166-.858-.249-.572-.389-1.6647-.418-3.278-.029-1.628-.007-3.036.066-4.224-1.012 2.7573-1.907 4.84-2.684 6.248-.777 1.408-1.393 2.112-1.848 2.112-.205 0-.425-.0953-.66-.286-.22-.1907-.396-.44-.528-.748-.323-.7773-.601-2.2587-.836-4.444-.22-2.2-.33-3.76933-.33-4.708 0-.60133.183-.902.55-.902.323 0 .616.18333.88.55.279.36667.44.73333.484 1.1.044.352.081 1.34933.11 2.992.044 1.628.183 3.08.418 4.356.601-1.0413 1.203-2.3467 1.804-3.916.616-1.5693 1.115-2.80133 1.496-3.696.396-.89467.755-1.342 1.078-1.342.484 0 .88.22733 1.188.682.323.44.484 1.01933.484 1.738Zm8.335-5.456c0-.29333.117-.572.352-.836.234-.264.469-.396.704-.396.249 0 .542.30067.88.902.337.58667.506 1.078.506 1.474 0 .14667-.066.27867-.198.396-.132.11733-.272.176-.418.176-.352 0-.748-.21267-1.188-.638-.426-.42533-.638-.78467-.638-1.078Zm-.11 3.124c.278 0 .542.16867.792.506.249.33733.374.66733.374.99s-.213 1.29067-.638 2.904c-.426 1.5987-.961 3.3953-1.606 5.39-.25.7333-.565 1.1-.946 1.1-.206 0-.382-.0807-.528-.242-.147-.176-.22-.3667-.22-.572 0-.22.051-.5573.154-1.012.117-.4693.278-1.0853.484-1.848.22-.7773.388-1.408.506-1.892.132-.484.264-1.0267.396-1.628.132-.616.234-1.10733.308-1.474.088-.38133.183-.76267.286-1.144.205-.71867.418-1.078.638-1.078Zm4.252 7.084c1.408-2.3907 2.552-4.16533 3.432-5.324.895-1.17333 1.621-1.76 2.178-1.76.572 0 1.107.30067 1.606.902.513.60133.77 1.23933.77 1.914 0 1.056-.242 2.3467-.726 3.872-.88 2.816-1.672 4.224-2.376 4.224-.323 0-.484-.22-.484-.66 0-.308.154-.9313.462-1.87.323-.9533.616-1.8847.88-2.794.279-.924.418-1.6133.418-2.068 0-.46933-.073-.814-.22-1.034-.132-.22-.271-.33-.418-.33-.132 0-.271.044-.418.132-.147.088-.315.23467-.506.44-.176.20533-.345.41067-.506.616-.161.1907-.367.4693-.616.836-.235.3667-.433.682-.594.946-.161.2493-.396.616-.704 1.1-.308.484-.543.8507-.704 1.1-.161.2493-.374.5867-.638 1.012s-.477.7553-.638.99c-.147.2347-.315.4913-.506.77-.367.5427-.66.814-.88.814-.205 0-.447-.1613-.726-.484-.279-.3373-.418-.6307-.418-.88 0-.0733.051-.2713.154-.594.279-.8507.587-1.8993.924-3.146.337-1.2613.521-2.69133.55-4.29.044-1.07067.198-1.606.462-1.606.323 0 .645.16867.968.506.323.33733.484.71133.484 1.122 0 .396-.125 1.17333-.374 2.332-.235 1.144-.513 2.2147-.836 3.212Zm17.846-2.112c0 .5867-.256 1.254-.77 2.002-.396.8947-.821 2.1853-1.276 3.872-.454 1.672-.836 2.8673-1.144 3.586-.616 1.496-1.562 2.244-2.838 2.244-1.041 0-1.921-.286-2.64-.858-.704-.5573-1.056-1.1147-1.056-1.672 0-.2347.074-.4693.22-.704.132-.2347.272-.352.418-.352.162 0 .338.11.528.33.191.22.367.4547.528.704.176.264.433.506.77.726.352.22.69.33 1.012.33.323 0 .565-.0513.726-.154.162-.088.316-.242.462-.462.147-.2053.272-.418.374-.638.103-.2053.213-.506.33-.902.132-.3813.235-.7113.308-.99.074-.2787.176-.6673.308-1.166.132-.5133.242-.924.33-1.232-1.144.8507-2.075 1.276-2.794 1.276-.718 0-1.342-.286-1.87-.858-.528-.5867-.792-1.2613-.792-2.024 0-.7773.286-1.804.858-3.08.587-1.276 1.372-2.42 2.354-3.432.983-1.012 1.944-1.518 2.882-1.518.602 0 1.108.22733 1.518.682.675.748 1.012 1.81133 1.012 3.19 0 .176-.007.3007-.022.374.176.2493.264.4913.264.726Zm-7.084 3.278c0 .2493.081.4547.242.616.162.1467.367.22.616.22.734 0 1.599-.4327 2.596-1.298.998-.88 1.702-1.8993 2.112-3.058-.058-.1907-.11-.484-.154-.88s-.088-.71133-.132-.946c-.044-.23467-.139-.46933-.286-.704-.146-.24933-.337-.374-.572-.374-.572 0-1.217.41067-1.936 1.232-.718.8213-1.312 1.738-1.782 2.75-.469 1.012-.704 1.826-.704 2.442Zm-222.61 10.59c.2347 0 .5207.22.858.66.352.4253.528.8287.528 1.21s-.1833 1.4667-.55 3.256c-.3667 1.7747-.792 3.6153-1.276 5.522-1.056 4.2827-1.7527 6.424-2.09 6.424-.2053 0-.4327-.1247-.682-.374-.2347-.264-.352-.4913-.352-.682 0-.1907.0513-.572.154-1.144-1.4373 1.4667-2.6913 2.2-3.762 2.2-.6453 0-1.232-.2933-1.76-.88-.5133-.5867-.77-1.1953-.77-1.826 0-.9093.242-1.9873.726-3.234.4987-1.2613 1.21-2.4053 2.134-3.432.924-1.0267 1.9067-1.54 2.948-1.54s1.7673.6233 2.178 1.87c.748-3.1093 1.1587-5.566 1.232-7.37 0-.44.1613-.66.484-.66ZM87.678 36.4c0-.792-.1393-1.4593-.418-2.002-.264-.5427-.5867-.814-.968-.814-.6307 0-1.276.3887-1.936 1.166-.66.7773-1.188 1.672-1.584 2.684-.3813.9973-.572 1.8627-.572 2.596 0 .264.0953.4767.286.638.1907.1613.418.242.682.242.572 0 1.342-.4107 2.31-1.232.9827-.8213 1.694-1.7893 2.134-2.904l.066-.264v-.11Zm9.3945-4.642c.66 0 1.2687.3373 1.826 1.012.5573.66.836 1.2613.836 1.804 0 .528-.1833 1.0707-.55 1.628.176.22.264.4107.264.572 0 .4107-.0953 1.1147-.286 2.112-.176.9973-.286 1.65-.33 1.958-.0293.308-.0586.5573-.088.748-.0293.176-.066.352-.11.528-.0587.3667-.1907.55-.396.55-.264 0-.484-.2273-.66-.682-.1613-.4693-.2567-1.0707-.286-1.804-1.3053 1.6573-2.5153 2.486-3.63 2.486-.6747 0-1.342-.286-2.002-.858-.6453-.5867-.968-1.188-.968-1.804 0-.88.3227-1.9653.968-3.256.6453-1.3053 1.4813-2.464 2.508-3.476s1.9947-1.518 2.904-1.518Zm1.012 3.872c0-1.364-.2713-2.046-.814-2.046-.572 0-1.2393.4107-2.002 1.232-.7627.8067-1.408 1.7233-1.936 2.75s-.792 1.8407-.792 2.442c0 .2493.1027.4547.308.616.2053.1467.4473.22.726.22.6893 0 1.4667-.462 2.332-1.386.8653-.9387 1.4667-2.0753 1.804-3.41.044-.22.1687-.352.374-.396v-.022Zm5.4725 4.84c0 .2787.161.418.484.418.557 0 1.232-.154 2.024-.462.807-.3227 1.254-.484 1.342-.484.264 0 .396.1393.396.418 0 .4253-.44.9167-1.32 1.474-.865.5573-1.657.836-2.376.836-.704 0-1.291-.1907-1.76-.572-.469-.396-.704-.7993-.704-1.21 0-.4107.088-.9313.264-1.562.176-.6453.425-1.4887.748-2.53.337-1.056.601-1.9287.792-2.618-.689.1613-1.151.242-1.386.242-.235 0-.469-.1173-.704-.352-.22-.2493-.33-.484-.33-.704 0-.352.953-.6893 2.86-1.012.264-1.2173.396-2.2953.396-3.234 0-.44.147-.66.44-.66.249 0 .557.1613.924.484.367.308.55.66.55 1.056s-.125 1.0927-.374 2.09c.836-.0733 1.503-.11 2.002-.11.88 0 1.32.1907 1.32.572 0 .22-.242.4033-.726.55-.469.1467-1.467.374-2.992.682-.308 1.1587-.697 2.486-1.166 3.982-.469 1.4813-.704 2.3833-.704 2.706Zm11.456-8.712c.66 0 1.268.3373 1.826 1.012.557.66.836 1.2613.836 1.804 0 .528-.184 1.0707-.55 1.628.176.22.264.4107.264.572 0 .4107-.096 1.1147-.286 2.112-.176.9973-.286 1.65-.33 1.958-.03.308-.059.5573-.088.748-.03.176-.066.352-.11.528-.059.3667-.191.55-.396.55-.264 0-.484-.2273-.66-.682-.162-.4693-.257-1.0707-.286-1.804-1.306 1.6573-2.516 2.486-3.63 2.486-.675 0-1.342-.286-2.002-.858-.646-.5867-.968-1.188-.968-1.804 0-.88.322-1.9653.968-3.256.645-1.3053 1.481-2.464 2.508-3.476 1.026-1.012 1.994-1.518 2.904-1.518Zm1.012 3.872c0-1.364-.272-2.046-.814-2.046-.572 0-1.24.4107-2.002 1.232-.763.8067-1.408 1.7233-1.936 2.75s-.792 1.8407-.792 2.442c0 .2493.102.4547.308.616.205.1467.447.22.726.22.689 0 1.466-.462 2.332-1.386.865-.9387 1.466-2.0753 1.804-3.41.044-.22.168-.352.374-.396v-.022Zm3.954 7.04c-.205 0-.447-.154-.726-.462-.278-.3227-.418-.6233-.418-.902 0-.2787.228-1.232.682-2.86.47-1.628.932-3.586 1.386-5.874.47-2.3027.704-4.4073.704-6.314 0-.44.162-.66.484-.66.235 0 .521.22.858.66.338.4253.506.8433.506 1.254 0 1.804-.396 4.378-1.188 7.722 1.746-2.3613 3.33-3.542 4.752-3.542.69 0 1.269.3373 1.738 1.012.484.6747.726 1.4813.726 2.42 0 .924-.271 1.9873-.814 3.19-.528 1.2027-1.246 2.2367-2.156 3.102-.909.8507-1.862 1.276-2.86 1.276-.997 0-1.98-.506-2.948-1.518l-.022.022c-.322.9827-.557 1.474-.704 1.474Zm3.498-1.694c.954 0 1.885-.6453 2.794-1.936.924-1.3053 1.386-2.6767 1.386-4.114 0-.8653-.264-1.298-.792-1.298-.85 0-1.804.594-2.86 1.782-1.041 1.188-1.943 2.6033-2.706 4.246.69.88 1.416 1.32 2.178 1.32Zm12.527-9.218c.66 0 1.269.3373 1.826 1.012.557.66.836 1.2613.836 1.804 0 .528-.183 1.0707-.55 1.628.176.22.264.4107.264.572 0 .4107-.095 1.1147-.286 2.112-.176.9973-.286 1.65-.33 1.958-.029.308-.059.5573-.088.748-.029.176-.066.352-.11.528-.059.3667-.191.55-.396.55-.264 0-.484-.2273-.66-.682-.161-.4693-.257-1.0707-.286-1.804-1.305 1.6573-2.515 2.486-3.63 2.486-.675 0-1.342-.286-2.002-.858-.645-.5867-.968-1.188-.968-1.804 0-.88.323-1.9653.968-3.256.645-1.3053 1.481-2.464 2.508-3.476s1.995-1.518 2.904-1.518Zm1.012 3.872c0-1.364-.271-2.046-.814-2.046-.572 0-1.239.4107-2.002 1.232-.763.8067-1.408 1.7233-1.936 2.75s-.792 1.8407-.792 2.442c0 .2493.103.4547.308.616.205.1467.447.22.726.22.689 0 1.467-.462 2.332-1.386.865-.9387 1.467-2.0753 1.804-3.41.044-.22.169-.352.374-.396v-.022Zm9.3-3.872c.499 0 .968.2787 1.408.836.44.5427.66 1.0193.66 1.43 0 .2493-.117.374-.352.374-.161 0-.41-.1247-.748-.374-.337-.264-.682-.396-1.034-.396s-.909.2053-1.672.616c-.748.4107-1.122.8433-1.122 1.298 0 .3373.675.9167 2.024 1.738.514.3227.976.7407 1.386 1.254.426.4987.638 1.0413.638 1.628 0 .572-.403 1.1367-1.21 1.694-.792.5427-1.723.814-2.794.814-1.056 0-1.994-.2567-2.816-.77-.806-.5133-1.21-.9973-1.21-1.452 0-.1907.044-.3373.132-.44.103-.1173.228-.176.374-.176.147 0 .352.0953.616.286.792.572 1.614.858 2.464.858.866 0 1.489-.0953 1.87-.286.382-.2053.572-.4693.572-.792 0-.3373-.212-.6893-.638-1.056-.425-.3813-.894-.7187-1.408-1.012-.498-.2933-.96-.6527-1.386-1.078-.425-.4253-.638-.858-.638-1.298 0-.7773.609-1.584 1.826-2.42 1.232-.8507 2.252-1.276 3.058-1.276Zm11.414 3.652c0 .7773-.426 1.4153-1.276 1.914-.836.484-1.79.726-2.86.726-1.056 0-2.017-.1173-2.882-.352-.206.6453-.308 1.2247-.308 1.738 0 .4987.154.8873.462 1.166.322.2787.843.418 1.562.418.733 0 1.481-.1247 2.244-.374.777-.264 1.202-.396 1.276-.396.381 0 .572.1467.572.44 0 .396-.448.8287-1.342 1.298-.895.4547-1.768.682-2.618.682-1.144 0-2.076-.3373-2.794-1.012-.719-.6893-1.078-1.5547-1.078-2.596 0-1.0413.278-2.1267.836-3.256.557-1.144 1.276-2.1047 2.156-2.882.88-.7773 1.752-1.166 2.618-1.166.865 0 1.65.4107 2.354 1.232.718.8213 1.078 1.628 1.078 2.42Zm-3.322-1.914c-.543 0-1.108.286-1.694.858-.587.5573-1.086 1.254-1.496 2.09.586.132 1.254.198 2.002.198.748 0 1.4-.1173 1.958-.352.557-.2493.836-.572.836-.968s-.184-.7993-.55-1.21c-.352-.4107-.704-.616-1.056-.616Zm21.814-7.898c.235 0 .521.22.858.66.352.4253.528.8287.528 1.21s-.183 1.4667-.55 3.256c-.367 1.7747-.792 3.6153-1.276 5.522-1.056 4.2827-1.753 6.424-2.09 6.424-.205 0-.433-.1247-.682-.374-.235-.264-.352-.4913-.352-.682 0-.1907.051-.572.154-1.144-1.437 1.4667-2.691 2.2-3.762 2.2-.645 0-1.232-.2933-1.76-.88-.513-.5867-.77-1.1953-.77-1.826 0-.9093.242-1.9873.726-3.234.499-1.2613 1.21-2.4053 2.134-3.432.924-1.0267 1.907-1.54 2.948-1.54s1.767.6233 2.178 1.87c.748-3.1093 1.159-5.566 1.232-7.37 0-.44.161-.66.484-.66Zm-2.42 10.802c0-.792-.139-1.4593-.418-2.002-.264-.5427-.587-.814-.968-.814-.631 0-1.276.3887-1.936 1.166-.66.7773-1.188 1.672-1.584 2.684-.381.9973-.572 1.8627-.572 2.596 0 .264.095.4767.286.638.191.1613.418.242.682.242.572 0 1.342-.4107 2.31-1.232.983-.8213 1.694-1.7893 2.134-2.904l.066-.264v-.11Zm12.32-.99c0 .7773-.425 1.4153-1.276 1.914-.836.484-1.789.726-2.86.726-1.056 0-2.016-.1173-2.882-.352-.205.6453-.308 1.2247-.308 1.738 0 .4987.154.8873.462 1.166.323.2787.844.418 1.562.418.734 0 1.482-.1247 2.244-.374.778-.264 1.203-.396 1.276-.396.382 0 .572.1467.572.44 0 .396-.447.8287-1.342 1.298-.894.4547-1.767.682-2.618.682-1.144 0-2.075-.3373-2.794-1.012-.718-.6893-1.078-1.5547-1.078-2.596 0-1.0413.279-2.1267.836-3.256.558-1.144 1.276-2.1047 2.156-2.882.88-.7773 1.753-1.166 2.618-1.166.866 0 1.65.4107 2.354 1.232.719.8213 1.078 1.628 1.078 2.42Zm-3.322-1.914c-.542 0-1.107.286-1.694.858-.586.5573-1.085 1.254-1.496 2.09.587.132 1.254.198 2.002.198.748 0 1.401-.1173 1.958-.352.558-.2493.836-.572.836-.968s-.183-.7993-.55-1.21c-.352-.4107-.704-.616-1.056-.616Zm11.599-1.738c.249 0 .491.0953.726.286.234.176.352.374.352.594 0 .396-.536 1.7673-1.606 4.114-1.056 2.3467-1.812 3.9307-2.266 4.752-.44.8067-.829 1.21-1.166 1.21-.191 0-.426-.1393-.704-.418-.279-.2787-.484-.5793-.616-.902-.396-.924-.822-2.4127-1.276-4.466-.455-2.0533-.682-3.5567-.682-4.51 0-.44.132-.66.396-.66.322 0 .652.1393.99.418.337.264.572.6013.704 1.012.044.2347.102.8213.176 1.76.205 2.3173.557 4.0993 1.056 5.346.396-.8507.902-2.0533 1.518-3.608.616-1.5693 1.114-2.7793 1.496-3.63.396-.8653.696-1.298.902-1.298Zm10.029 3.652c0 .7773-.425 1.4153-1.276 1.914-.836.484-1.789.726-2.86.726-1.056 0-2.017-.1173-2.882-.352-.205.6453-.308 1.2247-.308 1.738 0 .4987.154.8873.462 1.166.323.2787.843.418 1.562.418.733 0 1.481-.1247 2.244-.374.777-.264 1.203-.396 1.276-.396.381 0 .572.1467.572.44 0 .396-.447.8287-1.342 1.298-.895.4547-1.767.682-2.618.682-1.144 0-2.075-.3373-2.794-1.012-.719-.6893-1.078-1.5547-1.078-2.596 0-1.0413.279-2.1267.836-3.256.557-1.144 1.276-2.1047 2.156-2.882.88-.7773 1.753-1.166 2.618-1.166s1.65.4107 2.354 1.232c.719.8213 1.078 1.628 1.078 2.42Zm-3.322-1.914c-.543 0-1.107.286-1.694.858-.587.5573-1.085 1.254-1.496 2.09.587.132 1.254.198 2.002.198.748 0 1.401-.1173 1.958-.352.557-.2493.836-.572.836-.968s-.183-.7993-.55-1.21c-.352-.4107-.704-.616-1.056-.616Zm8.342-6.05c0 2.7573-.572 6.336-1.716 10.736-.733 2.992-1.246 4.488-1.54 4.488-.205 0-.447-.1613-.726-.484-.264-.3227-.396-.572-.396-.748 0-.176.213-1.0853.638-2.728.426-1.6427.851-3.6593 1.276-6.05.426-2.4053.638-4.5687.638-6.49 0-.2053.03-.352.088-.44.059-.088.184-.132.374-.132.191 0 .462.2127.814.638.367.4107.55.814.55 1.21Zm7.263 8.052c0-.4987-.081-.968-.242-1.408-.161-.4547-.396-.7847-.704-.99-1.012.2787-1.885 1.0633-2.618 2.354-.719 1.276-1.078 2.4787-1.078 3.608 0 1.1293.279 1.8333.836 2.112 1.056-.2053 1.951-.924 2.684-2.156.748-1.2467 1.122-2.42 1.122-3.52Zm-5.786.198c.513-1.144 1.181-2.0827 2.002-2.816.836-.748 1.687-1.122 2.552-1.122.88 0 1.613.374 2.2 1.122.587.7333.88 1.6353.88 2.706 0 1.056-.257 2.1413-.77 3.256-.513 1.1-1.225 2.0167-2.134 2.75-.895.7187-1.848 1.078-2.86 1.078-.748 0-1.371-.3447-1.87-1.034-.499-.6893-.748-1.562-.748-2.618 0-1.0707.249-2.178.748-3.322Zm15.865-4.004c.63 0 1.173.4033 1.628 1.21.469.8067.704 1.6427.704 2.508 0 .8507-.25 1.7087-.748 2.574-.499.8507-1.115 1.6133-1.848 2.288-.734.6747-1.548 1.2393-2.442 1.694-.88.44-1.694.66-2.442.66-.294 0-.572-.0367-.836-.11-.059.2493-.162.6967-.308 1.342-.147.6453-.272 1.1807-.374 1.606-.103.4253-.22.88-.352 1.364-.264.9973-.499 1.496-.704 1.496-.206 0-.418-.1613-.638-.484-.235-.308-.352-.5867-.352-.836 0-.2493.234-1.32.704-3.212 1.408-5.7053 2.112-9.548 2.112-11.528 0-.44.161-.66.484-.66.264 0 .579.198.946.594.381.3813.572.8067.572 1.276 0 .2347-.03.4913-.088.77 1.305-1.7013 2.632-2.552 3.982-2.552Zm-5.368 9.218c.777 0 1.613-.264 2.508-.792.909-.528 1.679-1.2247 2.31-2.09.645-.88.968-1.7527.968-2.618 0-1.2173-.286-1.826-.858-1.826-.572 0-1.35.4913-2.332 1.474-.968.9827-1.738 2.2587-2.31 3.828l-.506 2.024h.22Zm22.474-9.152c.44 0 .828.308 1.166.924.352.6013.528 1.2907.528 2.068 0 .7627-.14 1.76-.418 2.992-.264 1.232-.624 2.3613-1.078 3.388-.455 1.0267-.902 1.54-1.342 1.54-.308 0-.462-.198-.462-.594 0-.4107.249-1.4007.748-2.97.513-1.584.77-2.838.77-3.762 0-.9387-.147-1.408-.44-1.408-.367 0-.792.3227-1.276.968-.47.6453-.976 1.4227-1.518 2.332-.543.9093-.836 1.4007-.88 1.474-.044.0587-.103.1467-.176.264-.059.1173-.132.242-.22.374-.074.132-.279.528-.616 1.188-.323.66-.609 1.1807-.858 1.562-.25.3667-.47.55-.66.55-.176 0-.374-.1173-.594-.352-.22-.2347-.33-.4547-.33-.66 0-.2053.132-.6307.396-1.276.762-1.9067 1.144-3.6813 1.144-5.324 0-.308-.066-.5647-.198-.77-.132-.22-.279-.33-.44-.33-.162 0-.33.0733-.506.22-.176.132-.396.3813-.66.748-.264.352-.499.6893-.704 1.012-.206.3227-.521.8287-.946 1.518-.411.6747-.726 1.1807-.946 1.518-.206.3227-.448.704-.726 1.144-.279.4253-.499.7553-.66.99-.147.2347-.316.4913-.506.77-.396.5427-.69.814-.88.814-.176 0-.411-.1613-.704-.484-.294-.3373-.44-.5867-.44-.748 0-.176.029-.3887.088-.638.058-.2493.117-.4913.176-.726.073-.2347.176-.5793.308-1.034.146-.4693.308-1.012.484-1.628.19-.6307.33-1.4887.418-2.574.102-1.1.176-1.8993.22-2.398.044-.5133.168-.77.374-.77.322 0 .638.1687.946.506.322.3373.484.6747.484 1.012 0 1.2907-.484 3.4173-1.452 6.38 1.642-3.08 2.676-4.906 3.102-5.478.425-.572.792-1.034 1.1-1.386.572-.6307 1.151-.946 1.738-.946.352 0 .77.308 1.254.924.498.6013.748 1.21.748 1.826 0 .616-.088 1.3787-.264 2.288 1.73-3.3587 3.3-5.038 4.708-5.038Zm11.613 3.652c0 .7773-.425 1.4153-1.276 1.914-.836.484-1.789.726-2.86.726-1.056 0-2.016-.1173-2.882-.352-.205.6453-.308 1.2247-.308 1.738 0 .4987.154.8873.462 1.166.323.2787.844.418 1.562.418.734 0 1.482-.1247 2.244-.374.778-.264 1.203-.396 1.276-.396.382 0 .572.1467.572.44 0 .396-.447.8287-1.342 1.298-.894.4547-1.767.682-2.618.682-1.144 0-2.075-.3373-2.794-1.012-.718-.6893-1.078-1.5547-1.078-2.596 0-1.0413.279-2.1267.836-3.256.558-1.144 1.276-2.1047 2.156-2.882.88-.7773 1.753-1.166 2.618-1.166.866 0 1.65.4107 2.354 1.232.719.8213 1.078 1.628 1.078 2.42Zm-3.322-1.914c-.542 0-1.107.286-1.694.858-.586.5573-1.085 1.254-1.496 2.09.587.132 1.254.198 2.002.198.748 0 1.401-.1173 1.958-.352.558-.2493.836-.572.836-.968s-.183-.7993-.55-1.21c-.352-.4107-.704-.616-1.056-.616Zm6.165 5.346c1.408-2.3907 2.552-4.1653 3.432-5.324.894-1.1733 1.62-1.76 2.178-1.76.572 0 1.107.3007 1.606.902.513.6013.77 1.2393.77 1.914 0 1.056-.242 2.3467-.726 3.872-.88 2.816-1.672 4.224-2.376 4.224-.323 0-.484-.22-.484-.66 0-.308.154-.9313.462-1.87.322-.9533.616-1.8847.88-2.794.278-.924.418-1.6133.418-2.068 0-.4693-.074-.814-.22-1.034-.132-.22-.272-.33-.418-.33-.132 0-.272.044-.418.132-.147.088-.316.2347-.506.44-.176.2053-.345.4107-.506.616-.162.1907-.367.4693-.616.836-.235.3667-.433.682-.594.946-.162.2493-.396.616-.704 1.1-.308.484-.543.8507-.704 1.1-.162.2493-.374.5867-.638 1.012s-.477.7553-.638.99c-.147.2347-.316.4913-.506.77-.367.5427-.66.814-.88.814-.206 0-.448-.1613-.726-.484-.279-.3373-.418-.6307-.418-.88 0-.0733.051-.2713.154-.594.278-.8507.586-1.8993.924-3.146.337-1.2613.52-2.6913.55-4.29.044-1.0707.198-1.606.462-1.606.322 0 .645.1687.968.506.322.3373.484.7113.484 1.122 0 .396-.125 1.1733-.374 2.332-.235 1.144-.514 2.2147-.836 3.212Zm11.598 1.628c0 .2787.161.418.484.418.557 0 1.232-.154 2.024-.462.807-.3227 1.254-.484 1.342-.484.264 0 .396.1393.396.418 0 .4253-.44.9167-1.32 1.474-.865.5573-1.657.836-2.376.836-.704 0-1.291-.1907-1.76-.572-.469-.396-.704-.7993-.704-1.21 0-.4107.088-.9313.264-1.562.176-.6453.425-1.4887.748-2.53.337-1.056.601-1.9287.792-2.618-.689.1613-1.151.242-1.386.242-.235 0-.469-.1173-.704-.352-.22-.2493-.33-.484-.33-.704 0-.352.953-.6893 2.86-1.012.264-1.2173.396-2.2953.396-3.234 0-.44.147-.66.44-.66.249 0 .557.1613.924.484.367.308.55.66.55 1.056s-.125 1.0927-.374 2.09c.836-.0733 1.503-.11 2.002-.11.88 0 1.32.1907 1.32.572 0 .22-.242.4033-.726.55-.469.1467-1.467.374-2.992.682-.308 1.1587-.697 2.486-1.166 3.982-.469 1.4813-.704 2.3833-.704 2.706Zm17.206-11.308c.147-1.1587.477-2.0167.99-2.574.528-.5573 1.129-.836 1.804-.836.689 0 1.203.1833 1.54.55.352.352.528.792.528 1.32s-.176.792-.528.792c-.161 0-.345-.154-.55-.462-.191-.3227-.44-.484-.748-.484s-.565.2347-.77.704c-.191.4693-.359 1.1953-.506 2.178-.147.968-.257 1.65-.33 2.046.792-.132 1.437-.2787 1.936-.44.513-.176.983-.4253 1.408-.748.836-.616 1.254-1.6793 1.254-3.19s.183-2.266.55-2.266c.308 0 .616.154.924.462.308.308.462.6893.462 1.144 0 1.144-.213 2.9407-.638 5.39-.411 2.4493-.909 4.7153-1.496 6.798s-1.078 3.124-1.474 3.124c-.235 0-.455-.1247-.66-.374-.191-.2493-.286-.506-.286-.77s.132-.8287.396-1.694c.88-2.992 1.452-5.412 1.716-7.26-.88.7627-2.361 1.3127-4.444 1.65-1.012 5.148-1.965 7.8393-2.86 8.074-.205.044-.345-.0293-.418-.22-.103-.044-.198-.132-.286-.264-.088-.132-.117-.2787-.088-.44.029-.176.235-1.056.616-2.64.396-1.584.733-2.9993 1.012-4.246-.205.0147-.462.022-.77.022-.293 0-.557-.1173-.792-.352-.235-.2493-.352-.4693-.352-.66 0-.352.513-.5793 1.54-.682l.748-.11c.235-1.2173.425-2.398.572-3.542Zm14.937 6.336c0-.4987-.08-.968-.242-1.408-.161-.4547-.396-.7847-.704-.99-1.012.2787-1.884 1.0633-2.618 2.354-.718 1.276-1.078 2.4787-1.078 3.608 0 1.1293.279 1.8333.836 2.112 1.056-.2053 1.951-.924 2.684-2.156.748-1.2467 1.122-2.42 1.122-3.52Zm-5.786.198c.514-1.144 1.181-2.0827 2.002-2.816.836-.748 1.687-1.122 2.552-1.122.88 0 1.614.374 2.2 1.122.587.7333.88 1.6353.88 2.706 0 1.056-.256 2.1413-.77 3.256-.513 1.1-1.224 2.0167-2.134 2.75-.894.7187-1.848 1.078-2.86 1.078-.748 0-1.371-.3447-1.87-1.034-.498-.6893-.748-1.562-.748-2.618 0-1.0707.25-2.178.748-3.322Zm17.515-1.606-.154 4.136c0 1.144.051 1.9727.154 2.486.631-.66 1.173-1.43 1.628-2.31.469-.8947.814-1.7233 1.034-2.486.235-.7627.433-1.474.594-2.134.176-.6747.337-1.21.484-1.606.147-.396.315-.594.506-.594.279 0 .528.1173.748.352.22.22.33.4767.33.77 0 .748-.337 1.98-1.012 3.696-.572 1.584-1.32 3.036-2.244 4.356-.924 1.3053-1.643 1.958-2.156 1.958-.513 0-.902-.286-1.166-.858-.249-.572-.389-1.6647-.418-3.278-.029-1.628-.007-3.036.066-4.224-1.012 2.7573-1.907 4.84-2.684 6.248-.777 1.408-1.393 2.112-1.848 2.112-.205 0-.425-.0953-.66-.286-.22-.1907-.396-.44-.528-.748-.323-.7773-.601-2.2587-.836-4.444-.22-2.2-.33-3.7693-.33-4.708 0-.6013.183-.902.55-.902.323 0 .616.1833.88.55.279.3667.44.7333.484 1.1.044.352.081 1.3493.11 2.992.044 1.628.183 3.08.418 4.356.601-1.0413 1.203-2.3467 1.804-3.916.616-1.5693 1.115-2.8013 1.496-3.696.396-.8947.755-1.342 1.078-1.342.484 0 .88.2273 1.188.682.323.44.484 1.0193.484 1.738Z"/>
  <defs>
    <clipPath id="a">
      <path fill="#fff" d="M0 24h70v40H0z"/>
    </clipPath>
  </defs>
</svg>
