<svg xmlns="http://www.w3.org/2000/svg" fill="none" viewBox="0 0 1472 60">
  <path fill="#0F1624" d="m10.031 31.7771 5.1269 5.2739L18 31.8917l-7.1331-1.949L18 27.9937l-2.8978-5.102-5.12697 5.2739L11.9257 21H6.0743l2.0062 7.2803-5.23839-5.3312L0 28.1083 7.0774 30 0 31.9491l2.89783 5.1019 5.12694-5.3312L6.0743 39h5.8514l-1.8947-7.2229Z"/>
  <g fill="#0F1624" clip-path="url(#a)">
    <path d="M134.512 30.6926c0 7.4954-5.913 13.0187-13.17 13.0187s-13.17-5.5233-13.17-13.0187c0-7.5483 5.913-13.0187 13.17-13.0187s13.17 5.4704 13.17 13.0187Zm-5.765 0c0-4.684-3.427-7.8887-7.405-7.8887s-7.405 3.2047-7.405 7.8887c0 4.6369 3.427 7.8886 7.405 7.8886s7.405-3.2576 7.405-7.8886Zm34.179 0c0 7.4954-5.913 13.0187-13.17 13.0187s-13.17-5.5233-13.17-13.0187c0-7.5424 5.913-13.0187 13.17-13.0187s13.17 5.4704 13.17 13.0187Zm-5.765 0c0-4.684-3.427-7.8887-7.405-7.8887s-7.405 3.2047-7.405 7.8887c0 4.6369 3.427 7.8886 7.405 7.8886s7.405-3.2576 7.405-7.8886Zm32.991-12.2322V41.833c0 9.6143-5.717 13.5411-12.477 13.5411-6.363 0-10.193-4.2202-11.637-7.6715l5.019-2.072c.894 2.1189 3.084 4.6193 6.612 4.6193 4.327 0 7.008-2.6471 7.008-7.6304v-1.8724h-.201c-1.29 1.5789-3.776 2.9583-6.913 2.9583-6.565 0-12.579-5.67-12.579-12.9659 0-7.3487 6.014-13.0656 12.579-13.0656 3.131 0 5.617 1.3793 6.913 2.9113h.201v-2.1189h5.475v-.0059Zm-5.066 12.2791c0-4.5841-3.084-7.9356-7.009-7.9356-3.977 0-7.31 3.3515-7.31 7.9356 0 4.5372 3.333 7.8417 7.31 7.8417 3.925 0 7.009-3.3045 7.009-7.8417Zm14.092-25.97775V42.9139h-5.623V4.76175h5.623Zm21.915 30.21555 4.475 2.9583c-1.444 2.1189-4.925 5.7698-10.938 5.7698-7.459 0-13.028-5.717-13.028-13.0187 0-7.742 5.617-13.0187 12.382-13.0187 6.813 0 10.146 5.3765 11.235 8.282l.598 1.4791-17.551 7.2078c1.344 2.612 3.434 3.9444 6.364 3.9444 2.935 0 4.972-1.4322 6.463-3.604Zm-13.774-4.6839 11.732-4.8306c-.645-1.6259-2.587-2.7587-4.871-2.7587-2.93 0-7.009 2.565-6.861 7.5893Zm-120.4287-2.988v-5.5232H105.66c.183.9626.278 2.1013.278 3.3339 0 4.1439-1.142 9.268-4.824 12.9189-3.5811 3.6978-8.1566 5.67-14.2178 5.67-11.2344 0-20.6814-9.0744-20.6814-20.2148s9.447-20.21478 20.6814-20.21478c6.2151 0 10.6426 2.41826 13.9688 5.57022L96.9351 12.743c-2.3854-2.2187-5.6173-3.94432-10.0448-3.94432-8.2039 0-14.6202 6.55632-14.6202 14.69152 0 8.1352 6.4163 14.6915 14.6202 14.6915 5.3213 0 8.3519-2.1189 10.2934-4.0441 1.5745-1.5613 2.6103-3.7917 3.0183-6.838l-13.3117.0058Z"/>
  </g>
  <path fill="#0F1624" d="m285.031 31.7771 5.127 5.2739L293 31.8917l-7.133-1.949 7.133-1.949-2.898-5.102-5.127 5.2739L286.926 21h-5.852l2.006 7.2803-5.238-5.3312L275 28.1083 282.077 30 275 31.9491l2.898 5.1019 5.127-5.3312L281.074 39h5.852l-1.895-7.2229Z"/>
  <path fill="#0F1624" fill-rule="evenodd" d="M373.73 35.1278c5.724 1.9332 7.023 2.0376 7.023 2.0376V16.3768c0-3.5483-2.848-6.42334-6.366-6.42334h-27.019c-3.519 0-6.368 2.87504-6.368 6.42334V43.624c0 3.5461 2.849 6.4226 6.368 6.4226h27.019c3.518 0 6.366-2.8765 6.366-6.4226v-.2628s-10.34-4.3467-15.561-6.8796c-3.503 4.3463-8.02 6.9832-12.71 6.9832-7.931 0-10.625-6.9994-6.869-11.6086.819-1.0045 2.212-1.9632 4.373-2.5009 3.382-.8378 8.765.5231 13.809 2.2013.907-1.6858 1.671-3.5412 2.24-5.5183h-15.547v-1.5889h8.016v-2.8465h-9.708v-1.5884h9.708v-4.0613s0-.6842.687-.6842h3.919v4.7455h9.598v1.5884h-9.598v2.8465h7.835c-.75 3.0981-1.889 5.9491-3.318 8.4523 2.378.8675 4.513 1.6891 6.103 2.2261Z" clip-rule="evenodd"/>
  <path fill="#0F1624" fill-rule="evenodd" d="M350.662 31.7326c-.993.0999-2.857.5426-3.877 1.451-3.056 2.6876-1.228 7.601 4.957 7.601 3.594 0 7.187-2.3178 10.008-6.0291-4.013-1.9756-7.414-3.3894-11.088-3.0229Zm76.659-15.9094c0 2.074 1.515 3.4702 3.629 3.4702 2.115 0 3.63-1.3962 3.63-3.4702 0-2.0343-1.515-3.4699-3.63-3.4699-2.114 0-3.629 1.4356-3.629 3.4699ZM417.189 42.349h6.302V13.2301h-6.302V42.349Zm-20.224-10.0917 3.749-12.9634h.16l3.55 12.9634h-7.459Zm9.174-18.03h-8.456l-9.454 28.1218h5.824l1.595-5.5044h10.013l1.515 5.5044h7.46l-8.497-28.1218Zm21.659 28.1217h6.303V20.9678h-6.303V42.349Zm72.163-21.3405.039-.0395h-5.943l-3.75 13.0033h-.199L485.8 20.969h-7.061l8.497 21.4601-3.55 6.5416v.16h5.544l10.731-28.1222Zm-54.171 17.671c-.718 0-1.396-.08-2.154-.3192V26.793c1.317-.9181 2.394-1.3568 3.75-1.3568 2.353 0 4.228 1.8754 4.228 5.8642 0 5.1053-2.752 7.3791-5.824 7.3791Zm3.989-18.1495c-2.313 0-4.108.8776-6.143 2.5528v-2.1142h-6.303v28.1617h6.303v-6.9806c1.197.3192 2.314.4791 3.67.4791 5.624 0 10.69-4.1487 10.69-11.5285 0-6.6209-3.67-10.5703-8.217-10.5703Zm21.422 16.6334c-1.675.9174-2.633 1.276-3.749 1.276-1.516 0-2.474-.997-2.474-2.5926 0-.5982.12-1.1961.598-1.6752.758-.7575 2.235-1.3166 5.625-2.1142v5.106Zm6.302-.1596v-8.9352c0-4.8665-2.871-7.5391-7.937-7.5391-3.232 0-5.465.5584-9.534 1.795l1.116 4.907c3.71-1.676 5.346-2.394 7.061-2.394 2.075 0 2.992 1.4759 2.992 3.7497v.1595c-7.22 1.3561-9.454 2.1142-10.85 3.5108-1.037 1.0365-1.476 2.5123-1.476 4.2277 0 4.1089 3.192 6.3027 6.183 6.3027 2.234 0 4.029-.8381 6.462-2.6729l.439 2.2343h6.302l-.758-5.3455Z" clip-rule="evenodd"/>
  <path fill="#0F1624" d="m558.031 31.7771 5.127 5.2739L566 31.8917l-7.133-1.949 7.133-1.949-2.898-5.102-5.127 5.2739L559.926 21h-5.852l2.006 7.2803-5.238-5.3312L548 28.1083 555.077 30 548 31.9491l2.898 5.1019 5.127-5.3312L554.074 39h5.852l-1.895-7.2229Z"/>
  <g fill="#0F1624" clip-path="url(#b)">
    <path d="M702.997 16.2007v27.6h-4.754V22.1424h-.064l-8.494 21.6583h-3.169l-8.684-21.6583h-.064v21.6583h-4.373v-27.6h6.846l7.86 20.4445h.126l8.304-20.4445h6.466Zm3.93 2.1084c0-.7667.254-1.4056.824-1.9167.571-.5111 1.205-.7667 1.965-.7667.824 0 1.522.2556 2.029.7667.507.5111.824 1.15.824 1.9167 0 .7666-.254 1.4055-.824 1.9166-.571.5111-1.205.7667-2.029.7667-.824 0-1.458-.2556-1.965-.7667-.507-.575-.824-1.2139-.824-1.9166Zm5.135 5.6861v19.8055h-4.628V23.9952h4.628Zm14.008 16.4194c.698 0 1.458-.1278 2.282-.5111.825-.3194 1.585-.7667 2.282-1.2778v4.3445c-.76.4472-1.584.7666-2.535.9583-.951.1917-1.965.3194-3.106.3194-2.916 0-5.261-.8944-7.036-2.7472-1.839-1.8528-2.726-4.2166-2.726-7.0278 0-3.1944.951-5.8138 2.789-7.8583 1.838-2.0444 4.437-3.0667 7.86-3.0667.888 0 1.775.1278 2.599.3195.888.1917 1.585.5111 2.092.7667v4.4722c-.697-.5111-1.458-.9584-2.155-1.2139-.761-.2556-1.521-.4472-2.282-.4472-1.838 0-3.296.575-4.437 1.7889-1.141 1.2138-1.648 2.8111-1.648 4.8555 0 1.9806.57 3.5778 1.648 4.6639 1.077 1.0861 2.535 1.6611 4.373 1.6611Zm17.686-16.7389c.38 0 .697 0 1.014.0639.317.0639.571.1278.761.1917v4.7278c-.254-.1917-.571-.3834-1.078-.5112-.507-.1277-1.014-.2555-1.711-.2555-1.141 0-2.092.5111-2.853 1.4694-.76.9584-1.204 2.4278-1.204 4.4723v9.9666h-4.628V23.9952h4.628v3.1305h.063c.444-1.0861 1.078-1.9166 1.902-2.5555.887-.575 1.902-.8945 3.106-.8945Zm2.028 10.5417c0-3.2583.951-5.8778 2.726-7.7945 1.838-1.9166 4.374-2.875 7.607-2.875 3.042 0 5.451.8945 7.163 2.7473 1.711 1.8527 2.599 4.3444 2.599 7.475 0 3.1944-.951 5.75-2.726 7.6666-1.838 1.9167-4.311 2.875-7.48 2.875-3.043 0-5.451-.8944-7.226-2.6833-1.775-1.8528-2.663-4.3444-2.663-7.4111Zm4.818-.1917c0 2.0445.444 3.6417 1.394 4.7278.951 1.0861 2.282 1.6611 3.994 1.6611 1.648 0 2.979-.5111 3.867-1.6611.887-1.0861 1.331-2.6833 1.331-4.8556 0-2.1083-.444-3.7055-1.331-4.8555-.888-1.0861-2.219-1.6611-3.804-1.6611-1.711 0-2.979.575-3.93 1.725-1.077 1.2139-1.521 2.8111-1.521 4.9194Zm22.186-4.7916c0 .6388.19 1.2138.634 1.5972.444.3833 1.331.8305 2.789 1.4055 1.838.7667 3.169 1.5973 3.867 2.4917.76.9583 1.141 2.0444 1.141 3.3861 0 1.8528-.698 3.3222-2.156 4.4722-1.394 1.15-3.359 1.6611-5.768 1.6611-.824 0-1.711-.1277-2.726-.3194-1.014-.1917-1.838-.4472-2.535-.7667v-4.6c.824.575 1.775 1.0861 2.725 1.4056.951.3194 1.839.5111 2.663.5111 1.014 0 1.838-.1278 2.282-.4472.507-.3195.76-.7667.76-1.4695 0-.6389-.253-1.15-.76-1.6611-.507-.4472-1.522-.9583-2.916-1.5333-1.712-.7028-2.916-1.5333-3.613-2.4278-.698-.8944-1.078-2.0444-1.078-3.45 0-1.7889.697-3.2583 2.092-4.4083 1.395-1.15 3.233-1.725 5.451-1.725.698 0 1.458.0639 2.282.2555.824.1917 1.585.3834 2.156.575v4.5361c-.634-.3833-1.332-.7666-2.156-1.0861-.824-.3194-1.648-.4472-2.408-.4472-.888 0-1.585.1917-2.029.5111-.444.4472-.697.8945-.697 1.5334Zm10.396 4.9833c0-3.2583.95-5.8778 2.725-7.7945 1.839-1.9166 4.374-2.875 7.607-2.875 3.043 0 5.451.8945 7.163 2.7473 1.711 1.8527 2.599 4.3444 2.599 7.475 0 3.1944-.951 5.75-2.726 7.6666-1.838 1.9167-4.31 2.875-7.48 2.875-3.042 0-5.451-.8944-7.226-2.6833-1.712-1.8528-2.662-4.3444-2.662-7.4111Zm4.817-.1917c0 2.0445.444 3.6417 1.395 4.7278.951 1.0861 2.282 1.6611 3.993 1.6611 1.648 0 2.979-.5111 3.867-1.6611.887-1.0861 1.331-2.6833 1.331-4.8556 0-2.1083-.444-3.7055-1.331-4.8555-.888-1.0861-2.219-1.6611-3.803-1.6611-1.712 0-2.98.575-3.931 1.725-1.014 1.2139-1.521 2.8111-1.521 4.9194Zm30.68-6.1972h-6.909v15.9722h-4.691V27.8285h-3.296v-3.8333h3.296v-2.7473c0-2.0444.697-3.7694 2.029-5.1111 1.331-1.3416 3.042-1.9805 5.134-1.9805.571 0 1.078.0639 1.521.0639.444 0 .824.1277 1.141.2555v4.025c-.126-.0639-.443-.1916-.824-.3194-.38-.1278-.824-.1917-1.331-.1917-.951 0-1.711.3195-2.218.8945-.508.575-.761 1.5333-.761 2.6833v2.3639h6.909v-4.4722l4.628-1.4056v5.8778h4.69v3.8333h-4.69v9.2639c0 1.2139.253 2.0444.634 2.5556.443.5111 1.141.7666 2.091.7666.254 0 .571-.0639.951-.1916.38-.1278.697-.2556.951-.4473v3.8334c-.317.1916-.761.3194-1.458.4472-.697.1278-1.331.1917-2.028.1917-1.965 0-3.423-.5112-4.374-1.5334-.951-1.0222-1.458-2.6194-1.458-4.7278l.063-10.0944ZM635.679 7.00003H614V28.85h21.679V7.00003Zm23.961 0h-21.679V28.85h21.679V7.00003ZM635.679 31.1504H614v21.85h21.679v-21.85Zm23.961 0h-21.679v21.85h21.679v-21.85Z"/>
  </g>
  <path fill="#0F1624" d="m886.031 31.7771 5.127 5.2739L894 31.8917l-7.133-1.949 7.133-1.949-2.898-5.102-5.127 5.2739L887.926 21h-5.852l2.006 7.2803-5.238-5.3312L876 28.1083 883.077 30 876 31.9491l2.898 5.1019 5.127-5.3312L882.074 39h5.852l-1.895-7.2229Z"/>
  <path fill="#0F1624" fill-rule="evenodd" d="M967.192 14.362c.049-.2816.098-.5634.147-.8451.324-1.8724.649-3.74548 1.079-5.60058.432-1.88807 1.056-3.76518 2.187-5.35281.814-1.14249 1.992-2.122699 3.359-2.469173 2.331-.592075 3.3 1.719213 2.491 3.681833-.476 1.15128-1.42 1.90915-2.359 2.66368-.411.33055-.822.66046-1.192 1.02253-1.866 1.82768-2.654 4.71412-3.238 7.33022 10.115 2.3568 17.569 11.5895 17.491 22.4995-.082 11.7384-9.096 21.6218-20.633 22.6172-9.86.892-19.137-4.8598-22.865-14.1757-3.727-9.316-1.031-20.0125 6.645-26.3616.278-.2277.561-.4491.849-.6641-.518-1.0768-1-2.1711-1.447-3.2809-.758-1.739-1.311-3.5629-1.646-5.43397-.054-.33768-.1-.6776-.132-1.01748-.032-.33989-.052-.61621-.063-.92541-.036-.81415.07-1.6284.311-2.40557.189-.61935.545-1.17249 1.028-1.5964.941-.77891 2.323-.64401 3.101.3026 1.327 1.61296.976 3.8427.647 5.92733-.128.8118-.253 1.6016-.273 2.3244-.044 1.5321.296 3.1002.803 4.5643.299-.1731.603-.336.907-.4986.824-.4414 1.644-.8808 2.359-1.5153.295-.2637.532-.6365.771-1.0115.362-.57.728-1.1452 1.307-1.3502.744-.2625 1.529.2242 2.182.6294.116.0721.228.1416.335.2038.727.3885 1.536.5888 2.357.5833.293.0105.588.0105.884.0105.325-.0001.65-.0001.975.0137.55.0237 1.095.0673 1.633.1301Zm52.058 3.0519c-.91-.1831-1.82-.1737-2.75.0221 0 5.6133 0 11.195.01 16.7894.95.202 1.89.202 2.85-.0064V22.7767c0-.4838 0-.968.03-1.4575.09.0663.15.1357.2.2115 2.3 3.1508 4.47 6.3773 6.53 9.6859.42.6744.83 1.3538 1.24 2.0333v.0036c.15.2483.3.4965.45.7445.01.0121.01.0242.02.0362v.0008c.06.101.12.1966.27.2219.63.1042 1.27.1547 1.92.0884.18-.0178.35-.0432.52-.0682v-.0001h.01c.1-.0147.2-.0293.3-.0422.06-.4514.04-16.581-.02-16.802-.95-.2368-2.31-.1736-2.81.0316v.0134c0 .005-.01.01-.01.015v.0316l-.01.0087v11.8556l-.01.0071c0 .0172 0 .0363-.01.0529 0 .0095-.01.0189-.02.0221 0 .0019-.01.0015-.02.0009-.01-.0004-.01-.0009-.02-.0009-.07-.104-.15-.2173-.22-.3307v-.0008c-1.91-3.0403-3.9-6.0269-6.08-8.8872-.5-.6688-1.03-1.3237-1.57-1.9789v-.0021c-.18-.2286-.37-.4574-.55-.6867-.06-.0758-.16-.1516-.25-.1705Zm-5.18 38.8731c-.68.2433-1.52.2558-2.21.0318v-.7884c0-.1603.01-.3205-.01-.4807-.02-.2623-.16-.357-.41-.2495-.15.0663-.3.1579-.44.2526-.91.6062-1.89 1.0576-2.94 1.3511-3.96 1.0987-7.7-.6754-9.427-4.1893-.57-1.1586-.852-2.39-.916-3.675-.079-1.6069.19-3.1508.922-4.5872 1.287-2.5192 3.341-4.0441 6.151-4.5242 1.62-.2778 3.24-.1451 4.82.2907 1.44.3944 2.63 1.1807 3.63 2.2666.25.2643.48.541.71.8274.13.148.25.2986.38.4514-.31.2341-.63.4635-.94.6918v.0004c-.41.3041-.82.6063-1.24.9146-.08-.0974-.15-.1874-.22-.2765l-.02-.0266c-.86-1.0953-1.91-1.9289-3.27-2.3046-1.6-.439-3.18-.4137-4.7.3221-1.58.7704-2.65 2.0108-3.12 3.6937-.49 1.7302-.31 3.4286.56 5.0101.96 1.7302 2.47 2.6302 4.45 2.7311 1.09.0567 2.15-.0947 3.14-.5872 1.22-.6093 2.06-1.5501 2.42-2.8794.05-.1644.07-.3346.09-.5175v-.0004c.02-.094.03-.1915.04-.2932h-4.96v-2.3268c.23-.0632 7.07-.0822 7.51-.019v8.8901Zm70.86-10.232s-.06.3695-.1.5527c-.49 2.2541-1.89 3.6179-4.11 4.1706-.59.1452-1.19.1766-1.79.1797-.96.0069-1.93.0056-2.89.0042l-.5-.0006c-.22-.0003-.44-.0005-.67-.0005h-.38c-.02.2536-.02.4983-.02.7412.01.1109.01.2215.01.3323-.01.2372-.01.4745-.01.7126v.0013c.01.1196.01.2395.01.3596v3.2769c-.99.1991-1.96.2115-2.95.0066V39.6399c.04-.0022.07-.0051.1-.008v-.0001c.06-.0055.12-.0109.18-.0109h7.16c.99 0 1.96.1358 2.87.5274 1.67.7165 2.65 1.9953 3.01 3.7507.04.1514.08.4576.08.4576s.07.5191.07.8509-.07.8475-.07.8475Zm-10.44 2.2638c.03.0021.05.0045.08.0068.05.0048.1.0091.15.0091.3 0 .6.0003.91.0006 1.08.0011 2.16.0022 3.24-.0102.37-.0031.76-.0536 1.12-.1359 1.06-.2336 1.8-.8239 2.06-1.9037.17-.7071.15-1.4205-.02-2.1245-.2-.8209-.7-1.3669-1.51-1.6448-.4-.139-.81-.2306-1.24-.2399-1.32-.022-2.65-.0297-3.97-.0373h-.01l-.64-.0038c-.04 0-.08.0114-.11.0227-.02.0054-.04.0109-.06.015v6.0459Zm-40.8-.3253c.02-4.846 3.95-8.7232 8.82-8.6914 4.74.0315 8.7 3.8074 8.68 8.7325-.01 5.0199-4.12 8.7326-8.82 8.6945-4.8-.0411-8.71-3.9587-8.68-8.7356Zm2.91.0252c.01 3.195 2.62 5.7965 5.83 5.7996 3.22.0062 5.84-2.6202 5.83-5.8217-.02-3.2011-2.64-5.7995-5.84-5.7867-3.21.0093-5.82 2.6232-5.82 5.8088Zm-18.87-8.4122c-.02.0018-.04.0035-.07.0051-.06.3535-.05 16.5494.02 16.7862.98.1987 2.1.1925 2.88-.0315v-6.2986c.03-.0089.04-.0167.05-.0228.02-.0093.03-.0149.05-.0149.25 0 .5-.0036.76-.0071.81-.0115 1.62-.023 2.43.0828.82.1075 1.55.4041 2.13 1.0072.04.0418.08.0834.12.1251.18.1852.36.3709.52.5692.63.7704 1.16 1.6041 1.65 2.4692.35.6345.7 1.2722 1.05 1.9099.07.1389.16.2146.33.2398.65.0978 1.3.139 1.96.0947.39-.0252.79-.0788 1.19-.2208-.02-.0248-.03-.047-.03-.0671-.02-.0338-.03-.062-.05-.0878-.23-.3505-.46-.703-.69-1.0554-.51-.7961-1.03-1.5921-1.58-2.3669-.9-1.2785-1.96-2.3897-3.45-3.018-.05-.021-.1-.0589-.16-.1129-.04-.0269-.07-.0577-.12-.0924.06-.0166.11-.0318.15-.0452.08-.0275.15-.0474.21-.0557.55-.0726 1.07-.2146 1.58-.4327 1.23-.5271 2.15-1.3639 2.63-2.6233.32-.8053.35-1.6448.27-2.4878-.06-.7072-.25-1.386-.62-2.0019-.51-.8492-1.28-1.389-2.2-1.7205-1.07-.385-2.19-.5208-3.33-.527-2.08-.0107-4.16-.0103-6.25-.0099l-1.22.0002c-.07 0-.14.0054-.21.0108Zm2.88 7.8853c-.07-.2306-.09-4.8968-.02-5.4145.02-.0029.04-.006.06-.009.05-.007.09-.0132.14-.0132.4.0016.81.0025 1.22.0035h.01c1.25.003 2.49.0059 3.74.0249.42.0065.84.0791 1.25.18 1.01.2527 1.5.8081 1.63 1.8405.07.5367.04 1.0735-.15 1.5881-.24.666-.73 1.0956-1.36 1.3766-.68.3063-1.42.42-2.16.4293-1.01.0136-2.01.0109-3.02.0083-.41-.001-.82-.0021-1.22-.0021-.03 0-.05-.0036-.08-.007-.01-.0021-.03-.0042-.04-.0054Zm-6.25-13.2726c-1.01.2115-1.98.1989-2.98.0063-.01-.0309-.02-.0623-.03-.0941-.02-.0526-.04-.1065-.06-.1616-.08-.2647-.16-.5292-.24-.7936-.22-.7005-.43-1.4001-.64-2.1014-.1-.3631-.31-.5936-.66-.7483-.9-.4167-1.86-.6093-2.83-.7419-1.5-.2052-2.99-.1294-4.49.0063-.07.0069-.15.0219-.23.038-.03.0063-.06.0127-.09.0189l-.11.3269c-.13.4025-.27.8008-.4 1.2011l-.01.0445v.0003c-.29.9164-.58 1.8329-.85 2.7555-.06.1926-.15.2652-.34.2968-.905.1484-1.801.1294-2.733-.0505 1.695-5.7807 3.803-11.3782 6.363-16.8147h3.99c2.57 5.4113 4.69 11.0025 6.34 16.8115Zm-5.1-6.6204c-.01-.0416-.02-.0786-.03-.1123v-.0003c-.03-.0814-.05-.1438-.07-.2063-.84-2.4025-1.81-4.7514-2.82-7.0876-.01-.0219-.02-.045-.03-.0686v-.0014c-.04-.126-.1-.263-.26-.271-.18-.0081-.24.1409-.29.2773l-.01.0261-.01.0232-.01.0144c-1.05 2.4183-2.05 4.8619-2.89 7.3623-.02.0584-.03.1185-.05.1949v.0004c-.01.0308-.01.0643-.02.1015 2.15-.6283 4.29-.5778 6.49-.2526Zm58.81 12.0346c-.75-.2115-2.14-.2115-2.92.0031v9.7207c0 .6442-.05 1.285-.25 1.9005-.36 1.0735-1.01 1.8816-2.07 2.3427-.86.3757-1.77.4641-2.7.3283-1.67-.243-2.79-1.1554-3.28-2.7878-.18-.5903-.21-1.1965-.21-1.809v-9.7175c-1.01-.1925-1.96-.1956-2.93 0l-.01.0512v.0375c-.01.0643-.01.1227-.01.1798v2.4883c0 2.4843 0 4.9672.01 7.4501 0 .6062.07 1.2218.19 1.8152.47 2.2573 1.76 3.8423 3.97 4.603 2 .6947 4.04.6885 6.06.0066 1.84-.6221 3.09-1.8753 3.73-3.7161.33-.9439.44-1.9227.44-2.9171v-9.7175c0-.0648 0-.1278-.01-.1883v-.0331c0-.0137-.01-.0272-.01-.0406Zm-28.57-19.4791h-6.09v-2.6867h15.32v2.6804h-6.08v14.0679c-1.06.2084-2.09.2115-3.14.0032-.01-4.682-.01-9.3545-.01-14.0648Zm-53.983 14.0042c-.73-8.5522-7.458-15.4883-15.01-15.4773-7.553.0109-13.034 6.9185-12.304 15.4312.729 8.5126 7.395 15.451 14.933 15.4863 7.537.0349 13.109-6.8769 12.381-15.4402Zm-3.935 9.7056c-1.898 2.1888-4.605 3.479-7.475 3.5634-3.238.1009-6.413-1.2322-8.964-3.7542-2.576-2.5649-4.181-5.9692-4.533-9.6157-.389-3.8945.71-7.6334 3.022-10.2604 1.902-2.1888 4.614-3.4763 7.488-3.5547h.338c3.178 0 6.303 1.4056 8.788 3.9472 2.497 2.571 4.042 5.9404 4.373 9.5368.361 3.8397-.755 7.5368-3.037 10.1376Z" clip-rule="evenodd"/>
  <path fill="#0F1624" d="m1143.03 31.7771 5.13 5.2739 2.84-5.1593-7.13-1.949 7.13-1.949-2.9-5.102-5.13 5.2739L1144.93 21h-5.86l2.01 7.2803-5.24-5.3312-2.84 5.1592L1140.08 30l-7.08 1.9491 2.9 5.1019 5.12-5.3312L1139.07 39h5.86l-1.9-7.2229Z"/>
  <path fill="#0F1624" fill-rule="evenodd" d="m1210.51 9.17966 24.54 6.84174V29.41l-9.2 2.132v-13.12c0-1.1431-.76-2.1488-1.85-2.4677l-13.49-3.9404V9.17966Zm26.65 23.96124-11.31 2.6204v11.346c0 1.1856-.81 2.2174-1.96 2.497l-21.1 5.1504c-1.93.4713-3.79-.9991-3.79-2.9965V12.7618c0-2.0544 1.96-3.53432 3.92-2.96128l3.49 1.01908V6.81409c0-1.52906 1.45-2.63724 2.92-2.22859l27.94 7.7873c1.11.3086 1.87 1.3216 1.87 2.4763V30.637c0 1.1967-.82 2.2351-1.98 2.5039Zm-15.4-13.5612v12.9099l-11.25 2.6058v-18.8l11.25 3.2843Zm-15.35 17.7762V15.1011l-3.32-.9704v36.3201l18.67-4.5558v-9.1861l-12.53 2.9007c-1.44.334-2.82-.7666-2.82-2.2537Zm158.81.8792c-.49-.3019-.97-.6039-1.46-.9122-.97 1.4647-2.56 2.9551-4.01 3.8802-1.79 1.1307-3.71 1.9787-5.89 1.953-.92 0-1.84-.1028-2.76-.2313-1.53-.1799-2.86-.8994-4.14-1.7474-1.53-1.0279-2.76-2.3641-3.76-3.9059-1.28-1.953-1.92-4.1629-2.07-6.4756-.08-1.0793.03-2.1843.21-3.2378.17-1.1307.43-2.2871.87-3.3406.61-1.5162 1.55-2.878 2.71-4.0601 2.22-2.287 4.9-3.5462 8.1-3.649.77-.0257 2.28.2056 2.28.2056s2.73.5664 4.24 1.4647c1.92 1.1415 2.97 2.6311 3.99 4.0958.45-.2862 1.01-.5881 1.58-.8965v-.0003c.56-.3007 1.12-.6075 1.62-.9119-.24-.3137-.47-.6298-.7-.9429-.5-.6875-.99-1.3606-1.55-1.9609-2.36-2.5183-5.27-4.1115-8.65-4.5997-2.37-.3341-4.83-.2827-7.16.4882-2.27.7709-4.32 2.0044-5.98 3.7775-.89.9507-1.74 2.0043-2.48 3.1093-1.38 2.0814-2.15 4.4712-2.35 6.9638-.15 1.953-.21 3.9316.18 5.9103.3 1.5418.74 3.0322 1.43 4.4455 1.48 3.0323 3.66 5.4992 6.57 7.2723 1.59.9764 3.32 1.6446 5.17 1.7987 1.68.1285 3.42.0257 5.11-.2055 1.25-.1799 2.5-.5654 3.66-1.105 2.86-1.3876 5.06-3.5205 6.69-6.27-.48-.3084-.97-.6103-1.45-.9123Zm58.57-12.7483s-.15.7098-.25 1.1209c-.49 1.7731-1.64 3.0836-2.97 4.24-1.51 1.3362-3.27 2.2099-5.29 2.3127-1.94.1028-6.34 0-6.34 0v-3.2892s3.37.0257 4.7-.0771c2.59-.2055 4.63-1.3876 5.88-3.6746.7-1.2592.85-2.6982.46-4.1887-.69-2.5697-2.42-3.9573-4.83-4.7025-.51-.1542-1.07-.257-1.61-.2827-1.63-.0171-3.27-.0115-4.94-.0058-.84.0029-1.69.0058-2.55.0058v29.3459h-4.04V13.1938c.98 0 2.04-.0065 3.13-.0132 2.64-.0164 5.47-.0339 7.86.039 3.76.1027 6.96 1.4904 9.29 4.5997.79 1.0536 1.33 2.2099 1.5 3.5205 0 0 .21 1.2708.21 2.0913 0 .8069-.21 2.0557-.21 2.0557Zm-112.04 23.5123c.93-.5396 2-1.1661 2.94-1.7057 3.15 4.6511 7.29 6.527 12.48 3.7517 3.22-1.7217 4.45-4.5226 3.97-8.0431-.04.0216-.08.0412-.11.0605v.0003c-.09.0494-.18.0967-.25.1705-1.41 1.5161-3.2 2.3898-5.12 2.9808-.65.2031-1.36.2557-2.04.3065l-.03.0019c-.59.0385-1.19.0337-1.78.0289-.2-.0016-.4-.0032-.6-.0032-2.68-.0771-4.93-1.2078-6.92-2.9295-1.72-1.4904-3-3.2892-3.76-5.422-.31-.848-.46-1.7474-.59-2.6468-.13-.7195-.23-1.4904-.18-2.21.28-5.0879 2.58-8.9168 7.13-11.2809 2.2-1.1564 4.55-1.4905 6.96-1.2078 2.17.257 4.17 1.0793 5.9 2.4926 1.72 1.362 3.15 2.9295 4.04 4.9339.41.925.77 1.9272.9 2.9037.36 2.8915.31 5.7831.26 8.6746-.02 1.6311-.05 3.2622-.01 4.8934.06 2.0557-.53 3.9316-1.73 5.6019-1.38 1.8759-3.17 3.2378-5.35 4.1372-1.86.7709-3.78 1.1307-5.78.9765-2.37-.2056-4.62-.8223-6.62-2.2356-1.38-.9765-2.5-2.1329-3.35-3.5976-.05-.0771-.33-.5556-.36-.6327Zm10.77-24.3704c-4.76-.2827-9.13 4.3428-8.95 9.4565.15 4.5997 3.99 8.9168 9.13 8.8397 4.52-.0514 8.56-4.1629 8.51-9.4308-.05-4.3171-4.01-9.1995-8.69-8.8654Zm72.66 21.6114h4.25l-.19-.4342c-.72-1.6605-1.4-3.2175-2.01-4.7309-.25-.6059-.5-1.2118-.75-1.8158v-.0035c-.36-.8551-.71-1.7066-1.07-2.5492-.58-1.4136-1.19-2.841-1.79-4.262-.22-.5163-.44-1.0318-.66-1.5455l-2.61-6.1672c-.51-1.182-1-2.3639-1.49-3.5459v-.0006c-.24-.5909-.49-1.1819-.73-1.7728-.3-.6957-.68-1.542-1.07-2.419-.59-1.326-1.22-2.7221-1.63-3.7739l-3.94-.0001c-.6 1.2703-1.28 2.8292-1.87 4.1932-.12.2639-.23.5205-.34.7663-.57 1.2745-1.14 2.558-1.7 3.8451v.0007l-.01.0083c-.39.8898-.78 1.7814-1.18 2.673-.66 1.4995-1.33 2.989-2.01 4.481v.0017c-.41.8852-.81 1.7713-1.21 2.661-.54 1.195-1.06 2.4028-1.59 3.6106-.52 1.2077-1.04 2.4154-1.58 3.6102-.67 1.5327-1.37 3.0549-2.07 4.5936v.0019c-.39.8598-.78 1.7248-1.18 2.5997h4.71c3.98-9.3537 7.97-18.656 12.06-28.1895 1.17 2.7764 2.29 5.4901 3.42 8.194v.0145l.02.0348c.77 1.8593 1.54 3.7141 2.32 5.5816-.64 0-1.37.0037-2.14.0077-2.09.0107-4.49.0229-6.1-.0334l-1.58 3.392h11.04c.3.6937.66 1.4838 1.01 2.2739v.0013c.36.7898.72 1.5796 1.01 2.2731.9 2.1329 1.79 4.2914 2.66 6.4243Zm-137.12-12.8999v-3.5205s2.2-.0257 3.3 0c1.43.0257 2.81-.1285 4.09-.7966 1.76-.9251 3.22-2.2871 3.53-4.2914.48-3.0837-.31-5.2165-3.45-6.9896-1.03-.5654-2.13-.848-3.3-.848-1.14 0-2.39.0128-3.63.0257-1.25.0128-2.49.0256-3.63.0256v29.2689h-4.07V13.2194c1.12 0 2.34-.0108 3.58-.0219 2.61-.0231 5.36-.0476 7.7.0219 3.12.1028 5.9 1.1821 8.13 3.4691 1.17 1.2077 1.97 2.6211 2.38 4.2657.38 1.5162.41 3.0323.12 4.5227-.41 2.2099-1.61 4.0087-3.37 5.4734-1.28 1.0536-2.71 1.7217-4.27 2.1586-.51.1542-1.64.2313-1.64.2313h-5.47Zm44.72 12.8998v-4.2827c.01-3.4034.01-6.7997-.03-10.2103-.02-2.4926-1.3-4.3428-3.24-5.7818-1.66-1.2335-3.56-1.3106-5.42-.9765-1.69.3083-3.02 1.336-4.04 2.7236-.97 1.2848-1.36 2.7241-1.33 4.343.03 2.5589.02 5.3702.02 8.145v.0046c0 2.0723-.01 4.1241 0 6.0351h-3.83v-.6167c0-1.3943-.01-2.7886-.02-4.183v-.0019c-.02-3.4874-.04-6.9749.07-10.4623.1-3.2892 1.74-5.9106 4.37-7.8892 1.08-.7966 2.25-1.3876 3.53-1.6959 1.56-.3598 3.14-.4626 4.78-.1542 1.51.2827 2.86.7709 4.14 1.5931 1.74 1.1563 3.02 2.6982 3.86 4.6254.75 1.696 1 3.4694 1 5.3195 0 1.6816-.01 3.4804-.02 5.3034v.0072c-.01 2.7714-.02 5.5984-.01 8.1546-.68-.0177-1.74-.011-2.68-.0051-.42.0026-.82.0051-1.15.0051Zm-22.27-23.5901h-3.76v23.5898h3.76V22.6499Zm0-4.9336h-3.78v-3.8288h3.78v3.8288Z" clip-rule="evenodd"/>
  <defs>
    <clipPath id="a">
      <path fill="#fff" d="M66 3.00003h161v54H66z"/>
    </clipPath>
    <clipPath id="b">
      <path fill="#fff" d="M614 7.00003h214v46H614z"/>
    </clipPath>
  </defs>
</svg>
