<svg width="6" height="6" viewBox="0 0 6 6" fill="none" xmlns="http://www.w3.org/2000/svg">
<path d="M5.26219 2.57387L1.25119 0.142622C1.17535 0.0966963 1.08866 0.0717616 1.00001 0.0703738C0.911365 0.0689859 0.823941 0.0911948 0.746703 0.134724C0.669464 0.178253 0.605189 0.241538 0.560465 0.318091C0.515741 0.394644 0.492177 0.481712 0.492188 0.570372V5.43287C0.49215 5.52157 0.515708 5.60868 0.560445 5.68527C0.605181 5.76186 0.669487 5.82517 0.746764 5.86871C0.824042 5.91224 0.91151 5.93444 1.0002 5.93302C1.08888 5.9316 1.17559 5.90661 1.25144 5.86062L5.26219 3.42937C5.33577 3.38483 5.39663 3.32206 5.43886 3.24713C5.4811 3.1722 5.50329 3.08764 5.50329 3.00162C5.50329 2.91561 5.4811 2.83105 5.43886 2.75611C5.39663 2.68118 5.33577 2.61841 5.26219 2.57387Z" fill="currentColor"/>
</svg>
