<svg width="96" height="96" viewBox="0 0 96 96" fill="none" xmlns="http://www.w3.org/2000/svg">
<path d="M86.5 50.9975C86.5 50.3753 86.3341 49.7643 86.0194 49.2275L69.6069 21.23C68.9787 20.1584 67.8296 19.5 66.5874 19.5H29.4126C28.1704 19.5 27.0213 20.1584 26.3931 21.23L9.98057 49.2275C9.66588 49.7643 9.5 50.3753 9.5 50.9975V73C9.5 74.933 11.067 76.5 13 76.5H83C84.933 76.5 86.5 74.933 86.5 73V50.9975Z" fill="white" stroke="#172136" stroke-width="3" stroke-miterlimit="10" stroke-linecap="square"/>
<mask id="mask0_202_41" style="mask-type:alpha" maskUnits="userSpaceOnUse" x="11" y="21" width="74" height="54">
<path d="M84.7254 49.9861C84.9052 50.2928 85 50.642 85 50.9975V73C85 74.1046 84.1046 75 83 75H13C11.8954 75 11 74.1046 11 73V50.9975C11 50.642 11.0948 50.2928 11.2746 49.9861L27.6872 21.9886C28.0461 21.3762 28.7028 21 29.4126 21H66.5874C67.2972 21 67.9539 21.3762 68.3128 21.9886L84.7254 49.9861Z" fill="#1FD68A"/>
</mask>
<g mask="url(#mask0_202_41)">
<path d="M89.7254 49.9861C89.9052 50.2928 90 50.642 90 50.9975V73C90 74.1046 89.1046 75 88 75H18C16.8954 75 16 74.1046 16 73V50.9975C16 50.642 16.0948 50.2928 16.2746 49.9861L32.6872 21.9886C33.0461 21.3762 33.7028 21 34.4126 21H71.5874C72.2972 21 72.9539 21.3762 73.3128 21.9886L89.7254 49.9861Z" fill="#3DB8F5"/>
</g>
<path d="M9 50L87 50" stroke="#172136" stroke-width="3" stroke-miterlimit="10"/>
<path d="M26 63H70" stroke="#172136" stroke-width="3" stroke-miterlimit="10" stroke-linecap="round"/>
</svg>
