<svg width="72" height="72" viewBox="0 0 72 72" fill="none" xmlns="http://www.w3.org/2000/svg">
<path d="M48.0058 34.1315L48.005 39.1423L48.0088 15.5066C48.0094 11.8061 40.572 11.4808 40.354 15.8985C40.3508 15.964 40.3166 34.4243 40.3166 34.4919V14.4919C40.3166 10.759 38.0266 9.6475 36.1931 9.5083H35.8072C33.9739 9.6475 31.6834 10.759 31.6838 14.4919V34.4919C31.6838 34.4243 31.6496 15.964 31.6464 15.8985C31.4284 11.4808 23.991 11.8061 23.9916 15.5066L23.9954 39.1423L23.9946 34.1315C22.6087 31.2198 18.5905 28.1669 16.0791 30.3952C16.016 36.4903 16.7136 42.5695 18.1559 48.4919C21.4732 57.3201 25.8634 62.288 35.6295 62.4741V62.4919C35.7268 62.4919 35.8152 62.4839 35.9115 62.483C36.0077 62.4839 36.096 62.4919 36.1932 62.4919V62.4742C45.9661 62.2882 50.5273 57.32 53.8446 48.4919C55.2745 42.5673 55.972 36.4897 55.9214 30.3952C53.4102 28.1669 49.3917 31.2201 48.0058 34.1315Z" fill="#2BCAFC"/>
<path d="M36.1255 40.9548C42.2473 40.9548 47.21 47.4598 47.21 47.4598C47.21 47.4598 42.2473 53.9648 36.1255 53.9648C30.0037 53.9648 25.041 47.46 25.041 47.46C25.041 47.46 30.0037 40.9548 36.1255 40.9548Z" fill="white"/>
<path d="M36.2052 53.1549C39.4331 53.1549 42.0499 50.5381 42.0499 47.3101C42.0499 44.0821 39.4331 41.4653 36.2052 41.4653C32.9772 41.4653 30.3604 44.0821 30.3604 47.3101C30.3604 50.5381 32.9772 53.1549 36.2052 53.1549Z" fill="#61B2E4"/>
<path d="M48.0058 34.1315L48.005 39.1423L48.0088 15.5066C48.0094 11.8061 40.572 11.4808 40.354 15.8985C40.3508 15.964 40.3166 34.4243 40.3166 34.4919V14.4919C40.3166 10.759 38.0266 9.6475 36.1931 9.5083H35.8072C33.9739 9.6475 31.6834 10.759 31.6838 14.4919V34.4919C31.6838 34.4243 31.6496 15.964 31.6464 15.8985C31.4284 11.4808 23.991 11.8061 23.9916 15.5066L23.9954 39.1423L23.9946 34.1315C22.6087 31.2198 18.5905 28.1669 16.0791 30.3952C16.016 36.4903 16.7136 42.5695 18.1559 48.4919C21.4732 57.3201 25.8634 62.288 35.6295 62.4741V62.4919C35.7268 62.4919 35.8152 62.4839 35.9115 62.483C36.0077 62.4839 36.096 62.4919 36.1932 62.4919V62.4742C45.9661 62.2882 50.5273 57.32 53.8446 48.4919C55.2745 42.5673 55.972 36.4897 55.9214 30.3952C53.4102 28.1669 49.3917 31.2201 48.0058 34.1315Z" stroke="black" stroke-width="2" stroke-linecap="round" stroke-linejoin="round"/>
<path d="M36.1262 40.428C42.744 40.428 48.1088 47.46 48.1088 47.46C48.1088 47.46 42.744 54.492 36.1262 54.492C29.5084 54.492 24.1436 47.4602 24.1436 47.4602C24.1436 47.4602 29.5084 40.428 36.1262 40.428Z" stroke="black" stroke-width="1.9984" stroke-linecap="round" stroke-linejoin="round"/>
<path d="M36.2057 49.9985C37.6903 49.9985 38.8938 48.795 38.8938 47.3104C38.8938 45.8258 37.6903 44.6223 36.2057 44.6223C34.7211 44.6223 33.5176 45.8258 33.5176 47.3104C33.5176 48.795 34.7211 49.9985 36.2057 49.9985Z" fill="black"/>
<path d="M36.2052 53.1552C39.4331 53.1552 42.0499 50.5384 42.0499 47.3104C42.0499 44.0824 39.4331 41.4656 36.2052 41.4656C32.9772 41.4656 30.3604 44.0824 30.3604 47.3104C30.3604 50.5384 32.9772 53.1552 36.2052 53.1552Z" stroke="black" stroke-width="1.9984" stroke-linecap="round" stroke-linejoin="round"/>
</svg>
