<svg width="68" height="83" viewBox="0 0 68 83" fill="none" xmlns="http://www.w3.org/2000/svg">
<mask id="mask0_245_57" style="mask-type:alpha" maskUnits="userSpaceOnUse" x="0" y="51" width="68" height="32">
<path d="M0 51V71.6316C0 77.8842 15.3 83 34 83C52.7 83 68 77.8842 68 71.6316V51" fill="#3DB8F5"/>
</mask>
<g mask="url(#mask0_245_57)">
<path d="M7 51V71.6316C7 77.8842 22.3 83 41 83C59.7 83 75 77.8842 75 71.6316V51" fill="#EC93EC"/>
</g>
<mask id="path-3-inside-1_245_57" fill="white">
<path d="M0 51V71.6316C0 77.8842 15.3 83 34 83C52.7 83 68 77.8842 68 71.6316V51"/>
</mask>
<path d="M3 51C3 49.3431 1.65685 48 0 48C-1.65685 48 -3 49.3431 -3 51H3ZM71 51C71 49.3431 69.6569 48 68 48C66.3431 48 65 49.3431 65 51H71ZM-3 51V71.6316H3V51H-3ZM-3 71.6316C-3 74.5133 -1.23626 76.779 0.82741 78.4032C2.92804 80.0564 5.78081 81.4172 9.03618 82.5057C15.5783 84.6932 24.4137 86 34 86V80C24.8863 80 16.7217 78.749 10.9388 76.8154C8.03169 75.8433 5.89071 74.7528 4.53822 73.6883C3.14876 72.5947 3 71.8762 3 71.6316H-3ZM34 86C43.5863 86 52.4217 84.6932 58.9638 82.5057C62.2192 81.4172 65.072 80.0564 67.1726 78.4032C69.2363 76.779 71 74.5133 71 71.6316H65C65 71.8762 64.8512 72.5947 63.4618 73.6883C62.1093 74.7528 59.9683 75.8433 57.0612 76.8154C51.2783 78.749 43.1137 80 34 80V86ZM71 71.6316V51H65V71.6316H71Z" fill="#172136" mask="url(#path-3-inside-1_245_57)"/>
<path d="M66.5 51.5C66.5 52.4407 65.9385 53.5676 64.3913 54.8048C62.8587 56.0304 60.5487 57.2003 57.561 58.2108C51.6008 60.2268 43.2706 61.5 34 61.5C24.7294 61.5 16.3992 60.2268 10.439 58.2108C7.45127 57.2003 5.14134 56.0304 3.6087 54.8048C2.06154 53.5676 1.5 52.4407 1.5 51.5C1.5 50.5593 2.06154 49.4324 3.6087 48.1952C5.14134 46.9696 7.45127 45.7997 10.439 44.7892C16.3992 42.7732 24.7294 41.5 34 41.5C43.2706 41.5 51.6008 42.7732 57.561 44.7892C60.5487 45.7997 62.8587 46.9696 64.3913 48.1952C65.9385 49.4324 66.5 50.5593 66.5 51.5Z" fill="white" stroke="#172136" stroke-width="3" stroke-linecap="round" stroke-linejoin="round"/>
<mask id="mask1_245_57" style="mask-type:alpha" maskUnits="userSpaceOnUse" x="0" y="32" width="68" height="32">
<path d="M0 32V52.6316C0 58.8842 15.3 64 34 64C52.7 64 68 58.8842 68 52.6316V32" fill="#3DB8F5"/>
</mask>
<g mask="url(#mask1_245_57)">
<path d="M7 32V52.6316C7 58.8842 22.3 64 41 64C59.7 64 75 58.8842 75 52.6316V32" fill="#EC93EC"/>
</g>
<mask id="path-8-inside-2_245_57" fill="white">
<path d="M0 32V52.6316C0 58.8842 15.3 64 34 64C52.7 64 68 58.8842 68 52.6316V32"/>
</mask>
<path d="M3 32C3 30.3431 1.65685 29 0 29C-1.65685 29 -3 30.3431 -3 32H3ZM71 32C71 30.3431 69.6569 29 68 29C66.3431 29 65 30.3431 65 32H71ZM-3 32V52.6316H3V32H-3ZM-3 52.6316C-3 55.5133 -1.23626 57.779 0.82741 59.4032C2.92804 61.0564 5.78081 62.4172 9.03618 63.5057C15.5783 65.6932 24.4137 67 34 67V61C24.8863 61 16.7217 59.749 10.9388 57.8154C8.03169 56.8433 5.89071 55.7528 4.53822 54.6883C3.14876 53.5947 3 52.8762 3 52.6316H-3ZM34 67C43.5863 67 52.4217 65.6932 58.9638 63.5057C62.2192 62.4172 65.072 61.0564 67.1726 59.4032C69.2363 57.779 71 55.5133 71 52.6316H65C65 52.8762 64.8512 53.5947 63.4618 54.6883C62.1093 55.7528 59.9683 56.8433 57.0612 57.8154C51.2783 59.749 43.1137 61 34 61V67ZM71 52.6316V32H65V52.6316H71Z" fill="#172136" mask="url(#path-8-inside-2_245_57)"/>
<path d="M66.5 32.5C66.5 33.4407 65.9385 34.5676 64.3913 35.8048C62.8587 37.0304 60.5487 38.2003 57.561 39.2108C51.6008 41.2268 43.2706 42.5 34 42.5C24.7294 42.5 16.3992 41.2268 10.439 39.2108C7.45127 38.2003 5.14134 37.0304 3.6087 35.8048C2.06154 34.5676 1.5 33.4407 1.5 32.5C1.5 31.5593 2.06154 30.4324 3.6087 29.1952C5.14134 27.9696 7.45127 26.7997 10.439 25.7892C16.3992 23.7732 24.7294 22.5 34 22.5C43.2706 22.5 51.6008 23.7732 57.561 25.7892C60.5487 26.7997 62.8587 27.9696 64.3913 29.1952C65.9385 30.4324 66.5 31.5593 66.5 32.5Z" fill="white" stroke="#172136" stroke-width="3" stroke-linecap="round" stroke-linejoin="round"/>
<path d="M0 11V31.6316C0 37.8842 15.3 43 34 43C52.7 43 68 37.8842 68 31.6316V11" fill="white"/>
<mask id="mask2_245_57" style="mask-type:alpha" maskUnits="userSpaceOnUse" x="0" y="11" width="68" height="32">
<path d="M0 11V31.6316C0 37.8842 15.3 43 34 43C52.7 43 68 37.8842 68 31.6316V11" fill="#3DB8F5"/>
</mask>
<g mask="url(#mask2_245_57)">
<path d="M7 11V31.6316C7 37.8842 22.3 43 41 43C59.7 43 75 37.8842 75 31.6316V11" fill="#EC93EC"/>
</g>
<mask id="path-14-inside-3_245_57" fill="white">
<path d="M0 11V31.6316C0 37.8842 15.3 43 34 43C52.7 43 68 37.8842 68 31.6316V11"/>
</mask>
<path d="M3 11C3 9.34315 1.65685 8 0 8C-1.65685 8 -3 9.34315 -3 11H3ZM71 11C71 9.34315 69.6569 8 68 8C66.3431 8 65 9.34315 65 11H71ZM-3 11V31.6316H3V11H-3ZM-3 31.6316C-3 34.5133 -1.23626 36.779 0.82741 38.4032C2.92804 40.0564 5.78081 41.4172 9.03618 42.5057C15.5783 44.6932 24.4137 46 34 46V40C24.8863 40 16.7217 38.749 10.9388 36.8154C8.03169 35.8433 5.89071 34.7528 4.53822 33.6883C3.14876 32.5947 3 31.8762 3 31.6316H-3ZM34 46C43.5863 46 52.4217 44.6932 58.9638 42.5057C62.2192 41.4172 65.072 40.0564 67.1726 38.4032C69.2363 36.779 71 34.5133 71 31.6316H65C65 31.8762 64.8512 32.5947 63.4618 33.6883C62.1093 34.7528 59.9683 35.8433 57.0612 36.8154C51.2783 38.749 43.1137 40 34 40V46ZM71 31.6316V11H65V31.6316H71Z" fill="#172136" mask="url(#path-14-inside-3_245_57)"/>
<path d="M66.5 11.5C66.5 12.4407 65.9385 13.5676 64.3913 14.8048C62.8587 16.0304 60.5487 17.2003 57.561 18.2108C51.6008 20.2268 43.2706 21.5 34 21.5C24.7294 21.5 16.3992 20.2268 10.439 18.2108C7.45127 17.2003 5.14134 16.0304 3.6087 14.8048C2.06154 13.5676 1.5 12.4407 1.5 11.5C1.5 10.5593 2.06154 9.4324 3.6087 8.19517C5.14134 6.96955 7.45127 5.79974 10.439 4.78919C16.3992 2.77323 24.7294 1.5 34 1.5C43.2706 1.5 51.6008 2.77323 57.561 4.78919C60.5487 5.79974 62.8587 6.96955 64.3913 8.19517C65.9385 9.4324 66.5 10.5593 66.5 11.5Z" fill="white" stroke="#172136" stroke-width="3" stroke-linecap="round" stroke-linejoin="round"/>
</svg>
