<svg width="96" height="96" fill="none" xmlns="http://www.w3.org/2000/svg"><mask id="a" style="mask-type:alpha" maskUnits="userSpaceOnUse" x="22" y="57" width="68" height="32"><path d="M22 57v20.632C22 83.884 37.3 89 56 89s34-5.116 34-11.368V57" fill="#3DB8F5"/></mask><g mask="url(#a)"><path d="M29 57v20.632C29 83.884 44.3 89 63 89s34-5.116 34-11.368V57" fill="#3DB8F5"/></g><mask id="b" fill="#fff"><path d="M22 57v20.632C22 83.884 37.3 89 56 89s34-5.116 34-11.368V57"/></mask><path d="M25 57a3 3 0 1 0-6 0h6Zm68 0a3 3 0 1 0-6 0h6Zm-74 0v20.632h6V57h-6Zm0 20.632c0 2.881 1.764 5.147 3.827 6.771 2.101 1.653 4.954 3.014 8.21 4.103C37.577 90.693 46.413 92 56 92v-6c-9.114 0-17.278-1.251-23.061-3.185-2.907-.972-5.048-2.062-6.4-3.127C25.148 78.595 25 77.876 25 77.632h-6ZM56 92c9.586 0 18.422-1.307 24.964-3.494 3.255-1.089 6.108-2.45 8.209-4.103C91.236 82.78 93 80.513 93 77.632h-6c0 .244-.149.963-1.538 2.056-1.353 1.065-3.494 2.155-6.4 3.127C73.277 84.75 65.113 86 56 86v6Zm37-14.368V57h-6v20.632h6Z" fill="#172136" mask="url(#b)"/><path d="M88.5 57.5c0 .94-.561 2.068-2.109 3.305-1.532 1.225-3.842 2.395-6.83 3.406C73.601 66.227 65.271 67.5 56 67.5c-9.27 0-17.6-1.273-23.561-3.29-2.988-1.01-5.298-2.18-6.83-3.405C24.06 59.568 23.5 58.44 23.5 57.5c0-.94.561-2.068 2.109-3.305 1.532-1.225 3.842-2.395 6.83-3.406C38.399 48.773 46.729 47.5 56 47.5c9.27 0 17.6 1.273 23.561 3.29 2.988 1.01 5.298 2.18 6.83 3.405C87.938 55.432 88.5 56.56 88.5 57.5Z" fill="#fff" stroke="#172136" stroke-width="3" stroke-linecap="round" stroke-linejoin="round"/><mask id="c" style="mask-type:alpha" maskUnits="userSpaceOnUse" x="6" y="37" width="68" height="32"><path d="M6 37v20.632C6 63.884 21.3 69 40 69s34-5.116 34-11.368V37" fill="#3DB8F5"/></mask><g mask="url(#c)"><path d="M13 37v20.632C13 63.884 28.3 69 47 69s34-5.116 34-11.368V37" fill="#3DB8F5"/></g><mask id="d" fill="#fff"><path d="M6 37v20.632C6 63.884 21.3 69 40 69s34-5.116 34-11.368V37"/></mask><path d="M9 37a3 3 0 1 0-6 0h6Zm68 0a3 3 0 1 0-6 0h6ZM3 37v20.632h6V37H3Zm0 20.632c0 2.881 1.764 5.147 3.827 6.771 2.101 1.653 4.954 3.014 8.21 4.103C21.577 70.693 30.413 72 40 72v-6c-9.114 0-17.278-1.251-23.061-3.185-2.907-.972-5.048-2.062-6.4-3.127C9.148 58.595 9 57.876 9 57.632H3ZM40 72c9.586 0 18.422-1.307 24.964-3.494 3.255-1.089 6.108-2.45 8.209-4.103C75.236 62.78 77 60.513 77 57.632h-6c0 .244-.149.963-1.538 2.056-1.353 1.065-3.494 2.155-6.4 3.127C57.277 64.75 49.113 66 40 66v6Zm37-14.368V37h-6v20.632h6Z" fill="#172136" mask="url(#d)"/><path d="M72.5 37.5c0 .94-.561 2.068-2.109 3.305-1.532 1.225-3.842 2.395-6.83 3.406C57.601 46.227 49.271 47.5 40 47.5c-9.27 0-17.6-1.273-23.561-3.29-2.988-1.01-5.298-2.18-6.83-3.405C8.062 39.568 7.5 38.44 7.5 37.5c0-.94.562-2.068 2.109-3.305 1.532-1.225 3.842-2.395 6.83-3.406C22.399 28.773 30.729 27.5 40 27.5c9.27 0 17.6 1.273 23.561 3.29 2.988 1.01 5.298 2.18 6.83 3.405C71.938 35.432 72.5 36.56 72.5 37.5Z" fill="#fff" stroke="#172136" stroke-width="3" stroke-linecap="round" stroke-linejoin="round"/><path d="M22 17v20.632C22 43.884 37.3 49 56 49s34-5.116 34-11.368V17" fill="#fff"/><mask id="e" style="mask-type:alpha" maskUnits="userSpaceOnUse" x="22" y="17" width="68" height="32"><path d="M22 17v20.632C22 43.884 37.3 49 56 49s34-5.116 34-11.368V17" fill="#3DB8F5"/></mask><g mask="url(#e)"><path d="M29 17v20.632C29 43.884 44.3 49 63 49s34-5.116 34-11.368V17" fill="#3DB8F5"/></g><mask id="f" fill="#fff"><path d="M22 17v20.632C22 43.884 37.3 49 56 49s34-5.116 34-11.368V17"/></mask><path d="M25 17a3 3 0 1 0-6 0h6Zm68 0a3 3 0 1 0-6 0h6Zm-74 0v20.632h6V17h-6Zm0 20.632c0 2.881 1.764 5.147 3.827 6.771 2.101 1.653 4.954 3.014 8.21 4.103C37.577 50.693 46.413 52 56 52v-6c-9.114 0-17.278-1.251-23.061-3.185-2.907-.972-5.048-2.062-6.4-3.127C25.148 38.595 25 37.876 25 37.632h-6ZM56 52c9.586 0 18.422-1.307 24.964-3.494 3.255-1.089 6.108-2.45 8.209-4.103C91.236 42.78 93 40.513 93 37.632h-6c0 .244-.149.963-1.538 2.056-1.353 1.065-3.494 2.155-6.4 3.127C73.277 44.75 65.113 46 56 46v6Zm37-14.368V17h-6v20.632h6Z" fill="#172136" mask="url(#f)"/><path d="M88.5 17.5c0 .94-.561 2.068-2.109 3.305-1.532 1.225-3.842 2.395-6.83 3.406C73.601 26.227 65.271 27.5 56 27.5c-9.27 0-17.6-1.273-23.561-3.29-2.988-1.01-5.298-2.18-6.83-3.405C24.06 19.568 23.5 18.44 23.5 17.5c0-.94.561-2.068 2.109-3.305 1.532-1.225 3.842-2.395 6.83-3.406C38.399 8.773 46.729 7.5 56 7.5c9.27 0 17.6 1.273 23.561 3.29 2.988 1.01 5.298 2.18 6.83 3.405C87.938 15.432 88.5 16.56 88.5 17.5Z" fill="#fff" stroke="#172136" stroke-width="3" stroke-linecap="round" stroke-linejoin="round"/></svg>