<svg width="96" height="96" fill="none" xmlns="http://www.w3.org/2000/svg"><path d="M86.5 50.998a3.5 3.5 0 0 0-.48-1.77L69.606 21.23a3.5 3.5 0 0 0-3.02-1.73H29.413a3.5 3.5 0 0 0-3.02 1.73L9.981 49.227a3.5 3.5 0 0 0-.481 1.77V73a3.5 3.5 0 0 0 3.5 3.5h70a3.5 3.5 0 0 0 3.5-3.5V50.998Z" fill="#fff" stroke="#172136" stroke-width="3" stroke-miterlimit="10" stroke-linecap="square"/><mask id="a" style="mask-type:alpha" maskUnits="userSpaceOnUse" x="11" y="21" width="74" height="54"><path d="M84.725 49.986A2 2 0 0 1 85 50.998V73a2 2 0 0 1-2 2H13a2 2 0 0 1-2-2V50.998a2 2 0 0 1 .275-1.012L27.687 21.99A2 2 0 0 1 29.413 21h37.174a2 2 0 0 1 1.726.989l16.412 27.997Z" fill="#1FD68A"/></mask><g mask="url(#a)"><path d="M89.725 49.986A2 2 0 0 1 90 50.998V73a2 2 0 0 1-2 2H18a2 2 0 0 1-2-2V50.998a2 2 0 0 1 .275-1.012L32.687 21.99A2 2 0 0 1 34.413 21h37.174a2 2 0 0 1 1.726.989l16.412 27.997Z" fill="#1FD68A"/></g><path d="M9 50h78" stroke="#172136" stroke-width="3" stroke-miterlimit="10"/><path d="M26 63h44" stroke="#172136" stroke-width="3" stroke-miterlimit="10" stroke-linecap="round"/><circle cx="68" cy="22" r="15" fill="#fff"/><path d="m75 15.5 7.513 2.013L84.526 10" stroke="#172136" stroke-width="3" stroke-linecap="round" stroke-linejoin="round"/><path d="M68 13v9l5.5 6" stroke="#172136" stroke-width="3" stroke-linecap="round"/><path fill-rule="evenodd" clip-rule="evenodd" d="M54.5 22c0-7.456 6.044-13.5 13.5-13.5 5.315 0 9.912 3.071 12.114 7.536.282.572.848.964 1.486.964 1.053 0 1.8-1.027 1.354-1.982C80.324 9.395 74.617 5.5 68 5.5c-9.113 0-16.5 7.387-16.5 16.5S58.887 38.5 68 38.5c7.448 0 13.743-4.935 15.795-11.713.277-.916-.45-1.787-1.406-1.787-.716 0-1.327.499-1.548 1.18C79.08 31.59 73.997 35.5 68 35.5c-7.456 0-13.5-6.044-13.5-13.5Z" fill="#172136"/></svg>