<svg width="1472" height="60" viewBox="0 0 1472 60" fill="none" xmlns="http://www.w3.org/2000/svg">
<path d="M10.031 31.7771L15.1579 37.051L18 31.8917L10.8669 29.9427L18 27.9937L15.1022 22.8917L9.97523 28.1656L11.9257 21H6.0743L8.0805 28.2803L2.84211 22.9491L0 28.1083L7.0774 30L0 31.9491L2.89783 37.051L8.02477 31.7198L6.0743 39H11.9257L10.031 31.7771Z" fill="#0F1624"/>
<g clip-path="url(#clip0_0_4)">
<path d="M134.512 30.6926C134.512 38.188 128.599 43.7113 121.342 43.7113C114.085 43.7113 108.172 38.188 108.172 30.6926C108.172 23.1443 114.085 17.6739 121.342 17.6739C128.599 17.6739 134.512 23.1443 134.512 30.6926ZM128.747 30.6926C128.747 26.0086 125.32 22.8039 121.342 22.8039C117.364 22.8039 113.937 26.0086 113.937 30.6926C113.937 35.3295 117.364 38.5812 121.342 38.5812C125.32 38.5812 128.747 35.3236 128.747 30.6926Z" fill="#0F1624"/>
<path d="M162.926 30.6926C162.926 38.188 157.013 43.7113 149.756 43.7113C142.499 43.7113 136.586 38.188 136.586 30.6926C136.586 23.1502 142.499 17.6739 149.756 17.6739C157.013 17.6739 162.926 23.1443 162.926 30.6926ZM157.161 30.6926C157.161 26.0086 153.734 22.8039 149.756 22.8039C145.778 22.8039 142.351 26.0086 142.351 30.6926C142.351 35.3295 145.778 38.5812 149.756 38.5812C153.734 38.5812 157.161 35.3236 157.161 30.6926Z" fill="#0F1624"/>
<path d="M190.152 18.4604V41.833C190.152 51.4473 184.435 55.3741 177.675 55.3741C171.312 55.3741 167.482 51.1539 166.038 47.7026L171.057 45.6306C171.951 47.7495 174.141 50.2499 177.669 50.2499C181.996 50.2499 184.677 47.6028 184.677 42.6195V40.7471H184.476C183.186 42.326 180.7 43.7054 177.563 43.7054C170.998 43.7054 164.984 38.0354 164.984 30.7395C164.984 23.3908 170.998 17.6739 177.563 17.6739C180.694 17.6739 183.18 19.0532 184.476 20.5852H184.677V18.4663H190.152V18.4604ZM185.086 30.7395C185.086 26.1554 182.002 22.8039 178.077 22.8039C174.1 22.8039 170.767 26.1554 170.767 30.7395C170.767 35.2767 174.1 38.5812 178.077 38.5812C182.002 38.5812 185.086 35.2767 185.086 30.7395Z" fill="#0F1624"/>
<path d="M199.178 4.76175V42.9139H193.555V4.76175H199.178Z" fill="#0F1624"/>
<path d="M221.093 34.9773L225.568 37.9356C224.124 40.0545 220.643 43.7054 214.63 43.7054C207.171 43.7054 201.602 37.9884 201.602 30.6867C201.602 22.9447 207.219 17.668 213.984 17.668C220.797 17.668 224.13 23.0445 225.219 25.95L225.817 27.4291L208.266 34.6369C209.61 37.2489 211.7 38.5813 214.63 38.5813C217.565 38.5813 219.602 37.1491 221.093 34.9773ZM207.319 30.2934L219.051 25.4628C218.406 23.8369 216.464 22.7041 214.18 22.7041C211.25 22.7041 207.171 25.2691 207.319 30.2934Z" fill="#0F1624"/>
<path d="M86.8903 27.3054V21.7822H105.66C105.843 22.7448 105.938 23.8835 105.938 25.1161C105.938 29.26 104.796 34.3841 101.114 38.035C97.5329 41.7328 92.9574 43.705 86.8962 43.705C75.6618 43.705 66.2148 34.6306 66.2148 23.4902C66.2148 12.3498 75.6618 3.27542 86.8962 3.27542C93.1113 3.27542 97.5388 5.69368 100.865 8.84564L96.9351 12.743C94.5497 10.5243 91.3178 8.79868 86.8903 8.79868C78.6864 8.79868 72.2701 15.355 72.2701 23.4902C72.2701 31.6254 78.6864 38.1817 86.8903 38.1817C92.2116 38.1817 95.2422 36.0628 97.1837 34.1376C98.7582 32.5763 99.794 30.3459 100.202 27.2996L86.8903 27.3054Z" fill="#0F1624"/>
</g>
<path d="M285.031 31.7771L290.158 37.051L293 31.8917L285.867 29.9427L293 27.9937L290.102 22.8917L284.975 28.1656L286.926 21H281.074L283.08 28.2803L277.842 22.9491L275 28.1083L282.077 30L275 31.9491L277.898 37.051L283.025 31.7198L281.074 39H286.926L285.031 31.7771Z" fill="#0F1624"/>
<path fill-rule="evenodd" clip-rule="evenodd" d="M373.73 35.1278C379.454 37.061 380.753 37.1654 380.753 37.1654V16.3768C380.753 12.8285 377.905 9.95346 374.387 9.95346H347.368C343.849 9.95346 341 12.8285 341 16.3768V43.624C341 47.1701 343.849 50.0466 347.368 50.0466H374.387C377.905 50.0466 380.753 47.1701 380.753 43.624V43.3612C380.753 43.3612 370.413 39.0145 365.192 36.4816C361.689 40.8279 357.172 43.4648 352.482 43.4648C344.551 43.4648 341.857 36.4654 345.613 31.8562C346.432 30.8517 347.825 29.893 349.986 29.3553C353.368 28.5175 358.751 29.8784 363.795 31.5566C364.702 29.8708 365.466 28.0154 366.035 26.0383H350.488V24.4494H358.504V21.6029H348.796V20.0145H358.504V15.9532C358.504 15.9532 358.504 15.269 359.191 15.269H363.11V20.0145H372.708V21.6029H363.11V24.4494H370.945C370.195 27.5475 369.056 30.3985 367.627 32.9017C370.005 33.7692 372.14 34.5908 373.73 35.1278Z" fill="#0F1624"/>
<path fill-rule="evenodd" clip-rule="evenodd" d="M350.662 31.7326C349.669 31.8325 347.805 32.2752 346.785 33.1836C343.729 35.8712 345.557 40.7846 351.742 40.7846C355.336 40.7846 358.929 38.4668 361.75 34.7555C357.737 32.7799 354.336 31.3661 350.662 31.7326Z" fill="#0F1624"/>
<path fill-rule="evenodd" clip-rule="evenodd" d="M427.321 15.8232C427.321 17.8972 428.836 19.2934 430.95 19.2934C433.065 19.2934 434.58 17.8972 434.58 15.8232C434.58 13.7889 433.065 12.3533 430.95 12.3533C428.836 12.3533 427.321 13.7889 427.321 15.8232Z" fill="#0F1624"/>
<path fill-rule="evenodd" clip-rule="evenodd" d="M417.189 42.349H423.491V13.2301H417.189V42.349Z" fill="#0F1624"/>
<path fill-rule="evenodd" clip-rule="evenodd" d="M396.965 32.2573L400.714 19.2939H400.874L404.424 32.2573H396.965ZM406.139 14.2273H397.683L388.229 42.3491H394.053L395.648 36.8447H405.661L407.176 42.3491H414.636L406.139 14.2273Z" fill="#0F1624"/>
<path fill-rule="evenodd" clip-rule="evenodd" d="M427.798 42.349H434.101V20.9678H427.798V42.349Z" fill="#0F1624"/>
<path fill-rule="evenodd" clip-rule="evenodd" d="M499.961 21.0085L500 20.969H494.057L490.307 33.9723H490.108L485.8 20.969H478.739L487.236 42.4291L483.686 48.9707V49.1307H489.23L499.961 21.0085Z" fill="#0F1624"/>
<path fill-rule="evenodd" clip-rule="evenodd" d="M445.79 38.6795C445.072 38.6795 444.394 38.5995 443.636 38.3603V26.793C444.953 25.8749 446.03 25.4362 447.386 25.4362C449.739 25.4362 451.614 27.3116 451.614 31.3004C451.614 36.4057 448.862 38.6795 445.79 38.6795ZM449.779 20.53C447.466 20.53 445.671 21.4076 443.636 23.0828V20.9686H437.333V49.1303H443.636V42.1497C444.833 42.4689 445.95 42.6288 447.306 42.6288C452.93 42.6288 457.996 38.4801 457.996 31.1003C457.996 24.4794 454.326 20.53 449.779 20.53Z" fill="#0F1624"/>
<path fill-rule="evenodd" clip-rule="evenodd" d="M471.201 37.1634C469.526 38.0808 468.568 38.4394 467.452 38.4394C465.936 38.4394 464.978 37.4424 464.978 35.8468C464.978 35.2486 465.098 34.6507 465.576 34.1716C466.334 33.4141 467.811 32.855 471.201 32.0574V37.1634ZM477.503 37.0038V28.0686C477.503 23.2021 474.632 20.5295 469.566 20.5295C466.334 20.5295 464.101 21.0879 460.032 22.3245L461.148 27.2315C464.858 25.5555 466.494 24.8375 468.209 24.8375C470.284 24.8375 471.201 26.3134 471.201 28.5872V28.7467C463.981 30.1028 461.747 30.8609 460.351 32.2575C459.314 33.294 458.875 34.7698 458.875 36.4852C458.875 40.5941 462.067 42.7879 465.058 42.7879C467.292 42.7879 469.087 41.9498 471.52 40.115L471.959 42.3493H478.261L477.503 37.0038Z" fill="#0F1624"/>
<path d="M558.031 31.7771L563.158 37.051L566 31.8917L558.867 29.9427L566 27.9937L563.102 22.8917L557.975 28.1656L559.926 21H554.074L556.08 28.2803L550.842 22.9491L548 28.1083L555.077 30L548 31.9491L550.898 37.051L556.025 31.7198L554.074 39H559.926L558.031 31.7771Z" fill="#0F1624"/>
<g clip-path="url(#clip1_0_4)">
<path d="M702.997 16.2007V43.8007H698.243V22.1424H698.179L689.685 43.8007H686.516L677.832 22.1424H677.768V43.8007H673.395V16.2007H680.241L688.101 36.6452H688.227L696.531 16.2007H702.997ZM706.927 18.3091C706.927 17.5424 707.181 16.9035 707.751 16.3924C708.322 15.8813 708.956 15.6257 709.716 15.6257C710.54 15.6257 711.238 15.8813 711.745 16.3924C712.252 16.9035 712.569 17.5424 712.569 18.3091C712.569 19.0757 712.315 19.7146 711.745 20.2257C711.174 20.7368 710.54 20.9924 709.716 20.9924C708.892 20.9924 708.258 20.7368 707.751 20.2257C707.244 19.6507 706.927 19.0118 706.927 18.3091ZM712.062 23.9952V43.8007H707.434V23.9952H712.062ZM726.07 40.4146C726.768 40.4146 727.528 40.2868 728.352 39.9035C729.177 39.5841 729.937 39.1368 730.634 38.6257V42.9702C729.874 43.4174 729.05 43.7368 728.099 43.9285C727.148 44.1202 726.134 44.2479 724.993 44.2479C722.077 44.2479 719.732 43.3535 717.957 41.5007C716.118 39.6479 715.231 37.2841 715.231 34.4729C715.231 31.2785 716.182 28.6591 718.02 26.6146C719.858 24.5702 722.457 23.5479 725.88 23.5479C726.768 23.5479 727.655 23.6757 728.479 23.8674C729.367 24.0591 730.064 24.3785 730.571 24.6341V29.1063C729.874 28.5952 729.113 28.1479 728.416 27.8924C727.655 27.6368 726.895 27.4452 726.134 27.4452C724.296 27.4452 722.838 28.0202 721.697 29.2341C720.556 30.4479 720.049 32.0452 720.049 34.0896C720.049 36.0702 720.619 37.6674 721.697 38.7535C722.774 39.8396 724.232 40.4146 726.07 40.4146ZM743.756 23.6757C744.136 23.6757 744.453 23.6757 744.77 23.7396C745.087 23.8035 745.341 23.8674 745.531 23.9313V28.6591C745.277 28.4674 744.96 28.2757 744.453 28.1479C743.946 28.0202 743.439 27.8924 742.742 27.8924C741.601 27.8924 740.65 28.4035 739.889 29.3618C739.129 30.3202 738.685 31.7896 738.685 33.8341V43.8007H734.057V23.9952H738.685V27.1257H738.748C739.192 26.0396 739.826 25.2091 740.65 24.5702C741.537 23.9952 742.552 23.6757 743.756 23.6757ZM745.784 34.2174C745.784 30.9591 746.735 28.3396 748.51 26.4229C750.348 24.5063 752.884 23.5479 756.117 23.5479C759.159 23.5479 761.568 24.4424 763.28 26.2952C764.991 28.1479 765.879 30.6396 765.879 33.7702C765.879 36.9646 764.928 39.5202 763.153 41.4368C761.315 43.3535 758.842 44.3118 755.673 44.3118C752.63 44.3118 750.222 43.4174 748.447 41.6285C746.672 39.7757 745.784 37.2841 745.784 34.2174ZM750.602 34.0257C750.602 36.0702 751.046 37.6674 751.996 38.7535C752.947 39.8396 754.278 40.4146 755.99 40.4146C757.638 40.4146 758.969 39.9035 759.857 38.7535C760.744 37.6674 761.188 36.0702 761.188 33.8979C761.188 31.7896 760.744 30.1924 759.857 29.0424C758.969 27.9563 757.638 27.3813 756.053 27.3813C754.342 27.3813 753.074 27.9563 752.123 29.1063C751.046 30.3202 750.602 31.9174 750.602 34.0257ZM772.788 29.2341C772.788 29.8729 772.978 30.4479 773.422 30.8313C773.866 31.2146 774.753 31.6618 776.211 32.2368C778.049 33.0035 779.38 33.8341 780.078 34.7285C780.838 35.6868 781.219 36.7729 781.219 38.1146C781.219 39.9674 780.521 41.4368 779.063 42.5868C777.669 43.7368 775.704 44.2479 773.295 44.2479C772.471 44.2479 771.584 44.1202 770.569 43.9285C769.555 43.7368 768.731 43.4813 768.034 43.1618V38.5618C768.858 39.1368 769.809 39.6479 770.759 39.9674C771.71 40.2868 772.598 40.4785 773.422 40.4785C774.436 40.4785 775.26 40.3507 775.704 40.0313C776.211 39.7118 776.464 39.2646 776.464 38.5618C776.464 37.9229 776.211 37.4118 775.704 36.9007C775.197 36.4535 774.182 35.9424 772.788 35.3674C771.076 34.6646 769.872 33.8341 769.175 32.9396C768.477 32.0452 768.097 30.8952 768.097 29.4896C768.097 27.7007 768.794 26.2313 770.189 25.0813C771.584 23.9313 773.422 23.3563 775.64 23.3563C776.338 23.3563 777.098 23.4202 777.922 23.6118C778.746 23.8035 779.507 23.9952 780.078 24.1868V28.7229C779.444 28.3396 778.746 27.9563 777.922 27.6368C777.098 27.3174 776.274 27.1896 775.514 27.1896C774.626 27.1896 773.929 27.3813 773.485 27.7007C773.041 28.1479 772.788 28.5952 772.788 29.2341ZM783.184 34.2174C783.184 30.9591 784.134 28.3396 785.909 26.4229C787.748 24.5063 790.283 23.5479 793.516 23.5479C796.559 23.5479 798.967 24.4424 800.679 26.2952C802.39 28.1479 803.278 30.6396 803.278 33.7702C803.278 36.9646 802.327 39.5202 800.552 41.4368C798.714 43.3535 796.242 44.3118 793.072 44.3118C790.03 44.3118 787.621 43.4174 785.846 41.6285C784.134 39.7757 783.184 37.2841 783.184 34.2174ZM788.001 34.0257C788.001 36.0702 788.445 37.6674 789.396 38.7535C790.347 39.8396 791.678 40.4146 793.389 40.4146C795.037 40.4146 796.368 39.9035 797.256 38.7535C798.143 37.6674 798.587 36.0702 798.587 33.8979C798.587 31.7896 798.143 30.1924 797.256 29.0424C796.368 27.9563 795.037 27.3813 793.453 27.3813C791.741 27.3813 790.473 27.9563 789.522 29.1063C788.508 30.3202 788.001 31.9174 788.001 34.0257ZM818.681 27.8285H811.772V43.8007H807.081V27.8285H803.785V23.9952H807.081V21.2479C807.081 19.2035 807.778 17.4785 809.11 16.1368C810.441 14.7952 812.152 14.1563 814.244 14.1563C814.815 14.1563 815.322 14.2202 815.765 14.2202C816.209 14.2202 816.589 14.3479 816.906 14.4757V18.5007C816.78 18.4368 816.463 18.3091 816.082 18.1813C815.702 18.0535 815.258 17.9896 814.751 17.9896C813.8 17.9896 813.04 18.3091 812.533 18.8841C812.025 19.4591 811.772 20.4174 811.772 21.5674V23.9313H818.681V19.4591L823.309 18.0535V23.9313H827.999V27.7646H823.309V37.0285C823.309 38.2424 823.562 39.0729 823.943 39.5841C824.386 40.0952 825.084 40.3507 826.034 40.3507C826.288 40.3507 826.605 40.2868 826.985 40.1591C827.365 40.0313 827.682 39.9035 827.936 39.7118V43.5452C827.619 43.7368 827.175 43.8646 826.478 43.9924C825.781 44.1202 825.147 44.1841 824.45 44.1841C822.485 44.1841 821.027 43.6729 820.076 42.6507C819.125 41.6285 818.618 40.0313 818.618 37.9229L818.681 27.8285Z" fill="#0F1624"/>
<path d="M635.679 7.00003H614V28.85H635.679V7.00003Z" fill="#0F1624"/>
<path d="M659.64 7.00003H637.961V28.85H659.64V7.00003Z" fill="#0F1624"/>
<path d="M635.679 31.1504H614V53.0004H635.679V31.1504Z" fill="#0F1624"/>
<path d="M659.64 31.1504H637.961V53.0004H659.64V31.1504Z" fill="#0F1624"/>
</g>
<path d="M886.031 31.7771L891.158 37.051L894 31.8917L886.867 29.9427L894 27.9937L891.102 22.8917L885.975 28.1656L887.926 21H882.074L884.08 28.2803L878.842 22.9491L876 28.1083L883.077 30L876 31.9491L878.898 37.051L884.025 31.7198L882.074 39H887.926L886.031 31.7771Z" fill="#0F1624"/>
<path fill-rule="evenodd" clip-rule="evenodd" d="M967.192 14.362C967.241 14.0804 967.29 13.7986 967.339 13.5169C967.663 11.6445 967.988 9.77142 968.418 7.91632C968.85 6.02825 969.474 4.15114 970.605 2.56351C971.419 1.42102 972.597 0.440811 973.964 0.094337C976.295 -0.497738 977.264 1.81355 976.455 3.77617C975.979 4.92745 975.035 5.68532 974.096 6.43985C973.685 6.7704 973.274 7.10031 972.904 7.46238C971.038 9.29006 970.25 12.1765 969.666 14.7926C979.781 17.1494 987.235 26.3821 987.157 37.2921C987.075 49.0305 978.061 58.9139 966.524 59.9093C956.664 60.8013 947.387 55.0495 943.659 45.7336C939.932 36.4176 942.628 25.7211 950.304 19.372C950.582 19.1443 950.865 18.9229 951.153 18.7079C950.635 17.6311 950.153 16.5368 949.706 15.427C948.948 13.688 948.395 11.8641 948.06 9.99303C948.006 9.65535 947.96 9.31543 947.928 8.97555C947.896 8.63566 947.876 8.35934 947.865 8.05014C947.829 7.23599 947.935 6.42174 948.176 5.64457C948.365 5.02522 948.721 4.47208 949.204 4.04817C950.145 3.26926 951.527 3.40416 952.305 4.35077C953.632 5.96373 953.281 8.19347 952.952 10.2781C952.824 11.0899 952.699 11.8797 952.679 12.6025C952.635 14.1346 952.975 15.7027 953.482 17.1668C953.781 16.9937 954.085 16.8308 954.389 16.6682C955.213 16.2268 956.033 15.7874 956.748 15.1529C957.043 14.8892 957.28 14.5164 957.519 14.1414L957.519 14.1414C957.881 13.5714 958.247 12.9962 958.826 12.7912C959.57 12.5287 960.355 13.0154 961.008 13.4206C961.124 13.4927 961.236 13.5622 961.343 13.6244C962.07 14.0129 962.879 14.2132 963.7 14.2077C963.993 14.2182 964.288 14.2182 964.584 14.2182C964.909 14.2181 965.234 14.2181 965.559 14.2319C966.109 14.2556 966.654 14.2992 967.192 14.362ZM1019.25 17.4139C1018.34 17.2308 1017.43 17.2402 1016.5 17.436C1016.5 23.0493 1016.5 28.631 1016.51 34.2254C1017.46 34.4274 1018.4 34.4274 1019.36 34.219V32.5994V30.9894V29.3792V27.7691V26.1275V24.5173V22.9072L1019.36 22.7767C1019.36 22.2929 1019.36 21.8087 1019.39 21.3192C1019.48 21.3855 1019.54 21.4549 1019.59 21.5307C1021.89 24.6815 1024.06 27.908 1026.12 31.2166C1026.54 31.891 1026.95 32.5704 1027.36 33.2499L1027.36 33.2515L1027.36 33.2535C1027.51 33.5018 1027.66 33.75 1027.81 33.998C1027.82 34.0101 1027.82 34.0222 1027.83 34.0342L1027.83 34.0344L1027.83 34.0347L1027.83 34.035C1027.89 34.136 1027.95 34.2316 1028.1 34.2569C1028.73 34.3611 1029.37 34.4116 1030.02 34.3453C1030.2 34.3275 1030.37 34.3021 1030.54 34.2771L1030.54 34.2771L1030.54 34.277L1030.54 34.277L1030.55 34.277L1030.55 34.277L1030.55 34.277L1030.55 34.277C1030.65 34.2623 1030.75 34.2477 1030.85 34.2348C1030.91 33.7834 1030.89 17.6538 1030.83 17.4328C1029.88 17.196 1028.52 17.2592 1028.02 17.4644C1028.02 17.4689 1028.02 17.4733 1028.02 17.4778C1028.02 17.4828 1028.01 17.4878 1028.01 17.4928C1028.01 17.5023 1028.01 17.5149 1028.01 17.5244L1028 17.5331V17.5332V17.5333C1028 17.5619 1028 17.5905 1028 17.6191V29.1361V29.3256C1028 29.3477 1028 29.3666 1028 29.3887L1027.99 29.3958C1027.99 29.413 1027.99 29.4321 1027.98 29.4487C1027.98 29.4582 1027.97 29.4676 1027.96 29.4708C1027.96 29.4727 1027.95 29.4723 1027.94 29.4717C1027.93 29.4713 1027.93 29.4708 1027.92 29.4708C1027.85 29.3668 1027.77 29.2535 1027.7 29.1401L1027.7 29.1401L1027.7 29.1393C1025.79 26.099 1023.8 23.1124 1021.62 20.2521C1021.12 19.5833 1020.59 18.9284 1020.05 18.2732L1020.05 18.2711C1019.87 18.0425 1019.68 17.8137 1019.5 17.5844C1019.44 17.5086 1019.34 17.4328 1019.25 17.4139ZM1014.07 56.287C1013.39 56.5303 1012.55 56.5428 1011.86 56.3188V55.7126L1011.86 55.6452C1011.86 55.607 1011.86 55.5687 1011.86 55.5304C1011.86 55.3701 1011.87 55.2099 1011.85 55.0497C1011.83 54.7874 1011.69 54.6927 1011.44 54.8002C1011.29 54.8665 1011.14 54.9581 1011 55.0528C1010.09 55.659 1009.11 56.1104 1008.06 56.4039C1004.1 57.5026 1000.36 55.7285 998.633 52.2146C998.063 51.056 997.781 49.8246 997.717 48.5396C997.638 46.9327 997.907 45.3888 998.639 43.9524C999.926 41.4332 1001.98 39.9083 1004.79 39.4282C1006.41 39.1504 1008.03 39.2831 1009.61 39.7189C1011.05 40.1133 1012.24 40.8996 1013.24 41.9855C1013.49 42.2498 1013.72 42.5265 1013.95 42.8129C1014.08 42.9609 1014.2 43.1115 1014.33 43.2643C1014.02 43.4984 1013.7 43.7278 1013.39 43.9561L1013.39 43.9562L1013.39 43.9562L1013.39 43.9562L1013.39 43.9563L1013.39 43.9563L1013.39 43.9563L1013.39 43.9564L1013.39 43.9565C1012.98 44.2606 1012.57 44.5628 1012.15 44.8711C1012.07 44.7737 1012 44.6837 1011.93 44.5946L1011.91 44.568C1011.05 43.4727 1010 42.6391 1008.64 42.2634C1007.04 41.8244 1005.46 41.8497 1003.94 42.5855C1002.36 43.3559 1001.29 44.5963 1000.82 46.2792C1000.33 48.0094 1000.51 49.7078 1001.38 51.2893C1002.34 53.0195 1003.85 53.9195 1005.83 54.0204C1006.92 54.0771 1007.98 53.9257 1008.97 53.4332C1010.19 52.8239 1011.03 51.8831 1011.39 50.5538C1011.44 50.3894 1011.46 50.2192 1011.48 50.0363L1011.48 50.0359C1011.5 49.9419 1011.51 49.8444 1011.52 49.7427H1006.56V47.4159C1006.79 47.3527 1013.63 47.3337 1014.07 47.3969C1014.07 50.3551 1014.07 53.3133 1014.07 56.287ZM1084.93 46.055C1084.93 46.055 1084.87 46.4245 1084.83 46.6077C1084.34 48.8618 1082.94 50.2256 1080.72 50.7783C1080.13 50.9235 1079.53 50.9549 1078.93 50.958C1077.97 50.9649 1077 50.9636 1076.04 50.9622H1076.04H1076.04H1076.04H1076.04H1076.04H1076.04H1076.04L1075.54 50.9616C1075.32 50.9613 1075.1 50.9611 1074.87 50.9611H1074.49C1074.47 51.2147 1074.47 51.4594 1074.47 51.7023C1074.48 51.8132 1074.48 51.9238 1074.48 52.0346C1074.47 52.2718 1074.47 52.5091 1074.47 52.7472V52.7479V52.7485C1074.48 52.8681 1074.48 52.988 1074.48 53.1081V54.2131V55.2866V56.385C1073.49 56.5841 1072.52 56.5965 1071.53 56.3916V39.6399C1071.57 39.6377 1071.6 39.6348 1071.63 39.6319L1071.63 39.6318C1071.69 39.6263 1071.75 39.6209 1071.81 39.6209H1078.97C1079.96 39.6209 1080.93 39.7567 1081.84 40.1483C1083.51 40.8648 1084.49 42.1436 1084.85 43.899C1084.89 44.0504 1084.93 44.3566 1084.93 44.3566C1084.93 44.3566 1085 44.8757 1085 45.2075C1085 45.5393 1084.93 46.055 1084.93 46.055ZM1074.49 48.3188C1074.52 48.3209 1074.54 48.3233 1074.57 48.3256C1074.62 48.3304 1074.67 48.3347 1074.72 48.3347C1075.02 48.3347 1075.32 48.335 1075.63 48.3353H1075.63H1075.63H1075.63H1075.63H1075.63H1075.63H1075.63H1075.63H1075.63C1076.71 48.3364 1077.79 48.3375 1078.87 48.3251C1079.24 48.322 1079.63 48.2715 1079.99 48.1892C1081.05 47.9556 1081.79 47.3653 1082.05 46.2855C1082.22 45.5784 1082.2 44.865 1082.03 44.161C1081.83 43.3401 1081.33 42.7941 1080.52 42.5162C1080.12 42.3772 1079.71 42.2856 1079.28 42.2763C1077.96 42.2543 1076.63 42.2466 1075.31 42.239H1075.31H1075.31H1075.31H1075.31H1075.31H1075.31H1075.3H1075.3H1075.3L1074.66 42.2352C1074.62 42.2352 1074.58 42.2466 1074.55 42.2579C1074.53 42.2633 1074.51 42.2688 1074.49 42.2729V48.3188ZM1033.69 47.9935C1033.71 43.1475 1037.64 39.2703 1042.51 39.3021C1047.25 39.3336 1051.21 43.1095 1051.19 48.0346C1051.18 53.0545 1047.07 56.7672 1042.37 56.7291C1037.57 56.688 1033.66 52.7704 1033.69 47.9935ZM1036.6 48.0187C1036.61 51.2137 1039.22 53.8152 1042.43 53.8183C1045.65 53.8245 1048.27 51.1981 1048.26 47.9966C1048.24 44.7955 1045.62 42.1971 1042.42 42.2099C1039.21 42.2192 1036.6 44.8331 1036.6 48.0187ZM1017.73 39.6065C1017.71 39.6083 1017.69 39.61 1017.66 39.6116C1017.6 39.9651 1017.61 56.161 1017.68 56.3978C1018.66 56.5965 1019.78 56.5903 1020.56 56.3663V50.0677C1020.59 50.0588 1020.6 50.051 1020.61 50.0449C1020.63 50.0356 1020.64 50.03 1020.66 50.03C1020.91 50.03 1021.16 50.0264 1021.42 50.0229H1021.42H1021.42H1021.42H1021.42H1021.42H1021.42C1022.23 50.0114 1023.04 49.9999 1023.85 50.1057C1024.67 50.2132 1025.4 50.5098 1025.98 51.1129C1026.02 51.1547 1026.06 51.1963 1026.1 51.238C1026.28 51.4232 1026.46 51.6089 1026.62 51.8072C1027.25 52.5776 1027.78 53.4113 1028.27 54.2764C1028.62 54.9109 1028.97 55.5486 1029.32 56.1863C1029.39 56.3252 1029.48 56.4009 1029.65 56.4261C1030.3 56.5239 1030.95 56.5651 1031.61 56.5208C1032 56.4956 1032.4 56.442 1032.8 56.3C1032.78 56.2752 1032.77 56.253 1032.77 56.2329C1032.75 56.1991 1032.74 56.1709 1032.72 56.1451C1032.49 55.7946 1032.26 55.4421 1032.03 55.0897C1031.52 54.2936 1031 53.4976 1030.45 52.7228C1029.55 51.4443 1028.49 50.3331 1027 49.7048C1026.95 49.6838 1026.9 49.6459 1026.84 49.5919C1026.8 49.565 1026.77 49.5342 1026.72 49.4995C1026.78 49.4829 1026.83 49.4677 1026.87 49.4543C1026.95 49.4268 1027.02 49.4069 1027.08 49.3986C1027.63 49.326 1028.15 49.184 1028.66 48.9659C1029.89 48.4388 1030.81 47.602 1031.29 46.3426C1031.61 45.5373 1031.64 44.6978 1031.56 43.8548C1031.5 43.1476 1031.31 42.4688 1030.94 41.8529C1030.43 41.0037 1029.66 40.4639 1028.74 40.1324C1027.67 39.7474 1026.55 39.6116 1025.41 39.6054C1023.33 39.5947 1021.25 39.5951 1019.16 39.5955H1019.16H1019.16H1019.16H1019.16H1019.16H1019.16L1017.94 39.5957C1017.87 39.5957 1017.8 39.6011 1017.73 39.6065ZM1020.61 47.4918C1020.54 47.2612 1020.52 42.595 1020.59 42.0773C1020.61 42.0744 1020.63 42.0713 1020.65 42.0683C1020.7 42.0613 1020.74 42.0551 1020.79 42.0551C1021.19 42.0567 1021.6 42.0576 1022.01 42.0586H1022.01H1022.02H1022.02H1022.02H1022.02H1022.02H1022.02H1022.02H1022.02H1022.02H1022.02C1023.27 42.0616 1024.51 42.0645 1025.76 42.0835C1026.18 42.09 1026.6 42.1626 1027.01 42.2635C1028.02 42.5162 1028.51 43.0716 1028.64 44.104C1028.71 44.6407 1028.68 45.1775 1028.49 45.6921C1028.25 46.3581 1027.76 46.7877 1027.13 47.0687C1026.45 47.375 1025.71 47.4887 1024.97 47.498C1023.96 47.5116 1022.96 47.5089 1021.95 47.5063C1021.54 47.5053 1021.13 47.5042 1020.73 47.5042C1020.7 47.5042 1020.68 47.5006 1020.65 47.4972C1020.64 47.4951 1020.62 47.493 1020.61 47.4918ZM1014.36 34.2192C1013.35 34.4307 1012.38 34.4181 1011.38 34.2255C1011.37 34.1946 1011.36 34.1632 1011.35 34.1314C1011.33 34.0788 1011.31 34.0249 1011.29 33.9698C1011.21 33.7051 1011.13 33.4406 1011.05 33.1762C1010.83 32.4757 1010.62 31.7761 1010.41 31.0748C1010.31 30.7117 1010.1 30.4812 1009.75 30.3265C1008.85 29.9098 1007.89 29.7172 1006.92 29.5846C1005.42 29.3794 1003.93 29.4552 1002.43 29.5909C1002.36 29.5978 1002.28 29.6128 1002.2 29.6289L1002.2 29.6289L1002.2 29.6289C1002.17 29.6352 1002.14 29.6416 1002.11 29.6478L1002 29.9747C1001.87 30.3772 1001.73 30.7755 1001.6 31.1758L1001.59 31.2203L1001.59 31.2206C1001.3 32.137 1001.01 33.0535 1000.74 33.9761C1000.68 34.1687 1000.59 34.2413 1000.4 34.2729C999.495 34.4213 998.599 34.4023 997.667 34.2224C999.362 28.4417 1001.47 22.8442 1004.03 17.4077H1008.02C1010.59 22.819 1012.71 28.4102 1014.36 34.2192ZM1009.26 27.5988C1009.25 27.5572 1009.24 27.5202 1009.23 27.4865L1009.23 27.4862C1009.2 27.4048 1009.18 27.3424 1009.16 27.2799C1008.32 24.8774 1007.35 22.5285 1006.34 20.1923C1006.33 20.1704 1006.32 20.1473 1006.31 20.1237L1006.31 20.1234L1006.31 20.123L1006.31 20.1227L1006.31 20.1223C1006.27 19.9963 1006.21 19.8593 1006.05 19.8513C1005.87 19.8432 1005.81 19.9922 1005.76 20.1286L1005.75 20.1547L1005.74 20.1779L1005.73 20.1923C1004.68 22.6106 1003.68 25.0542 1002.84 27.5546C1002.82 27.613 1002.81 27.6731 1002.79 27.7495L1002.79 27.7499C1002.78 27.7807 1002.78 27.8142 1002.77 27.8514C1004.92 27.2231 1007.06 27.2736 1009.26 27.5988ZM1068.07 39.6334C1067.32 39.4219 1065.93 39.4219 1065.15 39.6365V40.0184C1065.15 41.0561 1065.15 42.0938 1065.15 43.1315C1065.15 45.2068 1065.15 47.282 1065.15 49.3572C1065.15 50.0014 1065.1 50.6422 1064.9 51.2577C1064.54 52.3312 1063.89 53.1393 1062.83 53.6004C1061.97 53.9761 1061.06 54.0645 1060.13 53.9287C1058.46 53.6857 1057.34 52.7733 1056.85 51.1409C1056.67 50.5506 1056.64 49.9444 1056.64 49.3319V40.025V39.6144C1055.63 39.4219 1054.68 39.4188 1053.71 39.6144L1053.7 39.6656L1053.7 39.702L1053.7 39.703V39.7031C1053.69 39.7674 1053.69 39.8258 1053.69 39.8829C1053.69 40.712 1053.69 41.5408 1053.69 42.3695V42.3699V42.3704V42.3708V42.3712C1053.69 44.8555 1053.69 47.3384 1053.7 49.8213C1053.7 50.4275 1053.77 51.0431 1053.89 51.6365C1054.36 53.8938 1055.65 55.4788 1057.86 56.2395C1059.86 56.9342 1061.9 56.928 1063.92 56.2461C1065.76 55.624 1067.01 54.3708 1067.65 52.53C1067.98 51.5861 1068.09 50.6073 1068.09 49.6129V39.8954C1068.09 39.8306 1068.09 39.7676 1068.08 39.7071L1068.08 39.6944L1068.08 39.674C1068.08 39.6603 1068.07 39.6468 1068.07 39.6334ZM1039.5 20.1543H1033.41V17.4676H1048.73V20.148H1042.65V34.2159C1041.59 34.4243 1040.56 34.4274 1039.51 34.2191C1039.5 29.5371 1039.5 24.8646 1039.5 20.1543ZM985.517 34.1585C984.787 25.6063 978.059 18.6702 970.507 18.6812C962.954 18.6921 957.473 25.5997 958.203 34.1124C958.932 42.625 965.598 49.5634 973.136 49.5987C980.673 49.6336 986.245 42.7218 985.517 34.1585ZM981.582 43.8641C979.684 46.0529 976.977 47.3431 974.107 47.4275C970.869 47.5284 967.694 46.1953 965.143 43.6733C962.567 41.1084 960.962 37.7041 960.61 34.0576C960.221 30.1631 961.32 26.4242 963.632 23.7972C965.534 21.6084 968.246 20.3209 971.12 20.2425H971.458C974.636 20.2425 977.761 21.6481 980.246 24.1897C982.743 26.7607 984.288 30.1301 984.619 33.7265C984.98 37.5662 983.864 41.2633 981.582 43.8641Z" fill="#0F1624"/>
<path d="M1143.03 31.7771L1148.16 37.051L1151 31.8917L1143.87 29.9427L1151 27.9937L1148.1 22.8917L1142.97 28.1656L1144.93 21H1139.07L1141.08 28.2803L1135.84 22.9491L1133 28.1083L1140.08 30L1133 31.9491L1135.9 37.051L1141.02 31.7198L1139.07 39H1144.93L1143.03 31.7771Z" fill="#0F1624"/>
<path fill-rule="evenodd" clip-rule="evenodd" d="M1210.51 9.17966L1235.05 16.0214V29.41L1225.85 31.542V18.422C1225.85 17.2789 1225.09 16.2732 1224 15.9543L1210.51 12.0139V9.17966ZM1237.16 33.1409L1225.85 35.7613V47.1073C1225.85 48.2929 1225.04 49.3247 1223.89 49.6043L1202.79 54.7547C1200.86 55.226 1199 53.7556 1199 51.7582V12.7618C1199 10.7074 1200.96 9.22748 1202.92 9.80052L1206.41 10.8196V6.81409C1206.41 5.28503 1207.86 4.17685 1209.33 4.5855L1237.27 12.3728C1238.38 12.6814 1239.14 13.6944 1239.14 14.8491V30.637C1239.14 31.8337 1238.32 32.8721 1237.16 33.1409ZM1221.76 19.5797V32.4896L1210.51 35.0954V16.2954L1221.76 19.5797ZM1206.41 37.3559V15.1011L1203.09 14.1307V50.4508L1221.76 45.895V36.7089L1209.23 39.6096C1207.79 39.9436 1206.41 38.843 1206.41 37.3559ZM1365.22 38.2351C1364.73 37.9332 1364.25 37.6312 1363.76 37.3229C1362.79 38.7876 1361.2 40.278 1359.75 41.2031C1357.96 42.3338 1356.04 43.1818 1353.86 43.1561C1352.94 43.1561 1352.02 43.0533 1351.1 42.9248C1349.57 42.7449 1348.24 42.0254 1346.96 41.1774C1345.43 40.1495 1344.2 38.8133 1343.2 37.2715C1341.92 35.3185 1341.28 33.1086 1341.13 30.7959C1341.05 29.7166 1341.16 28.6116 1341.34 27.5581C1341.51 26.4274 1341.77 25.271 1342.21 24.2175C1342.82 22.7013 1343.76 21.3395 1344.92 20.1574C1347.14 17.8704 1349.82 16.6112 1353.02 16.5084C1353.79 16.4827 1355.3 16.714 1355.3 16.714C1355.3 16.714 1358.03 17.2804 1359.54 18.1787C1361.46 19.3202 1362.51 20.8098 1363.53 22.2745C1363.98 21.9883 1364.54 21.6864 1365.11 21.378L1365.11 21.3779L1365.11 21.3777C1365.67 21.077 1366.23 20.7702 1366.73 20.4658C1366.49 20.1521 1366.26 19.836 1366.03 19.5229C1365.53 18.8354 1365.04 18.1623 1364.48 17.562C1362.12 15.0437 1359.21 13.4505 1355.83 12.9623C1353.46 12.6282 1351 12.6796 1348.67 13.4505C1346.4 14.2214 1344.35 15.4549 1342.69 17.228C1341.8 18.1787 1340.95 19.2323 1340.21 20.3373C1338.83 22.4187 1338.06 24.8085 1337.86 27.3011C1337.71 29.2541 1337.65 31.2327 1338.04 33.2114C1338.34 34.7532 1338.78 36.2436 1339.47 37.6569C1340.95 40.6892 1343.13 43.1561 1346.04 44.9292C1347.63 45.9056 1349.36 46.5738 1351.21 46.7279C1352.89 46.8564 1354.63 46.7536 1356.32 46.5224C1357.57 46.3425 1358.82 45.957 1359.98 45.4174C1362.84 44.0298 1365.04 41.8969 1366.67 39.1474C1366.19 38.839 1365.7 38.5371 1365.22 38.2351ZM1423.79 25.4868C1423.79 25.4868 1423.64 26.1966 1423.54 26.6077C1423.05 28.3808 1421.9 29.6913 1420.57 30.8477C1419.06 32.1839 1417.3 33.0576 1415.28 33.1604C1413.34 33.2632 1408.94 33.1604 1408.94 33.1604V29.8712C1408.94 29.8712 1412.31 29.8969 1413.64 29.7941C1416.23 29.5886 1418.27 28.4065 1419.52 26.1195C1420.22 24.8603 1420.37 23.4213 1419.98 21.9308C1419.29 19.3611 1417.56 17.9735 1415.15 17.2283C1414.64 17.0741 1414.08 16.9713 1413.54 16.9456C1411.91 16.9285 1410.27 16.9341 1408.6 16.9398L1408.6 16.9398C1407.76 16.9427 1406.91 16.9456 1406.05 16.9456V17.8707V46.2915H1402.01V45.6234V13.1938C1402.99 13.1938 1404.05 13.1873 1405.14 13.1806C1407.78 13.1642 1410.61 13.1467 1413 13.2196C1416.76 13.3223 1419.96 14.71 1422.29 17.8193C1423.08 18.8729 1423.62 20.0292 1423.79 21.3398C1423.79 21.3398 1424 22.6106 1424 23.4311C1424 24.238 1423.79 25.4868 1423.79 25.4868ZM1311.75 48.9991C1312.68 48.4595 1313.75 47.833 1314.69 47.2934C1317.84 51.9445 1321.98 53.8204 1327.17 51.0451C1330.39 49.3234 1331.62 46.5225 1331.14 43.002C1331.1 43.0236 1331.06 43.0432 1331.03 43.0625L1331.03 43.0628C1330.94 43.1122 1330.85 43.1595 1330.78 43.2333C1329.37 44.7494 1327.58 45.6231 1325.66 46.2141C1325.01 46.4172 1324.3 46.4698 1323.62 46.5206L1323.59 46.5225C1323 46.561 1322.4 46.5562 1321.81 46.5514C1321.61 46.5498 1321.41 46.5482 1321.21 46.5482C1318.53 46.4711 1316.28 45.3404 1314.29 43.6187C1312.57 42.1283 1311.29 40.3295 1310.53 38.1967C1310.22 37.3487 1310.07 36.4493 1309.94 35.5499C1309.81 34.8304 1309.71 34.0595 1309.76 33.3399C1310.04 28.252 1312.34 24.4231 1316.89 22.059C1319.09 20.9026 1321.44 20.5685 1323.85 20.8512C1326.02 21.1082 1328.02 21.9305 1329.75 23.3438C1331.47 24.7058 1332.9 26.2733 1333.79 28.2777C1334.2 29.2027 1334.56 30.2049 1334.69 31.1814C1335.05 34.0729 1335 36.9645 1334.95 39.856C1334.93 41.4871 1334.9 43.1182 1334.94 44.7494C1335 46.8051 1334.41 48.681 1333.21 50.3513C1331.83 52.2272 1330.04 53.5891 1327.86 54.4885C1326 55.2594 1324.08 55.6192 1322.08 55.465C1319.71 55.2594 1317.46 54.6427 1315.46 53.2294C1314.08 52.2529 1312.96 51.0965 1312.11 49.6318C1312.06 49.5547 1311.78 49.0762 1311.75 48.9991ZM1322.52 24.6287C1317.76 24.346 1313.39 28.9715 1313.57 34.0852C1313.72 38.6849 1317.56 43.002 1322.7 42.9249C1327.22 42.8735 1331.26 38.762 1331.21 33.4941C1331.16 29.177 1327.2 24.2946 1322.52 24.6287ZM1395.18 46.2401H1399.43L1399.24 45.8059C1398.52 44.1454 1397.84 42.5884 1397.23 41.075C1396.98 40.4691 1396.73 39.8632 1396.48 39.2592L1396.48 39.2579L1396.48 39.2557C1396.12 38.4006 1395.77 37.5491 1395.41 36.7065C1394.83 35.2929 1394.22 33.8655 1393.62 32.4445C1393.4 31.9282 1393.18 31.4127 1392.96 30.899L1390.35 24.7318C1389.84 23.5498 1389.35 22.3679 1388.86 21.1859L1388.86 21.1858L1388.86 21.1857L1388.86 21.1855L1388.86 21.1854L1388.86 21.1853C1388.62 20.5944 1388.37 20.0034 1388.13 19.4125C1387.83 18.7168 1387.45 17.8705 1387.06 16.9935C1386.47 15.6675 1385.84 14.2714 1385.43 13.2196L1381.49 13.2195C1380.89 14.4898 1380.21 16.0487 1379.62 17.4127C1379.5 17.6766 1379.39 17.9332 1379.28 18.179C1378.71 19.4535 1378.14 20.737 1377.58 22.0241L1377.58 22.0248L1377.57 22.0331C1377.18 22.9229 1376.79 23.8145 1376.39 24.7061C1375.73 26.2056 1375.06 27.6951 1374.38 29.1871L1374.38 29.1888C1373.97 30.074 1373.57 30.9601 1373.17 31.8498C1372.63 33.0448 1372.11 34.2526 1371.58 35.4604C1371.06 36.6681 1370.54 37.8758 1370 39.0706C1369.33 40.6033 1368.63 42.1255 1367.93 43.6642L1367.93 43.6654L1367.93 43.6661C1367.54 44.5259 1367.15 45.3909 1366.75 46.2658H1371.46C1375.44 36.9121 1379.43 27.6098 1383.52 18.0763C1384.69 20.8527 1385.81 23.5664 1386.94 26.2703L1386.94 26.2709L1386.94 26.2848L1386.96 26.3196C1387.73 28.1789 1388.5 30.0337 1389.28 31.9012C1388.64 31.9012 1387.91 31.9049 1387.14 31.9089H1387.14H1387.14H1387.14H1387.14H1387.14H1387.14C1385.05 31.9196 1382.65 31.9318 1381.04 31.8755L1379.46 35.2675H1380.3H1389.94H1390.5C1390.8 35.9612 1391.16 36.7513 1391.51 37.5414L1391.51 37.5427C1391.87 38.3325 1392.23 39.1223 1392.52 39.8158C1393.42 41.9487 1394.31 44.1072 1395.18 46.2401ZM1258.06 33.3402V29.8197C1258.06 29.8197 1260.26 29.794 1261.36 29.8197C1262.79 29.8454 1264.17 29.6912 1265.45 29.0231C1267.21 28.098 1268.67 26.736 1268.98 24.7317C1269.46 21.648 1268.67 19.5152 1265.53 17.7421C1264.5 17.1767 1263.4 16.8941 1262.23 16.8941C1261.09 16.8941 1259.84 16.9069 1258.6 16.9198L1258.6 16.9198H1258.6L1258.6 16.9198C1257.35 16.9326 1256.11 16.9454 1254.97 16.9454V46.2143H1250.9V45.4948V13.2194C1252.02 13.2194 1253.24 13.2086 1254.48 13.1975C1257.09 13.1744 1259.84 13.1499 1262.18 13.2194C1265.3 13.3222 1268.08 14.4015 1270.31 16.6885C1271.48 17.8962 1272.28 19.3096 1272.69 20.9542C1273.07 22.4704 1273.1 23.9865 1272.81 25.4769C1272.4 27.6868 1271.2 29.4856 1269.44 30.9503C1268.16 32.0039 1266.73 32.672 1265.17 33.1089C1264.66 33.2631 1263.53 33.3402 1263.53 33.3402H1258.06ZM1302.78 46.24V45.3663C1302.78 44.2286 1302.78 43.0926 1302.78 41.9573C1302.79 38.5539 1302.79 35.1576 1302.75 31.747C1302.73 29.2544 1301.45 27.4042 1299.51 25.9652C1297.85 24.7317 1295.95 24.6546 1294.09 24.9887C1292.4 25.297 1291.07 26.3247 1290.05 27.7123C1289.08 28.9971 1288.69 30.4364 1288.72 32.0553C1288.75 34.6142 1288.74 37.4255 1288.74 40.2003V40.2009V40.2014V40.2049C1288.74 42.2772 1288.73 44.329 1288.74 46.24H1284.91V45.6233C1284.91 44.229 1284.9 42.8347 1284.89 41.4403L1284.89 41.4384C1284.87 37.951 1284.85 34.4635 1284.96 30.9761C1285.06 27.6869 1286.7 25.0655 1289.33 23.0869C1290.41 22.2903 1291.58 21.6993 1292.86 21.391C1294.42 21.0312 1296 20.9284 1297.64 21.2368C1299.15 21.5195 1300.5 22.0077 1301.78 22.8299C1303.52 23.9862 1304.8 25.5281 1305.64 27.4553C1306.39 29.1513 1306.64 30.9247 1306.64 32.7748C1306.64 34.4564 1306.63 36.2552 1306.62 38.0782L1306.62 38.0816V38.0823V38.0829L1306.62 38.0847V38.0854C1306.61 40.8568 1306.6 43.6838 1306.61 46.24C1305.93 46.2223 1304.87 46.229 1303.93 46.2349H1303.93H1303.93C1303.51 46.2375 1303.11 46.24 1302.78 46.24ZM1280.51 22.6499H1276.75V46.2397H1280.51V22.6499ZM1280.51 17.7163H1276.73V13.8875H1280.51V17.7163Z" fill="#0F1624"/>
<defs>
<clipPath id="clip0_0_4">
<rect width="161" height="54" fill="white" transform="translate(66 3.00003)"/>
</clipPath>
<clipPath id="clip1_0_4">
<rect width="214" height="46" fill="white" transform="translate(614 7.00003)"/>
</clipPath>
</defs>
</svg>
