<svg width="321" height="64" viewBox="0 0 321 64" fill="none" xmlns="http://www.w3.org/2000/svg">
<g clip-path="url(#clip0_1960_21748)">
<path d="M3.41016 40.8164C4.02638 45.8616 2.88635 50.4554 1.86179 62.1278M2.28009 62.4384C5.05206 60.4627 9.01853 57.3177 16.6669 50.301" stroke="#172136" stroke-width="2" stroke-linecap="round"/>
<path d="M3.64389 60.8971C3.64389 60.8971 3.59735 51.4339 21.5485 38.4347C43.2294 22.7335 68.9501 25.2636 68.9501 25.2636" stroke="#172136" stroke-width="2" stroke-linecap="round"/>
</g>
<path d="M92.65 12.412C92.65 13.2773 92.2027 14.1207 91.308 14.942C90.4133 15.7487 89.2547 16.4013 87.832 16.9C86.4093 17.384 84.9573 17.626 83.476 17.626C82.6107 17.626 81.8333 17.384 81.144 16.9C80.4693 16.416 80.132 15.9687 80.132 15.558C80.132 15.1327 80.2567 14.92 80.506 14.92C80.5647 14.92 80.8507 15.0813 81.364 15.404C81.892 15.712 82.442 15.8733 83.014 15.888C82.8087 15.7853 82.6107 15.5947 82.42 15.316C82.244 15.0373 82.156 14.7733 82.156 14.524C82.156 14.2747 82.332 13.578 82.684 12.434C83.7693 8.98733 84.3267 6.34 84.356 4.492H84.18C83.916 4.492 83.6447 4.33067 83.366 4.008C83.0873 3.67067 82.948 3.39933 82.948 3.194C82.948 2.94467 83.256 2.732 83.872 2.556C84.5027 2.36533 85.258 2.27 86.138 2.27C88.1913 2.27 89.7753 2.54867 90.89 3.106C92.0047 3.66333 92.562 4.47 92.562 5.526C92.562 6.406 92.188 7.20533 91.44 7.924C90.7067 8.64267 89.6287 9.222 88.206 9.662L88.404 9.684C89.636 9.75733 90.648 10.058 91.44 10.586C92.2467 11.114 92.65 11.7227 92.65 12.412ZM90.582 5.636C90.582 5.152 90.3327 4.778 89.834 4.514C89.35 4.23533 88.756 4.096 88.052 4.096C87.3627 4.096 86.5193 4.184 85.522 4.36C85.9327 4.8 86.138 5.22533 86.138 5.636C86.138 6.032 85.8813 7.242 85.368 9.266C85.72 9.046 86.27 8.79667 87.018 8.518C87.766 8.22467 88.3527 7.968 88.778 7.748C89.218 7.528 89.5333 7.33733 89.724 7.176C89.9293 7 90.12 6.77267 90.296 6.494C90.4867 6.21533 90.582 5.92933 90.582 5.636ZM90.736 12.324C90.736 11.884 90.2227 11.5173 89.196 11.224C88.184 10.916 87.172 10.762 86.16 10.762C85.764 10.762 85.4193 10.5567 85.126 10.146C84.2313 13.6807 83.6447 15.5947 83.366 15.888C84.4073 15.8587 85.5 15.6753 86.644 15.338C87.788 14.986 88.756 14.5313 89.548 13.974C90.34 13.4167 90.736 12.8667 90.736 12.324ZM102.038 7.374C102.096 7.13933 102.155 6.978 102.214 6.89C102.272 6.802 102.397 6.758 102.588 6.758C102.793 6.758 103.035 6.94867 103.314 7.33C103.607 7.71133 103.754 8.078 103.754 8.43C103.754 8.62067 103.431 9.75 102.786 11.818C102.14 13.886 101.642 15.5287 101.29 16.746C101.114 17.362 100.864 17.67 100.542 17.67C100.351 17.67 100.19 17.5893 100.058 17.428C99.9258 17.2667 99.8598 16.9733 99.8598 16.548C99.8598 16.1227 100.028 15.3527 100.366 14.238C99.7498 15.2353 99.0825 16.0567 98.3638 16.702C97.6451 17.3473 96.9851 17.67 96.3838 17.67C95.7971 17.67 95.2398 17.3913 94.7118 16.834C94.1838 16.2767 93.9198 15.7047 93.9198 15.118C93.9198 13.7247 94.3231 11.9867 95.1298 9.904C95.9511 7.80667 96.6331 6.758 97.1758 6.758C97.4398 6.758 97.6671 6.88267 97.8578 7.132C98.0631 7.36667 98.1658 7.638 98.1658 7.946C98.1658 8.078 97.9678 8.55467 97.5718 9.376C97.1758 10.1827 96.7798 11.136 96.3838 12.236C95.9878 13.3213 95.7898 14.2747 95.7898 15.096C95.7898 15.3307 95.8631 15.5287 96.0098 15.69C96.1565 15.8367 96.3325 15.91 96.5378 15.91C97.0951 15.91 97.7551 15.4187 98.5178 14.436C99.2951 13.4533 99.9991 12.3093 100.63 11.004C101.26 9.69867 101.73 8.48867 102.038 7.374ZM107.218 3.634C107.218 3.34067 107.335 3.062 107.57 2.798C107.804 2.534 108.039 2.402 108.274 2.402C108.523 2.402 108.816 2.70267 109.154 3.304C109.491 3.89067 109.66 4.382 109.66 4.778C109.66 4.92467 109.594 5.05667 109.462 5.174C109.33 5.29133 109.19 5.35 109.044 5.35C108.692 5.35 108.296 5.13733 107.856 4.712C107.43 4.28667 107.218 3.92733 107.218 3.634ZM107.108 6.758C107.386 6.758 107.65 6.92667 107.9 7.264C108.149 7.60133 108.274 7.93133 108.274 8.254C108.274 8.57667 108.061 9.54467 107.636 11.158C107.21 12.7567 106.675 14.5533 106.03 16.548C105.78 17.2813 105.465 17.648 105.084 17.648C104.878 17.648 104.702 17.5673 104.556 17.406C104.409 17.23 104.336 17.0393 104.336 16.834C104.336 16.614 104.387 16.2767 104.49 15.822C104.607 15.3527 104.768 14.7367 104.974 13.974C105.194 13.1967 105.362 12.566 105.48 12.082C105.612 11.598 105.744 11.0553 105.876 10.454C106.008 9.838 106.11 9.34667 106.184 8.98C106.272 8.59867 106.367 8.21733 106.47 7.836C106.675 7.11733 106.888 6.758 107.108 6.758ZM113.538 2.446C113.538 5.20333 112.966 8.782 111.822 13.182C111.088 16.174 110.575 17.67 110.282 17.67C110.076 17.67 109.834 17.5087 109.556 17.186C109.292 16.8633 109.16 16.614 109.16 16.438C109.16 16.262 109.372 15.3527 109.798 13.71C110.223 12.0673 110.648 10.0507 111.074 7.66C111.499 5.25467 111.712 3.09133 111.712 1.17C111.712 0.964666 111.741 0.817999 111.8 0.729999C111.858 0.642 111.983 0.598 112.174 0.598C112.364 0.598 112.636 0.810666 112.988 1.236C113.354 1.64667 113.538 2.05 113.538 2.446ZM116.62 15.47C116.62 15.7487 116.782 15.888 117.104 15.888C117.662 15.888 118.336 15.734 119.128 15.426C119.935 15.1033 120.382 14.942 120.47 14.942C120.734 14.942 120.866 15.0813 120.866 15.36C120.866 15.7853 120.426 16.2767 119.546 16.834C118.681 17.3913 117.889 17.67 117.17 17.67C116.466 17.67 115.88 17.4793 115.41 17.098C114.941 16.702 114.706 16.2987 114.706 15.888C114.706 15.4773 114.794 14.9567 114.97 14.326C115.146 13.6807 115.396 12.8373 115.718 11.796C116.056 10.74 116.32 9.86733 116.51 9.178C115.821 9.33933 115.359 9.42 115.124 9.42C114.89 9.42 114.655 9.30267 114.42 9.068C114.2 8.81867 114.09 8.584 114.09 8.364C114.09 8.012 115.044 7.67467 116.95 7.352C117.214 6.13467 117.346 5.05667 117.346 4.118C117.346 3.678 117.493 3.458 117.786 3.458C118.036 3.458 118.344 3.61933 118.71 3.942C119.077 4.25 119.26 4.602 119.26 4.998C119.26 5.394 119.136 6.09067 118.886 7.088C119.722 7.01467 120.39 6.978 120.888 6.978C121.768 6.978 122.208 7.16867 122.208 7.55C122.208 7.77 121.966 7.95333 121.482 8.1C121.013 8.24667 120.016 8.474 118.49 8.782C118.182 9.94067 117.794 11.268 117.324 12.764C116.855 14.2453 116.62 15.1473 116.62 15.47ZM131.56 17.67C131.355 17.67 131.113 17.516 130.834 17.208C130.556 16.8853 130.416 16.5847 130.416 16.306C130.416 16.0273 130.644 15.074 131.098 13.446C131.568 11.818 132.03 9.86 132.484 7.572C132.954 5.26933 133.188 3.16467 133.188 1.258C133.188 0.818 133.35 0.598 133.672 0.598C133.907 0.598 134.193 0.818 134.53 1.258C134.868 1.68333 135.036 2.10133 135.036 2.512C135.036 4.316 134.64 6.89 133.848 10.234C135.594 7.87267 137.178 6.692 138.6 6.692C139.29 6.692 139.869 7.02933 140.338 7.704C140.822 8.37867 141.064 9.18533 141.064 10.124C141.064 11.048 140.793 12.1113 140.25 13.314C139.722 14.5167 139.004 15.5507 138.094 16.416C137.185 17.2667 136.232 17.692 135.234 17.692C134.237 17.692 133.254 17.186 132.286 16.174L132.264 16.196C131.942 17.1787 131.707 17.67 131.56 17.67ZM135.058 15.976C136.012 15.976 136.943 15.3307 137.852 14.04C138.776 12.7347 139.238 11.3633 139.238 9.926C139.238 9.06067 138.974 8.628 138.446 8.628C137.596 8.628 136.642 9.222 135.586 10.41C134.545 11.598 133.643 13.0133 132.88 14.656C133.57 15.536 134.296 15.976 135.058 15.976ZM150.335 6.758C150.57 6.758 150.819 6.934 151.083 7.286C151.362 7.62333 151.501 8.00467 151.501 8.43C151.501 8.72333 151.2 9.72067 150.599 11.422C149.998 13.1233 149.587 14.282 149.367 14.898C149.162 15.4993 148.876 16.306 148.509 17.318C148.157 18.3153 147.812 19.2907 147.475 20.244C146.742 22.3413 145.642 23.39 144.175 23.39C143.339 23.39 142.54 23.1333 141.777 22.62C141.014 22.1213 140.633 21.6007 140.633 21.058C140.633 20.8527 140.728 20.6253 140.919 20.376C141.095 20.1267 141.249 20.002 141.381 20.002C141.513 20.002 141.726 20.1633 142.019 20.486C142.87 21.454 143.596 21.938 144.197 21.938C144.652 21.938 145.062 21.5347 145.429 20.728C145.796 19.936 146.14 19.034 146.463 18.022C146.8 17.0247 146.984 16.4747 147.013 16.372C147.057 16.2693 147.101 16.1373 147.145 15.976C147.204 15.8147 147.255 15.668 147.299 15.536C146.258 16.9587 145.231 17.67 144.219 17.67C143.603 17.67 143.031 17.384 142.503 16.812C141.99 16.24 141.733 15.5653 141.733 14.788C141.733 14.0107 141.924 12.962 142.305 11.642C142.686 10.322 143.134 9.178 143.647 8.21C144.16 7.242 144.578 6.758 144.901 6.758C145.165 6.758 145.407 6.88267 145.627 7.132C145.862 7.36667 145.979 7.60867 145.979 7.858C145.979 8.10733 145.788 8.628 145.407 9.42C144.219 11.8547 143.625 13.7467 143.625 15.096C143.625 15.3307 143.698 15.5287 143.845 15.69C143.992 15.8367 144.168 15.91 144.373 15.91C144.901 15.91 145.532 15.4407 146.265 14.502C146.998 13.5633 147.673 12.4487 148.289 11.158C148.802 10.0727 149.338 8.68667 149.895 7C149.954 6.83867 150.1 6.758 150.335 6.758ZM168.773 10.41C168.773 11.1873 168.348 11.8253 167.497 12.324C166.661 12.808 165.708 13.05 164.637 13.05C163.581 13.05 162.621 12.9327 161.755 12.698C161.55 13.3433 161.447 13.9227 161.447 14.436C161.447 14.9347 161.601 15.3233 161.909 15.602C162.232 15.8807 162.753 16.02 163.471 16.02C164.205 16.02 164.953 15.8953 165.715 15.646C166.493 15.382 166.918 15.25 166.991 15.25C167.373 15.25 167.563 15.3967 167.563 15.69C167.563 16.086 167.116 16.5187 166.221 16.988C165.327 17.4427 164.454 17.67 163.603 17.67C162.459 17.67 161.528 17.3327 160.809 16.658C160.091 15.9687 159.731 15.1033 159.731 14.062C159.731 13.0207 160.01 11.9353 160.567 10.806C161.125 9.662 161.843 8.70133 162.723 7.924C163.603 7.14667 164.476 6.758 165.341 6.758C166.207 6.758 166.991 7.16867 167.695 7.99C168.414 8.81133 168.773 9.618 168.773 10.41ZM165.451 8.496C164.909 8.496 164.344 8.782 163.757 9.354C163.171 9.91133 162.672 10.608 162.261 11.444C162.848 11.576 163.515 11.642 164.263 11.642C165.011 11.642 165.664 11.5247 166.221 11.29C166.779 11.0407 167.057 10.718 167.057 10.322C167.057 9.926 166.874 9.52267 166.507 9.112C166.155 8.70133 165.803 8.496 165.451 8.496ZM171.616 13.842C173.024 11.4513 174.168 9.67667 175.048 8.518C175.942 7.34467 176.668 6.758 177.226 6.758C177.798 6.758 178.333 7.05867 178.832 7.66C179.345 8.26133 179.602 8.89933 179.602 9.574C179.602 10.63 179.36 11.9207 178.876 13.446C177.996 16.262 177.204 17.67 176.5 17.67C176.177 17.67 176.016 17.45 176.016 17.01C176.016 16.702 176.17 16.0787 176.478 15.14C176.8 14.1867 177.094 13.2553 177.358 12.346C177.636 11.422 177.776 10.7327 177.776 10.278C177.776 9.80867 177.702 9.464 177.556 9.244C177.424 9.024 177.284 8.914 177.138 8.914C177.006 8.914 176.866 8.958 176.72 9.046C176.573 9.134 176.404 9.28067 176.214 9.486C176.038 9.69133 175.869 9.89667 175.708 10.102C175.546 10.2927 175.341 10.5713 175.092 10.938C174.857 11.3047 174.659 11.62 174.498 11.884C174.336 12.1333 174.102 12.5 173.794 12.984C173.486 13.468 173.251 13.8347 173.09 14.084C172.928 14.3333 172.716 14.6707 172.452 15.096C172.188 15.5213 171.975 15.8513 171.814 16.086C171.667 16.3207 171.498 16.5773 171.308 16.856C170.941 17.3987 170.648 17.67 170.428 17.67C170.222 17.67 169.98 17.5087 169.702 17.186C169.423 16.8487 169.284 16.5553 169.284 16.306C169.284 16.2327 169.335 16.0347 169.438 15.712C169.716 14.8613 170.024 13.8127 170.362 12.566C170.699 11.3047 170.882 9.87467 170.912 8.276C170.956 7.20533 171.11 6.67 171.374 6.67C171.696 6.67 172.019 6.83867 172.342 7.176C172.664 7.51333 172.826 7.88733 172.826 8.298C172.826 8.694 172.701 9.47133 172.452 10.63C172.217 11.774 171.938 12.8447 171.616 13.842ZM189.462 11.73C189.462 12.3167 189.206 12.984 188.692 13.732C188.296 14.6267 187.871 15.9173 187.416 17.604C186.962 19.276 186.58 20.4713 186.272 21.19C185.656 22.686 184.71 23.434 183.434 23.434C182.393 23.434 181.513 23.148 180.794 22.576C180.09 22.0187 179.738 21.4613 179.738 20.904C179.738 20.6693 179.812 20.4347 179.958 20.2C180.09 19.9653 180.23 19.848 180.376 19.848C180.538 19.848 180.714 19.958 180.904 20.178C181.095 20.398 181.271 20.6327 181.432 20.882C181.608 21.146 181.865 21.388 182.202 21.608C182.554 21.828 182.892 21.938 183.214 21.938C183.537 21.938 183.779 21.8867 183.94 21.784C184.102 21.696 184.256 21.542 184.402 21.322C184.549 21.1167 184.674 20.904 184.776 20.684C184.879 20.4787 184.989 20.178 185.106 19.782C185.238 19.4007 185.341 19.0707 185.414 18.792C185.488 18.5133 185.59 18.1247 185.722 17.626C185.854 17.1127 185.964 16.702 186.052 16.394C184.908 17.2447 183.977 17.67 183.258 17.67C182.54 17.67 181.916 17.384 181.388 16.812C180.86 16.2253 180.596 15.5507 180.596 14.788C180.596 14.0107 180.882 12.984 181.454 11.708C182.041 10.432 182.826 9.288 183.808 8.276C184.791 7.264 185.752 6.758 186.69 6.758C187.292 6.758 187.798 6.98533 188.208 7.44C188.883 8.188 189.22 9.25133 189.22 10.63C189.22 10.806 189.213 10.9307 189.198 11.004C189.374 11.2533 189.462 11.4953 189.462 11.73ZM182.378 15.008C182.378 15.2573 182.459 15.4627 182.62 15.624C182.782 15.7707 182.987 15.844 183.236 15.844C183.97 15.844 184.835 15.4113 185.832 14.546C186.83 13.666 187.534 12.6467 187.944 11.488C187.886 11.2973 187.834 11.004 187.79 10.608C187.746 10.212 187.702 9.89667 187.658 9.662C187.614 9.42733 187.519 9.19267 187.372 8.958C187.226 8.70867 187.035 8.584 186.8 8.584C186.228 8.584 185.583 8.99467 184.864 9.816C184.146 10.6373 183.552 11.554 183.082 12.566C182.613 13.578 182.378 14.392 182.378 15.008ZM193.568 3.634C193.568 3.34067 193.685 3.062 193.92 2.798C194.154 2.534 194.389 2.402 194.624 2.402C194.873 2.402 195.166 2.70267 195.504 3.304C195.841 3.89067 196.01 4.382 196.01 4.778C196.01 4.92467 195.944 5.05667 195.812 5.174C195.68 5.29133 195.54 5.35 195.394 5.35C195.042 5.35 194.646 5.13733 194.206 4.712C193.78 4.28667 193.568 3.92733 193.568 3.634ZM193.458 6.758C193.736 6.758 194 6.92667 194.25 7.264C194.499 7.60133 194.624 7.93133 194.624 8.254C194.624 8.57667 194.411 9.54467 193.986 11.158C193.56 12.7567 193.025 14.5533 192.38 16.548C192.13 17.2813 191.815 17.648 191.434 17.648C191.228 17.648 191.052 17.5673 190.906 17.406C190.759 17.23 190.686 17.0393 190.686 16.834C190.686 16.614 190.737 16.2767 190.84 15.822C190.957 15.3527 191.118 14.7367 191.324 13.974C191.544 13.1967 191.712 12.566 191.83 12.082C191.962 11.598 192.094 11.0553 192.226 10.454C192.358 9.838 192.46 9.34667 192.534 8.98C192.622 8.59867 192.717 8.21733 192.82 7.836C193.025 7.11733 193.238 6.758 193.458 6.758ZM197.71 13.842C199.118 11.4513 200.262 9.67667 201.142 8.518C202.036 7.34467 202.762 6.758 203.32 6.758C203.892 6.758 204.427 7.05867 204.926 7.66C205.439 8.26133 205.696 8.89933 205.696 9.574C205.696 10.63 205.454 11.9207 204.97 13.446C204.09 16.262 203.298 17.67 202.594 17.67C202.271 17.67 202.11 17.45 202.11 17.01C202.11 16.702 202.264 16.0787 202.572 15.14C202.894 14.1867 203.188 13.2553 203.452 12.346C203.73 11.422 203.87 10.7327 203.87 10.278C203.87 9.80867 203.796 9.464 203.65 9.244C203.518 9.024 203.378 8.914 203.232 8.914C203.1 8.914 202.96 8.958 202.814 9.046C202.667 9.134 202.498 9.28067 202.308 9.486C202.132 9.69133 201.963 9.89667 201.802 10.102C201.64 10.2927 201.435 10.5713 201.186 10.938C200.951 11.3047 200.753 11.62 200.592 11.884C200.43 12.1333 200.196 12.5 199.888 12.984C199.58 13.468 199.345 13.8347 199.184 14.084C199.022 14.3333 198.81 14.6707 198.546 15.096C198.282 15.5213 198.069 15.8513 197.908 16.086C197.761 16.3207 197.592 16.5773 197.402 16.856C197.035 17.3987 196.742 17.67 196.522 17.67C196.316 17.67 196.074 17.5087 195.796 17.186C195.517 16.8487 195.378 16.5553 195.378 16.306C195.378 16.2327 195.429 16.0347 195.532 15.712C195.81 14.8613 196.118 13.8127 196.456 12.566C196.793 11.3047 196.976 9.87467 197.006 8.276C197.05 7.20533 197.204 6.67 197.468 6.67C197.79 6.67 198.113 6.83867 198.436 7.176C198.758 7.51333 198.92 7.88733 198.92 8.298C198.92 8.694 198.795 9.47133 198.546 10.63C198.311 11.774 198.032 12.8447 197.71 13.842ZM215.622 10.41C215.622 11.1873 215.197 11.8253 214.346 12.324C213.51 12.808 212.557 13.05 211.486 13.05C210.43 13.05 209.47 12.9327 208.604 12.698C208.399 13.3433 208.296 13.9227 208.296 14.436C208.296 14.9347 208.45 15.3233 208.758 15.602C209.081 15.8807 209.602 16.02 210.32 16.02C211.054 16.02 211.802 15.8953 212.564 15.646C213.342 15.382 213.767 15.25 213.84 15.25C214.222 15.25 214.412 15.3967 214.412 15.69C214.412 16.086 213.965 16.5187 213.07 16.988C212.176 17.4427 211.303 17.67 210.452 17.67C209.308 17.67 208.377 17.3327 207.658 16.658C206.94 15.9687 206.58 15.1033 206.58 14.062C206.58 13.0207 206.859 11.9353 207.416 10.806C207.974 9.662 208.692 8.70133 209.572 7.924C210.452 7.14667 211.325 6.758 212.19 6.758C213.056 6.758 213.84 7.16867 214.544 7.99C215.263 8.81133 215.622 9.618 215.622 10.41ZM212.3 8.496C211.758 8.496 211.193 8.782 210.606 9.354C210.02 9.91133 209.521 10.608 209.11 11.444C209.697 11.576 210.364 11.642 211.112 11.642C211.86 11.642 212.513 11.5247 213.07 11.29C213.628 11.0407 213.906 10.718 213.906 10.322C213.906 9.926 213.723 9.52267 213.356 9.112C213.004 8.70133 212.652 8.496 212.3 8.496ZM225.087 10.41C225.087 11.1873 224.661 11.8253 223.811 12.324C222.975 12.808 222.021 13.05 220.951 13.05C219.895 13.05 218.934 12.9327 218.069 12.698C217.863 13.3433 217.761 13.9227 217.761 14.436C217.761 14.9347 217.915 15.3233 218.223 15.602C218.545 15.8807 219.066 16.02 219.785 16.02C220.518 16.02 221.266 15.8953 222.029 15.646C222.806 15.382 223.231 15.25 223.305 15.25C223.686 15.25 223.877 15.3967 223.877 15.69C223.877 16.086 223.429 16.5187 222.535 16.988C221.64 17.4427 220.767 17.67 219.917 17.67C218.773 17.67 217.841 17.3327 217.123 16.658C216.404 15.9687 216.045 15.1033 216.045 14.062C216.045 13.0207 216.323 11.9353 216.881 10.806C217.438 9.662 218.157 8.70133 219.037 7.924C219.917 7.14667 220.789 6.758 221.655 6.758C222.52 6.758 223.305 7.16867 224.009 7.99C224.727 8.81133 225.087 9.618 225.087 10.41ZM221.765 8.496C221.222 8.496 220.657 8.782 220.071 9.354C219.484 9.91133 218.985 10.608 218.575 11.444C219.161 11.576 219.829 11.642 220.577 11.642C221.325 11.642 221.977 11.5247 222.535 11.29C223.092 11.0407 223.371 10.718 223.371 10.322C223.371 9.926 223.187 9.52267 222.821 9.112C222.469 8.70133 222.117 8.496 221.765 8.496ZM227.093 9.442L227.027 7.792C227.027 7.10267 227.188 6.758 227.511 6.758C227.79 6.758 228.054 6.94133 228.303 7.308C228.567 7.66 228.699 8.08533 228.699 8.584C228.699 9.068 228.684 9.43467 228.655 9.684C229.931 7.748 231.141 6.78 232.285 6.78C233.004 6.78 233.363 6.956 233.363 7.308C233.363 7.484 233.282 7.64533 233.121 7.792C232.96 7.93867 232.703 8.10733 232.351 8.298C231.574 8.63533 230.914 9.156 230.371 9.86C229.843 10.5493 229.41 11.334 229.073 12.214C228.736 13.094 228.464 13.8347 228.259 14.436C228.068 15.0373 227.922 15.5067 227.819 15.844C227.716 16.1813 227.599 16.5113 227.467 16.834C227.232 17.4207 226.961 17.714 226.653 17.714C226.404 17.714 226.198 17.5747 226.037 17.296C225.89 17.0027 225.817 16.724 225.817 16.46C225.817 16.1813 225.942 15.6387 226.191 14.832C226.792 12.984 227.093 11.1873 227.093 9.442ZM238.908 6.758C239.407 6.758 239.876 7.03667 240.316 7.594C240.756 8.13667 240.976 8.61333 240.976 9.024C240.976 9.27333 240.859 9.398 240.624 9.398C240.463 9.398 240.213 9.27333 239.876 9.024C239.539 8.76 239.194 8.628 238.842 8.628C238.49 8.628 237.933 8.83333 237.17 9.244C236.422 9.65467 236.048 10.0873 236.048 10.542C236.048 10.8793 236.723 11.4587 238.072 12.28C238.585 12.6027 239.047 13.0207 239.458 13.534C239.883 14.0327 240.096 14.5753 240.096 15.162C240.096 15.734 239.693 16.2987 238.886 16.856C238.094 17.3987 237.163 17.67 236.092 17.67C235.036 17.67 234.097 17.4133 233.276 16.9C232.469 16.3867 232.066 15.9027 232.066 15.448C232.066 15.2573 232.11 15.1107 232.198 15.008C232.301 14.8907 232.425 14.832 232.572 14.832C232.719 14.832 232.924 14.9273 233.188 15.118C233.98 15.69 234.801 15.976 235.652 15.976C236.517 15.976 237.141 15.8807 237.522 15.69C237.903 15.4847 238.094 15.2207 238.094 14.898C238.094 14.5607 237.881 14.2087 237.456 13.842C237.031 13.4607 236.561 13.1233 236.048 12.83C235.549 12.5367 235.087 12.1773 234.662 11.752C234.237 11.3267 234.024 10.894 234.024 10.454C234.024 9.67667 234.633 8.87 235.85 8.034C237.082 7.18333 238.101 6.758 238.908 6.758ZM259.657 7.946C259.657 8.078 259.005 8.76733 257.699 10.014C257.215 10.4833 256.768 11.0407 256.357 11.686C255.961 12.3167 255.763 12.896 255.763 13.424C255.763 13.952 255.917 14.4433 256.225 14.898C256.548 15.338 256.893 15.6753 257.259 15.91C257.641 16.13 257.985 16.35 258.293 16.57C258.616 16.79 258.777 16.9733 258.777 17.12C258.777 17.4867 258.484 17.67 257.897 17.67C257.325 17.67 256.636 17.3473 255.829 16.702C255.037 16.042 254.546 15.3087 254.355 14.502C254.282 14.3553 254.223 14.216 254.179 14.084C253.182 15.4333 252.456 16.372 252.001 16.9C251.561 17.4133 251.231 17.67 251.011 17.67C250.791 17.67 250.549 17.5013 250.285 17.164C250.021 16.812 249.889 16.526 249.889 16.306C249.889 16.0713 250.124 15.1253 250.593 13.468C251.077 11.796 251.554 9.794 252.023 7.462C252.507 5.13 252.749 3.04733 252.749 1.214C252.749 0.979333 252.779 0.817999 252.837 0.729999C252.911 0.642 253.057 0.598 253.277 0.598C253.497 0.598 253.769 0.818 254.091 1.258C254.414 1.68333 254.575 2.10133 254.575 2.512C254.575 3.81733 254.311 5.64333 253.783 7.99C253.255 10.3367 252.625 12.566 251.891 14.678C253.549 12.3167 254.979 10.41 256.181 8.958C257.399 7.49133 258.147 6.758 258.425 6.758C258.719 6.758 258.997 6.89733 259.261 7.176C259.525 7.45467 259.657 7.71133 259.657 7.946ZM261.962 13.842C263.37 11.4513 264.514 9.67667 265.394 8.518C266.288 7.34467 267.014 6.758 267.572 6.758C268.144 6.758 268.679 7.05867 269.178 7.66C269.691 8.26133 269.948 8.89933 269.948 9.574C269.948 10.63 269.706 11.9207 269.222 13.446C268.342 16.262 267.55 17.67 266.846 17.67C266.523 17.67 266.362 17.45 266.362 17.01C266.362 16.702 266.516 16.0787 266.824 15.14C267.146 14.1867 267.44 13.2553 267.704 12.346C267.982 11.422 268.122 10.7327 268.122 10.278C268.122 9.80867 268.048 9.464 267.902 9.244C267.77 9.024 267.63 8.914 267.484 8.914C267.352 8.914 267.212 8.958 267.066 9.046C266.919 9.134 266.75 9.28067 266.56 9.486C266.384 9.69133 266.215 9.89667 266.054 10.102C265.892 10.2927 265.687 10.5713 265.438 10.938C265.203 11.3047 265.005 11.62 264.844 11.884C264.682 12.1333 264.448 12.5 264.14 12.984C263.832 13.468 263.597 13.8347 263.436 14.084C263.274 14.3333 263.062 14.6707 262.798 15.096C262.534 15.5213 262.321 15.8513 262.16 16.086C262.013 16.3207 261.844 16.5773 261.654 16.856C261.287 17.3987 260.994 17.67 260.774 17.67C260.568 17.67 260.326 17.5087 260.048 17.186C259.769 16.8487 259.63 16.5553 259.63 16.306C259.63 16.2327 259.681 16.0347 259.784 15.712C260.062 14.8613 260.37 13.8127 260.708 12.566C261.045 11.3047 261.228 9.87467 261.258 8.276C261.302 7.20533 261.456 6.67 261.72 6.67C262.042 6.67 262.365 6.83867 262.688 7.176C263.01 7.51333 263.172 7.88733 263.172 8.298C263.172 8.694 263.047 9.47133 262.798 10.63C262.563 11.774 262.284 12.8447 261.962 13.842ZM277.74 10.498C277.74 9.99933 277.66 9.53 277.498 9.09C277.337 8.63533 277.102 8.30533 276.794 8.1C275.782 8.37867 274.91 9.16333 274.176 10.454C273.458 11.73 273.098 12.9327 273.098 14.062C273.098 15.1913 273.377 15.8953 273.934 16.174C274.99 15.9687 275.885 15.25 276.618 14.018C277.366 12.7713 277.74 11.598 277.74 10.498ZM271.954 10.696C272.468 9.552 273.135 8.61333 273.956 7.88C274.792 7.132 275.643 6.758 276.508 6.758C277.388 6.758 278.122 7.132 278.708 7.88C279.295 8.61333 279.588 9.51533 279.588 10.586C279.588 11.642 279.332 12.7273 278.818 13.842C278.305 14.942 277.594 15.8587 276.684 16.592C275.79 17.3107 274.836 17.67 273.824 17.67C273.076 17.67 272.453 17.3253 271.954 16.636C271.456 15.9467 271.206 15.074 271.206 14.018C271.206 12.9473 271.456 11.84 271.954 10.696ZM289.469 9.09L289.315 13.226C289.315 14.37 289.366 15.1987 289.469 15.712C290.1 15.052 290.642 14.282 291.097 13.402C291.566 12.5073 291.911 11.6787 292.131 10.916C292.366 10.1533 292.564 9.442 292.725 8.782C292.901 8.10733 293.062 7.572 293.209 7.176C293.356 6.78 293.524 6.582 293.715 6.582C293.994 6.582 294.243 6.69933 294.463 6.934C294.683 7.154 294.793 7.41067 294.793 7.704C294.793 8.452 294.456 9.684 293.781 11.4C293.209 12.984 292.461 14.436 291.537 15.756C290.613 17.0613 289.894 17.714 289.381 17.714C288.868 17.714 288.479 17.428 288.215 16.856C287.966 16.284 287.826 15.1913 287.797 13.578C287.768 11.95 287.79 10.542 287.863 9.354C286.851 12.1113 285.956 14.194 285.179 15.602C284.402 17.01 283.786 17.714 283.331 17.714C283.126 17.714 282.906 17.6187 282.671 17.428C282.451 17.2373 282.275 16.988 282.143 16.68C281.82 15.9027 281.542 14.4213 281.307 12.236C281.087 10.036 280.977 8.46667 280.977 7.528C280.977 6.92667 281.16 6.626 281.527 6.626C281.85 6.626 282.143 6.80933 282.407 7.176C282.686 7.54267 282.847 7.90933 282.891 8.276C282.935 8.628 282.972 9.62533 283.001 11.268C283.045 12.896 283.184 14.348 283.419 15.624C284.02 14.5827 284.622 13.2773 285.223 11.708C285.839 10.1387 286.338 8.90667 286.719 8.012C287.115 7.11733 287.474 6.67 287.797 6.67C288.281 6.67 288.677 6.89733 288.985 7.352C289.308 7.792 289.469 8.37133 289.469 9.09ZM297.804 3.634C297.804 3.34067 297.921 3.062 298.156 2.798C298.39 2.534 298.625 2.402 298.86 2.402C299.109 2.402 299.402 2.70267 299.74 3.304C300.077 3.89067 300.246 4.382 300.246 4.778C300.246 4.92467 300.18 5.05667 300.048 5.174C299.916 5.29133 299.776 5.35 299.63 5.35C299.278 5.35 298.882 5.13733 298.442 4.712C298.016 4.28667 297.804 3.92733 297.804 3.634ZM297.694 6.758C297.972 6.758 298.236 6.92667 298.486 7.264C298.735 7.60133 298.86 7.93133 298.86 8.254C298.86 8.57667 298.647 9.54467 298.222 11.158C297.796 12.7567 297.261 14.5533 296.616 16.548C296.366 17.2813 296.051 17.648 295.67 17.648C295.464 17.648 295.288 17.5673 295.142 17.406C294.995 17.23 294.922 17.0393 294.922 16.834C294.922 16.614 294.973 16.2767 295.076 15.822C295.193 15.3527 295.354 14.7367 295.56 13.974C295.78 13.1967 295.948 12.566 296.066 12.082C296.198 11.598 296.33 11.0553 296.462 10.454C296.594 9.838 296.696 9.34667 296.77 8.98C296.858 8.59867 296.953 8.21733 297.056 7.836C297.261 7.11733 297.474 6.758 297.694 6.758ZM301.946 13.842C303.354 11.4513 304.498 9.67667 305.378 8.518C306.273 7.34467 306.999 6.758 307.556 6.758C308.128 6.758 308.663 7.05867 309.162 7.66C309.675 8.26133 309.932 8.89933 309.932 9.574C309.932 10.63 309.69 11.9207 309.206 13.446C308.326 16.262 307.534 17.67 306.83 17.67C306.507 17.67 306.346 17.45 306.346 17.01C306.346 16.702 306.5 16.0787 306.808 15.14C307.131 14.1867 307.424 13.2553 307.688 12.346C307.967 11.422 308.106 10.7327 308.106 10.278C308.106 9.80867 308.033 9.464 307.886 9.244C307.754 9.024 307.615 8.914 307.468 8.914C307.336 8.914 307.197 8.958 307.05 9.046C306.903 9.134 306.735 9.28067 306.544 9.486C306.368 9.69133 306.199 9.89667 306.038 10.102C305.877 10.2927 305.671 10.5713 305.422 10.938C305.187 11.3047 304.989 11.62 304.828 11.884C304.667 12.1333 304.432 12.5 304.124 12.984C303.816 13.468 303.581 13.8347 303.42 14.084C303.259 14.3333 303.046 14.6707 302.782 15.096C302.518 15.5213 302.305 15.8513 302.144 16.086C301.997 16.3207 301.829 16.5773 301.638 16.856C301.271 17.3987 300.978 17.67 300.758 17.67C300.553 17.67 300.311 17.5087 300.032 17.186C299.753 16.8487 299.614 16.5553 299.614 16.306C299.614 16.2327 299.665 16.0347 299.768 15.712C300.047 14.8613 300.355 13.8127 300.692 12.566C301.029 11.3047 301.213 9.87467 301.242 8.276C301.286 7.20533 301.44 6.67 301.704 6.67C302.027 6.67 302.349 6.83867 302.672 7.176C302.995 7.51333 303.156 7.88733 303.156 8.298C303.156 8.694 303.031 9.47133 302.782 10.63C302.547 11.774 302.269 12.8447 301.946 13.842ZM319.792 11.73C319.792 12.3167 319.536 12.984 319.022 13.732C318.626 14.6267 318.201 15.9173 317.746 17.604C317.292 19.276 316.91 20.4713 316.602 21.19C315.986 22.686 315.04 23.434 313.764 23.434C312.723 23.434 311.843 23.148 311.124 22.576C310.42 22.0187 310.068 21.4613 310.068 20.904C310.068 20.6693 310.142 20.4347 310.288 20.2C310.42 19.9653 310.56 19.848 310.706 19.848C310.868 19.848 311.044 19.958 311.234 20.178C311.425 20.398 311.601 20.6327 311.762 20.882C311.938 21.146 312.195 21.388 312.532 21.608C312.884 21.828 313.222 21.938 313.544 21.938C313.867 21.938 314.109 21.8867 314.27 21.784C314.432 21.696 314.586 21.542 314.732 21.322C314.879 21.1167 315.004 20.904 315.106 20.684C315.209 20.4787 315.319 20.178 315.436 19.782C315.568 19.4007 315.671 19.0707 315.744 18.792C315.818 18.5133 315.92 18.1247 316.052 17.626C316.184 17.1127 316.294 16.702 316.382 16.394C315.238 17.2447 314.307 17.67 313.588 17.67C312.87 17.67 312.246 17.384 311.718 16.812C311.19 16.2253 310.926 15.5507 310.926 14.788C310.926 14.0107 311.212 12.984 311.784 11.708C312.371 10.432 313.156 9.288 314.138 8.276C315.121 7.264 316.082 6.758 317.02 6.758C317.622 6.758 318.128 6.98533 318.538 7.44C319.213 8.188 319.55 9.25133 319.55 10.63C319.55 10.806 319.543 10.9307 319.528 11.004C319.704 11.2533 319.792 11.4953 319.792 11.73ZM312.708 15.008C312.708 15.2573 312.789 15.4627 312.95 15.624C313.112 15.7707 313.317 15.844 313.566 15.844C314.3 15.844 315.165 15.4113 316.162 14.546C317.16 13.666 317.864 12.6467 318.274 11.488C318.216 11.2973 318.164 11.004 318.12 10.608C318.076 10.212 318.032 9.89667 317.988 9.662C317.944 9.42733 317.849 9.19267 317.702 8.958C317.556 8.70867 317.365 8.584 317.13 8.584C316.558 8.584 315.913 8.99467 315.194 9.816C314.476 10.6373 313.882 11.554 313.412 12.566C312.943 13.578 312.708 14.392 312.708 15.008ZM90.098 25.598C90.3327 25.598 90.6187 25.818 90.956 26.258C91.308 26.6833 91.484 27.0867 91.484 27.468C91.484 27.8493 91.3007 28.9347 90.934 30.724C90.5673 32.4987 90.142 34.3393 89.658 36.246C88.602 40.5287 87.9053 42.67 87.568 42.67C87.3627 42.67 87.1353 42.5453 86.886 42.296C86.6513 42.032 86.534 41.8047 86.534 41.614C86.534 41.4233 86.5853 41.042 86.688 40.47C85.2507 41.9367 83.9967 42.67 82.926 42.67C82.2807 42.67 81.694 42.3767 81.166 41.79C80.6527 41.2033 80.396 40.5947 80.396 39.964C80.396 39.0547 80.638 37.9767 81.122 36.73C81.6207 35.4687 82.332 34.3247 83.256 33.298C84.18 32.2713 85.1627 31.758 86.204 31.758C87.2453 31.758 87.9713 32.3813 88.382 33.628C89.13 30.5187 89.5407 28.062 89.614 26.258C89.614 25.818 89.7753 25.598 90.098 25.598ZM87.678 36.4C87.678 35.608 87.5387 34.9407 87.26 34.398C86.996 33.8553 86.6733 33.584 86.292 33.584C85.6613 33.584 85.016 33.9727 84.356 34.75C83.696 35.5273 83.168 36.422 82.772 37.434C82.3907 38.4313 82.2 39.2967 82.2 40.03C82.2 40.294 82.2953 40.5067 82.486 40.668C82.6767 40.8293 82.904 40.91 83.168 40.91C83.74 40.91 84.51 40.4993 85.478 39.678C86.4607 38.8567 87.172 37.8887 87.612 36.774L87.678 36.51V36.4ZM97.0725 31.758C97.7325 31.758 98.3412 32.0953 98.8985 32.77C99.4558 33.43 99.7345 34.0313 99.7345 34.574C99.7345 35.102 99.5512 35.6447 99.1845 36.202C99.3605 36.422 99.4485 36.6127 99.4485 36.774C99.4485 37.1847 99.3532 37.8887 99.1625 38.886C98.9865 39.8833 98.8765 40.536 98.8325 40.844C98.8032 41.152 98.7739 41.4013 98.7445 41.592C98.7152 41.768 98.6785 41.944 98.6345 42.12C98.5758 42.4867 98.4438 42.67 98.2385 42.67C97.9745 42.67 97.7545 42.4427 97.5785 41.988C97.4172 41.5187 97.3218 40.9173 97.2925 40.184C95.9872 41.8413 94.7772 42.67 93.6625 42.67C92.9878 42.67 92.3205 42.384 91.6605 41.812C91.0152 41.2253 90.6925 40.624 90.6925 40.008C90.6925 39.128 91.0152 38.0427 91.6605 36.752C92.3058 35.4467 93.1418 34.288 94.1685 33.276C95.1952 32.264 96.1632 31.758 97.0725 31.758ZM98.0845 35.63C98.0845 34.266 97.8132 33.584 97.2705 33.584C96.6985 33.584 96.0312 33.9947 95.2685 34.816C94.5058 35.6227 93.8605 36.5393 93.3325 37.566C92.8045 38.5927 92.5405 39.4067 92.5405 40.008C92.5405 40.2573 92.6432 40.4627 92.8485 40.624C93.0538 40.7707 93.2958 40.844 93.5745 40.844C94.2638 40.844 95.0412 40.382 95.9065 39.458C96.7718 38.5193 97.3732 37.3827 97.7105 36.048C97.7545 35.828 97.8792 35.696 98.0845 35.652V35.63ZM103.557 40.47C103.557 40.7487 103.718 40.888 104.041 40.888C104.598 40.888 105.273 40.734 106.065 40.426C106.872 40.1033 107.319 39.942 107.407 39.942C107.671 39.942 107.803 40.0813 107.803 40.36C107.803 40.7853 107.363 41.2767 106.483 41.834C105.618 42.3913 104.826 42.67 104.107 42.67C103.403 42.67 102.816 42.4793 102.347 42.098C101.878 41.702 101.643 41.2987 101.643 40.888C101.643 40.4773 101.731 39.9567 101.907 39.326C102.083 38.6807 102.332 37.8373 102.655 36.796C102.992 35.74 103.256 34.8673 103.447 34.178C102.758 34.3393 102.296 34.42 102.061 34.42C101.826 34.42 101.592 34.3027 101.357 34.068C101.137 33.8187 101.027 33.584 101.027 33.364C101.027 33.012 101.98 32.6747 103.887 32.352C104.151 31.1347 104.283 30.0567 104.283 29.118C104.283 28.678 104.43 28.458 104.723 28.458C104.972 28.458 105.28 28.6193 105.647 28.942C106.014 29.25 106.197 29.602 106.197 29.998C106.197 30.394 106.072 31.0907 105.823 32.088C106.659 32.0147 107.326 31.978 107.825 31.978C108.705 31.978 109.145 32.1687 109.145 32.55C109.145 32.77 108.903 32.9533 108.419 33.1C107.95 33.2467 106.952 33.474 105.427 33.782C105.119 34.9407 104.73 36.268 104.261 37.764C103.792 39.2453 103.557 40.1473 103.557 40.47ZM115.013 31.758C115.673 31.758 116.281 32.0953 116.839 32.77C117.396 33.43 117.675 34.0313 117.675 34.574C117.675 35.102 117.491 35.6447 117.125 36.202C117.301 36.422 117.389 36.6127 117.389 36.774C117.389 37.1847 117.293 37.8887 117.103 38.886C116.927 39.8833 116.817 40.536 116.773 40.844C116.743 41.152 116.714 41.4013 116.685 41.592C116.655 41.768 116.619 41.944 116.575 42.12C116.516 42.4867 116.384 42.67 116.179 42.67C115.915 42.67 115.695 42.4427 115.519 41.988C115.357 41.5187 115.262 40.9173 115.233 40.184C113.927 41.8413 112.717 42.67 111.603 42.67C110.928 42.67 110.261 42.384 109.601 41.812C108.955 41.2253 108.633 40.624 108.633 40.008C108.633 39.128 108.955 38.0427 109.601 36.752C110.246 35.4467 111.082 34.288 112.109 33.276C113.135 32.264 114.103 31.758 115.013 31.758ZM116.025 35.63C116.025 34.266 115.753 33.584 115.211 33.584C114.639 33.584 113.971 33.9947 113.209 34.816C112.446 35.6227 111.801 36.5393 111.273 37.566C110.745 38.5927 110.481 39.4067 110.481 40.008C110.481 40.2573 110.583 40.4627 110.789 40.624C110.994 40.7707 111.236 40.844 111.515 40.844C112.204 40.844 112.981 40.382 113.847 39.458C114.712 38.5193 115.313 37.3827 115.651 36.048C115.695 35.828 115.819 35.696 116.025 35.652V35.63ZM119.979 42.67C119.774 42.67 119.532 42.516 119.253 42.208C118.975 41.8853 118.835 41.5847 118.835 41.306C118.835 41.0273 119.063 40.074 119.517 38.446C119.987 36.818 120.449 34.86 120.903 32.572C121.373 30.2693 121.607 28.1647 121.607 26.258C121.607 25.818 121.769 25.598 122.091 25.598C122.326 25.598 122.612 25.818 122.949 26.258C123.287 26.6833 123.455 27.1013 123.455 27.512C123.455 29.316 123.059 31.89 122.267 35.234C124.013 32.8727 125.597 31.692 127.019 31.692C127.709 31.692 128.288 32.0293 128.757 32.704C129.241 33.3787 129.483 34.1853 129.483 35.124C129.483 36.048 129.212 37.1113 128.669 38.314C128.141 39.5167 127.423 40.5507 126.513 41.416C125.604 42.2667 124.651 42.692 123.653 42.692C122.656 42.692 121.673 42.186 120.705 41.174L120.683 41.196C120.361 42.1787 120.126 42.67 119.979 42.67ZM123.477 40.976C124.431 40.976 125.362 40.3307 126.271 39.04C127.195 37.7347 127.657 36.3633 127.657 34.926C127.657 34.0607 127.393 33.628 126.865 33.628C126.015 33.628 125.061 34.222 124.005 35.41C122.964 36.598 122.062 38.0133 121.299 39.656C121.989 40.536 122.715 40.976 123.477 40.976ZM136.004 31.758C136.664 31.758 137.273 32.0953 137.83 32.77C138.387 33.43 138.666 34.0313 138.666 34.574C138.666 35.102 138.483 35.6447 138.116 36.202C138.292 36.422 138.38 36.6127 138.38 36.774C138.38 37.1847 138.285 37.8887 138.094 38.886C137.918 39.8833 137.808 40.536 137.764 40.844C137.735 41.152 137.705 41.4013 137.676 41.592C137.647 41.768 137.61 41.944 137.566 42.12C137.507 42.4867 137.375 42.67 137.17 42.67C136.906 42.67 136.686 42.4427 136.51 41.988C136.349 41.5187 136.253 40.9173 136.224 40.184C134.919 41.8413 133.709 42.67 132.594 42.67C131.919 42.67 131.252 42.384 130.592 41.812C129.947 41.2253 129.624 40.624 129.624 40.008C129.624 39.128 129.947 38.0427 130.592 36.752C131.237 35.4467 132.073 34.288 133.1 33.276C134.127 32.264 135.095 31.758 136.004 31.758ZM137.016 35.63C137.016 34.266 136.745 33.584 136.202 33.584C135.63 33.584 134.963 33.9947 134.2 34.816C133.437 35.6227 132.792 36.5393 132.264 37.566C131.736 38.5927 131.472 39.4067 131.472 40.008C131.472 40.2573 131.575 40.4627 131.78 40.624C131.985 40.7707 132.227 40.844 132.506 40.844C133.195 40.844 133.973 40.382 134.838 39.458C135.703 38.5193 136.305 37.3827 136.642 36.048C136.686 35.828 136.811 35.696 137.016 35.652V35.63ZM146.316 31.758C146.815 31.758 147.284 32.0367 147.724 32.594C148.164 33.1367 148.384 33.6133 148.384 34.024C148.384 34.2733 148.267 34.398 148.032 34.398C147.871 34.398 147.622 34.2733 147.284 34.024C146.947 33.76 146.602 33.628 146.25 33.628C145.898 33.628 145.341 33.8333 144.578 34.244C143.83 34.6547 143.456 35.0873 143.456 35.542C143.456 35.8793 144.131 36.4587 145.48 37.28C145.994 37.6027 146.456 38.0207 146.866 38.534C147.292 39.0327 147.504 39.5753 147.504 40.162C147.504 40.734 147.101 41.2987 146.294 41.856C145.502 42.3987 144.571 42.67 143.5 42.67C142.444 42.67 141.506 42.4133 140.684 41.9C139.878 41.3867 139.474 40.9027 139.474 40.448C139.474 40.2573 139.518 40.1107 139.606 40.008C139.709 39.8907 139.834 39.832 139.98 39.832C140.127 39.832 140.332 39.9273 140.596 40.118C141.388 40.69 142.21 40.976 143.06 40.976C143.926 40.976 144.549 40.8807 144.93 40.69C145.312 40.4847 145.502 40.2207 145.502 39.898C145.502 39.5607 145.29 39.2087 144.864 38.842C144.439 38.4607 143.97 38.1233 143.456 37.83C142.958 37.5367 142.496 37.1773 142.07 36.752C141.645 36.3267 141.432 35.894 141.432 35.454C141.432 34.6767 142.041 33.87 143.258 33.034C144.49 32.1833 145.51 31.758 146.316 31.758ZM157.73 35.41C157.73 36.1873 157.304 36.8253 156.454 37.324C155.618 37.808 154.664 38.05 153.594 38.05C152.538 38.05 151.577 37.9327 150.712 37.698C150.506 38.3433 150.404 38.9227 150.404 39.436C150.404 39.9347 150.558 40.3233 150.866 40.602C151.188 40.8807 151.709 41.02 152.428 41.02C153.161 41.02 153.909 40.8953 154.672 40.646C155.449 40.382 155.874 40.25 155.948 40.25C156.329 40.25 156.52 40.3967 156.52 40.69C156.52 41.086 156.072 41.5187 155.178 41.988C154.283 42.4427 153.41 42.67 152.56 42.67C151.416 42.67 150.484 42.3327 149.766 41.658C149.047 40.9687 148.688 40.1033 148.688 39.062C148.688 38.0207 148.966 36.9353 149.524 35.806C150.081 34.662 150.8 33.7013 151.68 32.924C152.56 32.1467 153.432 31.758 154.298 31.758C155.163 31.758 155.948 32.1687 156.652 32.99C157.37 33.8113 157.73 34.618 157.73 35.41ZM154.408 33.496C153.865 33.496 153.3 33.782 152.714 34.354C152.127 34.9113 151.628 35.608 151.218 36.444C151.804 36.576 152.472 36.642 153.22 36.642C153.968 36.642 154.62 36.5247 155.178 36.29C155.735 36.0407 156.014 35.718 156.014 35.322C156.014 34.926 155.83 34.5227 155.464 34.112C155.112 33.7013 154.76 33.496 154.408 33.496ZM176.222 25.598C176.457 25.598 176.743 25.818 177.08 26.258C177.432 26.6833 177.608 27.0867 177.608 27.468C177.608 27.8493 177.425 28.9347 177.058 30.724C176.691 32.4987 176.266 34.3393 175.782 36.246C174.726 40.5287 174.029 42.67 173.692 42.67C173.487 42.67 173.259 42.5453 173.01 42.296C172.775 42.032 172.658 41.8047 172.658 41.614C172.658 41.4233 172.709 41.042 172.812 40.47C171.375 41.9367 170.121 42.67 169.05 42.67C168.405 42.67 167.818 42.3767 167.29 41.79C166.777 41.2033 166.52 40.5947 166.52 39.964C166.52 39.0547 166.762 37.9767 167.246 36.73C167.745 35.4687 168.456 34.3247 169.38 33.298C170.304 32.2713 171.287 31.758 172.328 31.758C173.369 31.758 174.095 32.3813 174.506 33.628C175.254 30.5187 175.665 28.062 175.738 26.258C175.738 25.818 175.899 25.598 176.222 25.598ZM173.802 36.4C173.802 35.608 173.663 34.9407 173.384 34.398C173.12 33.8553 172.797 33.584 172.416 33.584C171.785 33.584 171.14 33.9727 170.48 34.75C169.82 35.5273 169.292 36.422 168.896 37.434C168.515 38.4313 168.324 39.2967 168.324 40.03C168.324 40.294 168.419 40.5067 168.61 40.668C168.801 40.8293 169.028 40.91 169.292 40.91C169.864 40.91 170.634 40.4993 171.602 39.678C172.585 38.8567 173.296 37.8887 173.736 36.774L173.802 36.51V36.4ZM186.122 35.41C186.122 36.1873 185.697 36.8253 184.846 37.324C184.01 37.808 183.057 38.05 181.986 38.05C180.93 38.05 179.97 37.9327 179.104 37.698C178.899 38.3433 178.796 38.9227 178.796 39.436C178.796 39.9347 178.95 40.3233 179.258 40.602C179.581 40.8807 180.102 41.02 180.82 41.02C181.554 41.02 182.302 40.8953 183.064 40.646C183.842 40.382 184.267 40.25 184.34 40.25C184.722 40.25 184.912 40.3967 184.912 40.69C184.912 41.086 184.465 41.5187 183.57 41.988C182.676 42.4427 181.803 42.67 180.952 42.67C179.808 42.67 178.877 42.3327 178.158 41.658C177.44 40.9687 177.08 40.1033 177.08 39.062C177.08 38.0207 177.359 36.9353 177.916 35.806C178.474 34.662 179.192 33.7013 180.072 32.924C180.952 32.1467 181.825 31.758 182.69 31.758C183.556 31.758 184.34 32.1687 185.044 32.99C185.763 33.8113 186.122 34.618 186.122 35.41ZM182.8 33.496C182.258 33.496 181.693 33.782 181.106 34.354C180.52 34.9113 180.021 35.608 179.61 36.444C180.197 36.576 180.864 36.642 181.612 36.642C182.36 36.642 183.013 36.5247 183.57 36.29C184.128 36.0407 184.406 35.718 184.406 35.322C184.406 34.926 184.223 34.5227 183.856 34.112C183.504 33.7013 183.152 33.496 182.8 33.496ZM194.399 31.758C194.648 31.758 194.89 31.8533 195.125 32.044C195.359 32.22 195.477 32.418 195.477 32.638C195.477 33.034 194.941 34.4053 193.871 36.752C192.815 39.0987 192.059 40.6827 191.605 41.504C191.165 42.3107 190.776 42.714 190.439 42.714C190.248 42.714 190.013 42.5747 189.735 42.296C189.456 42.0173 189.251 41.7167 189.119 41.394C188.723 40.47 188.297 38.9813 187.843 36.928C187.388 34.8747 187.161 33.3713 187.161 32.418C187.161 31.978 187.293 31.758 187.557 31.758C187.879 31.758 188.209 31.8973 188.547 32.176C188.884 32.44 189.119 32.7773 189.251 33.188C189.295 33.4227 189.353 34.0093 189.427 34.948C189.632 37.2653 189.984 39.0473 190.483 40.294C190.879 39.4433 191.385 38.2407 192.001 36.686C192.617 35.1167 193.115 33.9067 193.497 33.056C193.893 32.1907 194.193 31.758 194.399 31.758ZM204.428 35.41C204.428 36.1873 204.003 36.8253 203.152 37.324C202.316 37.808 201.363 38.05 200.292 38.05C199.236 38.05 198.275 37.9327 197.41 37.698C197.205 38.3433 197.102 38.9227 197.102 39.436C197.102 39.9347 197.256 40.3233 197.564 40.602C197.887 40.8807 198.407 41.02 199.126 41.02C199.859 41.02 200.607 40.8953 201.37 40.646C202.147 40.382 202.573 40.25 202.646 40.25C203.027 40.25 203.218 40.3967 203.218 40.69C203.218 41.086 202.771 41.5187 201.876 41.988C200.981 42.4427 200.109 42.67 199.258 42.67C198.114 42.67 197.183 42.3327 196.464 41.658C195.745 40.9687 195.386 40.1033 195.386 39.062C195.386 38.0207 195.665 36.9353 196.222 35.806C196.779 34.662 197.498 33.7013 198.378 32.924C199.258 32.1467 200.131 31.758 200.996 31.758C201.861 31.758 202.646 32.1687 203.35 32.99C204.069 33.8113 204.428 34.618 204.428 35.41ZM201.106 33.496C200.563 33.496 199.999 33.782 199.412 34.354C198.825 34.9113 198.327 35.608 197.916 36.444C198.503 36.576 199.17 36.642 199.918 36.642C200.666 36.642 201.319 36.5247 201.876 36.29C202.433 36.0407 202.712 35.718 202.712 35.322C202.712 34.926 202.529 34.5227 202.162 34.112C201.81 33.7013 201.458 33.496 201.106 33.496ZM209.448 27.446C209.448 30.2033 208.876 33.782 207.732 38.182C206.999 41.174 206.486 42.67 206.192 42.67C205.987 42.67 205.745 42.5087 205.466 42.186C205.202 41.8633 205.07 41.614 205.07 41.438C205.07 41.262 205.283 40.3527 205.708 38.71C206.134 37.0673 206.559 35.0507 206.984 32.66C207.41 30.2547 207.622 28.0913 207.622 26.17C207.622 25.9647 207.652 25.818 207.71 25.73C207.769 25.642 207.894 25.598 208.084 25.598C208.275 25.598 208.546 25.8107 208.898 26.236C209.265 26.6467 209.448 27.05 209.448 27.446ZM216.711 35.498C216.711 34.9993 216.63 34.53 216.469 34.09C216.308 33.6353 216.073 33.3053 215.765 33.1C214.753 33.3787 213.88 34.1633 213.147 35.454C212.428 36.73 212.069 37.9327 212.069 39.062C212.069 40.1913 212.348 40.8953 212.905 41.174C213.961 40.9687 214.856 40.25 215.589 39.018C216.337 37.7713 216.711 36.598 216.711 35.498ZM210.925 35.696C211.438 34.552 212.106 33.6133 212.927 32.88C213.763 32.132 214.614 31.758 215.479 31.758C216.359 31.758 217.092 32.132 217.679 32.88C218.266 33.6133 218.559 34.5153 218.559 35.586C218.559 36.642 218.302 37.7273 217.789 38.842C217.276 39.942 216.564 40.8587 215.655 41.592C214.76 42.3107 213.807 42.67 212.795 42.67C212.047 42.67 211.424 42.3253 210.925 41.636C210.426 40.9467 210.177 40.074 210.177 39.018C210.177 37.9473 210.426 36.84 210.925 35.696ZM226.79 31.692C227.42 31.692 227.963 32.0953 228.418 32.902C228.887 33.7087 229.122 34.5447 229.122 35.41C229.122 36.2607 228.872 37.1187 228.374 37.984C227.875 38.8347 227.259 39.5973 226.526 40.272C225.792 40.9467 224.978 41.5113 224.084 41.966C223.204 42.406 222.39 42.626 221.642 42.626C221.348 42.626 221.07 42.5893 220.806 42.516C220.747 42.7653 220.644 43.2127 220.498 43.858C220.351 44.5033 220.226 45.0387 220.124 45.464C220.021 45.8893 219.904 46.344 219.772 46.828C219.508 47.8253 219.273 48.324 219.068 48.324C218.862 48.324 218.65 48.1627 218.43 47.84C218.195 47.532 218.078 47.2533 218.078 47.004C218.078 46.7547 218.312 45.684 218.782 43.792C220.19 38.0867 220.894 34.244 220.894 32.264C220.894 31.824 221.055 31.604 221.378 31.604C221.642 31.604 221.957 31.802 222.324 32.198C222.705 32.5793 222.896 33.0047 222.896 33.474C222.896 33.7087 222.866 33.9653 222.808 34.244C224.113 32.5427 225.44 31.692 226.79 31.692ZM221.422 40.91C222.199 40.91 223.035 40.646 223.93 40.118C224.839 39.59 225.609 38.8933 226.24 38.028C226.885 37.148 227.208 36.2753 227.208 35.41C227.208 34.1927 226.922 33.584 226.35 33.584C225.778 33.584 225 34.0753 224.018 35.058C223.05 36.0407 222.28 37.3167 221.708 38.886L221.202 40.91H221.422ZM243.896 31.758C244.336 31.758 244.724 32.066 245.062 32.682C245.414 33.2833 245.59 33.9727 245.59 34.75C245.59 35.5127 245.45 36.51 245.172 37.742C244.908 38.974 244.548 40.1033 244.094 41.13C243.639 42.1567 243.192 42.67 242.752 42.67C242.444 42.67 242.29 42.472 242.29 42.076C242.29 41.6653 242.539 40.6753 243.038 39.106C243.551 37.522 243.808 36.268 243.808 35.344C243.808 34.4053 243.661 33.936 243.368 33.936C243.001 33.936 242.576 34.2587 242.092 34.904C241.622 35.5493 241.116 36.3267 240.574 37.236C240.031 38.1453 239.738 38.6367 239.694 38.71C239.65 38.7687 239.591 38.8567 239.518 38.974C239.459 39.0913 239.386 39.216 239.298 39.348C239.224 39.48 239.019 39.876 238.682 40.536C238.359 41.196 238.073 41.7167 237.824 42.098C237.574 42.4647 237.354 42.648 237.164 42.648C236.988 42.648 236.79 42.5307 236.57 42.296C236.35 42.0613 236.24 41.8413 236.24 41.636C236.24 41.4307 236.372 41.0053 236.636 40.36C237.398 38.4533 237.78 36.6787 237.78 35.036C237.78 34.728 237.714 34.4713 237.582 34.266C237.45 34.046 237.303 33.936 237.142 33.936C236.98 33.936 236.812 34.0093 236.636 34.156C236.46 34.288 236.24 34.5373 235.976 34.904C235.712 35.256 235.477 35.5933 235.272 35.916C235.066 36.2387 234.751 36.7447 234.326 37.434C233.915 38.1087 233.6 38.6147 233.38 38.952C233.174 39.2747 232.932 39.656 232.654 40.096C232.375 40.5213 232.155 40.8513 231.994 41.086C231.847 41.3207 231.678 41.5773 231.488 41.856C231.092 42.3987 230.798 42.67 230.608 42.67C230.432 42.67 230.197 42.5087 229.904 42.186C229.61 41.8487 229.464 41.5993 229.464 41.438C229.464 41.262 229.493 41.0493 229.552 40.8C229.61 40.5507 229.669 40.3087 229.728 40.074C229.801 39.8393 229.904 39.4947 230.036 39.04C230.182 38.5707 230.344 38.028 230.52 37.412C230.71 36.7813 230.85 35.9233 230.938 34.838C231.04 33.738 231.114 32.9387 231.158 32.44C231.202 31.9267 231.326 31.67 231.532 31.67C231.854 31.67 232.17 31.8387 232.478 32.176C232.8 32.5133 232.962 32.8507 232.962 33.188C232.962 34.4787 232.478 36.6053 231.51 39.568C233.152 36.488 234.186 34.662 234.612 34.09C235.037 33.518 235.404 33.056 235.712 32.704C236.284 32.0733 236.863 31.758 237.45 31.758C237.802 31.758 238.22 32.066 238.704 32.682C239.202 33.2833 239.452 33.892 239.452 34.508C239.452 35.124 239.364 35.8867 239.188 36.796C240.918 33.4373 242.488 31.758 243.896 31.758ZM255.509 35.41C255.509 36.1873 255.084 36.8253 254.233 37.324C253.397 37.808 252.444 38.05 251.373 38.05C250.317 38.05 249.357 37.9327 248.491 37.698C248.286 38.3433 248.183 38.9227 248.183 39.436C248.183 39.9347 248.337 40.3233 248.645 40.602C248.968 40.8807 249.489 41.02 250.207 41.02C250.941 41.02 251.689 40.8953 252.451 40.646C253.229 40.382 253.654 40.25 253.727 40.25C254.109 40.25 254.299 40.3967 254.299 40.69C254.299 41.086 253.852 41.5187 252.957 41.988C252.063 42.4427 251.19 42.67 250.339 42.67C249.195 42.67 248.264 42.3327 247.545 41.658C246.827 40.9687 246.467 40.1033 246.467 39.062C246.467 38.0207 246.746 36.9353 247.303 35.806C247.861 34.662 248.579 33.7013 249.459 32.924C250.339 32.1467 251.212 31.758 252.077 31.758C252.943 31.758 253.727 32.1687 254.431 32.99C255.15 33.8113 255.509 34.618 255.509 35.41ZM252.187 33.496C251.645 33.496 251.08 33.782 250.493 34.354C249.907 34.9113 249.408 35.608 248.997 36.444C249.584 36.576 250.251 36.642 250.999 36.642C251.747 36.642 252.4 36.5247 252.957 36.29C253.515 36.0407 253.793 35.718 253.793 35.322C253.793 34.926 253.61 34.5227 253.243 34.112C252.891 33.7013 252.539 33.496 252.187 33.496ZM258.352 38.842C259.76 36.4513 260.904 34.6767 261.784 33.518C262.678 32.3447 263.404 31.758 263.962 31.758C264.534 31.758 265.069 32.0587 265.568 32.66C266.081 33.2613 266.338 33.8993 266.338 34.574C266.338 35.63 266.096 36.9207 265.612 38.446C264.732 41.262 263.94 42.67 263.236 42.67C262.913 42.67 262.752 42.45 262.752 42.01C262.752 41.702 262.906 41.0787 263.214 40.14C263.536 39.1867 263.83 38.2553 264.094 37.346C264.372 36.422 264.512 35.7327 264.512 35.278C264.512 34.8087 264.438 34.464 264.292 34.244C264.16 34.024 264.02 33.914 263.874 33.914C263.742 33.914 263.602 33.958 263.456 34.046C263.309 34.134 263.14 34.2807 262.95 34.486C262.774 34.6913 262.605 34.8967 262.444 35.102C262.282 35.2927 262.077 35.5713 261.828 35.938C261.593 36.3047 261.395 36.62 261.234 36.884C261.072 37.1333 260.838 37.5 260.53 37.984C260.222 38.468 259.987 38.8347 259.826 39.084C259.664 39.3333 259.452 39.6707 259.188 40.096C258.924 40.5213 258.711 40.8513 258.55 41.086C258.403 41.3207 258.234 41.5773 258.044 41.856C257.677 42.3987 257.384 42.67 257.164 42.67C256.958 42.67 256.716 42.5087 256.438 42.186C256.159 41.8487 256.02 41.5553 256.02 41.306C256.02 41.2327 256.071 41.0347 256.174 40.712C256.452 39.8613 256.76 38.8127 257.098 37.566C257.435 36.3047 257.618 34.8747 257.648 33.276C257.692 32.2053 257.846 31.67 258.11 31.67C258.432 31.67 258.755 31.8387 259.078 32.176C259.4 32.5133 259.562 32.8873 259.562 33.298C259.562 33.694 259.437 34.4713 259.188 35.63C258.953 36.774 258.674 37.8447 258.352 38.842ZM269.95 40.47C269.95 40.7487 270.111 40.888 270.434 40.888C270.991 40.888 271.666 40.734 272.458 40.426C273.265 40.1033 273.712 39.942 273.8 39.942C274.064 39.942 274.196 40.0813 274.196 40.36C274.196 40.7853 273.756 41.2767 272.876 41.834C272.011 42.3913 271.219 42.67 270.5 42.67C269.796 42.67 269.209 42.4793 268.74 42.098C268.271 41.702 268.036 41.2987 268.036 40.888C268.036 40.4773 268.124 39.9567 268.3 39.326C268.476 38.6807 268.725 37.8373 269.048 36.796C269.385 35.74 269.649 34.8673 269.84 34.178C269.151 34.3393 268.689 34.42 268.454 34.42C268.219 34.42 267.985 34.3027 267.75 34.068C267.53 33.8187 267.42 33.584 267.42 33.364C267.42 33.012 268.373 32.6747 270.28 32.352C270.544 31.1347 270.676 30.0567 270.676 29.118C270.676 28.678 270.823 28.458 271.116 28.458C271.365 28.458 271.673 28.6193 272.04 28.942C272.407 29.25 272.59 29.602 272.59 29.998C272.59 30.394 272.465 31.0907 272.216 32.088C273.052 32.0147 273.719 31.978 274.218 31.978C275.098 31.978 275.538 32.1687 275.538 32.55C275.538 32.77 275.296 32.9533 274.812 33.1C274.343 33.2467 273.345 33.474 271.82 33.782C271.512 34.9407 271.123 36.268 270.654 37.764C270.185 39.2453 269.95 40.1473 269.95 40.47ZM287.156 29.162C287.303 28.0033 287.633 27.1453 288.146 26.588C288.674 26.0307 289.275 25.752 289.95 25.752C290.639 25.752 291.153 25.9353 291.49 26.302C291.842 26.654 292.018 27.094 292.018 27.622C292.018 28.15 291.842 28.414 291.49 28.414C291.329 28.414 291.145 28.26 290.94 27.952C290.749 27.6293 290.5 27.468 290.192 27.468C289.884 27.468 289.627 27.7027 289.422 28.172C289.231 28.6413 289.063 29.3673 288.916 30.35C288.769 31.318 288.659 32 288.586 32.396C289.378 32.264 290.023 32.1173 290.522 31.956C291.035 31.78 291.505 31.5307 291.93 31.208C292.766 30.592 293.184 29.5287 293.184 28.018C293.184 26.5073 293.367 25.752 293.734 25.752C294.042 25.752 294.35 25.906 294.658 26.214C294.966 26.522 295.12 26.9033 295.12 27.358C295.12 28.502 294.907 30.2987 294.482 32.748C294.071 35.1973 293.573 37.4633 292.986 39.546C292.399 41.6287 291.908 42.67 291.512 42.67C291.277 42.67 291.057 42.5453 290.852 42.296C290.661 42.0467 290.566 41.79 290.566 41.526C290.566 41.262 290.698 40.6973 290.962 39.832C291.842 36.84 292.414 34.42 292.678 32.572C291.798 33.3347 290.317 33.8847 288.234 34.222C287.222 39.37 286.269 42.0613 285.374 42.296C285.169 42.34 285.029 42.2667 284.956 42.076C284.853 42.032 284.758 41.944 284.67 41.812C284.582 41.68 284.553 41.5333 284.582 41.372C284.611 41.196 284.817 40.316 285.198 38.732C285.594 37.148 285.931 35.7327 286.21 34.486C286.005 34.5007 285.748 34.508 285.44 34.508C285.147 34.508 284.883 34.3907 284.648 34.156C284.413 33.9067 284.296 33.6867 284.296 33.496C284.296 33.144 284.809 32.9167 285.836 32.814L286.584 32.704C286.819 31.4867 287.009 30.306 287.156 29.162ZM302.093 35.498C302.093 34.9993 302.013 34.53 301.851 34.09C301.69 33.6353 301.455 33.3053 301.147 33.1C300.135 33.3787 299.263 34.1633 298.529 35.454C297.811 36.73 297.451 37.9327 297.451 39.062C297.451 40.1913 297.73 40.8953 298.287 41.174C299.343 40.9687 300.238 40.25 300.971 39.018C301.719 37.7713 302.093 36.598 302.093 35.498ZM296.307 35.696C296.821 34.552 297.488 33.6133 298.309 32.88C299.145 32.132 299.996 31.758 300.861 31.758C301.741 31.758 302.475 32.132 303.061 32.88C303.648 33.6133 303.941 34.5153 303.941 35.586C303.941 36.642 303.685 37.7273 303.171 38.842C302.658 39.942 301.947 40.8587 301.037 41.592C300.143 42.3107 299.189 42.67 298.177 42.67C297.429 42.67 296.806 42.3253 296.307 41.636C295.809 40.9467 295.559 40.074 295.559 39.018C295.559 37.9473 295.809 36.84 296.307 35.696ZM313.822 34.09L313.668 38.226C313.668 39.37 313.719 40.1987 313.822 40.712C314.453 40.052 314.995 39.282 315.45 38.402C315.919 37.5073 316.264 36.6787 316.484 35.916C316.719 35.1533 316.917 34.442 317.078 33.782C317.254 33.1073 317.415 32.572 317.562 32.176C317.709 31.78 317.877 31.582 318.068 31.582C318.347 31.582 318.596 31.6993 318.816 31.934C319.036 32.154 319.146 32.4107 319.146 32.704C319.146 33.452 318.809 34.684 318.134 36.4C317.562 37.984 316.814 39.436 315.89 40.756C314.966 42.0613 314.247 42.714 313.734 42.714C313.221 42.714 312.832 42.428 312.568 41.856C312.319 41.284 312.179 40.1913 312.15 38.578C312.121 36.95 312.143 35.542 312.216 34.354C311.204 37.1113 310.309 39.194 309.532 40.602C308.755 42.01 308.139 42.714 307.684 42.714C307.479 42.714 307.259 42.6187 307.024 42.428C306.804 42.2373 306.628 41.988 306.496 41.68C306.173 40.9027 305.895 39.4213 305.66 37.236C305.44 35.036 305.33 33.4667 305.33 32.528C305.33 31.9267 305.513 31.626 305.88 31.626C306.203 31.626 306.496 31.8093 306.76 32.176C307.039 32.5427 307.2 32.9093 307.244 33.276C307.288 33.628 307.325 34.6253 307.354 36.268C307.398 37.896 307.537 39.348 307.772 40.624C308.373 39.5827 308.975 38.2773 309.576 36.708C310.192 35.1387 310.691 33.9067 311.072 33.012C311.468 32.1173 311.827 31.67 312.15 31.67C312.634 31.67 313.03 31.8973 313.338 32.352C313.661 32.792 313.822 33.3713 313.822 34.09Z" fill="#172136"/>
<defs>
<clipPath id="clip0_1960_21748">
<rect width="70" height="40" fill="white" transform="translate(0 24)"/>
</clipPath>
</defs>
</svg>
