<svg width="96" height="20" viewBox="0 0 96 20" fill="none" xmlns="http://www.w3.org/2000/svg">
<g clip-path="url(#clip0_2314_56018)">
<path d="M25.125 15.2471H29.5276C32.0915 15.2471 33.7108 14.0082 33.7108 12.1009C33.7108 10.6826 33.0698 9.67189 31.1469 9.2318C32.5975 8.71013 33.053 7.92765 33.053 6.83544C33.053 5.05856 31.6698 3.83594 29.1059 3.83594H25.125V15.2471ZM27.4866 13.1931V10.4055H29.3083C30.5903 10.4055 31.3156 10.9108 31.3156 11.7423C31.3156 12.7366 30.5903 13.1931 29.3083 13.1931H27.4866ZM27.4866 8.54711V5.87364H28.8865C30.1686 5.87364 30.6577 6.41159 30.6577 7.19407C30.6577 8.10697 30.1686 8.54711 28.8865 8.54711H27.4866ZM35.5363 18.6541C37.5942 18.6541 38.6906 17.4967 39.4328 15.7851L43.3125 6.77023H40.6136L38.9099 11.6118C38.7581 12.0193 38.6232 12.5247 38.5388 12.9649C38.4545 12.5247 38.3196 12.0193 38.1678 11.6118L36.4641 6.77023H33.7146L37.1894 14.8558L37.0713 15.2144C36.8183 15.9643 36.2617 16.5023 35.3845 16.5023C35.0134 16.5023 34.6929 16.4697 34.3555 16.3882L34.0182 18.4911C34.4737 18.6215 35.0809 18.6541 35.5363 18.6541Z" fill="#172136"/>
<path d="M47.7824 15.2621H49.0287V13.3094H48.0856C47.6477 13.3094 47.3783 13.0653 47.3783 12.5283V8.67157H49.2308V6.80016H47.3783V4.86367L45.1045 5.09149V6.80016H43.875V8.67157H45.1045V12.6422C45.1045 14.481 46.0477 15.2621 47.7824 15.2621ZM53.9544 15.4737C55.6892 15.4737 57.1545 14.7251 57.8618 13.6674L56.0934 12.3819C55.6892 13.0328 54.9313 13.521 53.9544 13.521C52.8092 13.521 52.0344 12.8212 51.7818 11.8286H58.3334C58.3839 11.552 58.4008 11.2915 58.4008 11.0474C58.4008 8.60648 56.5818 6.58861 53.9544 6.58861C51.327 6.58861 49.4239 8.60648 49.4239 11.0474C49.4239 13.4884 51.2428 15.4737 53.9544 15.4737ZM51.7818 10.1849C52.0344 9.17604 52.8428 8.47629 53.9208 8.47629C55.0324 8.47629 55.8576 9.24113 56.1102 10.1849H51.7818ZM64.4348 15.4737C66.8433 15.4737 68.7633 13.5047 68.7633 11.0637C68.7633 8.62275 66.8433 6.62116 64.4348 6.62116C62.9359 6.62116 62.1442 7.20699 61.6727 8.10201V3.38281H59.399V15.2621H61.6053V13.879C62.0768 14.839 62.8685 15.4737 64.4348 15.4737ZM61.6053 11.0637C61.6053 9.74559 62.5653 8.60648 64.0642 8.60648C65.5127 8.60648 66.4896 9.72931 66.4896 11.0474C66.4896 12.333 65.5127 13.4884 64.0642 13.4884C62.5653 13.4884 61.6053 12.3819 61.6053 11.0637ZM73.6868 15.4737C75.2531 15.4737 76.0448 14.839 76.5163 13.879V15.2621H78.7226V6.80016H76.4658V8.13456C75.9942 7.22326 75.2026 6.62116 73.6868 6.62116C71.2783 6.62116 69.3583 8.62275 69.3583 11.0637C69.3583 13.5047 71.2783 15.4737 73.6868 15.4737ZM71.632 11.0474C71.632 9.72931 72.6089 8.60648 74.0573 8.60648C75.5563 8.60648 76.5163 9.74559 76.5163 11.0637C76.5163 12.3819 75.5563 13.4884 74.0573 13.4884C72.6089 13.4884 71.632 12.333 71.632 11.0474ZM83.0715 15.4737C85.0084 15.4737 86.4736 14.302 86.4736 12.7399C86.4736 11.4705 85.8841 10.5592 83.3409 9.92459C82.2967 9.66422 82.1619 9.40386 82.1619 9.11095C82.1619 8.5902 82.6336 8.36238 83.2568 8.36238C83.8463 8.36238 84.3851 8.62275 84.8062 9.27368L86.4568 8.05319C85.5641 6.93035 84.621 6.58861 83.2062 6.58861C81.1514 6.58861 79.9388 7.69519 79.9388 9.17604C79.9388 10.25 80.2925 11.2752 82.6336 11.8123C84.0146 12.1215 84.2336 12.3656 84.2336 12.805C84.2336 13.3094 83.7957 13.6837 83.021 13.6837C82.2799 13.6837 81.6062 13.342 80.9662 12.6422L79.4335 13.9929C80.3935 14.9855 81.5893 15.4737 83.0715 15.4737ZM91.5536 15.4737C93.2884 15.4737 94.7541 14.7251 95.4609 13.6674L93.6926 12.3819C93.2884 13.0328 92.5305 13.521 91.5536 13.521C90.4084 13.521 89.6336 12.8212 89.381 11.8286H95.9325C95.9831 11.552 96 11.2915 96 11.0474C96 8.60648 94.1813 6.58861 91.5536 6.58861C88.9262 6.58861 87.0231 8.60648 87.0231 11.0474C87.0231 13.4884 88.842 15.4737 91.5536 15.4737ZM89.381 10.1849C89.6336 9.17604 90.442 8.47629 91.52 8.47629C92.6316 8.47629 93.4568 9.24113 93.7094 10.1849H89.381Z" fill="#172136"/>
<path d="M5.94389 19.026C3.85095 18.0785 2.14753 16.4746 1.10811 14.4728C0.0686934 12.4708 -0.246183 10.1875 0.214219 7.99071C0.674623 5.79391 1.8835 3.81155 3.64603 2.36305C5.40858 0.914582 7.62215 0.0843247 9.93 0.0060836C12.2379 -0.0721575 14.5058 0.606185 16.3682 1.93177C18.2304 3.25738 19.5788 5.15305 20.1959 7.31333C20.8132 9.47364 20.6631 11.7726 19.77 13.8401C18.8769 15.9075 17.2928 17.6228 15.2732 18.7096L10.2889 9.98055L5.94389 19.026Z" fill="#172136"/>
<path d="M15.2619 18.7188C13.8454 19.479 12.2641 19.904 10.6464 19.9588C9.02888 20.0137 7.42082 19.6971 5.95312 19.0346L10.2874 9.98438L15.2619 18.7188Z" fill="white"/>
<path d="M4.5 5.86719H16.1792V10.6578C16.1792 11.9034 15.8777 12.8402 15.2745 13.4682C14.6823 14.1072 13.9148 14.4265 12.9716 14.4265C12.3685 14.4265 11.8421 14.2829 11.3924 13.9954C10.9538 13.7185 10.6193 13.3353 10.389 12.8457C10.1806 13.3778 9.85164 13.7983 9.40202 14.1072C8.95238 14.4265 8.4205 14.5862 7.80639 14.5862C6.77554 14.5862 5.96402 14.2669 5.37183 13.6281C4.79062 12.9893 4.5 12.0684 4.5 10.8654V5.86719ZM14.0244 8.13475H11.4911V10.6419C11.4911 11.0996 11.5953 11.451 11.8036 11.6958C12.023 11.9513 12.341 12.079 12.7577 12.079C13.1306 12.079 13.4321 11.9567 13.6625 11.7119C13.9037 11.4776 14.0244 11.1209 14.0244 10.6419V8.13475ZM9.31974 8.13475H6.6549V10.8015C6.6549 11.2806 6.77005 11.6373 7.00035 11.8715C7.23065 12.1163 7.55964 12.2387 7.98732 12.2387C8.39308 12.2387 8.71659 12.1163 8.95786 11.8715C9.19912 11.6373 9.31974 11.2806 9.31974 10.8015V8.13475Z" fill="white"/>
</g>
<defs>
<clipPath id="clip0_2314_56018">
<rect width="96" height="20" fill="white"/>
</clipPath>
</defs>
</svg>
