<svg width="96" height="96" viewBox="0 0 96 96" fill="none" xmlns="http://www.w3.org/2000/svg">
<mask id="mask0_202_20" style="mask-type:alpha" maskUnits="userSpaceOnUse" x="29" y="24" width="66" height="65">
<path d="M45.2226 24.9149L30.8949 39.76C26.5527 44.259 34.0089 58.5651 47.4641 71.5515C60.9194 84.5379 75.481 91.4821 79.8232 86.9831L94.1509 72.138" fill="#3DB8F5"/>
</mask>
<g mask="url(#mask0_202_20)">
<path d="M50.2594 29.7761L35.9316 44.6212C31.5894 49.1202 39.0456 63.4264 52.5009 76.4127C65.9561 89.3991 80.5177 96.3433 84.8599 91.8443L99.1876 76.9992" fill="#1FD68A"/>
</g>
<mask id="path-3-inside-1_202_20" fill="white">
<path d="M45.2226 24.9149L30.8949 39.76C26.5527 44.259 34.0089 58.5651 47.4641 71.5515C60.9194 84.5379 75.481 91.4821 79.8232 86.9831L94.1509 72.138"/>
</mask>
<path d="M47.3812 26.9982C48.5319 25.8061 48.4982 23.9069 47.306 22.7563C46.1139 21.6057 44.2147 21.6393 43.064 22.8315L47.3812 26.9982ZM96.3095 74.2214C97.4601 73.0292 97.4265 71.13 96.2343 69.9794C95.0421 68.8288 93.1429 68.8625 91.9923 70.0546L96.3095 74.2214ZM43.064 22.8315L28.7363 37.6766L33.0535 41.8434L47.3812 26.9982L43.064 22.8315ZM28.7363 37.6766C26.735 39.7501 26.4307 42.6052 26.7877 45.207C27.151 47.8554 28.2587 50.8156 29.8451 53.8595C33.0333 59.9767 38.4831 67.0528 45.3808 73.7101L49.5475 69.3929C42.9899 63.0638 37.984 56.4937 35.1658 51.0864C33.7491 48.3681 32.9659 46.0966 32.732 44.3915C32.4917 42.6397 32.8836 42.0193 33.0535 41.8434L28.7363 37.6766ZM45.3808 73.7101C52.2784 80.3674 59.5433 85.5629 65.7697 88.5322C68.868 90.0097 71.8656 91.0117 74.5252 91.2809C77.1381 91.5454 79.9805 91.14 81.9818 89.0665L77.6646 84.8997C77.4947 85.0757 76.8887 85.4895 75.1295 85.3114C73.4171 85.1381 71.1192 84.4359 68.3524 83.1165C62.8486 80.4918 56.1051 75.722 49.5475 69.3929L45.3808 73.7101ZM81.9818 89.0665L96.3095 74.2214L91.9923 70.0546L77.6646 84.8997L81.9818 89.0665Z" fill="#172136" mask="url(#path-3-inside-1_202_20)"/>
<path d="M92.7244 71.4561C92.0711 72.1329 90.8845 72.5538 88.912 72.3696C86.9581 72.1871 84.4837 71.4247 81.6321 70.077C75.9435 67.3884 69.0655 62.5196 62.395 56.0815C55.7244 49.6435 50.6148 42.9424 47.7262 37.3527C46.2783 34.5508 45.4286 32.1049 45.1769 30.1587C44.9229 28.194 45.3015 26.9932 45.9547 26.3163C46.608 25.6395 47.7946 25.2186 49.7671 25.4028C51.721 25.5853 54.1954 26.3477 57.047 27.6954C62.7356 30.384 69.6136 35.2528 76.2841 41.6909C82.9547 48.1289 88.0643 54.83 90.9529 60.4197C92.4008 63.2216 93.2505 65.6675 93.5022 67.6137C93.7562 69.5784 93.3776 70.7792 92.7244 71.4561Z" fill="white" stroke="#172136" stroke-width="3" stroke-linecap="round" stroke-linejoin="round"/>
<mask id="mask1_202_20" style="mask-type:alpha" maskUnits="userSpaceOnUse" x="12" y="28" width="71" height="57">
<path d="M12.8702 64.5915L23.8805 82.0396C27.2172 87.3275 42.8865 83.4889 58.7011 73.5095C74.5157 63.5301 84.7248 51.0387 81.3881 45.7508L70.3778 28.3027" fill="#3DB8F5"/>
</mask>
<g mask="url(#mask1_202_20)">
<path d="M18.7901 60.8559L29.8004 78.304C33.1371 83.5919 48.8064 79.7533 64.621 69.7739C80.4356 59.7945 90.6447 47.3031 87.308 42.0152L76.2977 24.5671" fill="#1FD68A"/>
</g>
<mask id="path-8-inside-2_202_20" fill="white">
<path d="M12.8702 64.5915L23.8805 82.0396C27.2172 87.3275 42.8865 83.4889 58.7011 73.5095C74.5157 63.5301 84.7248 51.0387 81.3881 45.7508L70.3778 28.3027"/>
</mask>
<path d="M15.4073 62.9905C14.5231 61.5893 12.6705 61.1702 11.2693 62.0544C9.86806 62.9386 9.44894 64.7913 10.3331 66.1925L15.4073 62.9905ZM72.9149 26.7017C72.0307 25.3005 70.1781 24.8814 68.7769 25.7656C67.3757 26.6498 66.9565 28.5025 67.8407 29.9037L72.9149 26.7017ZM10.3331 66.1925L21.3434 83.6406L26.4176 80.4386L15.4073 62.9905L10.3331 66.1925ZM21.3434 83.6406C22.8812 86.0777 25.5819 87.0525 28.1939 87.3248C30.8527 87.602 33.9915 87.2303 37.3254 86.4136C44.0254 84.7723 52.195 81.1624 60.3021 76.0466L57.1001 70.9724C49.3927 75.836 41.8203 79.1351 35.8978 80.5859C32.9205 81.3153 30.5279 81.5356 28.816 81.3571C27.0574 81.1738 26.5481 80.6455 26.4176 80.4386L21.3434 83.6406ZM60.3021 76.0466C68.4092 70.9308 75.1839 65.1105 79.5492 59.7693C81.7214 57.1115 83.4078 54.4383 84.302 51.9191C85.1805 49.4442 85.463 46.5869 83.9252 44.1498L78.851 47.3518C78.9815 47.5586 79.2391 48.2457 78.6477 49.912C78.0719 51.534 76.8433 53.5989 74.9035 55.9723C71.0448 60.6937 64.8076 66.1088 57.1001 70.9724L60.3021 76.0466ZM83.9252 44.1498L72.9149 26.7017L67.8407 29.9037L78.851 47.3518L83.9252 44.1498Z" fill="#172136" mask="url(#path-8-inside-2_202_20)"/>
<path d="M69.3761 29.526C69.8781 30.3216 70.0046 31.5743 69.3564 33.4463C68.7144 35.3007 67.3851 37.5227 65.3977 39.9717C61.433 44.8574 55.0676 50.3796 47.2275 55.3269C39.3873 60.2743 31.663 63.643 25.5466 65.1188C22.4806 65.8586 19.9028 66.102 17.9526 65.8834C15.9839 65.6628 14.9076 65.0094 14.4056 64.2139C13.9036 63.4183 13.7771 62.1656 14.4253 60.2936C15.0674 58.4392 16.3966 56.2172 18.384 53.7682C22.3488 48.8825 28.7141 43.3603 36.5543 38.4129C44.3945 33.4656 52.1187 30.0969 58.2351 28.6211C61.3011 27.8813 63.8789 27.6379 65.8291 27.8565C67.7978 28.0771 68.8741 28.7305 69.3761 29.526Z" fill="white" stroke="#172136" stroke-width="3" stroke-linecap="round" stroke-linejoin="round"/>
<path d="M17.8767 23.3846L19.521 43.9505C20.0194 50.1833 35.6784 54.0634 54.3189 52.573C72.9594 51.0826 87.803 44.7637 87.3047 38.531L85.6604 17.965" fill="white"/>
<mask id="mask2_202_20" style="mask-type:alpha" maskUnits="userSpaceOnUse" x="17" y="17" width="71" height="36">
<path d="M17.8767 23.3846L19.521 43.9505C20.0194 50.1833 35.6784 54.0634 54.3189 52.573C72.9594 51.0826 87.803 44.7637 87.3047 38.531L85.6604 17.965" fill="#3DB8F5"/>
</mask>
<g mask="url(#mask2_202_20)">
<path d="M24.8544 22.8267L26.4988 43.3926C26.9971 49.6254 42.6561 53.5055 61.2967 52.0151C79.9372 50.5247 94.7808 44.2058 94.2824 37.9731L92.6381 17.4071" fill="#1FD68A"/>
</g>
<mask id="path-14-inside-3_202_20" fill="white">
<path d="M17.8767 23.3846L19.521 43.9505C20.0194 50.1833 35.6784 54.0634 54.3189 52.573C72.9594 51.0826 87.803 44.7637 87.3047 38.531L85.6604 17.965"/>
</mask>
<path d="M20.8672 23.1455C20.7351 21.4939 19.2892 20.2621 17.6376 20.3941C15.986 20.5262 14.7542 21.9721 14.8862 23.6237L20.8672 23.1455ZM88.6508 17.7259C88.5188 16.0743 87.0729 14.8425 85.4213 14.9746C83.7697 15.1066 82.5379 16.5525 82.6699 18.2041L88.6508 17.7259ZM14.8862 23.6237L16.5306 44.1896L22.5115 43.7114L20.8672 23.1455L14.8862 23.6237ZM16.5306 44.1896C16.7602 47.0622 18.6989 49.1801 20.8855 50.6346C23.1112 52.1152 26.0634 53.2443 29.3951 54.0699C36.0908 55.729 45.0022 56.3275 54.558 55.5635L54.0798 49.5825C44.9951 50.3089 36.7568 49.7126 30.8382 48.246C27.8628 47.5087 25.6418 46.5923 24.2087 45.639C22.7365 44.6597 22.531 43.9552 22.5115 43.7114L16.5306 44.1896ZM54.558 55.5635C64.1138 54.7994 72.817 52.7926 79.1639 50.0907C82.3222 48.7462 85.0574 47.1624 87.0196 45.3469C88.9473 43.5634 90.5248 41.1644 90.2952 38.2919L84.3143 38.7701C84.3337 39.0139 84.2427 39.742 82.9449 40.9428C81.6815 42.1117 79.6342 43.3694 76.8138 44.5701C71.2034 46.9584 63.1645 48.8562 54.0798 49.5825L54.558 55.5635ZM90.2952 38.2919L88.6508 17.7259L82.6699 18.2041L84.3143 38.7701L90.2952 38.2919Z" fill="#172136" mask="url(#path-14-inside-3_202_20)"/>
<path d="M84.205 18.583C84.28 19.5206 83.81 20.6887 82.3664 22.0453C80.9363 23.3892 78.727 24.7394 75.8293 25.9849C70.0487 28.4694 61.8465 30.4025 52.6054 31.1414C43.3642 31.8803 34.9591 31.275 28.8572 29.7405C25.7984 28.9713 23.4026 27.9893 21.7772 26.8897C20.1363 25.7797 19.4867 24.7011 19.4118 23.7634C19.3368 22.8258 19.8067 21.6577 21.2504 20.3011C22.6805 18.9572 24.8898 17.607 27.7875 16.3615C33.5681 13.877 41.7703 11.9439 51.0114 11.205C60.2525 10.4661 68.6576 11.0714 74.7596 12.6059C77.8184 13.3752 80.2142 14.3571 81.8396 15.4567C83.4805 16.5667 84.13 17.6453 84.205 18.583Z" fill="white" stroke="#172136" stroke-width="3" stroke-linecap="round" stroke-linejoin="round"/>
</svg>
