<svg width="72" height="72" viewBox="0 0 72 72" fill="none" xmlns="http://www.w3.org/2000/svg">
<path d="M21.3753 31.1746C21.0252 22.4038 27.8244 12.6351 35.7623 12.3952C43.767 12.1533 52.3035 23.365 50.0953 31.4472H46.0559C46.0559 31.4472 47.6178 23.5252 43.8395 20.1937C41.9901 18.563 38.5839 15.4227 35.1999 15.9015C32.917 16.2245 28.3322 19.3533 27.2728 21.3224C25.2085 25.1591 25.548 31.1393 25.548 31.1393L21.3753 31.1746Z" fill="#D0CFCE" stroke="#D0CFCE" stroke-width="2" stroke-miterlimit="10" stroke-linecap="round" stroke-linejoin="round"/>
<path d="M53 32.2969H54.875V59.1719H16.875V32.2969H18.75H53Z" fill="#FCEA2B"/>
<path d="M54.4304 32.4929L35.6602 58.9943H54.9677L54.4304 32.4929Z" fill="#FCEA2B"/>
<path d="M53 32.25H54.875V59.125H16.875V32.25H18.75H53Z" stroke="black" stroke-width="2" stroke-miterlimit="10" stroke-linecap="round" stroke-linejoin="round"/>
<path d="M21.375 28.9146C21.375 20.536 27.7901 12.6402 35.6934 12.3916C43.6631 12.1409 51.1032 19.6763 50.435 28.9146" stroke="black" stroke-width="2" stroke-miterlimit="10" stroke-linecap="round" stroke-linejoin="round"/>
<path d="M25.5479 28.9145C25.5479 22.5793 30.1234 16.6091 35.7602 16.4211C41.4445 16.2315 46.751 21.9292 46.2744 28.9145" stroke="black" stroke-width="2" stroke-miterlimit="10" stroke-linecap="round" stroke-linejoin="round"/>
</svg>
