<svg width="16" height="16" viewBox="0 0 16 16" fill="none" xmlns="http://www.w3.org/2000/svg">
<circle cx="8" cy="8" r="7.2" stroke="#A7AFBE" stroke-width="1.6"/>
<path d="M7.04669 9.50689V9.35107C7.04669 8.92035 7.07995 8.57704 7.14647 8.32114C7.21537 8.06524 7.31516 7.86002 7.44583 7.70546C7.5765 7.54838 7.73569 7.40523 7.92338 7.27601C8.07306 7.17466 8.20611 7.07205 8.32252 6.96817C8.44132 6.86176 8.53516 6.74774 8.60406 6.62613C8.67296 6.50451 8.70741 6.36643 8.70741 6.21188C8.70741 6.06239 8.67415 5.93064 8.60763 5.81663C8.5411 5.70261 8.44963 5.6152 8.33321 5.55439C8.21917 5.49105 8.09206 5.45938 7.95189 5.45938C7.81171 5.45938 7.67985 5.49359 7.55631 5.562C7.43514 5.6304 7.33535 5.72795 7.25695 5.85463C7.18092 5.97878 7.14172 6.12953 7.13934 6.30689H5.5C5.50713 5.77482 5.62236 5.33903 5.84569 4.99952C6.07139 4.66002 6.36957 4.40918 6.7402 4.24703C7.11083 4.08234 7.51948 4 7.96614 4C8.45557 4 8.89035 4.08108 9.27049 4.24323C9.65301 4.40538 9.95355 4.64481 10.1721 4.96152C10.3907 5.27823 10.5 5.66587 10.5 6.12447C10.5 6.42597 10.4525 6.692 10.3574 6.92257C10.2624 7.15313 10.1294 7.35709 9.9583 7.53444C9.78962 7.70926 9.59123 7.86888 9.36315 8.0133C9.18496 8.12478 9.03647 8.24133 8.91768 8.36295C8.80126 8.48456 8.71335 8.62391 8.65396 8.781C8.59456 8.93555 8.56486 9.12557 8.56486 9.35107V9.50689H7.04669ZM7.83428 12C7.57769 12 7.35792 11.9037 7.17498 11.7112C6.99442 11.5186 6.90532 11.2855 6.9077 11.0119C6.90532 10.7433 6.99442 10.514 7.17498 10.324C7.35792 10.1314 7.57769 10.0352 7.83428 10.0352C8.079 10.0352 8.29401 10.1314 8.47933 10.324C8.66465 10.514 8.75849 10.7433 8.76087 11.0119C8.75849 11.1943 8.71335 11.3603 8.62545 11.5097C8.53991 11.6592 8.42706 11.7783 8.28689 11.867C8.14909 11.9557 7.99822 12 7.83428 12Z" fill="#A7AFBE"/>
</svg>
