<svg width="50" height="40" fill="none" xmlns="http://www.w3.org/2000/svg">
<path d="M10.836 40c7.895 0 10.526-2.137 10.526-11.603 0-9.618-2.631-11.145-8.668-11.145-.775 0-1.239 0-1.703.153.619-5.497 3.405-8.397 8.823-8.55V0C6.347.153 0 9.008 0 24.733 0 37.252 2.477 40 10.836 40Zm28.793 0C47.523 40 50 37.863 50 28.397c0-9.618-2.632-11.145-8.669-11.145-.774 0-1.238 0-1.703.153.62-5.497 3.406-8.397 8.824-8.55V0c-13.468.153-19.66 9.008-19.66 24.733C28.793 37.252 31.27 40 39.63 40Z" fill="#5647EB"/>
</svg>