<svg width="144" height="64" viewBox="0 0 144 64" fill="none" xmlns="http://www.w3.org/2000/svg">
<path d="M22.2504 36.4759C20.9023 38.4051 18.5824 39.6886 15.9411 39.6886C12.0066 39.6886 9.04399 36.6937 9.04399 32.6253C9.04399 28.8758 11.6853 25.5075 15.7844 25.5075C18.4805 25.5075 20.8005 26.791 22.2504 28.7202V36.4759ZM22.5169 21.7036C20.4713 20.0466 17.83 19.082 14.8595 19.082C7.74294 19.082 2.0293 24.9707 2.0293 32.6175C2.0293 36.1491 3.32251 39.3619 5.37597 41.7111C7.69592 44.3871 11.3639 46.0985 15.2436 46.0985C17.8849 46.0985 20.3694 45.2972 22.5247 43.477V45.5617H29.2651V19.6266H22.5247V21.7113L22.5169 21.7036Z" fill="#394B3A"/>
<path d="M45.8279 39.6886C43.1866 39.6886 40.8667 38.4051 39.5186 36.4759V28.7202C40.9764 26.791 43.2963 25.5075 45.9847 25.5075C50.0837 25.5075 52.725 28.8758 52.725 32.6253C52.725 36.6937 49.7624 39.6886 45.8201 39.6886M46.9017 19.0898C43.939 19.0898 41.2977 20.0544 39.2443 21.7114V19.6266H32.5039V56.3201H39.5108V43.757C41.6113 45.3595 43.8763 46.1141 46.5176 46.1141C50.3973 46.1141 54.1201 44.4027 56.4401 41.7267C58.4857 39.3697 59.7319 36.1647 59.7319 32.6331C59.7319 24.9785 54.0182 19.0976 46.9017 19.0898Z" fill="#394B3A"/>
<path d="M89.4151 19.625H82.4082V45.5757H89.4151V19.625Z" fill="#394B3A"/>
<path d="M85.9073 16.5633C88.4388 16.5633 90.4923 14.6341 90.4923 12.1215C90.4923 9.60888 88.4467 7.67969 85.9073 7.67969C83.3679 7.67969 81.3223 9.60888 81.3223 12.1215C81.3223 14.6341 83.3679 16.5633 85.9073 16.5633Z" fill="#394B3A"/>
<path d="M112.892 19.625L105.72 35.463L98.5487 19.625H91.2754L103.298 45.5757H108.15L120.173 19.625H112.892Z" fill="#394B3A"/>
<path d="M125.128 29.2648C125.45 26.9078 127.824 24.7141 130.732 24.7141C133.64 24.7141 135.693 26.9622 135.905 29.2648H125.128ZM143.084 32.3686C143.084 25.1419 137.958 19.0977 130.74 19.0977C122.973 19.0977 118.02 25.4142 118.02 32.6331C118.02 40.7699 123.898 46.1141 131.712 46.1141C135.756 46.1141 139.91 44.4572 142.442 41.4623L138.452 37.5028C137.214 38.8407 134.839 40.4977 131.876 40.4977C128.154 40.4977 125.191 37.9851 124.815 34.3445H142.928C143.037 33.7533 143.092 33.061 143.092 32.3608" fill="#394B3A"/>
<path d="M72.4751 12.4062H65.4682V19.6329H58.9316V25.5216H65.4682V34.6153C65.4682 38.3103 66.0639 40.6051 67.412 42.3709C69.1911 44.728 72.2635 46.1204 76.4723 46.1204C77.4207 46.1204 78.7452 46.0115 79.7641 45.8404V39.7027C79.2782 39.8117 77.9301 39.9672 76.9034 39.9672C75.1791 39.9672 74.0426 39.4849 73.3451 38.6837C72.7494 37.9914 72.4829 37.0268 72.4829 35.4165V25.5139H79.7641V19.6252H72.4829L72.4751 12.4062Z" fill="#394B3A"/>
</svg>
