<svg width="180" height="64" viewBox="0 0 180 64" fill="none" xmlns="http://www.w3.org/2000/svg">
<path d="M4.74749 0.967339C4.87471 0.701321 5.11758 0.374844 5.29106 0.241835C5.45297 0.108826 5.67271 0 5.7768 0C5.88088 0.0120917 6.12375 0.108826 6.33193 0.217651C6.52853 0.326477 9.59332 3.11967 13.1554 6.42072C16.7059 9.72176 20.881 13.579 22.4423 15.0059C24.0036 16.4327 26.1894 18.4157 27.2997 19.4193C28.4099 20.4109 30.3182 22.0916 31.521 23.1557C32.7238 24.2077 34.9905 26.1303 36.5518 27.4241C38.1131 28.7179 39.5588 29.9754 39.767 30.2173C39.9867 30.4591 40.3221 31.0032 40.5187 31.4385C40.7616 31.9827 40.8888 32.4663 40.9235 33.0105C40.9466 33.4458 40.9119 34.1229 40.831 34.5219C40.75 34.921 40.4956 35.6223 40.2758 36.0939C39.9173 36.8435 39.4431 37.3877 36.1008 40.8943C33.302 43.8326 32.3537 44.8966 32.4115 45.0417C32.4925 45.1989 32.8625 45.2231 34.8749 45.2231C37.1648 45.2231 37.2458 45.2352 37.2458 45.465C37.2458 45.6463 34.447 47.847 26.0853 54.2315C19.5278 59.2374 14.8439 62.7441 14.7283 62.7199C14.6011 62.7078 14.5201 62.5869 14.5317 62.4539C14.5317 62.3208 16.0698 59.5518 17.9434 56.2871C19.8285 53.0223 21.4361 50.2412 21.5286 50.084C21.6674 49.8422 21.6674 49.7938 21.5171 49.6971C21.4245 49.6366 20.1755 49.5761 18.7183 49.5761C16.6828 49.5761 16.0814 49.5399 16.0814 49.419C16.0814 49.3464 16.9835 47.6415 18.0938 45.6463C19.204 43.6512 20.0945 41.9946 20.0714 41.9583C20.0598 41.9221 19.2618 41.8616 18.3251 41.8132C16.9951 41.7528 16.3474 41.6681 15.5031 41.4142C14.9018 41.2449 13.9881 40.8943 13.4792 40.6404C12.9704 40.3985 12.1724 39.939 11.7098 39.6246C11.2587 39.3103 10.4838 38.6573 9.9981 38.1736C9.51236 37.7021 8.88784 37.0007 8.62184 36.638C8.35584 36.2752 7.93949 35.6223 7.71975 35.187C7.48845 34.7517 7.22245 34.1592 7.11836 33.8569C7.01427 33.5546 6.93332 33.1193 6.93332 32.8895C6.93332 32.6598 7.00271 32.3938 7.08366 32.3091C7.16462 32.2245 7.3728 32.1519 7.55784 32.164C7.73132 32.164 8.56401 32.4059 9.40827 32.7082C10.241 33.0105 11.6635 33.4458 12.554 33.6755C13.4445 33.9052 14.8208 34.1954 15.6188 34.3285C16.4168 34.4615 17.7352 34.6308 18.5679 34.7033L18.699 34.7128C19.4852 34.77 20.2321 34.8242 20.4184 34.8242C20.6265 34.8242 20.7191 34.7879 20.6497 34.7275C20.5803 34.667 20.0367 34.5461 19.4353 34.4615C18.8339 34.3889 17.5849 34.1592 16.6597 33.9657C15.7344 33.7722 14.4044 33.4579 13.7105 33.2523C13.0166 33.0467 11.9179 32.6598 11.2818 32.4059C10.5879 32.1278 9.63958 31.5957 8.91097 31.1C8.1014 30.5437 7.36123 29.8908 6.69045 29.1532C6.12375 28.5486 5.37201 27.5813 5.01349 27.0009C4.6434 26.4084 4.15766 25.4652 3.9148 24.8727C3.67193 24.2923 3.37123 23.3975 3.24401 22.8897C3.11679 22.3697 2.96645 21.5717 2.89706 21.1001C2.83923 20.6406 2.79297 19.7337 2.79297 19.105C2.79297 18.4762 2.85079 17.7628 2.93175 17.533C3.02427 17.2509 3.17848 17.0695 3.39436 16.9889C3.6141 16.9043 3.81071 16.9043 4.03045 17.001C4.20393 17.0735 4.92097 17.5814 5.61488 18.1376C6.3088 18.6817 7.69662 19.6975 8.67967 20.3746C9.66271 21.0517 11.1199 22.007 11.9179 22.4906C12.7159 22.9743 14.3929 23.9054 15.6419 24.5583C16.9025 25.2234 19.019 26.2754 20.3605 26.9041C21.7021 27.5329 22.8586 28.0528 22.9396 28.0528C23.009 28.0528 21.8871 27.3999 20.4184 26.626C18.9496 25.8401 17.2379 24.8727 16.6018 24.4858C15.9658 24.0988 15.029 23.5063 14.5201 23.1799C14.0112 22.8413 13.0744 22.2125 12.4384 21.7651C11.8023 21.3177 10.7036 20.4834 10.0097 19.9151C9.31575 19.3468 8.34427 18.452 7.84697 17.9321C7.36123 17.4121 6.66732 16.5536 6.3088 16.0216C5.93871 15.4895 5.38358 14.5101 5.07132 13.845C4.75906 13.18 4.3774 12.2006 4.22706 11.6685C4.07671 11.1365 3.86853 10.2054 3.76445 9.61294C3.67193 9.02044 3.59097 7.89591 3.59097 7.13413C3.59097 6.37235 3.67193 5.25991 3.76445 4.65532C3.85697 4.05073 4.06514 3.09549 4.22706 2.51508C4.38897 1.92259 4.62027 1.23336 4.74749 0.967339Z" fill="#037FFE"/>
<path d="M36.2184 45.1886C35.617 45.2128 34.5762 45.2128 33.9054 45.1886C33.2346 45.1765 33.7319 45.1523 35.0041 45.1523C36.2763 45.1523 36.8198 45.1765 36.2184 45.1886Z" fill="#037FFD" fill-opacity="0.5"/>
<path d="M20.2006 49.6626C19.4951 49.6867 18.3039 49.6867 17.5406 49.6626C16.7773 49.6505 17.344 49.6263 18.8128 49.6263C20.2816 49.6263 20.9061 49.6505 20.2006 49.6626Z" fill="#037FFD" fill-opacity="0.5"/>
<path fill-rule="evenodd" clip-rule="evenodd" d="M155.967 18.3789H159.957L159.899 18.8989C159.876 19.177 159.587 21.7767 159.263 24.6666C158.939 27.5565 158.627 30.0233 158.557 30.1442C158.499 30.253 158.453 30.6399 158.453 30.9906C158.453 31.3292 158.118 34.5577 157.701 38.1489C157.285 41.7402 156.95 44.7752 156.95 44.8961C156.95 45.0775 156.776 45.1017 152.844 45.1017L152.913 44.7752C152.96 44.5817 153.665 38.5721 154.475 31.4138L155.967 18.3789ZM165.855 18.3789C167.092 18.3789 167.833 18.4152 167.833 18.4998C167.833 18.5603 167.416 22.2483 166.907 26.6859C166.398 31.1236 166.017 34.7874 166.063 34.8358C166.109 34.8841 167.879 32.7439 173.846 25.2591H176.183C178.415 25.2591 178.519 25.2591 178.357 25.4647C178.253 25.5856 177.038 27.1212 175.639 28.8866C174.251 30.652 172.459 32.9011 171.684 33.8805C170.261 35.658 170.261 35.6701 170.469 35.9361C170.585 36.0812 172.204 38.0643 174.066 40.3254C175.928 42.5745 177.594 44.5817 178.068 45.1017L173.442 45.0896L169.706 40.6156C167.659 38.161 165.936 36.19 165.878 36.2384C165.82 36.2868 165.566 38.2577 165.3 40.6277C165.034 42.9856 164.814 44.9566 164.814 45.0049C164.814 45.0533 163.912 45.1017 160.778 45.1017L160.824 44.7631C160.859 44.5817 161.541 38.6326 162.339 31.5468C163.137 24.4731 163.819 18.6086 163.843 18.524C163.877 18.4152 164.386 18.3789 165.855 18.3789V18.3789ZM58.2868 18.8868C61.4441 18.9351 62.7625 18.9956 63.4565 19.1407C63.9653 19.2374 64.8212 19.4672 65.3647 19.6485C65.8967 19.8299 66.66 20.1322 67.0417 20.3378C67.4233 20.5433 68.0479 20.9303 68.4295 21.1963C68.8112 21.4744 69.401 21.9943 69.7595 22.3692C70.1065 22.7319 70.6038 23.3607 70.8582 23.7597C71.1126 24.1588 71.4943 24.9205 71.714 25.4526C71.9222 25.9725 72.1882 26.9036 72.3154 27.5082C72.4658 28.2579 72.5236 29.1043 72.5236 30.2893C72.5236 31.2082 72.4542 32.4658 72.3617 33.0704C72.2692 33.6629 72.061 34.6423 71.8875 35.2469C71.7256 35.8394 71.3902 36.7704 71.1589 37.3025C70.916 37.8224 70.4534 38.6809 70.118 39.2009C69.7942 39.7208 69.1697 40.531 68.7418 41.0026C68.3139 41.4741 67.5737 42.1634 67.0995 42.5382C66.6138 42.9131 65.7579 43.4814 65.1912 43.7958C64.613 44.098 63.6762 44.5092 63.1095 44.7147C62.5312 44.9082 61.6523 45.15 61.1434 45.2589C60.6346 45.3677 59.6168 45.5128 58.8882 45.5732C58.148 45.6458 56.0547 45.6942 50.9082 45.7062L50.9545 45.4281C50.9892 45.283 51.6715 39.3097 52.4695 32.1514C53.2675 25.0052 53.9499 19.0802 53.9846 18.9956C54.0308 18.8626 54.7826 18.8384 58.2868 18.8868ZM56.4132 32.0547C55.8581 37.0606 55.3724 41.2565 55.3492 41.3774C55.303 41.5709 55.4186 41.5951 56.5983 41.5951C57.3153 41.5951 58.4487 41.5346 59.1195 41.462C59.7787 41.3895 60.8196 41.196 61.4325 41.0388C62.0339 40.8695 62.8898 40.5431 63.3408 40.3133C63.7803 40.0957 64.5089 39.612 64.9484 39.2613C65.3879 38.9107 66.0008 38.3061 66.3131 37.895C66.6253 37.496 67.0995 36.6858 67.3886 36.0812C67.6662 35.4887 68.0016 34.5335 68.1404 33.9652C68.2676 33.4089 68.4295 32.4295 68.4873 31.7887C68.5452 31.1236 68.5452 30.2409 68.4873 29.6726C68.4295 29.1526 68.3254 28.4634 68.2445 28.1611C68.1751 27.8709 67.9553 27.3026 67.7587 26.8915C67.5621 26.4925 67.1342 25.8758 66.8104 25.513C66.4865 25.1624 65.9199 24.6545 65.5382 24.4006C65.1565 24.1346 64.4511 23.796 63.9769 23.6388C63.4912 23.4816 62.8204 23.2882 62.4734 23.2035C62.1149 23.131 60.8427 23.0342 59.6399 22.998L57.4426 22.9375L56.4132 32.0547ZM78.8845 19.4188C79.1042 19.4551 79.4396 19.576 79.6246 19.6848C79.8097 19.7936 80.0641 20.0476 80.2029 20.2289C80.3879 20.495 80.4458 20.7489 80.4458 21.3293C80.4458 21.946 80.3879 22.1757 80.1219 22.5868C79.9485 22.877 79.5668 23.2277 79.2545 23.4091C78.7919 23.6872 78.6069 23.7235 77.9939 23.6872C77.3579 23.6388 77.2191 23.5904 76.8605 23.2156C76.5367 22.8891 76.4211 22.6594 76.3748 22.2483C76.3401 21.946 76.3401 21.4986 76.3864 21.2446C76.4211 20.9665 76.6177 20.6038 76.8837 20.3015C77.1265 20.0234 77.4272 19.7453 77.5545 19.6727C77.6817 19.6002 77.9361 19.5034 78.1327 19.4551C78.3178 19.4067 78.6647 19.3825 78.8845 19.4188ZM137.578 19.4551L137.497 19.9146C137.451 20.1685 137.347 21.0149 137.115 23.2156H133.669C131.495 23.2156 130.211 23.2519 130.176 23.3365C130.142 23.397 129.748 26.6497 129.309 30.5553C128.858 34.4609 128.314 39.2734 128.083 41.2323C127.863 43.1912 127.69 44.8598 127.69 44.9445C127.69 45.0654 127.192 45.1017 123.526 45.1017L123.596 44.6422C123.63 44.4003 124.185 39.4911 124.833 33.7596C125.481 28.016 125.99 23.2882 125.955 23.264C125.92 23.2277 124.359 23.2035 119.074 23.2156L119.27 21.426C119.374 20.4466 119.467 19.6002 119.467 19.5518C119.478 19.5034 123.549 19.4672 137.578 19.4551ZM142.493 25.513C143.28 25.513 144.112 25.5856 144.54 25.6944C144.945 25.7911 145.581 26.033 145.963 26.2385C146.344 26.432 146.888 26.8189 147.177 27.085C147.674 27.5444 147.697 27.5565 147.744 27.2905C147.778 27.1454 147.825 26.7585 147.929 25.8758H149.664C151.317 25.8758 151.398 25.8879 151.398 26.1176C151.398 26.2506 150.959 30.3135 150.415 35.1502C149.872 39.9869 149.409 44.2069 149.317 45.1017H145.789L145.87 44.098C145.928 43.5539 145.94 43.0823 145.893 43.0461C145.859 43.0098 145.766 43.034 145.685 43.1065C145.604 43.167 145.234 43.433 144.852 43.699C144.471 43.965 143.858 44.3036 143.476 44.4729C143.095 44.6301 142.447 44.8356 142.031 44.9324C141.614 45.017 140.839 45.0896 140.296 45.0896C139.752 45.0896 138.977 45.017 138.561 44.9324C138.145 44.8477 137.439 44.5817 137 44.3641C136.491 44.1101 135.901 43.6748 135.438 43.2153C135.022 42.8042 134.49 42.115 134.247 41.6918C134.004 41.2686 133.692 40.5189 133.53 40.0231C133.38 39.5274 133.206 38.5963 133.148 37.9675C133.079 37.2783 133.067 36.3351 133.137 35.6096C133.183 34.9446 133.368 33.9047 133.53 33.3122C133.692 32.7076 134.039 31.7645 134.293 31.1962C134.548 30.6278 134.906 29.9507 135.08 29.6847C135.253 29.4187 135.704 28.8504 136.086 28.4271C136.456 28.0039 137.081 27.4235 137.462 27.1333C137.844 26.8552 138.445 26.4804 138.792 26.3111C139.139 26.1418 139.822 25.8879 140.296 25.767C140.909 25.5977 141.545 25.5251 142.493 25.513ZM140.354 29.7451C139.81 30.0112 139.301 30.3981 138.839 30.8818C138.353 31.4017 137.994 31.9217 137.659 32.6472C137.381 33.2276 137.104 34.074 137 34.606C136.907 35.126 136.826 35.8998 136.826 36.3351C136.826 36.7704 136.884 37.3992 136.953 37.7499C137.023 38.1005 137.219 38.6809 137.393 39.0316C137.555 39.3944 137.936 39.9264 138.237 40.2166C138.538 40.5068 139.035 40.8695 139.336 41.0147C139.729 41.196 140.18 41.2928 140.932 41.329C141.776 41.3653 142.111 41.329 142.69 41.1235C143.095 40.9784 143.638 40.7244 143.904 40.5431C144.182 40.3617 144.633 39.9748 144.922 39.6604C145.211 39.3581 145.604 38.814 145.801 38.4512C146.009 38.0764 146.287 37.3992 146.414 36.9397C146.553 36.4682 146.714 35.658 146.761 35.126C146.83 34.5335 146.83 33.808 146.761 33.2518C146.691 32.7076 146.518 32.0547 146.321 31.6194C146.136 31.2203 145.789 30.6762 145.546 30.4223C145.292 30.1684 144.841 29.8298 144.54 29.6726C144.239 29.5154 143.777 29.3461 143.499 29.3098C143.233 29.2736 142.91 29.2252 142.782 29.2131C142.655 29.1889 142.239 29.2131 141.857 29.2615C141.464 29.3098 140.816 29.5275 140.354 29.7451ZM91.3171 25.9242C92.3232 25.9604 92.7512 26.033 93.3988 26.2869C93.8383 26.4562 94.4859 26.7948 94.8329 27.0487C95.1683 27.3026 95.6193 27.75 95.8275 28.0523C96.0357 28.3546 96.3132 28.8383 96.4636 29.1406C96.6024 29.4429 96.7874 30.0353 96.8799 30.4706C96.9609 30.906 97.0418 31.5831 97.0418 31.9821C97.0418 32.3811 96.7296 35.4524 96.3479 38.814C95.9663 42.1755 95.654 44.9566 95.654 45.0049C95.654 45.0533 94.8445 45.1017 93.8614 45.1017C92.1498 45.1017 92.0688 45.0896 92.0688 44.8598C92.0688 44.7268 92.3579 42.0666 92.7165 38.9591C93.1444 35.1502 93.341 33.0099 93.3179 32.4053C93.2716 31.6798 93.1906 31.3654 92.9246 30.8455C92.6818 30.386 92.4389 30.1079 92.0688 29.8782C91.6409 29.6242 91.3633 29.5638 90.5075 29.5154C89.7095 29.4791 89.3047 29.5154 88.7727 29.6968C88.3911 29.8177 87.8244 30.12 87.5005 30.3497C87.1767 30.5916 86.7257 31.0752 86.4828 31.438C86.2399 31.8007 85.9392 32.4537 85.812 32.889C85.6848 33.3485 85.3378 35.9603 84.9562 39.2976C84.6092 42.3931 84.3201 44.9566 84.3201 45.0049C84.3201 45.0533 83.5105 45.1017 82.5275 45.1017C80.8159 45.1017 80.7349 45.0896 80.7349 44.8598C80.7349 44.7268 81.1744 40.7124 81.7179 35.9361C82.2615 31.172 82.7241 27.0366 82.8166 26.2385H86.2746L86.2515 26.9036C86.2399 27.2663 86.2515 27.5686 86.2862 27.5565C86.3209 27.5565 86.5291 27.4114 86.7488 27.2301C86.9685 27.0608 87.4659 26.7585 87.8475 26.5771C88.2292 26.3836 88.8768 26.1539 89.2932 26.0572C89.802 25.9362 90.4612 25.8879 91.3171 25.9242ZM108.434 25.9242C109.579 25.9604 109.983 26.0209 110.747 26.2869C111.256 26.4683 111.822 26.7343 112.019 26.8673C112.204 27.0124 112.562 27.3147 112.794 27.5565C113.198 27.9556 113.233 27.9677 113.303 27.75C113.349 27.617 113.418 27.2301 113.522 26.299L117.05 26.2385L116.992 26.7464C116.957 27.0366 116.691 29.4187 116.402 32.0426C116.124 34.6665 115.731 38.1247 115.535 39.7208C115.338 41.3169 115.072 43.1428 114.945 43.7716C114.818 44.4003 114.552 45.4402 114.367 46.069C114.17 46.6978 113.788 47.6893 113.511 48.2697C113.233 48.8501 112.759 49.6482 112.47 50.023C112.181 50.4099 111.741 50.9057 111.51 51.1233C111.279 51.341 110.758 51.7521 110.342 52.0423C109.926 52.3204 109.324 52.6711 109.012 52.8041C108.688 52.9492 107.994 53.1789 107.451 53.3361C106.548 53.578 106.132 53.6022 102.443 53.6384C100.234 53.6626 98.4297 53.6384 98.4297 53.5901C98.4297 53.5417 98.5338 52.7195 98.661 51.7521C98.7882 50.7848 98.8923 49.9867 98.8923 49.9625C98.8923 49.9505 100.442 49.9384 102.327 49.9384C104.964 49.9263 105.959 49.89 106.583 49.7449C107.023 49.6482 107.647 49.4184 107.971 49.237C108.283 49.0557 108.804 48.6325 109.127 48.306C109.451 47.9674 109.914 47.2661 110.18 46.734C110.446 46.202 110.804 45.3193 110.966 44.7631C111.128 44.219 111.267 43.699 111.267 43.6144C111.279 43.5176 111.186 43.5297 111.013 43.6748C110.862 43.7958 110.411 44.086 109.995 44.3399C109.579 44.5817 108.85 44.9203 108.376 45.0896C107.624 45.3435 107.3 45.3919 105.947 45.3919C104.594 45.3919 104.27 45.3435 103.518 45.0896C103.044 44.9203 102.385 44.618 102.073 44.4003C101.749 44.1948 101.217 43.7353 100.893 43.3846C100.558 43.034 100.107 42.4173 99.8753 42.0183C99.644 41.6192 99.3318 40.8575 99.1698 40.3254C99.0079 39.7934 98.8345 38.8623 98.7766 38.2698C98.7188 37.6411 98.7188 36.6737 98.7766 35.9724C98.8345 35.3073 99.0195 34.2675 99.1814 33.675C99.3433 33.0704 99.6672 32.1756 99.8869 31.6798C100.118 31.1841 100.488 30.4706 100.72 30.1079C100.951 29.7451 101.379 29.1889 101.668 28.8504C101.957 28.5239 102.478 28.0281 102.824 27.7379C103.171 27.4598 103.819 27.0366 104.27 26.8069C104.71 26.565 105.392 26.299 105.774 26.1902C106.155 26.0934 106.595 25.9846 106.757 25.9483C106.919 25.9121 107.67 25.9121 108.434 25.9242ZM105.484 30.2772C105.138 30.4707 104.536 30.9543 104.154 31.3654C103.715 31.837 103.299 32.4416 103.033 33.0099C102.801 33.5057 102.535 34.2675 102.431 34.7028C102.327 35.1502 102.246 36.0087 102.246 36.6979C102.246 37.4476 102.316 38.1489 102.431 38.5721C102.524 38.9349 102.778 39.5032 102.975 39.8297C103.183 40.1561 103.553 40.6035 103.807 40.8333C104.062 41.0509 104.559 41.3532 104.906 41.4862C105.323 41.6434 105.831 41.7281 106.41 41.7281C106.884 41.7402 107.508 41.6676 107.798 41.5951C108.087 41.5104 108.619 41.2807 109 41.063C109.382 40.8575 109.972 40.3617 110.353 39.9264C110.735 39.5032 111.186 38.8381 111.371 38.4149C111.556 38.0038 111.799 37.3146 111.903 36.8793C112.007 36.444 112.123 35.6822 112.158 35.1864C112.192 34.6907 112.158 33.8926 112.088 33.4331C112.007 32.9615 111.822 32.3086 111.672 31.9821C111.522 31.6435 111.117 31.0873 110.758 30.7367C110.238 30.2409 109.949 30.0595 109.324 29.8661C108.896 29.721 108.26 29.6242 107.913 29.6242C107.566 29.6363 107.011 29.7089 106.699 29.7935C106.375 29.8782 105.831 30.0958 105.484 30.2772ZM76.0394 26.2385H79.694L79.6362 26.6255C79.6015 26.8431 79.1042 31.0511 78.5375 35.9724C77.9592 40.8937 77.4966 44.9566 77.4966 45.0049C77.4966 45.0533 76.6871 45.1017 75.704 45.1017C73.923 45.1017 73.9114 45.1017 73.9114 44.8235C73.9114 44.6784 74.2468 41.6676 74.6632 38.1489C75.0795 34.6181 75.5537 30.4948 75.7272 28.9834L76.0394 26.2385Z" fill="#037FFE"/>
<path d="M158.97 18.3468C158.392 18.371 157.49 18.371 156.946 18.3468C156.402 18.3347 156.877 18.3105 157.987 18.3105C159.097 18.3105 159.548 18.3347 158.97 18.3468Z" fill="#037FFD" fill-opacity="0.8"/>
<path d="M166.834 18.3468C166.256 18.371 165.354 18.371 164.81 18.3468C164.267 18.3347 164.741 18.3105 165.851 18.3105C166.961 18.3105 167.412 18.3347 166.834 18.3468Z" fill="#037FFD" fill-opacity="0.8"/>
<path d="M124.216 23.3044C123.233 23.3286 121.649 23.3286 120.689 23.3044C119.729 23.2923 120.539 23.2682 122.482 23.2682C124.425 23.2682 125.199 23.2923 124.216 23.3044Z" fill="#037FFD" fill-opacity="0.8"/>
<path d="M135.435 23.3044C134.509 23.3286 132.948 23.3286 131.965 23.3044C130.982 23.2923 131.734 23.2682 133.642 23.2682C135.55 23.2682 136.36 23.2923 135.435 23.3044Z" fill="#037FFD" fill-opacity="0.8"/>
<path d="M102.821 53.7756C102.023 53.7998 100.693 53.7998 99.8716 53.7756C99.0505 53.7635 99.6982 53.7393 101.317 53.7393C102.936 53.7393 103.619 53.7635 102.821 53.7756Z" fill="#037FFD" fill-opacity="0.8"/>
<path d="M59.2753 18.8253C58.327 18.8495 56.7078 18.8495 55.6901 18.8253C54.6723 18.8132 55.4472 18.7891 57.4249 18.7891C59.4025 18.7891 60.2352 18.8132 59.2753 18.8253Z" fill="#037FFD" fill-opacity="0.3"/>
<path d="M176.951 25.234C176.35 25.2581 175.413 25.2581 174.87 25.234C174.326 25.2219 174.823 25.1977 175.968 25.1977C177.113 25.1977 177.553 25.2219 176.951 25.234Z" fill="#037FFD" fill-opacity="0.3"/>
<path d="M150.698 25.8386C150.224 25.8627 149.391 25.8627 148.848 25.8386C148.304 25.8265 148.698 25.8023 149.715 25.8023C150.733 25.8023 151.172 25.8265 150.698 25.8386Z" fill="#037FFD" fill-opacity="0.3"/>
<path d="M94.8492 45.1871C94.375 45.2103 93.5423 45.2103 92.9987 45.1871C92.4551 45.1755 92.8484 45.1523 93.8661 45.1523C94.8839 45.1523 95.3234 45.1755 94.8492 45.1871Z" fill="#047FE9" fill-opacity="0.5"/>
<path d="M125.955 19.4313C125.157 19.4544 123.838 19.4544 123.006 19.4313C122.173 19.4197 122.832 19.3965 124.451 19.3965C126.071 19.3965 126.753 19.4197 125.955 19.4313Z" fill="#037FE6" fill-opacity="0.8"/>
<path d="M132.316 19.4313C131.587 19.4544 130.408 19.4544 129.714 19.4313C129.02 19.4197 129.61 19.3965 131.044 19.3965C132.478 19.3965 133.045 19.4197 132.316 19.4313Z" fill="#037FE6" fill-opacity="0.8"/>
<path d="M148.502 45.1871C148.027 45.2103 147.195 45.2103 146.651 45.1871C146.107 45.1755 146.501 45.1523 147.518 45.1523C148.536 45.1523 148.976 45.1755 148.502 45.1871Z" fill="#047FDB" fill-opacity="0.5"/>
</svg>
