<svg width="239" height="64" viewBox="0 0 239 64" fill="none" xmlns="http://www.w3.org/2000/svg">
<path d="M220.948 40.7055C218.489 38.1999 222.555 34.8235 224.658 36.8447C226.164 38.2799 227.884 39.0115 229.998 38.5782C230.886 38.3981 231.639 38.0154 231.763 37.053C231.808 36.6293 231.7 36.2035 231.459 35.8525C231.218 35.5016 230.859 35.2486 230.447 35.1395C228.874 34.5767 227.227 34.2052 225.642 33.665C220.701 31.9766 218.896 29.0557 220.234 24.8797C221.049 22.3134 222.893 20.8951 225.428 20.3098C228.143 19.6851 230.774 20.1297 233.432 20.8388C237.25 21.9066 235.341 28.0021 231.864 25.9321C230.65 25.2061 229.183 25.2343 227.766 25.2793C226.642 25.3131 225.602 25.6001 225.389 26.7876C225.175 27.9751 226.367 28.2452 227.187 28.566C228.408 29.0199 229.657 29.3958 230.925 29.6916C245.415 33.2644 230.995 50.9362 220.948 40.7055Z" fill="#064B55"/>
<path d="M21.4797 35.5901C23.1998 40.9705 28.0844 42.4844 33.7448 39.2089C35.476 38.2071 36.3698 38.3309 37.7245 39.6929C39.0791 41.0549 38.68 41.7527 37.5221 42.8108C30.2148 49.4912 18.169 46.3283 15.2516 36.8339C14.8188 35.4325 14.2624 34.5827 12.9133 34.048C10.6368 33.1363 9.27651 31.0934 7.38223 28.5721C6.65712 36.5863 8.61323 42.777 14.0488 47.6452C22.1599 54.9616 34.7003 54.5451 42.4854 46.8123C50.2705 39.0795 50.6865 26.8161 43.4185 18.346C36.4485 10.2305 24.026 8.90232 15.3135 15.352C13.481 16.7083 11.2158 16.1005 10.1815 14.0013C9.50697 12.6449 10.8616 12.386 11.4237 11.9076C24.5882 0.809311 45.206 5.99829 51.895 22.038C53.852 26.8251 54.3556 32.0838 53.3428 37.1561C52.33 42.2284 49.8458 46.889 46.2009 50.5549C42.5172 54.1852 37.844 56.6446 32.7685 57.6239C27.693 58.6032 22.4417 58.0587 17.6743 56.059C12.9573 54.0619 8.93774 50.709 6.12418 46.4244C3.31063 42.1397 1.82946 37.1158 1.86802 31.9882C1.8449 30.0162 2.3042 28.0686 3.20582 26.3152C4.97644 23.0116 8.82683 22.5501 11.3001 25.3416C11.6092 25.6962 11.8622 26.0845 12.1657 26.4672C14.3523 29.1236 14.5715 29.1067 16.2185 26.1464C17.7102 23.468 20.0408 21.3555 22.8507 20.135C25.6606 18.9144 28.7936 18.6536 31.7662 19.3928C33.5523 19.8116 35.1488 20.8128 36.3047 22.2391C37.4605 23.6653 38.1102 25.4357 38.1516 27.272C38.2584 31.341 36.4653 33.671 32.2721 34.9992C28.7589 36.1023 25.1221 35.7027 21.4797 35.5901ZM24.234 31.0315C26.415 31.0315 28.3261 30.7669 30.1024 29.8102C31.2828 29.1742 32.0866 28.2963 31.7437 26.9118C31.5902 26.3162 31.246 25.7873 30.7638 25.4062C30.2816 25.025 29.688 24.8126 29.0737 24.8013C27.914 24.6546 26.736 24.799 25.6459 25.2214C24.5558 25.6439 23.5877 26.3311 22.8288 27.2213C22.0081 28.1443 20.9795 29.2193 21.4291 30.3955C21.8788 31.5718 23.4246 30.7501 24.234 31.0315Z" fill="#064B55"/>
<path d="M122.29 35.399C123.628 38.4532 126.092 39.5206 129.682 38.6013C130.865 38.3248 132.001 37.8773 133.055 37.2731C134.376 36.4683 135.005 36.7835 135.955 37.9541C137.456 39.8057 137.265 40.8188 135.151 41.9275C128.575 45.3662 117.94 44.0323 116.439 33.9414C116.413 33.6163 116.307 33.3027 116.132 33.0279C115.957 32.7532 115.716 32.5257 115.433 32.3656C113.685 31.3863 112.465 29.8555 111.144 27.9082C109.553 31.7915 108.097 35.3709 106.647 38.9447C105.731 41.1564 104.753 43.25 101.74 43.0587C98.8676 42.873 97.8559 40.8807 97.0408 38.5957C94.8936 32.555 92.7426 26.5369 90.5879 20.5412C90.7212 20.4454 90.8644 20.3643 91.0151 20.2992C96.7822 19.7364 96.7822 19.7364 98.4517 25.1505C99.4884 28.8681 100.802 32.5026 102.381 36.0237C103.915 31.4032 105.658 26.8333 106.917 22.1395C107.811 18.819 110.188 20.6819 111.88 20.226C113.572 19.7702 113.803 20.9633 113.999 22.2577C114.245 24.3352 115.274 26.24 116.877 27.5818C118.749 22.6742 122.386 20.3667 127.45 20.0347C132.234 19.7195 136.017 22.0101 136.703 25.8315C137.535 30.4352 135.061 33.9189 130.036 35.2302C127.501 35.8605 124.91 35.3822 122.29 35.399ZM126.113 31.4595C126.585 31.3976 126.956 31.3582 127.316 31.2963C129.215 30.9923 130.986 30.4633 131.559 28.3022C131.748 27.7171 131.716 27.0832 131.469 26.5202C131.223 25.9571 130.779 25.504 130.222 25.2462C128.254 24.2106 126.461 24.8241 124.803 26.0791C124.567 26.2353 124.355 26.4249 124.173 26.6419C123.28 27.8125 121.841 29.1576 122.414 30.4802C122.926 31.617 124.899 31.1274 126.09 31.4538L126.113 31.4595Z" fill="#064B55"/>
<path d="M155.475 32.1521C155.475 29.158 155.531 26.1583 155.447 23.1474C155.402 21.5153 155.896 21.1213 157.375 21.8304C159.033 22.6296 160.483 22.3144 162.062 21.2676C163.699 20.2642 165.608 19.796 167.523 19.9281C169.438 20.0603 171.264 20.7861 172.748 22.0049C173.962 23.0798 174.575 22.9054 175.722 22.0443C179.336 19.3373 183.276 19.6749 187.121 21.4196C190.724 23.0517 191.747 26.2653 191.753 29.9853C191.758 33.7054 191.753 37.3017 191.994 40.9205C192.152 43.3855 190.64 43.1717 189.15 43.0253C187.756 42.8678 185.553 44.0778 185.682 40.988C185.828 37.5325 185.778 34.06 185.682 30.5988C185.603 27.3233 184.558 26.2202 181.905 26.209C178.751 26.209 177.138 27.5878 177.026 30.7114C176.902 34.0881 176.902 37.4649 177.026 40.8136C177.082 42.502 176.677 43.3067 174.878 43.0647C174.132 42.9653 173.376 42.9653 172.63 43.0647C170.668 43.3349 170.308 42.3669 170.382 40.6335C170.5 37.4593 170.455 34.2739 170.382 31.0659C170.325 27.7792 168.999 26.2709 166.244 26.2146C162.922 26.1527 161.573 27.3965 161.439 30.9702C161.309 34.347 161.225 37.7238 161.439 41.0724C161.573 43.47 160.078 43.1267 158.757 42.9916C157.436 42.8565 155.323 44.0215 155.43 41.1062C155.536 38.1909 155.475 35.1462 155.475 32.1521Z" fill="#064B55"/>
<path d="M193.893 31.7021C193.938 25.0667 199.092 20.1873 206.062 20.1816C213.162 20.1816 218.299 25.1005 218.305 31.9328C218.305 38.6864 213.032 43.6784 205.972 43.6052C198.912 43.5321 193.848 38.5851 193.893 31.7021ZM199.98 31.1393C199.98 34.9719 203.123 38.4894 206.568 38.4894C208.072 38.4429 209.501 37.8246 210.565 36.7602C211.629 35.6958 212.248 34.2654 212.296 32.7601C212.352 28.995 209.176 25.3819 205.759 25.3256C202.437 25.2806 199.986 27.7456 199.98 31.1505V31.1393Z" fill="#064B55"/>
<path d="M75.2278 35.0104C77.4762 38.9837 80.9444 40.0305 85.5255 37.7287C87.7739 36.6031 88.8981 36.9745 90.0729 39.0175C90.6744 40.0699 90.59 40.5483 89.6851 41.2687C84.9128 45.0957 76.5544 44.4935 72.5297 39.9742C68.3477 35.2692 68.7075 27.3395 73.3054 22.9271C76.352 20.0118 83.0129 19.1564 86.7059 21.1937C89.2579 22.6063 90.3146 24.8294 90.3034 27.6828C90.3034 30.84 88.6171 32.9449 86.0145 34.3969C83.2602 35.9333 80.3036 35.9165 77.3245 35.2242C76.658 34.9634 75.9331 34.8894 75.2278 35.0104ZM79.7696 31.0426C81.9393 31.0426 83.8561 30.5755 84.8285 28.3525C84.963 28.1029 85.0461 27.8288 85.0727 27.5465C85.0993 27.2642 85.069 26.9794 84.9835 26.709C84.8981 26.4386 84.7592 26.1882 84.5752 25.9726C84.3911 25.757 84.1657 25.5807 83.9123 25.4541C81.9168 24.2891 79.9326 24.6887 78.1451 25.9493C76.8298 26.8723 75.4639 28.2849 76.0148 29.8158C76.4701 31.0595 78.3531 31.0539 79.7696 31.0426Z" fill="#064B55"/>
<path d="M152.819 26.7879C151.818 26.5796 150.857 26.3095 149.873 26.1857C146.737 25.7805 145.112 27.2719 145.157 30.401C145.202 33.9466 145.079 37.5035 145.275 41.0435C145.422 43.6605 143.69 43.0245 142.341 43.0189C140.992 43.0133 139.311 43.7055 139.379 41.066C139.536 35.1848 139.486 29.2979 139.379 23.4111C139.379 21.6327 139.795 20.9798 141.56 21.627C142.425 21.987 143.372 22.1023 144.297 21.9603C145.223 21.8184 146.092 21.4247 146.81 20.8222C147.435 20.4221 148.146 20.1753 148.884 20.1018C152.257 19.539 153.162 20.3664 153.06 23.7319C153.038 24.7337 153.302 25.7748 152.819 26.7879Z" fill="#064B55"/>
</svg>
