<svg width="164" height="64" viewBox="0 0 164 64" fill="none" xmlns="http://www.w3.org/2000/svg">
<path d="M150.673 55.7303H144.753C143.576 55.7303 142.888 55.1116 142.898 54.0838C142.909 53.056 143.597 52.4792 144.785 52.4792H155.268C155.769 52.4949 156.271 52.4739 156.769 52.4163C157.327 52.3313 157.835 52.0408 158.193 51.601C158.551 51.1613 158.734 50.6035 158.707 50.0356C158.662 49.4543 158.397 48.9126 157.966 48.5223C157.536 48.132 156.973 47.9229 156.394 47.9381C153.747 47.9381 151.089 47.9381 148.442 47.9381C147.068 47.9638 145.732 47.4765 144.694 46.5701C143.655 45.6638 142.986 44.4025 142.817 43.0294C142.647 41.6564 142.989 40.2687 143.775 39.134C144.562 37.9993 145.738 37.1979 147.077 36.8841C147.713 36.7632 148.358 36.7 149.005 36.6954H159.426C159.865 36.693 160.301 36.7602 160.718 36.8946C161.04 37.0082 161.316 37.2244 161.504 37.5103C161.692 37.7962 161.782 38.1361 161.761 38.4783C161.739 38.852 161.587 39.2061 161.331 39.4784C161.076 39.7507 160.734 39.9238 160.364 39.9675C159.925 40.0163 159.482 40.0339 159.041 40.02L148.255 40.1038C147.967 40.0897 147.68 40.1328 147.409 40.2307C147.138 40.3285 146.889 40.4792 146.676 40.674C146.463 40.8688 146.291 41.104 146.168 41.3661C146.046 41.6282 145.976 41.912 145.962 42.2014C145.938 42.4945 145.973 42.7895 146.067 43.0683C146.16 43.3471 146.308 43.6039 146.503 43.8228C146.699 44.0418 146.936 44.2184 147.201 44.3417C147.467 44.465 147.754 44.5325 148.046 44.5401C150.728 44.631 153.406 44.6555 156.081 44.6135C156.84 44.5768 157.599 44.6946 158.311 44.9598C159.024 45.225 159.676 45.6322 160.229 46.1571C160.781 46.6819 161.223 47.3136 161.527 48.0142C161.832 48.7149 161.993 49.4702 162 50.2349C161.982 51.6879 161.405 53.0773 160.391 54.1117C159.377 55.1461 158.004 55.745 156.56 55.7828C154.591 55.7828 152.621 55.7828 150.641 55.7828L150.673 55.7303Z" fill="#377EF7"/>
<path d="M59.8845 48.9784C60.5514 49.5238 61.0412 49.9328 61.531 50.3208C62.5106 51.0864 63.5006 51.8415 64.4697 52.6176C64.6742 52.7365 64.8514 52.8975 64.9898 53.09C65.1281 53.2826 65.2246 53.5023 65.2728 53.7349C65.321 53.9676 65.3199 54.2078 65.2695 54.44C65.2191 54.6721 65.1206 54.891 64.9803 55.0822C64.8381 55.273 64.6566 55.4306 64.4483 55.5443C64.24 55.658 64.0097 55.7251 63.7733 55.7411C63.5368 55.757 63.2997 55.7214 63.0782 55.6366C62.8567 55.5519 62.6559 55.42 62.4897 55.25C59.6865 53.0895 56.8936 50.8977 54.1529 48.7162C53.836 48.5191 53.5933 48.2214 53.4631 47.8701C53.3329 47.5188 53.3226 47.1339 53.4338 46.776C53.532 46.4302 53.7471 46.1298 54.0421 45.9268C54.3371 45.7238 54.6933 45.6309 55.0491 45.6643C56.6331 45.6643 58.2275 45.6014 59.8115 45.5385C60.4481 45.5098 61.0571 45.2684 61.5421 44.8525C62.0271 44.4365 62.3606 43.8697 62.4897 43.2417C62.6312 42.631 62.5593 41.9898 62.2859 41.4263C62.0126 40.8627 61.5546 40.4113 60.9891 40.1479C60.2719 39.8802 59.5135 39.7417 58.7486 39.7388C56.0704 39.7388 53.3921 39.7388 50.7139 39.7388C49.9532 39.7388 49.7656 40.0115 49.7656 40.7247C49.7656 45.1714 49.7656 49.6181 49.7656 54.0649C49.7656 55.208 49.182 55.9107 48.2233 55.9527C48.0023 55.9773 47.7786 55.9533 47.5677 55.8822C47.3569 55.8111 47.164 55.6947 47.0023 55.541C46.8407 55.3873 46.7142 55.2001 46.6318 54.9922C46.5493 54.7844 46.5127 54.561 46.5247 54.3376C46.5247 52.733 46.5247 51.1389 46.5247 49.5343C46.5247 45.8846 46.5247 42.2454 46.5247 38.5957C46.5247 37.1064 47.1083 36.4982 48.6089 36.4982H59.478C61.0354 36.4577 62.5503 37.0116 63.7185 38.0488C64.8868 39.0859 65.6219 40.5295 65.7763 42.0896C65.9306 43.6497 65.4928 45.2108 64.5507 46.4594C63.6086 47.708 62.232 48.5517 60.6973 48.8211C60.4889 48.8211 60.3326 48.8735 59.8845 48.9784Z" fill="#377EF7"/>
<path d="M135.617 50.0541C135.669 49.4563 135.731 49.0053 135.731 48.6592C135.731 45.5479 135.731 42.4331 135.731 39.3148C135.731 39.0212 135.731 38.7275 135.731 38.4338C135.731 37.1963 136.346 36.4936 137.326 36.4727C137.57 36.4753 137.811 36.5298 138.034 36.6326C138.256 36.7354 138.454 36.8841 138.615 37.0692C138.777 37.2542 138.897 37.4714 138.97 37.7065C139.042 37.9417 139.064 38.1895 139.035 38.4338C139.035 43.6252 139.035 48.8166 139.035 54.0079C139.079 54.383 139.001 54.7623 138.813 55.0893C138.625 55.4162 138.337 55.6733 137.993 55.8223C137.625 55.9561 137.225 55.9683 136.85 55.857C136.475 55.7457 136.145 55.5167 135.908 55.2035C132.126 51.2077 128.322 47.2329 124.539 43.2477C124.322 42.967 124.133 42.6648 123.976 42.3457L123.591 42.5869C123.591 42.9121 123.518 43.2372 123.518 43.5728V54.2491C123.564 54.6461 123.464 55.0463 123.236 55.3734C123.007 55.7005 122.667 55.9315 122.281 56.0223C121.894 56.1132 121.487 56.0574 121.139 55.8657C120.79 55.6741 120.524 55.3599 120.391 54.9832C120.283 54.71 120.234 54.4171 120.246 54.1233C120.246 48.8795 120.246 43.6357 120.246 38.3919C120.204 38.0212 120.283 37.6468 120.471 37.3252C120.659 37.0036 120.945 36.7522 121.288 36.609C121.634 36.4734 122.016 36.4575 122.372 36.5638C122.729 36.6701 123.04 36.8926 123.257 37.1963C127.092 41.2235 130.913 45.2438 134.72 49.257C135.002 49.4773 135.231 49.687 135.617 50.0541Z" fill="#377EF7"/>
<path d="M112.2 21.0609V20.0121C112.2 16.5198 112.2 13.0169 112.2 9.52454C112.166 9.15045 112.26 8.77592 112.467 8.46307C112.673 8.15022 112.98 7.91787 113.336 7.80459C113.64 7.67785 113.979 7.66079 114.294 7.75636C114.609 7.85192 114.882 8.05422 115.066 8.32897C115.303 8.69391 115.429 9.1201 115.431 9.556C115.431 14.7998 115.431 20.1065 115.431 25.3818C115.471 25.7401 115.39 26.1016 115.201 26.408C115.012 26.7143 114.726 26.9476 114.389 27.0703C114.057 27.2005 113.693 27.2219 113.349 27.1315C113.004 27.0411 112.697 26.8435 112.471 26.5669C109.928 23.8821 107.379 21.2112 104.822 18.5544L100.779 14.3593C100.601 14.181 100.403 14.0132 100.06 13.7091C100.06 14.1915 100.06 14.4957 100.06 14.7579C100.06 18.2293 100.06 21.6902 100.06 25.1615C100.06 26.5354 99.3405 27.2591 98.1734 27.1647C97.846 27.1578 97.5319 27.0336 97.2874 26.8144C97.0429 26.5953 96.8841 26.2955 96.8395 25.9691C96.7751 25.5881 96.7472 25.2018 96.7561 24.8155V10.1328C96.7461 9.78208 96.767 9.43111 96.8186 9.08408C96.8568 8.82242 96.9607 8.57491 97.1205 8.36501C97.2803 8.15511 97.4908 7.98979 97.7319 7.88473C97.9731 7.77967 98.2369 7.73836 98.4984 7.76471C98.7598 7.79106 99.0103 7.88422 99.2259 8.03532C99.5596 8.27846 99.8639 8.56003 100.133 8.87431C103.856 12.7687 107.573 16.6561 111.283 20.5365C111.502 20.7672 111.742 20.977 111.971 21.1972L112.2 21.0609Z" fill="#377EF7"/>
<path d="M55.6672 14.9942C55.9694 14.7425 56.2403 14.5223 56.4904 14.2811C58.4913 12.3199 60.4921 10.3377 62.5034 8.37653C63.2745 7.62143 64.0353 7.47462 64.7022 8.07242C65.083 8.41749 65.3242 8.89165 65.3796 9.40433C65.3796 14.774 65.3796 20.1436 65.3796 25.5133C65.3955 25.7275 65.367 25.9427 65.296 26.1452C65.2249 26.3478 65.1129 26.5333 64.967 26.6901C64.821 26.8468 64.6443 26.9714 64.4481 27.0558C64.2518 27.1403 64.0403 27.1829 63.8269 27.1808C63.6047 27.1929 63.3826 27.1578 63.1748 27.0778C62.9671 26.9977 62.7784 26.8745 62.6211 26.7162C62.4638 26.5579 62.3414 26.3681 62.2619 26.159C62.1824 25.9499 62.1475 25.7263 62.1595 25.5028C62.1595 23.1326 62.1595 20.7519 62.1595 18.3817V13.2533C61.7531 13.5889 61.503 13.7567 61.2946 13.9664C59.9051 15.3158 58.5469 16.6757 57.2199 18.0461C56.1153 19.1578 55.292 19.1683 54.1978 18.0461L50.1128 13.9664C49.8939 13.7567 49.6542 13.5469 49.2478 13.1904C49.2478 13.7357 49.154 14.0713 49.154 14.4069C49.154 18.0566 49.154 21.6958 49.154 25.3455C49.154 26.5516 48.5183 27.1913 47.4554 27.1284C47.1114 27.1361 46.7768 27.0147 46.5168 26.7879C46.2568 26.5611 46.0899 26.2451 46.0486 25.9013C45.9928 25.523 45.9684 25.1406 45.9756 24.7582V9.63506C45.9357 9.26188 46.0153 8.88564 46.2028 8.56117C46.3902 8.2367 46.6757 7.98096 47.0177 7.83119C47.346 7.69516 47.7097 7.67179 48.0526 7.76468C48.3954 7.85757 48.6983 8.06154 48.9143 8.34507L54.8648 14.1867L55.6672 14.9942Z" fill="#377EF7"/>
<path d="M23.6623 46.2349C23.673 44.2483 24.2705 42.3098 25.3788 40.6658C26.4871 39.0218 28.0562 37.7467 29.8865 37.0026C31.7168 36.2585 33.7257 36.0789 35.6577 36.4868C37.5897 36.8947 39.3574 37.8716 40.7363 39.2933C42.1151 40.715 43.0427 42.5173 43.401 44.4709C43.7594 46.4245 43.5323 48.4413 42.7488 50.2647C41.9652 52.0881 40.6605 53.6358 39.0006 54.711C37.3407 55.7863 35.4005 56.3404 33.4268 56.303C30.8101 56.2561 28.3173 55.1727 26.4892 53.2878C24.6612 51.403 23.6454 48.8687 23.6623 46.2349ZM33.5831 53.0308C34.9129 53.0225 36.2104 52.6174 37.3114 51.8667C38.4123 51.116 39.2673 50.0536 39.768 48.8138C40.2688 47.574 40.3929 46.2125 40.1246 44.9017C39.8563 43.5909 39.2077 42.3897 38.2608 41.45C37.314 40.5103 36.1114 39.8744 34.8053 39.6227C33.4992 39.371 32.1482 39.5149 30.9234 40.0361C29.6986 40.5574 28.6549 41.4325 27.9245 42.5509C27.194 43.6692 26.8096 44.9805 26.8199 46.3188C26.8198 47.2082 26.9954 48.0888 27.3364 48.9094C27.6774 49.7299 28.1771 50.4741 28.8064 51.0986C29.4357 51.7231 30.182 52.2156 31.002 52.5473C31.8221 52.879 32.6994 53.0434 33.5831 53.0308Z" fill="#377EF7"/>
<path d="M116.284 46.3547C116.265 48.3407 115.659 50.2762 114.545 51.9151C113.43 53.5541 111.856 54.8225 110.023 55.5591C108.191 56.2958 106.182 56.4674 104.252 56.0522C102.322 55.6369 100.558 54.6536 99.1847 53.2271C97.8114 51.8007 96.8906 49.9956 96.5392 48.0412C96.1878 46.0868 96.4217 44.0713 97.2112 42.2511C98.0007 40.4308 99.3102 38.8878 100.973 37.8183C102.636 36.7488 104.578 36.201 106.551 36.2446C109.166 36.3105 111.651 37.4067 113.471 39.2974C115.291 41.188 116.301 43.7222 116.284 46.3547ZM106.394 39.5062C105.517 39.4882 104.644 39.6451 103.828 39.968C103.011 40.291 102.265 40.7735 101.635 41.3877C101.004 42.0019 100.5 42.7357 100.153 43.5468C99.8055 44.3579 99.621 45.2302 99.6102 46.1134C99.5979 47.0086 99.7609 47.8975 100.09 48.7293C100.419 49.5612 100.908 50.3196 101.528 50.9614C102.148 51.6032 102.888 52.1157 103.705 52.4697C104.522 52.8237 105.401 53.0124 106.29 53.0247C107.18 53.0371 108.063 52.8731 108.889 52.542C109.716 52.2108 110.47 51.7191 111.107 51.0948C111.745 50.4706 112.254 49.7261 112.606 48.9037C112.958 48.0814 113.145 47.1974 113.158 46.3022C113.175 45.4041 113.011 44.5119 112.677 43.6789C112.343 42.846 111.846 42.0895 111.214 41.4548C110.582 40.8202 109.83 40.3204 109.002 39.9856C108.173 39.6508 107.287 39.4877 106.394 39.5062Z" fill="#377EF7"/>
<path d="M82.7317 52.4966H89.4532C90.6308 52.4966 91.8084 52.4966 92.986 52.4966C93.2154 52.4824 93.4454 52.5142 93.6626 52.59C93.8798 52.6657 94.08 52.7841 94.2515 52.9381C94.423 53.0922 94.5624 53.279 94.6618 53.4876C94.7612 53.6962 94.8185 53.9226 94.8305 54.1536C94.8193 54.3838 94.7611 54.6091 94.6595 54.8157C94.558 55.0222 94.4152 55.2054 94.2402 55.354C94.0652 55.5026 93.8617 55.6133 93.6423 55.6792C93.4229 55.7451 93.1924 55.7649 92.9651 55.7373C88.432 55.7373 83.8988 55.7373 79.3552 55.7373C78.9907 55.7996 78.6159 55.7414 78.2871 55.5712C77.9583 55.401 77.6932 55.1281 77.5316 54.7934C77.3959 54.4446 77.3701 54.0623 77.4577 53.6984C77.5453 53.3344 77.7421 53.0063 78.0213 52.7588C81.4707 48.9937 84.8992 45.1973 88.3278 41.4112C88.6612 41.0547 88.9634 40.6666 89.422 40.1317C88.8905 40.1317 88.5779 40.0688 88.2756 40.0688H79.9388C78.6362 40.0688 77.9588 39.5234 77.9484 38.4747C77.938 37.4259 78.6153 36.8281 79.9805 36.8281C84.1489 36.8281 88.4007 36.8281 92.6212 36.8281C93.507 36.8281 94.2573 36.975 94.6533 37.8769C95.0493 38.7788 94.4866 39.3871 93.9447 39.9744L83.6383 51.3325C83.3674 51.6471 83.1589 51.9722 82.7317 52.4966Z" fill="#377EF7"/>
<path d="M5.24623 19.2012C5.24623 21.1204 5.24623 22.9872 5.24623 24.8435C5.2574 25.2251 5.21531 25.6064 5.12117 25.9762C5.08144 26.1741 5.00318 26.3622 4.89091 26.5296C4.77863 26.697 4.63456 26.8405 4.46699 26.9516C4.29942 27.0627 4.11166 27.1394 3.91452 27.1772C3.71739 27.2149 3.51477 27.2131 3.31833 27.1718C2.93306 27.1243 2.58104 26.9285 2.33621 26.6254C2.09137 26.3223 1.97276 25.9355 2.00528 25.5462C2.00528 22.6097 2.00528 19.6731 2.00528 16.7366C2.00528 14.3664 2.00528 11.9962 2.00528 9.62603C2.00528 8.48289 2.62013 7.75926 3.5476 7.73828C3.784 7.74475 4.01665 7.79935 4.23151 7.89879C4.44637 7.99823 4.63899 8.14046 4.79773 8.31688C4.95647 8.4933 5.07805 8.70027 5.15513 8.92527C5.23222 9.15028 5.2632 9.38865 5.24623 9.62603C5.24623 11.4299 5.24623 13.2443 5.24623 15.0481C5.24623 15.6564 5.42338 15.8976 6.04865 15.8976C9.36948 15.8976 12.6973 15.8976 16.032 15.8976C16.6364 15.8976 16.8761 15.6564 16.8657 15.0481C16.8657 13.2443 16.8657 11.4299 16.8657 9.62603C16.8657 8.48289 17.4701 7.76974 18.408 7.73828C18.6444 7.74475 18.8771 7.79935 19.0919 7.89879C19.3068 7.99823 19.4994 8.14046 19.6581 8.31688C19.8169 8.4933 19.9385 8.70027 20.0155 8.92527C20.0926 9.15028 20.1236 9.38865 20.1066 9.62603C20.1066 10.6748 20.1066 11.7236 20.1066 12.8248V24.917C20.1126 25.2706 20.0706 25.6235 19.9816 25.9657C19.9277 26.3829 19.7113 26.7615 19.3801 27.0182C19.0488 27.2749 18.6298 27.3886 18.2152 27.3343C17.8006 27.2801 17.4245 27.0624 17.1694 26.729C16.9144 26.3956 16.8014 25.9739 16.8553 25.5567C16.8553 23.8053 16.8553 22.0538 16.8553 20.3129C16.8553 19.4634 16.6781 19.1278 15.7402 19.1383C12.6139 19.2012 9.48759 19.1383 6.28833 19.1383C5.9757 19.1593 5.64222 19.1802 5.24623 19.2012Z" fill="#377EF7"/>
<path d="M17.3378 47.8991H8.10477C5.76003 47.8991 5.76003 47.8991 5.76003 50.2903C5.76003 51.5383 5.76003 52.7863 5.76003 54.0238C5.76003 55.2614 5.20772 55.9116 4.16561 55.9116C3.12351 55.9116 2.59204 55.2719 2.59204 53.9819C2.59204 49.3673 2.59204 44.7423 2.59204 40.1173C2.59204 39.4356 2.59204 38.7539 2.59204 38.0722C2.5919 37.6538 2.75414 37.2519 3.04419 36.9522C3.33425 36.6524 3.72917 36.4785 4.14477 36.4676C4.35949 36.4659 4.57231 36.5084 4.7701 36.5925C4.96789 36.6766 5.14647 36.8006 5.29486 36.9569C5.44324 37.1131 5.55828 37.2982 5.6329 37.5008C5.70753 37.7035 5.74015 37.9193 5.72877 38.1351C5.72877 39.9704 5.72877 41.8058 5.72877 43.6411C5.72877 44.3647 5.96846 44.6374 6.70835 44.6269C9.94582 44.6269 13.1868 44.6269 16.4312 44.6269C17.1607 44.6269 17.4733 44.3752 17.4108 43.6516C17.4108 41.8163 17.4108 39.9704 17.4108 38.1351C17.3933 37.851 17.4528 37.5674 17.5829 37.3146C17.7129 37.0618 17.9087 36.8492 18.1494 36.6996C18.39 36.55 18.6665 36.4689 18.9494 36.465C19.2322 36.4611 19.5108 36.5345 19.7555 36.6774C20.0356 36.843 20.2623 37.0864 20.4083 37.3785C20.5543 37.6706 20.6135 37.9988 20.5788 38.3239C20.5788 40.9668 20.5788 43.5677 20.5788 46.242C20.5788 48.9164 20.5788 51.4858 20.5788 54.1602C20.6272 54.5619 20.52 54.967 20.2793 55.2913C20.0387 55.6155 19.6831 55.8339 19.2865 55.9011C19.0541 55.9538 18.8127 55.9513 18.5815 55.8936C18.3503 55.836 18.1356 55.7248 17.9545 55.569C17.7734 55.4133 17.6309 55.2171 17.5383 54.9962C17.4457 54.7753 17.4056 54.5357 17.4212 54.2965C17.3691 52.6604 17.4212 51.0349 17.4212 49.3988C17.4108 48.9374 17.3691 48.4759 17.3378 47.8991Z" fill="#377EF7"/>
<path d="M38.9877 13.989C38.9877 12.5103 38.9877 11.021 38.9877 9.54228C38.9648 9.32066 38.9871 9.09664 39.0532 8.88399C39.1194 8.67135 39.228 8.47455 39.3724 8.30565C39.5168 8.13675 39.694 7.99931 39.893 7.90177C40.0921 7.80423 40.3089 7.74864 40.5301 7.73842C40.7521 7.73557 40.9723 7.77764 41.1779 7.86215C41.3834 7.94666 41.5699 8.07186 41.7264 8.23034C41.8829 8.38882 42.0062 8.57732 42.0889 8.78468C42.1716 8.99203 42.212 9.21401 42.2078 9.4374C42.2078 12.9088 42.2808 16.3907 42.0203 19.8306C41.6972 23.9417 37.6955 27.3502 33.5896 27.5705C31.4098 27.6989 29.2556 27.0439 27.5111 25.7224C25.7666 24.4008 24.5452 22.4986 24.0648 20.355C23.9098 19.6664 23.826 18.9634 23.8147 18.2575C23.8147 15.4048 23.8147 12.5627 23.8147 9.71009C23.7583 9.339 23.8313 8.9597 24.0213 8.63662C24.2112 8.31354 24.5065 8.06658 24.8568 7.93768C25.1274 7.8694 25.4089 7.85649 25.6846 7.89973C25.9603 7.94296 26.2245 8.04146 26.4616 8.18938C26.8365 8.58082 27.0458 9.10349 27.0452 9.64717C27.1077 12.6152 27.0452 15.5831 27.139 18.5511C27.1328 19.75 27.5049 20.9199 28.2015 21.8923C28.8982 22.8648 29.8835 23.5898 31.0156 23.9627C32.1127 24.3752 33.3074 24.4478 34.4459 24.1712C35.5843 23.8946 36.6145 23.2814 37.4037 22.4105C38.3806 21.3592 38.934 19.9798 38.9565 18.5406C38.9565 17.0304 38.9565 15.5097 38.9565 13.9995L38.9877 13.989Z" fill="#377EF7"/>
<path d="M82.6929 11.3671C82.2343 13.2024 83.1618 14.398 84.4123 15.5621C87.2885 18.3204 90.0709 21.1835 92.8429 24.0466C93.0577 24.2532 93.2298 24.5003 93.3496 24.7738C93.4694 25.0473 93.5345 25.3419 93.5412 25.6407C93.5136 25.936 93.4052 26.2178 93.2281 26.4548C93.051 26.6918 92.8121 26.8748 92.5379 26.9835C92.2636 27.0921 91.9649 27.1222 91.6747 27.0703C91.3846 27.0184 91.1144 26.8866 90.8942 26.6895C90.1691 26.084 89.4898 25.425 88.8621 24.7178C86.4861 22.3267 84.0997 19.9565 81.755 17.5338C81.2131 16.9885 80.9109 16.9465 80.3481 17.5338C77.5032 20.4494 74.6165 23.323 71.7403 26.2175C71.5212 26.4562 71.2805 26.6739 71.0213 26.8678C70.7118 27.1022 70.3264 27.2117 69.9408 27.1748C69.5552 27.138 69.1972 26.9574 68.9371 26.6685C68.6736 26.3908 68.5148 26.0293 68.4881 25.6462C68.4615 25.2632 68.5687 24.8829 68.7912 24.571C68.9699 24.3372 69.1687 24.1196 69.3852 23.9208C72.449 20.8374 75.4919 17.7331 78.587 14.6812C78.8806 14.4216 79.1105 14.0972 79.2587 13.7333C79.407 13.3694 79.4695 12.9759 79.4415 12.5837C79.4415 11.5349 79.4415 10.4862 79.4415 9.4374C79.4317 9.22302 79.4642 9.00881 79.5371 8.80714C79.61 8.60547 79.7218 8.42032 79.8662 8.26238C80.0105 8.10443 80.1845 7.97682 80.3781 7.88689C80.5718 7.79695 80.7811 7.74649 80.9942 7.73841C81.2154 7.73564 81.435 7.77691 81.6403 7.85987C81.8456 7.94283 82.0325 8.06584 82.1904 8.22179C82.3483 8.37775 82.4739 8.56358 82.5602 8.76861C82.6464 8.97363 82.6915 9.1938 82.6929 9.41643C82.7554 10.0562 82.6929 10.7169 82.6929 11.3671Z" fill="#377EF7"/>
<path d="M70.2119 46.2235C70.2119 43.6225 70.2119 40.9796 70.2119 38.4102C70.2119 37.2251 70.8372 36.4805 71.8063 36.4805C72.7755 36.4805 73.432 37.2356 73.432 38.3997C73.432 43.6085 73.432 48.8174 73.432 54.0262C73.432 55.2218 72.8276 55.9245 71.8167 55.9245C70.8059 55.9245 70.2119 55.2428 70.2119 54.0367C70.2015 51.4358 70.2119 48.8244 70.2119 46.2235Z" fill="#377EF7"/>
</svg>
