<svg width="160" height="64" viewBox="0 0 160 64" fill="none" xmlns="http://www.w3.org/2000/svg">
<g clip-path="url(#clip0_3356_19488)">
<path d="M148.673 55.7328H142.753C141.576 55.7328 140.888 55.114 140.898 54.0863C140.909 53.0585 141.597 52.4817 142.785 52.4817H153.268C153.769 52.4974 154.271 52.4763 154.769 52.4187C155.327 52.3337 155.835 52.0432 156.193 51.6035C156.551 51.1637 156.734 50.6059 156.707 50.038C156.662 49.4567 156.397 48.915 155.966 48.5247C155.536 48.1344 154.973 47.9253 154.394 47.9405C151.747 47.9405 149.089 47.9405 146.442 47.9405C145.068 47.9662 143.732 47.4789 142.694 46.5726C141.655 45.6662 140.986 44.4049 140.817 43.0318C140.647 41.6588 140.989 40.2712 141.775 39.1365C142.562 38.0018 143.738 37.2003 145.077 36.8866C145.713 36.7657 146.358 36.7025 147.005 36.6978H157.426C157.865 36.6954 158.301 36.7627 158.718 36.8971C159.04 37.0107 159.316 37.2269 159.504 37.5127C159.692 37.7986 159.782 38.1385 159.761 38.4807C159.739 38.8545 159.587 39.2085 159.331 39.4808C159.076 39.7531 158.734 39.9263 158.364 39.9699C157.925 40.0188 157.482 40.0363 157.041 40.0224L146.255 40.1063C145.967 40.0922 145.68 40.1353 145.409 40.2331C145.138 40.331 144.889 40.4816 144.676 40.6764C144.463 40.8713 144.291 41.1065 144.168 41.3686C144.046 41.6306 143.976 41.9145 143.962 42.2038C143.938 42.4969 143.973 42.7919 144.067 43.0707C144.16 43.3496 144.308 43.6063 144.503 43.8253C144.699 44.0442 144.936 44.2208 145.201 44.3441C145.467 44.4675 145.754 44.535 146.046 44.5425C148.728 44.6334 151.406 44.6579 154.081 44.616C154.84 44.5792 155.599 44.697 156.311 44.9622C157.024 45.2275 157.676 45.6347 158.229 46.1595C158.781 46.6843 159.223 47.316 159.527 48.0167C159.832 48.7174 159.993 49.4726 160 50.2373C159.982 51.6903 159.405 53.0798 158.391 54.1141C157.377 55.1485 156.004 55.7474 154.56 55.7852C152.591 55.7852 150.621 55.7852 148.641 55.7852L148.673 55.7328Z" fill="#377EF7"/>
<path d="M57.8845 48.9799C58.5514 49.5252 59.0412 49.9343 59.531 50.3223C60.5106 51.0879 61.5006 51.843 62.4697 52.6191C62.6742 52.7379 62.8514 52.8989 62.9898 53.0915C63.1281 53.284 63.2246 53.5038 63.2728 53.7364C63.321 53.969 63.3199 54.2093 63.2695 54.4415C63.2191 54.6736 63.1206 54.8924 62.9803 55.0836C62.8381 55.2744 62.6566 55.4321 62.4483 55.5458C62.24 55.6595 62.0097 55.7266 61.7733 55.7425C61.5368 55.7585 61.2997 55.7228 61.0782 55.6381C60.8567 55.5533 60.6559 55.4214 60.4897 55.2514C57.6865 53.091 54.8936 50.8991 52.1529 48.7177C51.836 48.5205 51.5933 48.2228 51.4631 47.8715C51.3329 47.5202 51.3226 47.1353 51.4338 46.7775C51.532 46.4317 51.7471 46.1313 52.0421 45.9283C52.3371 45.7252 52.6933 45.6324 53.0491 45.6658C54.6331 45.6658 56.2275 45.6029 57.8115 45.5399C58.4481 45.5113 59.0571 45.2699 59.5421 44.8539C60.0271 44.438 60.3606 43.8712 60.4897 43.2432C60.6312 42.6325 60.5593 41.9913 60.2859 41.4278C60.0126 40.8642 59.5546 40.4127 58.9891 40.1493C58.2719 39.8816 57.5135 39.7432 56.7486 39.7403C54.0704 39.7403 51.3921 39.7403 48.7139 39.7403C47.9532 39.7403 47.7656 40.013 47.7656 40.7261C47.7656 45.1729 47.7656 49.6196 47.7656 54.0663C47.7656 55.2095 47.182 55.9122 46.2233 55.9541C46.0023 55.9788 45.7786 55.9548 45.5677 55.8837C45.3569 55.8126 45.164 55.6962 45.0023 55.5425C44.8407 55.3888 44.7142 55.2015 44.6318 54.9937C44.5493 54.7859 44.5127 54.5625 44.5247 54.339C44.5247 52.7344 44.5247 51.1403 44.5247 49.5357C44.5247 45.886 44.5247 42.2468 44.5247 38.5972C44.5247 37.1079 45.1083 36.4996 46.6089 36.4996H57.478C59.0354 36.4591 60.5503 37.0131 61.7185 38.0502C62.8868 39.0874 63.6219 40.5309 63.7763 42.091C63.9306 43.6511 63.4928 45.2122 62.5507 46.4609C61.6086 47.7095 60.232 48.5532 58.6973 48.8225C58.4889 48.8225 58.3326 48.875 57.8845 48.9799Z" fill="#377EF7"/>
<path d="M133.617 50.0546C133.669 49.4568 133.731 49.0058 133.731 48.6597C133.731 45.5484 133.731 42.4336 133.731 39.3153C133.731 39.0217 133.731 38.728 133.731 38.4343C133.731 37.1968 134.346 36.4941 135.326 36.4731C135.57 36.4758 135.811 36.5303 136.034 36.6331C136.256 36.7359 136.454 36.8846 136.615 37.0697C136.777 37.2547 136.897 37.4719 136.97 37.707C137.042 37.9422 137.064 38.19 137.035 38.4343C137.035 43.6257 137.035 48.817 137.035 54.0084C137.079 54.3835 137.001 54.7628 136.813 55.0897C136.625 55.4167 136.337 55.6738 135.993 55.8228C135.625 55.9566 135.225 55.9688 134.85 55.8575C134.475 55.7461 134.145 55.5172 133.908 55.204C130.126 51.2082 126.322 47.2334 122.539 43.2482C122.322 42.9675 122.133 42.6653 121.976 42.3462L121.591 42.5874C121.591 42.9125 121.518 43.2377 121.518 43.5733V54.2496C121.564 54.6466 121.464 55.0468 121.236 55.3739C121.007 55.701 120.667 55.932 120.281 56.0228C119.894 56.1136 119.487 56.0579 119.139 55.8662C118.79 55.6745 118.524 55.3604 118.391 54.9837C118.283 54.7105 118.234 54.4176 118.246 54.1238C118.246 48.88 118.246 43.6362 118.246 38.3924C118.204 38.0217 118.283 37.6473 118.471 37.3257C118.659 37.0041 118.945 36.7527 119.288 36.6095C119.634 36.4739 120.016 36.458 120.372 36.5643C120.729 36.6706 121.04 36.8931 121.257 37.1968C125.092 41.224 128.913 45.2443 132.72 49.2575C133.002 49.4778 133.231 49.6875 133.617 50.0546Z" fill="#377EF7"/>
<path d="M110.2 21.0619V20.0131C110.2 16.5207 110.2 13.0179 110.2 9.52551C110.166 9.15143 110.26 8.7769 110.467 8.46405C110.673 8.1512 110.98 7.91885 111.336 7.80557C111.64 7.67882 111.979 7.66177 112.294 7.75733C112.609 7.8529 112.882 8.0552 113.066 8.32995C113.303 8.69488 113.429 9.12108 113.431 9.55698C113.431 14.8008 113.431 20.1075 113.431 25.3828C113.471 25.7411 113.39 26.1026 113.201 26.4089C113.012 26.7153 112.726 26.9486 112.389 27.0713C112.057 27.2015 111.693 27.2229 111.349 27.1325C111.004 27.0421 110.697 26.8445 110.471 26.5679C107.928 23.883 105.379 21.2122 102.822 18.5553L98.7786 14.3603C98.6015 14.182 98.4035 14.0142 98.0596 13.7101C98.0596 14.1925 98.0596 14.4967 98.0596 14.7588C98.0596 18.2302 98.0596 21.6911 98.0596 25.1625C98.0596 26.5364 97.3405 27.26 96.1734 27.1657C95.846 27.1587 95.5319 27.0345 95.2874 26.8154C95.0429 26.5962 94.8841 26.2965 94.8395 25.9701C94.7751 25.5891 94.7472 25.2028 94.7561 24.8164V10.1338C94.7461 9.78305 94.767 9.43209 94.8186 9.08505C94.8568 8.8234 94.9607 8.57588 95.1205 8.36598C95.2803 8.15609 95.4908 7.99077 95.7319 7.88571C95.9731 7.78065 96.2369 7.73933 96.4984 7.76569C96.7598 7.79204 97.0103 7.88519 97.2259 8.03629C97.5596 8.27944 97.8639 8.561 98.1325 8.87529C101.856 12.7697 105.573 16.6571 109.283 20.5375C109.502 20.7682 109.742 20.978 109.971 21.1982L110.2 21.0619Z" fill="#377EF7"/>
<path d="M53.6672 14.9942C53.9694 14.7425 54.2403 14.5223 54.4904 14.2811C56.4913 12.3199 58.4921 10.3377 60.5034 8.37653C61.2745 7.62143 62.0353 7.47462 62.7022 8.07242C63.083 8.41749 63.3242 8.89165 63.3796 9.40433C63.3796 14.774 63.3796 20.1436 63.3796 25.5133C63.3955 25.7275 63.367 25.9427 63.296 26.1452C63.2249 26.3478 63.1129 26.5333 62.967 26.6901C62.821 26.8468 62.6443 26.9714 62.4481 27.0558C62.2518 27.1403 62.0403 27.1829 61.8269 27.1808C61.6047 27.1929 61.3826 27.1578 61.1748 27.0778C60.9671 26.9977 60.7784 26.8745 60.6211 26.7162C60.4638 26.5579 60.3414 26.3681 60.2619 26.159C60.1824 25.9499 60.1475 25.7263 60.1595 25.5028C60.1595 23.1326 60.1595 20.7519 60.1595 18.3817V13.2533C59.7531 13.5889 59.503 13.7567 59.2946 13.9664C57.9051 15.3158 56.5469 16.6757 55.2199 18.0461C54.1153 19.1578 53.292 19.1683 52.1978 18.0461L48.1128 13.9664C47.8939 13.7567 47.6542 13.5469 47.2478 13.1904C47.2478 13.7357 47.154 14.0713 47.154 14.4069C47.154 18.0566 47.154 21.6958 47.154 25.3455C47.154 26.5516 46.5183 27.1913 45.4554 27.1284C45.1114 27.1361 44.7768 27.0147 44.5168 26.7879C44.2568 26.5611 44.0899 26.2451 44.0486 25.9013C43.9928 25.523 43.9684 25.1406 43.9756 24.7582V9.63506C43.9357 9.26188 44.0153 8.88564 44.2028 8.56117C44.3902 8.2367 44.6757 7.98096 45.0177 7.83119C45.346 7.69516 45.7097 7.67179 46.0526 7.76468C46.3954 7.85757 46.6983 8.06154 46.9143 8.34507L52.8648 14.1867L53.6672 14.9942Z" fill="#377EF7"/>
<path d="M21.6623 46.2344C21.673 44.2478 22.2705 42.3093 23.3788 40.6653C24.4871 39.0214 26.0562 37.7462 27.8865 37.0021C29.7168 36.258 31.7257 36.0784 33.6577 36.4863C35.5897 36.8942 37.3574 37.8712 38.7363 39.2928C40.1151 40.7145 41.0427 42.5168 41.401 44.4704C41.7594 46.424 41.5323 48.4408 40.7488 50.2642C39.9652 52.0876 38.6605 53.6353 37.0006 54.7106C35.3407 55.7858 33.4005 56.3399 31.4268 56.3025C28.8101 56.2556 26.3173 55.1722 24.4892 53.2873C22.6612 51.4025 21.6454 48.8682 21.6623 46.2344ZM31.5831 53.0304C32.9129 53.022 34.2104 52.6169 35.3114 51.8662C36.4123 51.1156 37.2673 50.0531 37.768 48.8133C38.2688 47.5735 38.3929 46.2121 38.1246 44.9013C37.8563 43.5905 37.2077 42.3892 36.2608 41.4495C35.314 40.5098 34.1114 39.8739 32.8053 39.6222C31.4992 39.3705 30.1482 39.5144 28.9234 40.0356C27.6986 40.5569 26.6549 41.432 25.9245 42.5504C25.194 43.6687 24.8096 44.98 24.8199 46.3183C24.8198 47.2077 24.9954 48.0883 25.3364 48.9089C25.6774 49.7294 26.1771 50.4736 26.8064 51.0981C27.4357 51.7226 28.182 52.2151 29.002 52.5468C29.8221 52.8785 30.6994 53.0429 31.5831 53.0304Z" fill="#377EF7"/>
<path d="M114.284 46.3571C114.265 48.3431 113.659 50.2786 112.545 51.9176C111.43 53.5565 109.856 54.8249 108.023 55.5616C106.191 56.2982 104.182 56.4698 102.252 56.0546C100.322 55.6394 98.558 54.656 97.1847 53.2296C95.8114 51.8032 94.8906 49.998 94.5392 48.0436C94.1878 46.0892 94.4217 44.0738 95.2112 42.2535C96.0007 40.4332 97.3102 38.8903 98.9732 37.8208C100.636 36.7512 102.578 36.2035 104.551 36.247C107.166 36.3129 109.651 37.4091 111.471 39.2998C113.291 41.1905 114.301 43.7246 114.284 46.3571ZM104.394 39.5087C103.517 39.4906 102.644 39.6476 101.828 39.9705C101.011 40.2934 100.265 40.7759 99.6347 41.3901C99.004 42.0044 98.5004 42.7382 98.153 43.5493C97.8055 44.3604 97.621 45.2327 97.6102 46.1159C97.5979 47.0111 97.7609 47.9 98.0899 48.7318C98.419 49.5636 98.9076 50.322 99.5279 50.9638C100.148 51.6056 100.888 52.1181 101.705 52.4721C102.522 52.8262 103.401 53.0148 104.29 53.0272C105.18 53.0396 106.063 52.8755 106.889 52.5444C107.716 52.2133 108.47 51.7215 109.107 51.0973C109.745 50.473 110.254 49.7285 110.606 48.9062C110.958 48.0839 111.145 47.1999 111.158 46.3046C111.175 45.4066 111.011 44.5143 110.677 43.6814C110.343 42.8484 109.846 42.0919 109.214 41.4573C108.582 40.8226 107.83 40.3229 107.002 39.988C106.173 39.6532 105.287 39.4901 104.394 39.5087Z" fill="#377EF7"/>
<path d="M80.7317 52.4961H87.4532C88.6308 52.4961 89.8084 52.4961 90.986 52.4961C91.2154 52.4819 91.4454 52.5137 91.6626 52.5895C91.8798 52.6653 92.08 52.7836 92.2515 52.9377C92.423 53.0917 92.5624 53.2785 92.6618 53.4871C92.7612 53.6957 92.8185 53.9221 92.8305 54.1532C92.8193 54.3833 92.7611 54.6087 92.6595 54.8152C92.558 55.0217 92.4152 55.2049 92.2402 55.3535C92.0652 55.5021 91.8617 55.6128 91.6423 55.6787C91.4229 55.7446 91.1924 55.7644 90.9651 55.7368C86.432 55.7368 81.8988 55.7368 77.3552 55.7368C76.9907 55.7991 76.6159 55.7409 76.2871 55.5707C75.9583 55.4005 75.6932 55.1276 75.5316 54.7929C75.3959 54.4442 75.3701 54.0619 75.4577 53.6979C75.5453 53.3339 75.7421 53.0059 76.0213 52.7583C79.4707 48.9932 82.8992 45.1968 86.3278 41.4107C86.6612 41.0542 86.9634 40.6661 87.422 40.1313C86.8905 40.1313 86.5779 40.0683 86.2756 40.0683H77.9388C76.6362 40.0683 75.9588 39.523 75.9484 38.4742C75.938 37.4254 76.6153 36.8276 77.9805 36.8276C82.1489 36.8276 86.4007 36.8276 90.6212 36.8276C91.507 36.8276 92.2573 36.9745 92.6533 37.8764C93.0493 38.7783 92.4866 39.3866 91.9447 39.9739L81.6383 51.332C81.3674 51.6466 81.1589 51.9717 80.7317 52.4961Z" fill="#377EF7"/>
<path d="M3.24623 19.2012C3.24623 21.1204 3.24623 22.9872 3.24623 24.8435C3.2574 25.2251 3.21531 25.6064 3.12117 25.9762C3.08144 26.1741 3.00318 26.3622 2.89091 26.5296C2.77863 26.697 2.63456 26.8405 2.46699 26.9516C2.29942 27.0627 2.11166 27.1394 1.91452 27.1772C1.71739 27.2149 1.51477 27.2131 1.31833 27.1718C0.93306 27.1243 0.581043 26.9285 0.336206 26.6254C0.0913685 26.3223 -0.0272441 25.9355 0.00528106 25.5462C0.00528106 22.6097 0.00528106 19.6731 0.00528106 16.7366C0.00528106 14.3664 0.00528106 11.9962 0.00528106 9.62603C0.00528106 8.48289 0.620126 7.75926 1.5476 7.73828C1.784 7.74475 2.01665 7.79935 2.23151 7.89879C2.44637 7.99823 2.63899 8.14046 2.79773 8.31688C2.95647 8.4933 3.07805 8.70027 3.15513 8.92527C3.23222 9.15028 3.2632 9.38865 3.24623 9.62603C3.24623 11.4299 3.24623 13.2443 3.24623 15.0481C3.24623 15.6564 3.42338 15.8976 4.04865 15.8976C7.36948 15.8976 10.6973 15.8976 14.032 15.8976C14.6364 15.8976 14.8761 15.6564 14.8657 15.0481C14.8657 13.2443 14.8657 11.4299 14.8657 9.62603C14.8657 8.48289 15.4701 7.76974 16.408 7.73828C16.6444 7.74475 16.8771 7.79935 17.0919 7.89879C17.3068 7.99823 17.4994 8.14046 17.6581 8.31688C17.8169 8.4933 17.9385 8.70027 18.0155 8.92527C18.0926 9.15028 18.1236 9.38865 18.1066 9.62603C18.1066 10.6748 18.1066 11.7236 18.1066 12.8248V24.917C18.1126 25.2706 18.0706 25.6235 17.9816 25.9657C17.9277 26.3829 17.7113 26.7615 17.3801 27.0182C17.0488 27.2749 16.6298 27.3886 16.2152 27.3343C15.8006 27.2801 15.4245 27.0624 15.1694 26.729C14.9144 26.3956 14.8014 25.9739 14.8553 25.5567C14.8553 23.8053 14.8553 22.0538 14.8553 20.3129C14.8553 19.4634 14.6781 19.1278 13.7402 19.1383C10.6139 19.2012 7.48759 19.1383 4.28833 19.1383C3.9757 19.1593 3.64222 19.1802 3.24623 19.2012Z" fill="#377EF7"/>
<path d="M15.3378 47.9005H6.10477C3.76003 47.9005 3.76003 47.9006 3.76003 50.2917C3.76003 51.5397 3.76003 52.7878 3.76003 54.0253C3.76003 55.2628 3.20772 55.9131 2.16561 55.9131C1.12351 55.9131 0.592041 55.2733 0.592041 53.9833C0.592041 49.3688 0.592041 44.7438 0.592041 40.1187C0.592041 39.4371 0.592041 38.7553 0.592041 38.0737C0.591899 37.6553 0.754138 37.2534 1.04419 36.9536C1.33425 36.6539 1.72917 36.48 2.14477 36.4691C2.35949 36.4673 2.57231 36.5098 2.7701 36.594C2.96789 36.6781 3.14647 36.8021 3.29486 36.9583C3.44324 37.1145 3.55828 37.2997 3.6329 37.5023C3.70753 37.7049 3.74015 37.9208 3.72877 38.1366C3.72877 39.9719 3.72877 41.8072 3.72877 43.6426C3.72877 44.3662 3.96846 44.6389 4.70835 44.6284C7.94582 44.6284 11.1868 44.6284 14.4312 44.6284C15.1607 44.6284 15.4733 44.3767 15.4108 43.6531C15.4108 41.8177 15.4108 39.9719 15.4108 38.1366C15.3933 37.8524 15.4528 37.5689 15.5829 37.3161C15.7129 37.0633 15.9087 36.8507 16.1494 36.7011C16.39 36.5515 16.6665 36.4704 16.9494 36.4665C17.2322 36.4625 17.5108 36.5359 17.7555 36.6788C18.0356 36.8445 18.2623 37.0879 18.4083 37.38C18.5543 37.672 18.6135 38.0003 18.5788 38.3254C18.5788 40.9682 18.5788 43.5692 18.5788 46.2435C18.5788 48.9178 18.5788 51.4873 18.5788 54.1616C18.6272 54.5634 18.52 54.9685 18.2793 55.2927C18.0387 55.617 17.6831 55.8354 17.2865 55.9026C17.0541 55.9553 16.8127 55.9527 16.5815 55.8951C16.3503 55.8374 16.1356 55.7263 15.9545 55.5705C15.7734 55.4147 15.6309 55.2186 15.5383 54.9977C15.4457 54.7768 15.4056 54.5372 15.4212 54.298C15.3691 52.6619 15.4212 51.0363 15.4212 49.4003C15.4108 48.9388 15.3691 48.4773 15.3378 47.9005Z" fill="#377EF7"/>
<path d="M36.9877 13.989C36.9877 12.5103 36.9877 11.021 36.9877 9.54228C36.9648 9.32066 36.9871 9.09664 37.0532 8.88399C37.1194 8.67135 37.228 8.47455 37.3724 8.30565C37.5168 8.13675 37.694 7.99931 37.893 7.90177C38.0921 7.80423 38.3089 7.74864 38.5301 7.73842C38.7521 7.73557 38.9723 7.77764 39.1779 7.86215C39.3834 7.94666 39.5699 8.07186 39.7264 8.23034C39.8829 8.38882 40.0062 8.57732 40.0889 8.78468C40.1716 8.99203 40.212 9.21401 40.2078 9.4374C40.2078 12.9088 40.2808 16.3907 40.0203 19.8306C39.6972 23.9417 35.6955 27.3502 31.5896 27.5705C29.4098 27.6989 27.2556 27.0439 25.5111 25.7224C23.7666 24.4008 22.5452 22.4986 22.0648 20.355C21.9098 19.6664 21.826 18.9634 21.8147 18.2575C21.8147 15.4048 21.8147 12.5627 21.8147 9.71009C21.7583 9.339 21.8313 8.9597 22.0213 8.63662C22.2112 8.31354 22.5065 8.06658 22.8568 7.93768C23.1274 7.8694 23.4089 7.85649 23.6846 7.89973C23.9603 7.94296 24.2245 8.04146 24.4616 8.18938C24.8365 8.58082 25.0458 9.10349 25.0452 9.64717C25.1077 12.6152 25.0452 15.5831 25.139 18.5511C25.1328 19.75 25.5049 20.9199 26.2015 21.8923C26.8982 22.8648 27.8835 23.5898 29.0156 23.9627C30.1127 24.3752 31.3074 24.4478 32.4459 24.1712C33.5843 23.8946 34.6145 23.2814 35.4037 22.4105C36.3806 21.3592 36.934 19.9798 36.9565 18.5406C36.9565 17.0304 36.9565 15.5097 36.9565 13.9995L36.9877 13.989Z" fill="#377EF7"/>
<path d="M80.6929 11.3671C80.2343 13.2024 81.1618 14.398 82.4123 15.5621C85.2885 18.3204 88.0709 21.1835 90.8429 24.0466C91.0577 24.2532 91.2298 24.5003 91.3496 24.7738C91.4694 25.0473 91.5345 25.3419 91.5412 25.6407C91.5136 25.936 91.4052 26.2178 91.2281 26.4548C91.051 26.6918 90.8121 26.8748 90.5379 26.9835C90.2636 27.0921 89.9649 27.1222 89.6747 27.0703C89.3846 27.0184 89.1144 26.8866 88.8942 26.6895C88.1691 26.084 87.4898 25.425 86.8621 24.7178C84.4861 22.3267 82.0997 19.9565 79.755 17.5338C79.2131 16.9885 78.9109 16.9465 78.3481 17.5338C75.5032 20.4494 72.6165 23.323 69.7403 26.2175C69.5212 26.4562 69.2805 26.6739 69.0213 26.8678C68.7118 27.1022 68.3264 27.2117 67.9408 27.1748C67.5552 27.138 67.1972 26.9574 66.9371 26.6685C66.6736 26.3908 66.5148 26.0293 66.4881 25.6462C66.4615 25.2632 66.5687 24.8829 66.7912 24.571C66.9699 24.3372 67.1687 24.1196 67.3852 23.9208C70.449 20.8374 73.4919 17.7331 76.587 14.6812C76.8806 14.4216 77.1105 14.0972 77.2587 13.7333C77.407 13.3694 77.4695 12.9759 77.4415 12.5837C77.4415 11.5349 77.4415 10.4862 77.4415 9.4374C77.4317 9.22302 77.4642 9.00881 77.5371 8.80714C77.61 8.60547 77.7218 8.42032 77.8662 8.26238C78.0105 8.10443 78.1845 7.97682 78.3781 7.88689C78.5718 7.79695 78.7811 7.74649 78.9942 7.73841C79.2154 7.73564 79.435 7.77691 79.6403 7.85987C79.8456 7.94283 80.0325 8.06584 80.1904 8.22179C80.3483 8.37775 80.4739 8.56358 80.5602 8.76861C80.6464 8.97363 80.6915 9.1938 80.6929 9.41643C80.7554 10.0562 80.6929 10.7169 80.6929 11.3671Z" fill="#377EF7"/>
<path d="M68.2119 46.223C68.2119 43.622 68.2119 40.9792 68.2119 38.4097C68.2119 37.2246 68.8372 36.48 69.8063 36.48C70.7755 36.48 71.432 37.2351 71.432 38.3992C71.432 43.608 71.432 48.8169 71.432 54.0257C71.432 55.2213 70.8276 55.924 69.8167 55.924C68.8059 55.924 68.2119 55.2423 68.2119 54.0362C68.2015 51.4353 68.2119 48.8239 68.2119 46.223Z" fill="#377EF7"/>
</g>
<defs>
<clipPath id="clip0_3356_19488">
<rect width="160" height="64" fill="white"/>
</clipPath>
</defs>
</svg>
