<svg width="151" height="64" viewBox="0 0 151 64" fill="none" xmlns="http://www.w3.org/2000/svg">
<path d="M24.7935 27.1337L35.2333 39.9543L38.2965 37.5679L29.4531 26.9146L37.0889 17.3005L33.9821 15.0486L24.7935 27.1337ZM19.4043 5.87061V39.3458H23.3714V5.00391L19.4043 5.87061Z" fill="#333333"/>
<path d="M41.8095 32.979C41.7449 31.942 41.9284 30.9046 42.3448 29.9521C42.7613 28.9995 43.399 28.1591 44.2052 27.5C45.8023 26.2446 48.1255 25.6165 51.1745 25.6158H55.7481V24.0972C55.7481 20.4307 54.1372 18.5975 50.9154 18.5975C49.8164 18.6058 48.7229 18.7515 47.6605 19.0314C46.587 19.2985 45.5399 19.6615 44.5319 20.1161L43.3667 17.3012C44.5687 16.6276 45.8525 16.1107 47.1868 15.7631C48.4864 15.4108 49.8266 15.2285 51.1734 15.2207C56.7547 15.2207 59.5442 18.2092 59.542 24.1861V39.3443H56.6106L56.1358 36.7409C55.0007 37.6684 53.7273 38.4139 52.3615 38.9505C51.1488 39.4452 49.8539 39.7093 48.5436 39.7294C47.6412 39.7801 46.7379 39.6469 45.8889 39.3379C45.0399 39.0288 44.2632 38.5504 43.6063 37.932C42.9879 37.2684 42.5104 36.4873 42.2024 35.6355C41.8945 34.7836 41.7623 33.8786 41.8139 32.9747M49.2623 36.5251C49.8346 36.5216 50.4043 36.4487 50.9589 36.3081C51.5578 36.1597 52.146 35.9717 52.7197 35.7451C53.297 35.5182 53.8507 35.2355 54.3728 34.9012C54.8626 34.589 55.3232 34.2336 55.7492 33.8392V28.2962H51.6243C50.0232 28.1707 48.4231 28.5502 47.0507 29.3809C46.5523 29.7941 46.1614 30.321 45.9112 30.9168C45.6609 31.5126 45.5587 32.1597 45.6132 32.8033C45.6132 35.2859 46.8303 36.5272 49.2645 36.5272" fill="#333333"/>
<path d="M70.5686 39.343H66.6016V5.8678L70.5686 5V39.343ZM81.175 15.0491L84.2807 17.301L76.6482 26.9151L85.4894 37.5683L82.4284 39.9548L71.9908 27.1342L81.175 15.0491Z" fill="#333333"/>
<path d="M89.0106 32.979C88.9463 31.9421 89.1299 30.9047 89.5464 29.9523C89.9629 28.9998 90.6003 28.1593 91.4063 27.5C93.0034 26.2446 95.3265 25.6165 98.3756 25.6158H102.949V24.0972C102.949 20.4307 101.339 18.5975 98.1197 18.5975C97.0197 18.6057 95.9251 18.7515 94.8615 19.0314C93.7889 19.2978 92.7428 19.6609 91.7363 20.1161L90.57 17.3012C91.771 16.6281 93.0537 16.1111 94.3868 15.7631C95.6875 15.4106 97.0287 15.2282 98.3767 15.2207C103.955 15.2207 106.745 18.2092 106.745 24.1861V39.3443H103.811L103.336 36.7409C102.201 37.6686 100.927 38.4141 99.5615 38.9505C98.3508 39.4443 97.0582 39.7084 95.7501 39.7294C94.8472 39.7806 93.9432 39.6476 93.0936 39.3386C92.2441 39.0295 91.4668 38.5508 90.8095 37.932C90.1918 37.2681 89.7149 36.4869 89.4074 35.6351C89.1 34.7833 88.9684 33.8784 89.0204 32.9747M96.4689 36.5251C97.0411 36.5213 97.6108 36.4485 98.1654 36.3081C98.7643 36.1596 99.3525 35.9716 99.9263 35.7451C100.503 35.5178 101.057 35.2351 101.579 34.9012C102.068 34.5883 102.527 34.2329 102.952 33.8392V28.2962H98.8308C97.2297 28.17 95.6294 28.5496 94.2572 29.381C93.7579 29.7935 93.3663 30.3201 93.1156 30.9161C92.8649 31.512 92.7627 32.1595 92.8176 32.8033C92.8176 35.2859 94.0347 36.5272 96.4689 36.5272" fill="#333333"/>
<path d="M122.704 15.2647C124.15 15.1907 125.595 15.4401 126.931 15.9948C128.268 16.5495 129.463 17.3952 130.429 18.4701C132.299 20.6063 133.234 23.6667 133.235 27.6514C133.235 31.5774 132.307 34.5948 130.452 36.7036C128.392 38.7288 125.614 39.8643 122.72 39.8643C119.826 39.8643 117.048 38.7288 114.989 36.7036C113.119 34.5963 112.184 31.5789 112.184 27.6514C112.184 23.6675 113.125 20.607 115.008 18.4701C115.973 17.4 117.164 16.5573 118.496 16.003C119.828 15.4487 121.267 15.1969 122.709 15.2658M122.709 18.4701C121.781 18.4254 120.857 18.6165 120.023 19.0254C119.189 19.4343 118.474 20.0476 117.943 20.8077C116.702 22.8671 116.123 25.2548 116.281 27.6514C116.281 30.6257 116.835 32.8704 117.943 34.3854C118.521 35.0958 119.251 35.6686 120.079 36.0621C120.907 36.4555 121.813 36.6597 122.731 36.6597C123.649 36.6597 124.555 36.4555 125.383 36.0621C126.212 35.6686 126.942 35.0958 127.519 34.3854C128.625 32.8668 129.178 30.6221 129.179 27.6514C129.337 25.2552 128.758 22.868 127.519 20.8077C126.982 20.0445 126.258 19.4296 125.417 19.0208C124.576 18.612 123.644 18.4225 122.709 18.4701Z" fill="#333333"/>
<path d="M10.7822 57.2301V58.8941H2.36133V47.2656H10.6156V48.9274H4.19076V52.0005H9.27724V53.6613H4.19076V57.2322L10.7822 57.2301Z" fill="#333333"/>
<path d="M23.2029 47.2637V58.8943H21.6185L15.1142 50.5049V58.8943H13.2793V47.2659H14.8637L21.368 55.6542V47.2659L23.2029 47.2637Z" fill="#333333"/>
<path d="M34.3742 47.2637V48.9255H30.8721V58.8943H29.0372V48.9255H25.5352V47.2637H34.3742Z" fill="#333333"/>
<path d="M45.4595 57.2301V58.8941H37.0332V47.2656H45.2885V48.9274H38.8637V52.0005H43.9502V53.6613H38.8637V57.2322L45.4595 57.2301Z" fill="#333333"/>
<path d="M47.9553 47.2629H52.8752C53.3593 47.2426 53.8425 47.3199 54.2959 47.4901C54.7493 47.6602 55.1635 47.9198 55.5138 48.2532C55.8641 48.5866 56.1432 48.9871 56.3344 49.4305C56.5256 49.874 56.625 50.3513 56.6267 50.8339C56.6236 51.569 56.3995 52.2864 55.9834 52.8934C55.5673 53.5005 54.9781 53.9695 54.2919 54.24L56.9599 58.8914H54.9584L52.4538 54.406H49.7946V58.8936H47.9608L47.9553 47.2629ZM52.8752 48.9248H49.7946V52.7452H52.8796C53.3882 52.7452 53.8759 52.544 54.2355 52.1858C54.5952 51.8275 54.7972 51.3416 54.7972 50.835C54.7972 50.3284 54.5952 49.8425 54.2355 49.4843C53.8759 49.126 53.3882 48.9248 52.8796 48.9248H52.8752Z" fill="#333333"/>
<path d="M67.4649 47.2637V48.9255H63.9628V58.8943H62.129V48.9255H58.627V47.2637H67.4649Z" fill="#333333"/>
<path d="M72.2981 47.2637H74.1264L78.9635 58.8921H77.0459L75.7958 55.8191H70.6254L69.3786 58.8943H67.4609L72.2981 47.2637ZM71.2973 54.1572H75.1326L73.215 49.3388L71.2973 54.1572Z" fill="#333333"/>
<path d="M81.2969 47.2637H83.1307V58.8943H81.2969V47.2637Z" fill="#333333"/>
<path d="M96.7238 47.2637V58.8943H95.1393L88.635 50.5049V58.8943H86.7969V47.2659H88.3813L94.8856 55.6542V47.2659L96.7238 47.2637Z" fill="#333333"/>
<path d="M110.645 47.2637H112.23V58.8943H110.395V50.4225L106.148 55.7377L101.894 50.4225V58.8943H100.061V47.2659H101.645L106.148 52.913L110.645 47.2637Z" fill="#333333"/>
<path d="M123.976 57.2301V58.8941H115.555V47.2656H123.808V48.9274H117.383V52.0005H122.47V53.6613H117.383V57.2322L123.976 57.2301Z" fill="#333333"/>
<path d="M136.733 47.2637V58.8943H135.149L128.644 50.5049V58.8943H126.811V47.2659H128.395L134.899 55.6542V47.2659L136.733 47.2637Z" fill="#333333"/>
<path d="M148.234 47.2637V48.9255H144.732V58.8943H142.899V48.9255H139.396V47.2637H148.234Z" fill="#333333"/>
</svg>
