<svg width="232" height="64" viewBox="0 0 232 64" fill="none" xmlns="http://www.w3.org/2000/svg">
<path d="M34.383 14.0851C35.4381 14.0854 36.5588 14.1578 37.376 14.8251C38.3116 15.5888 38.7159 16.7155 38.7946 18.1117C39.0964 23.2641 39.1112 23.1978 34.0913 24.0001C26.635 25.2073 19.3039 26.8339 12.915 31.1914C12.0465 31.7802 10.9939 32.3249 11.1043 33.5026C11.2147 34.6802 12.4734 35.1513 13.4818 35.5267C16.1831 36.5204 18.5017 35.4384 20.7393 34.0546C25.8999 30.7788 31.3617 28.0035 37.0502 25.7667C38.4266 25.2588 38.986 25.2514 38.9271 26.9811C38.802 30.3743 38.9271 33.7749 38.9271 37.6465C36.9987 35.777 35.0849 34.5478 32.6044 34.7023C31.3237 34.798 30.0356 34.8054 28.7549 34.9379C21.9947 35.5949 15.3487 37.129 8.98448 39.5014C8.37355 39.7369 7.51237 39.943 7.75527 40.7895C7.99817 41.636 8.81518 41.1943 9.36722 41.1575C18.7115 40.6313 28.0853 41.0778 37.3373 42.4898C38.6474 42.6738 38.9639 43.1228 38.8535 44.3078C38.6772 46.2348 38.9965 48.388 37.1428 49.4539C36.4388 49.8586 35.5944 49.8945 34.7824 49.8945H6.78367C5.41605 49.8945 4.10135 49.9851 3.25483 48.9766C2.32135 47.8645 2.45567 46.2425 2.45567 44.7906V39.9933C2.45567 39.3172 2.68007 38.6575 3.11836 38.1427C6.1511 34.581 9.91947 31.8258 13.5922 28.9685C15.9034 27.1725 18.3029 25.4943 20.6068 23.6836C22.0126 22.5722 21.9317 21.895 20.4669 20.8645C18.4869 19.4734 16.4554 19.2231 14.2914 20.4744C13.1991 21.1447 12.165 21.9055 11.2 22.7488C8.01288 25.4207 5.47349 28.7109 2.53664 31.6256L2.43972 18.2091C2.43564 17.6447 2.45196 17.0702 2.6565 16.5441C2.83839 16.0762 3.10632 15.6438 3.44889 15.2702C3.69996 14.9964 3.98601 14.7599 4.29821 14.5658C5.0033 14.1274 5.86403 14.0782 6.69428 14.0784L34.383 14.0851Z" fill="#F72D2F"/>
<path d="M138.809 47.2867C136.832 46.8286 135.045 45.7696 133.694 44.2553C132.344 42.741 131.495 40.8456 131.264 38.8294C131.169 38.0934 131.316 37.8137 132.067 37.8063C134.853 37.6617 136.318 36.8377 137.793 39.7789C139.39 42.9881 145.316 43.8567 147.803 41.251C149.489 39.4845 149.18 37.4236 146.964 36.3489C144.749 35.2743 142.062 34.9357 139.604 34.1408C137.938 33.7372 136.369 33.0066 134.989 31.9915C130.734 28.3996 131.389 22.0032 136.402 19.5448C140.708 17.425 145.19 17.6311 149.511 19.5448C151.881 20.6121 153.155 22.6731 153.611 25.2345C154.164 28.3472 147.904 26.9915 147.089 24.9622C146 22.2609 139.766 22.1284 138.102 24.5721C137.27 25.8013 137.793 27.2587 139.486 27.8917C141.422 28.6277 143.431 29.143 145.411 29.7539C146.633 30.1293 147.884 30.4311 149.091 30.88C152.72 32.2197 154.575 34.8474 154.663 38.616C154.737 42.2153 152.764 45.1006 149.393 46.6463C145.886 48.2651 142.336 48.2118 138.809 47.2867Z" fill="#2C2C2C"/>
<path d="M230.47 23.2324C228.211 23.2324 225.944 23.3575 223.684 23.2324C222.146 23.1514 221.608 23.4753 221.638 25.1756C221.756 31.9252 221.638 38.6748 221.711 45.417C221.711 46.6315 221.498 47.0879 220.144 47.0732C215.808 47.029 215.808 47.0732 215.808 42.7157C215.808 36.7537 215.772 30.799 215.808 24.8444C215.808 23.6078 215.44 23.2766 214.263 23.3354C212.371 23.4238 210.465 23.3355 208.573 23.3723C207.682 23.3723 207.3 23.2177 207.27 22.1946C207.16 18.5805 207.108 18.5732 210.707 18.5585L228.329 18.5217C229.049 18.4183 229.784 18.531 230.441 18.8455L230.47 23.2324Z" fill="#2C2C2C"/>
<path d="M81.8849 29.2928C81.8849 34.6292 81.8407 39.9655 81.8849 45.3093C81.8849 46.5753 81.7082 47.1126 80.2288 47.0832C76.4234 47.0022 76.416 47.0832 76.416 43.2925C76.416 35.5713 76.416 27.8354 76.416 20.1142C76.416 18.8408 76.7914 18.6421 78.028 18.4581C81.0605 18.0459 82.7387 19.253 84.1814 21.8586C86.868 26.6872 89.952 31.3022 92.8668 36.0056C93.0435 36.2927 93.2569 36.565 93.7648 37.3084V34.7175C93.7648 29.8522 93.7648 24.9795 93.7648 20.1142C93.7648 19.069 93.9488 18.6421 95.1486 18.5979C99.2263 18.5243 99.2263 18.4728 99.2263 22.5064C99.2263 30.1098 99.2263 37.7132 99.2631 45.324C99.2631 46.5679 99.1306 47.12 97.6291 47.0906C93.3305 47.0096 93.3526 47.0906 91.1076 43.4103C88.1634 38.6554 85.2192 33.9226 82.275 29.1897L81.8849 29.2928Z" fill="#2C2C2C"/>
<path d="M123.049 31.6679C124.698 31.6679 126.354 31.7267 128.003 31.6679C129.077 31.6163 129.35 32.0138 129.335 33.0222C129.276 36.0621 129.335 39.1093 129.335 42.1492C129.361 42.4477 129.314 42.748 129.197 43.0239C129.08 43.2998 128.898 43.5428 128.665 43.7318C123.925 47.7359 115.416 48.7811 109.785 46.0871C105.752 44.1513 103.772 40.7949 102.763 36.6436C101.291 30.6889 103.419 24.0055 107.916 20.7007C112.17 17.5504 120.142 17.2044 124.646 19.9646C126.652 21.2735 128.135 23.2457 128.834 25.5365C129.099 26.2726 128.93 26.5008 128.187 26.5744C127.519 26.6522 126.86 26.7851 126.214 26.9718C124.455 27.4576 123.27 27.4061 122.1 25.4482C119.656 21.4293 112.111 22.2685 109.888 26.6995C108.91 28.5712 108.405 30.6543 108.418 32.7664C108.431 34.8784 108.961 36.9552 109.962 38.8149C111.655 42.1493 115.954 43.4153 120.075 41.9873C120.873 41.6884 121.646 41.3266 122.387 40.9053C123.336 40.4048 123.999 37.8286 123.447 36.9233C123.167 36.4596 122.711 36.5994 122.298 36.5921C120.885 36.5921 119.479 36.5332 118.073 36.5921C117.094 36.6436 116.852 36.2829 116.822 35.3481C116.704 31.6679 116.668 31.6679 120.348 31.6679H123.049Z" fill="#2C2C2C"/>
<path d="M184.234 32.9723C184.234 39.7292 181.165 44.7491 175.88 46.6261C166.414 49.9383 155.049 45.2717 156.36 30.926C157.051 23.4256 161.46 19.5982 165.98 18.5603C176.542 16.1166 184.19 22.2038 184.234 32.9723ZM170.411 23.1607C166.731 23.1165 164.059 24.9051 162.969 28.1585C161.905 31.2923 161.965 34.6989 163.139 37.7934C164.338 41.1057 167.084 42.8354 170.845 42.7029C174.091 42.5851 176.594 40.4947 177.573 37.2487C178.398 34.5004 178.418 31.5731 177.632 28.8136C176.608 24.9861 174.305 23.1607 170.411 23.1607Z" fill="#2C2C2C"/>
<path d="M66.558 47.0387C64.232 47.0387 62.2153 46.9946 60.1985 47.0387C59.2858 47.0387 58.9251 46.5456 58.5203 45.9126C56.0668 42.1391 53.6133 38.368 51.1597 34.5994C50.7708 33.9415 50.2403 33.3783 49.6067 32.9507C49.6067 37.0505 49.5478 41.1503 49.6067 45.2428C49.6067 46.6339 49.3122 47.0903 47.8328 47.0608C43.3281 46.9651 43.3281 47.0608 43.3281 42.4899C43.3281 35.1294 43.3281 27.7689 43.3281 20.4083C43.3281 19.0761 43.5269 18.4872 45.0947 18.5167C49.5625 18.5976 49.5625 18.5167 49.5625 22.933C49.5625 25.5484 49.5748 28.1614 49.5993 30.772C49.5993 30.8161 49.6656 30.8529 49.8717 31.0885C52.4994 27.5701 55.1639 24.1328 57.6738 20.5924C58.6822 19.157 59.7348 18.3842 61.5675 18.6124C63.1161 18.7154 64.6694 18.7277 66.2194 18.6492C64.6884 20.6365 63.3856 22.3294 62.0754 24.0224C60.4266 26.1348 58.7926 28.262 57.0997 30.3377C56.2827 31.3314 56.29 32.1263 57.0482 33.2083C60.2132 37.7203 63.2678 42.247 66.558 47.0387Z" fill="#2C2C2C"/>
<path d="M186.812 32.7304C186.812 28.4761 186.849 24.2143 186.812 19.9526C186.812 18.8485 187.1 18.4805 188.285 18.4805C193.923 18.5394 199.561 18.532 205.214 18.4805C206.296 18.4805 206.686 18.6792 206.686 19.8642C206.686 23.2501 206.745 23.2501 203.411 23.2501C200.29 23.2501 197.161 23.2869 194.041 23.2501C192.995 23.2501 192.627 23.5445 192.686 24.5897C192.76 26.0618 192.752 27.5339 192.686 28.9692C192.642 29.9555 193.04 30.2132 193.974 30.2058C197.036 30.1616 200.098 30.25 203.16 30.1543C204.441 30.1175 204.824 30.4634 204.802 31.7589C204.735 34.9533 204.802 34.9533 201.681 34.9533C199.289 34.9533 196.896 35.0564 194.512 34.9533C192.973 34.8576 192.701 35.4318 192.738 36.7935C192.833 39.7377 192.738 42.7628 192.789 45.7439C192.789 46.7302 192.583 47.0835 191.494 47.1056C186.886 47.1939 186.886 47.2381 186.886 42.6304L186.812 32.7304Z" fill="#2C2C2C"/>
<path d="M72.8894 32.9206C72.8894 37.1749 72.8894 41.4293 72.8894 45.6837C72.8894 46.6553 72.7127 47.0454 71.6086 47.0675C67.1113 47.1558 67.1113 47.2 67.1113 42.7027C67.1113 35.2244 67.1555 27.7461 67.1113 20.2751C67.1113 18.803 67.5309 18.4645 68.9441 18.4939C72.9041 18.5749 72.9041 18.4939 72.9041 22.5275L72.8894 32.9206Z" fill="#2C2C2C"/>
</svg>
