<svg width="228" height="64" viewBox="0 0 228 64" fill="none" xmlns="http://www.w3.org/2000/svg">
<g clip-path="url(#clip0_3317_20301)">
<path d="M31.883 14.0871C32.9381 14.0873 34.0588 14.1598 34.876 14.827C35.8116 15.5908 36.2159 16.7175 36.2946 18.1137C36.5964 23.266 36.6112 23.1998 31.5913 24.0021C24.135 25.2092 16.8039 26.8359 10.415 31.1933C9.54646 31.7822 8.4939 32.3268 8.6043 33.5045C8.71471 34.6822 9.97337 35.1533 10.9818 35.5287C13.6831 36.5223 16.0017 35.4403 18.2393 34.0565C23.3999 30.7807 28.8617 28.0055 34.5502 25.7686C35.9266 25.2607 36.486 25.2534 36.4271 26.9831C36.302 30.3763 36.4271 33.7768 36.4271 37.6485C34.4987 35.7789 32.5849 34.5497 30.1044 34.7043C28.8237 34.8 27.5356 34.8073 26.2549 34.9398C19.4947 35.5968 12.8487 37.1309 6.48448 39.5034C5.87355 39.7389 5.01237 39.945 5.25527 40.7915C5.49817 41.6379 6.31518 41.1963 6.86722 41.1595C16.2115 40.6332 25.5853 41.0797 34.8373 42.4917C36.1474 42.6757 36.4639 43.1247 36.3535 44.3098C36.1772 46.2367 36.4965 48.39 34.6428 49.4558C33.9388 49.8606 33.0944 49.8964 32.2824 49.8964H4.28367C2.91605 49.8964 1.60135 49.987 0.754829 48.9786C-0.178654 47.8665 -0.0443255 46.2445 -0.0443255 44.7926V39.9952C-0.0443255 39.3192 0.180067 38.6594 0.618363 38.1447C3.6511 34.583 7.41947 31.8277 11.0922 28.9704C13.4034 27.1745 15.8029 25.4963 18.1068 23.6856C19.5126 22.5741 19.4317 21.897 17.9669 20.8665C15.9869 19.4753 13.9554 19.2251 11.7914 20.4764C10.6991 21.1466 9.66499 21.9074 8.7 22.7508C5.51288 25.4227 2.97349 28.7128 0.0366408 31.6276L-0.0602789 18.2111C-0.0643565 17.6466 -0.0480425 17.0721 0.156498 16.546C0.33839 16.0782 0.606317 15.6458 0.948891 15.2722C1.19996 14.9984 1.48601 14.7618 1.79821 14.5677C2.5033 14.1294 3.36403 14.0802 4.19428 14.0804L31.883 14.0871Z" fill="#F72D2F"/>
<path d="M136.309 47.2906C134.332 46.8325 132.545 45.7736 131.194 44.2592C129.844 42.7449 128.995 40.8495 128.764 38.8333C128.669 38.0973 128.816 37.8176 129.567 37.8102C132.353 37.6656 133.818 36.8416 135.293 39.7828C136.89 42.992 142.816 43.8606 145.303 41.2549C146.989 39.4884 146.68 37.4275 144.464 36.3528C142.249 35.2782 139.562 34.9396 137.104 34.1447C135.438 33.7411 133.869 33.0105 132.489 31.9954C128.234 28.4035 128.889 22.0072 133.902 19.5487C138.208 17.4289 142.69 17.635 147.011 19.5487C149.381 20.616 150.655 22.677 151.111 25.2384C151.664 28.3511 145.404 26.9954 144.589 24.9661C143.5 22.2648 137.266 22.1323 135.602 24.576C134.77 25.8052 135.293 27.2626 136.986 27.8956C138.922 28.6316 140.931 29.1469 142.911 29.7578C144.133 30.1332 145.384 30.435 146.591 30.884C150.22 32.2236 152.075 34.8513 152.163 38.6199C152.237 42.2192 150.264 45.1045 146.893 46.6502C143.386 48.269 139.836 48.2157 136.309 47.2906Z" fill="#2C2C2C"/>
<path d="M227.97 23.2363C225.711 23.2363 223.444 23.3614 221.184 23.2363C219.646 23.1553 219.108 23.4792 219.138 25.1795C219.256 31.9291 219.138 38.6787 219.211 45.4209C219.211 46.6354 218.998 47.0918 217.644 47.0771C213.308 47.0329 213.308 47.0771 213.308 42.7196C213.308 36.7576 213.272 30.8029 213.308 24.8483C213.308 23.6117 212.94 23.2805 211.763 23.3393C209.871 23.4277 207.965 23.3394 206.073 23.3762C205.182 23.3762 204.8 23.2216 204.77 22.1985C204.66 18.5844 204.608 18.5771 208.207 18.5624L225.829 18.5256C226.549 18.4222 227.284 18.5349 227.941 18.8494L227.97 23.2363Z" fill="#2C2C2C"/>
<path d="M79.3849 29.2947C79.3849 34.6311 79.3407 39.9675 79.3849 45.3112C79.3849 46.5773 79.2082 47.1146 77.7288 47.0851C73.9234 47.0042 73.916 47.0851 73.916 43.2945C73.916 35.5733 73.916 27.8373 73.916 20.1161C73.916 18.8428 74.2914 18.644 75.528 18.46C78.5605 18.0478 80.2387 19.255 81.6814 21.8606C84.368 26.6891 87.452 31.3042 90.3668 36.0075C90.5435 36.2946 90.7569 36.5669 91.2648 37.3104V34.7194C91.2648 29.8541 91.2648 24.9814 91.2648 20.1161C91.2648 19.0709 91.4488 18.644 92.6486 18.5999C96.7263 18.5263 96.7263 18.4747 96.7263 22.5083C96.7263 30.1117 96.7263 37.7152 96.7631 45.326C96.7631 46.5699 96.6306 47.122 95.1291 47.0925C90.8305 47.0115 90.8526 47.0925 88.6076 43.4122C85.6634 38.6573 82.7192 33.9245 79.775 29.1917L79.3849 29.2947Z" fill="#2C2C2C"/>
<path d="M120.549 31.6698C122.198 31.6698 123.854 31.7287 125.503 31.6698C126.577 31.6183 126.85 32.0158 126.835 33.0241C126.776 36.064 126.835 39.1113 126.835 42.1512C126.861 42.4496 126.814 42.7499 126.697 43.0258C126.58 43.3017 126.398 43.5448 126.165 43.7337C121.425 47.7379 112.916 48.783 107.285 46.0891C103.252 44.1533 101.272 40.7969 100.263 36.6455C98.7913 30.6909 100.919 24.0075 105.416 20.7026C109.67 17.5523 117.642 17.2064 122.146 19.9666C124.152 21.2755 125.635 23.2476 126.334 25.5385C126.599 26.2745 126.43 26.5027 125.687 26.5763C125.019 26.6541 124.36 26.7871 123.714 26.9738C121.955 27.4596 120.77 27.4081 119.6 25.4501C117.156 21.4313 109.611 22.2704 107.388 26.7014C106.41 28.5732 105.905 30.6562 105.918 32.7683C105.931 34.8804 106.461 36.9572 107.462 38.8169C109.155 42.1512 113.454 43.4172 117.575 41.9893C118.373 41.6904 119.146 41.3286 119.887 40.9073C120.836 40.4068 121.499 37.8306 120.947 36.9252C120.667 36.4615 120.211 36.6014 119.798 36.594C118.385 36.594 116.979 36.5351 115.573 36.594C114.594 36.6455 114.352 36.2849 114.322 35.3501C114.204 31.6698 114.168 31.6698 117.848 31.6698H120.549Z" fill="#2C2C2C"/>
<path d="M181.734 32.9762C181.734 39.7331 178.665 44.753 173.38 46.63C163.914 49.9422 152.549 45.2756 153.86 30.9299C154.551 23.4296 158.96 19.6021 163.48 18.5642C174.042 16.1205 181.69 22.2077 181.734 32.9762ZM167.911 23.1646C164.231 23.1204 161.559 24.909 160.469 28.1624C159.405 31.2962 159.465 34.7028 160.639 37.7973C161.838 41.1096 164.584 42.8393 168.345 42.7068C171.591 42.589 174.094 40.4986 175.073 37.2527C175.898 34.5043 175.918 31.5771 175.132 28.8175C174.108 24.99 171.805 23.1646 167.911 23.1646Z" fill="#2C2C2C"/>
<path d="M64.058 47.0407C61.732 47.0407 59.7153 46.9965 57.6985 47.0407C56.7858 47.0407 56.4251 46.5475 56.0203 45.9145C53.5668 42.141 51.1133 38.37 48.6597 34.6014C48.2708 33.9434 47.7403 33.3802 47.1067 32.9526C47.1067 37.0524 47.0478 41.1523 47.1067 45.2447C47.1067 46.6359 46.8122 47.0922 45.3328 47.0628C40.8281 46.9671 40.8281 47.0628 40.8281 42.4919C40.8281 35.1314 40.8281 27.7708 40.8281 20.4103C40.8281 19.078 41.0269 18.4892 42.5947 18.5186C47.0625 18.5996 47.0625 18.5186 47.0625 22.9349C47.0625 25.5504 47.0748 28.1634 47.0993 30.7739C47.0993 30.8181 47.1656 30.8549 47.3717 31.0904C49.9994 27.5721 52.6639 24.1347 55.1738 20.5943C56.1822 19.159 57.2348 18.3861 59.0675 18.6143C60.6161 18.7174 62.1694 18.7297 63.7194 18.6511C62.1884 20.6385 60.8856 22.3314 59.5754 24.0243C57.9266 26.1368 56.2926 28.264 54.5997 30.3396C53.7827 31.3333 53.79 32.1282 54.5482 33.2102C57.7132 37.7223 60.7678 42.249 64.058 47.0407Z" fill="#2C2C2C"/>
<path d="M184.312 32.7324C184.312 28.478 184.349 24.2163 184.312 19.9545C184.312 18.8504 184.6 18.4824 185.785 18.4824C191.423 18.5413 197.061 18.5339 202.714 18.4824C203.796 18.4824 204.186 18.6811 204.186 19.8662C204.186 23.252 204.245 23.252 200.911 23.252C197.79 23.252 194.661 23.2888 191.541 23.252C190.495 23.252 190.127 23.5465 190.186 24.5917C190.26 26.0638 190.252 27.5359 190.186 28.9712C190.142 29.9575 190.54 30.2151 191.474 30.2077C194.536 30.1636 197.598 30.2519 200.66 30.1562C201.941 30.1194 202.324 30.4654 202.302 31.7608C202.235 34.9553 202.302 34.9553 199.181 34.9553C196.789 34.9553 194.396 35.0583 192.012 34.9553C190.473 34.8596 190.201 35.4337 190.238 36.7954C190.333 39.7396 190.238 42.7648 190.289 45.7458C190.289 46.7321 190.083 47.0854 188.994 47.1075C184.386 47.1959 184.386 47.24 184.386 42.6323L184.312 32.7324Z" fill="#2C2C2C"/>
<path d="M70.3894 32.9245C70.3894 37.1789 70.3894 41.4332 70.3894 45.6876C70.3894 46.6592 70.2127 47.0493 69.1086 47.0714C64.6113 47.1597 64.6113 47.2039 64.6113 42.7066C64.6113 35.2283 64.6555 27.75 64.6113 20.2791C64.6113 18.8069 65.0309 18.4684 66.4441 18.4978C70.4041 18.5788 70.4041 18.4978 70.4041 22.5314L70.3894 32.9245Z" fill="#2C2C2C"/>
</g>
<defs>
<clipPath id="clip0_3317_20301">
<rect width="228" height="64" fill="white"/>
</clipPath>
</defs>
</svg>
