<svg width="146" height="36" viewBox="0 0 146 36" fill="none" xmlns="http://www.w3.org/2000/svg">
<g clip-path="url(#clip0_2290_5025)">
<path d="M98.2474 14.1333C98.0416 14.1333 97.8596 14.2641 97.7948 14.4583C97.1812 16.3156 96.3561 18.8172 95.5586 21.2554C95.0945 22.672 94.6686 23.9854 94.2322 25.3262C94.015 25.8332 93.2537 25.5186 92.9154 25.2599C92.459 24.8837 92.0531 23.6926 91.8959 23.1752C91.0574 20.2869 90.3218 17.3864 89.5472 14.4858C89.4919 14.2783 89.3023 14.1333 89.086 14.1333H86.5649C86.3143 14.1333 86.1313 14.3693 86.1971 14.6109C87.0432 17.7351 88.6849 23.7892 89.0689 25.1073C89.6749 27.1873 90.844 28.3898 92.6115 28.7357C92.8383 28.7802 92.9736 29.0161 92.8954 29.2322C92.1246 31.3747 90.5982 31.7319 88.299 31.7064C88.0865 31.7035 87.9122 31.8741 87.9122 32.0854V34.5387C87.9122 34.7443 88.077 34.913 88.2838 34.9177C89.1499 34.9367 90.1027 34.9206 90.783 34.804C93.1012 34.3795 95.2851 33.1183 96.2341 29.9239C96.8973 27.6933 99.8844 18.6287 101.206 14.6317C101.287 14.3863 101.103 14.1352 100.844 14.1352H98.2474V14.1333Z" fill="#152632"/>
<path d="M83.5145 14.4982C83.5145 14.2888 83.3439 14.1192 83.1334 14.1192H80.4635C80.253 14.1192 80.0824 14.2888 80.0824 14.4982V15.4572C80.0824 15.6287 79.8738 15.7102 79.7537 15.587C78.6189 14.4281 76.9676 13.9732 75.3841 13.9761C71.5004 13.9761 68.3398 17.3419 68.3398 21.4782C68.3398 25.6144 71.4994 28.9802 75.3841 28.9802C77.1563 29.0039 78.9409 28.3804 80.1682 27.0936C80.3502 26.9022 80.6684 26.9514 80.7846 27.1883C81.4316 28.514 82.9771 29.0466 84.4759 28.9632C84.6798 28.9518 84.8399 28.7869 84.8399 28.5841V26.416C84.8399 26.2313 84.7046 26.074 84.5207 26.0427C83.2753 25.7167 83.5688 24.2138 83.5154 22.963V14.4982H83.5145ZM79.2134 24.7009C78.3588 25.5509 77.2687 25.9896 76.0024 25.9896C74.7361 25.9896 73.7042 25.5499 72.8505 24.7009C72.0254 23.8509 71.6128 22.7669 71.6128 21.4782C71.6128 20.1894 72.0254 19.1054 72.8505 18.2554C73.7052 17.4054 74.7361 16.9667 76.0024 16.9667C77.2687 16.9667 78.3597 17.4064 79.2134 18.2554C80.0977 19.1054 80.5388 20.1894 80.5388 21.4782C80.5388 22.7669 80.0967 23.8509 79.2134 24.7009Z" fill="#152632"/>
<path d="M128.023 16.7932V14.2063C128.023 14.0102 127.872 13.8453 127.675 13.8282C125.863 13.669 124.095 14.2158 122.942 15.4495C122.824 15.5746 122.614 15.4893 122.614 15.3188V14.4849C122.614 14.2755 122.443 14.1059 122.233 14.1059H119.451C119.241 14.1059 119.07 14.2755 119.07 14.4849V28.3169C119.07 28.5263 119.241 28.6959 119.451 28.6959H122.153C122.363 28.6959 122.534 28.5263 122.534 28.3169V21.0252C122.501 18.099 124.859 16.7241 127.583 17.1988C127.814 17.2329 128.022 17.0567 128.022 16.8245V16.7942L128.023 16.7932Z" fill="#152632"/>
<path d="M113.994 24.588C113.839 24.4345 113.586 24.4411 113.44 24.6041C112.003 26.2984 109.301 26.5088 107.453 25.5925C106.096 24.9661 105.425 23.468 105.329 22.7535C105.283 22.5194 105.464 22.3034 105.703 22.3034H116.291C116.541 22.3034 116.752 22.1091 116.767 21.8609C116.904 19.634 116.375 17.663 115.071 16.1933C113.794 14.7397 111.903 13.8897 109.967 13.83C105.642 13.396 101.84 17.1362 101.956 21.4013C101.956 23.5845 102.868 25.7403 104.516 27.1986C107.958 30.2025 113.461 28.9896 115.445 26.5277C115.576 26.378 115.567 26.1525 115.426 26.0122L113.994 24.588ZM105.721 19.9107C105.325 19.9031 105.274 19.4786 105.43 19.1943C106.082 17.2404 108.161 16.4994 109.605 16.4994C111.34 16.4994 113.229 17.7028 113.498 19.4758C113.533 19.7051 113.353 19.9107 113.121 19.9107H105.721Z" fill="#152632"/>
<path d="M145.265 28.15L140.615 18.6495C140.563 18.5443 140.563 18.4211 140.615 18.3169L145.183 9.06461C145.307 8.8135 145.123 8.5188 144.841 8.5188H141.825C141.643 8.5188 141.477 8.62114 141.397 8.78412L137.568 16.5411C137.432 16.8396 136.969 16.8396 136.834 16.5411L132.99 8.78318C132.91 8.62114 132.744 8.5188 132.562 8.5188H129.546C129.264 8.5188 129.08 8.81255 129.204 9.06461L133.789 18.3737C133.84 18.4789 133.84 18.6021 133.789 18.7073L129.145 28.15C129.021 28.4021 129.206 28.6958 129.487 28.6958H132.5C132.682 28.6958 132.847 28.5925 132.927 28.4305L136.833 20.4888C136.967 20.1884 137.433 20.1884 137.568 20.4888L141.478 28.4305C141.558 28.5925 141.724 28.6958 141.906 28.6958H144.921C145.203 28.6958 145.386 28.403 145.264 28.151L145.265 28.15Z" fill="#152632"/>
<path d="M54.1758 28.3158V8.89783C54.1758 8.68842 54.3463 8.5188 54.5569 8.5188H57.4335C57.6441 8.5188 57.8146 8.68842 57.8146 8.89783V25.0448C57.8146 25.2542 57.9852 25.4238 58.1957 25.4238H67.1132C67.3238 25.4238 67.4943 25.5934 67.4943 25.8028V28.3158C67.4943 28.5253 67.3238 28.6949 67.1132 28.6949H54.5569C54.3463 28.6949 54.1758 28.5253 54.1758 28.3158Z" fill="#152632"/>
</g>
<path d="M31.999 34.1662L20.6335 27.4246C20.242 27.1929 20.242 26.6131 20.6335 26.3814L30.449 20.5619C30.9191 20.2824 31.4998 20.2824 31.9699 20.5619L43.3354 27.3035C43.727 27.5352 43.727 28.115 43.3354 28.3467L33.52 34.1662C33.0498 34.4456 32.4691 34.4456 31.999 34.1662Z" fill="#8DBBFF"/>
<path d="M3.40818 22.2072L17.9233 13.602C18.3148 13.3703 18.8038 13.6603 18.8038 14.1236V25.7611C18.8038 26.3185 18.5142 26.8341 18.0441 27.1136L3.52898 35.7188C3.13746 35.9505 2.64844 35.6606 2.64844 35.1973V23.5597C2.64844 23.0023 2.93807 22.4867 3.40818 22.2072Z" fill="#534DFF"/>
<path d="M29.7573 6.20586L40.0909 0.081473C40.4824 -0.150172 40.9715 0.139758 40.9715 0.603048V10.4338C40.9715 10.9912 40.6818 11.5068 40.2103 11.7863L29.8766 17.9107C29.4851 18.1423 28.9961 17.8524 28.9961 17.3891V7.55837C28.9961 7.00093 29.2857 6.48533 29.7573 6.20586Z" fill="#534DFF"/>
<path d="M22.7238 21.2567L0.295456 8.07839C-0.0975134 7.84824 -0.0989691 7.26689 0.294 7.03375L9.08777 1.82099C9.55643 1.54302 10.1342 1.54152 10.6043 1.818L33.021 15.0038C33.414 15.2355 33.414 15.8153 33.0225 16.0485L24.2404 21.2552C23.7717 21.5332 23.1939 21.5347 22.7253 21.2582L22.7238 21.2567Z" fill="#534DFF"/>
<path d="M17.9223 13.6022L13.8281 16.0292L18.8014 18.9524V14.1253C18.8014 13.662 18.3123 13.372 17.9208 13.6037L17.9223 13.6022Z" fill="#4111FF"/>
<path d="M33.0204 15.0025L28.9961 12.6353V17.3877C28.9961 17.851 29.4851 18.1409 29.8766 17.9093L33.0364 16.0367C33.4134 15.7991 33.4075 15.2297 33.0204 15.0025Z" fill="#4111FF"/>
<defs>
<clipPath id="clip0_2290_5025">
<rect width="91.1288" height="26.4046" fill="white" transform="translate(54.1758 8.5188)"/>
</clipPath>
</defs>
</svg>
