<svg width="1280" height="258" viewBox="0 0 1280 258" fill="none" xmlns="http://www.w3.org/2000/svg">
<g clip-path="url(#clip0_1621_119)">
<path d="M469.792 8.15527H518.306L600.798 157.376L683.289 8.15527H730.753V253.353H691.171V65.4276L618.838 195.558H581.707L509.374 65.4276V253.353H469.792V8.15527Z" fill="#1C2B33"/>
<path d="M858.427 257.732C840.094 257.732 823.982 253.675 810.088 245.56C796.192 237.445 785.363 226.207 777.599 211.845C769.833 197.483 765.951 181.02 765.953 162.455C765.953 143.658 769.747 127.019 777.337 112.54C784.926 98.0636 795.464 86.7375 808.95 78.5614C822.436 70.3905 837.936 66.3039 855.45 66.3018C872.846 66.3018 887.821 70.4174 900.374 78.6486C912.923 86.8821 922.585 98.4125 929.359 113.24C936.13 128.07 939.516 145.467 939.517 165.433V176.29H805.184C807.637 191.238 813.679 203.002 823.312 211.581C832.945 220.164 845.117 224.454 859.828 224.454C871.62 224.454 881.779 222.702 890.303 219.2C898.825 215.697 906.823 210.385 914.298 203.263L935.314 229.008C914.412 248.159 888.783 257.734 858.427 257.732ZM887.326 112.276C879.034 103.812 868.175 99.5794 854.75 99.5778C841.671 99.5778 830.725 103.899 821.911 112.54C813.093 121.18 807.518 132.798 805.184 147.393H901.512C900.344 132.447 895.615 120.741 887.326 112.276Z" fill="#1C2B33"/>
<path d="M987.51 103.083H951.08V70.6814H987.51V17.0889H1025.69V70.6814H1081.03V103.083H1025.69V185.224C1025.69 198.884 1028.03 208.633 1032.7 214.471C1037.36 220.312 1045.36 223.231 1056.69 223.228C1061.71 223.228 1065.97 223.024 1069.48 222.616C1072.98 222.209 1076.83 221.654 1081.03 220.951V253.002C1076.24 254.389 1071.35 255.443 1066.41 256.156C1060.76 256.988 1055.05 257.397 1049.33 257.381C1008.12 257.381 987.508 234.847 987.51 189.778V103.083Z" fill="#1C2B33"/>
<path d="M1280 253.353H1242.52V227.783C1235.86 237.358 1227.4 244.743 1217.12 249.938C1206.85 255.131 1195.17 257.73 1182.1 257.733C1165.98 257.733 1151.71 253.616 1139.27 245.384C1126.84 237.152 1117.06 225.827 1109.94 211.407C1102.82 196.987 1099.25 180.495 1099.25 161.93C1099.25 143.249 1102.87 126.727 1110.11 112.364C1117.35 98.0036 1127.36 86.7365 1140.15 78.5619C1152.94 70.391 1167.62 66.3044 1184.2 66.3022C1196.69 66.3022 1207.9 68.7253 1217.82 73.5716C1227.62 78.3077 1236.1 85.3735 1242.52 94.1497V70.6817H1280V253.353ZM1241.82 134.608C1237.73 124.216 1231.28 116.013 1222.47 109.999C1213.65 103.987 1203.46 100.981 1191.9 100.981C1175.56 100.981 1162.54 106.468 1152.85 117.443C1143.16 128.419 1138.31 143.248 1138.31 161.93C1138.31 180.73 1142.98 195.617 1152.32 206.592C1161.66 217.567 1174.33 223.055 1190.33 223.054C1202.12 223.054 1212.63 220.018 1221.85 213.946C1231.08 207.878 1237.73 199.704 1241.82 189.427L1241.82 134.608Z" fill="#1C2B33"/>
<path d="M41.9375 170.073C41.9375 184.898 45.1916 196.28 49.4447 203.166C55.0211 212.186 63.3383 216.007 71.8177 216.007C82.7544 216.007 92.7595 213.293 112.04 186.626C127.487 165.252 145.688 135.251 157.934 116.442L178.673 84.5773C193.08 62.4474 209.755 37.8464 228.874 21.1713C244.483 7.56123 261.32 0 278.265 0C306.714 0 333.813 16.486 354.552 47.4059C377.249 81.2692 388.267 123.922 388.267 167.939C388.267 194.106 383.109 213.333 374.332 228.523C365.853 243.213 349.327 257.89 321.526 257.89V216.007C345.33 216.007 351.271 194.133 351.271 169.1C351.271 133.428 342.954 93.8396 324.631 65.5527C311.629 45.4886 294.778 33.2286 276.24 33.2286C256.189 33.2286 240.054 48.351 221.921 75.3147C212.28 89.6405 202.383 107.099 191.271 126.798L179.038 148.469C154.464 192.041 148.24 201.965 135.953 218.343C114.417 247.021 96.027 257.89 71.8177 257.89C43.0987 257.89 24.9383 245.455 13.6911 226.714C4.50966 211.443 0 191.406 0 168.574L41.9375 170.073Z" fill="#0081FB"/>
<path d="M33.0667 50.3627C52.2936 20.7256 80.0405 0 111.865 0C130.295 0 148.618 5.4549 167.75 21.0769C188.679 38.1571 210.984 66.282 238.812 112.635L248.79 129.269C272.878 169.398 286.582 190.042 294.603 199.777C304.918 212.28 312.142 216.007 321.526 216.007C345.33 216.007 351.271 194.133 351.271 169.1L388.267 167.939C388.267 194.106 383.109 213.333 374.332 228.523C365.853 243.213 349.327 257.89 321.526 257.89C304.243 257.89 288.932 254.137 272 238.164C258.984 225.904 243.767 204.125 232.061 184.547L197.239 126.38C179.767 97.1881 163.74 75.4227 154.464 65.5662C144.486 54.9671 131.659 42.167 111.19 42.167C94.6228 42.167 80.5536 53.7924 68.7797 71.5747L33.0667 50.3627Z" fill="url(#paint0_linear_1621_119)"/>
<path d="M111.19 42.167C94.6228 42.167 80.5536 53.7924 68.7797 71.5747C52.1316 96.7021 41.9375 134.13 41.9375 170.073C41.9375 184.898 45.1916 196.28 49.4447 203.166L13.6911 226.714C4.50966 211.443 0 191.406 0 168.574C0 127.055 11.3957 83.7805 33.0667 50.3627C52.2936 20.7256 80.0405 0 111.865 0L111.19 42.167Z" fill="url(#paint1_linear_1621_119)"/>
</g>
<defs>
<linearGradient id="paint0_linear_1621_119" x1="82.3629" y1="157.975" x2="349.705" y2="171.477" gradientUnits="userSpaceOnUse">
<stop stop-color="#0064E1"/>
<stop offset="0.4" stop-color="#0064E1"/>
<stop offset="0.83" stop-color="#0073EE"/>
<stop offset="1" stop-color="#0082FB"/>
</linearGradient>
<linearGradient id="paint1_linear_1621_119" x1="60.7595" y1="187.679" x2="60.7595" y2="89.114" gradientUnits="userSpaceOnUse">
<stop stop-color="#0082FB"/>
<stop offset="1" stop-color="#0064E0"/>
</linearGradient>
<clipPath id="clip0_1621_119">
<rect width="1280" height="257.89" fill="white"/>
</clipPath>
</defs>
</svg>
