<svg width="179" height="64" viewBox="0 0 179 64" fill="none" xmlns="http://www.w3.org/2000/svg">
<mask id="mask0_5024_32679" style="mask-type:luminance" maskUnits="userSpaceOnUse" x="1" y="14" width="177" height="36">
<path d="M177.852 14.1289H1.15649V49.8411H177.852V14.1289Z" fill="white"/>
</mask>
<g mask="url(#mask0_5024_32679)">
<path d="M66.0083 15.2578H72.7053L84.0928 35.9217L95.4802 15.2578H102.032V49.2124H96.5682V23.1888L86.5831 41.2091H81.4574L71.4723 23.1888V49.2124H66.0083V15.2578Z" fill="#1C2B33"/>
<path d="M119.657 49.8176C117.126 49.8176 114.902 49.2558 112.984 48.132C111.066 47.0083 109.571 45.452 108.499 43.4632C107.427 41.4744 106.891 39.1946 106.891 36.6238C106.891 34.0208 107.415 31.7166 108.463 29.7116C109.51 27.7069 110.965 26.1385 112.827 25.0063C114.688 23.8748 116.828 23.3089 119.246 23.3086C121.647 23.3086 123.714 23.8785 125.447 25.0184C127.18 26.1585 128.513 27.7552 129.448 29.8085C130.383 31.8622 130.851 34.2713 130.851 37.0361V38.5396H112.307C112.646 40.6096 113.48 42.2386 114.809 43.4267C116.139 44.6152 117.819 45.2093 119.85 45.2093C121.478 45.2093 122.88 44.9667 124.057 44.4817C125.233 43.9966 126.338 43.261 127.369 42.2748L130.271 45.8399C127.385 48.4919 123.847 49.8179 119.657 49.8176ZM123.646 29.675C122.501 28.503 121.002 27.9168 119.149 27.9166C117.344 27.9166 115.833 28.515 114.616 29.7116C113.399 30.908 112.629 32.5169 112.307 34.538H125.604C125.443 32.4683 124.79 30.8473 123.646 29.675Z" fill="#1C2B33"/>
<path d="M137.476 28.4044H132.447V23.9175H137.476V16.4961H142.746V23.9175H150.386V28.4044H142.746V39.7792C142.746 41.6708 143.069 43.0208 143.714 43.8293C144.357 44.6381 145.462 45.0424 147.026 45.0419C147.719 45.0419 148.307 45.0137 148.791 44.9572C149.274 44.9008 149.806 44.824 150.386 44.7266V49.165C149.724 49.3571 149.049 49.503 148.367 49.6018C147.587 49.717 146.799 49.7736 146.01 49.7714C140.321 49.7714 137.475 46.6509 137.476 40.4098V28.4044Z" fill="#1C2B33"/>
<path d="M177.852 49.215H172.678V45.6741C171.759 47.0001 170.591 48.0227 169.172 48.7421C167.754 49.4612 166.142 49.8211 164.338 49.8216C162.113 49.8216 160.143 49.2514 158.425 48.1115C156.71 46.9715 155.359 45.4033 154.377 43.4064C153.394 41.4095 152.901 39.1258 152.901 36.5549C152.901 33.968 153.401 31.68 154.4 29.6911C155.399 27.7025 156.781 26.1422 158.547 25.0102C160.312 23.8787 162.339 23.3128 164.628 23.3125C166.352 23.3125 167.899 23.648 169.269 24.3192C170.622 24.975 171.792 25.9535 172.678 27.1688V23.919H177.852V49.215ZM172.582 32.7714C172.017 31.3323 171.127 30.1964 169.911 29.3636C168.693 28.531 167.286 28.1148 165.691 28.1148C163.435 28.1148 161.638 28.8746 160.3 30.3944C158.962 31.9143 158.293 33.9678 158.293 36.5549C158.293 39.1583 158.938 41.2198 160.227 42.7396C161.516 44.2594 163.265 45.0194 165.474 45.0193C167.101 45.0193 168.552 44.5988 169.825 43.758C171.099 42.9177 172.017 41.7858 172.582 40.3626V32.7714Z" fill="#1C2B33"/>
<path d="M6.94569 37.6804C6.94569 39.7333 7.3949 41.3095 7.98201 42.263C8.7518 43.5121 9.89993 44.0412 11.0705 44.0412C12.5802 44.0412 13.9613 43.6654 16.6229 39.9726C18.7552 37.0128 21.2678 32.8583 22.9583 30.2536L25.8211 25.8411C27.8099 22.7765 30.1118 19.3698 32.7511 17.0607C34.9058 15.176 37.23 14.1289 39.5692 14.1289C43.4964 14.1289 47.2372 16.4119 50.1001 20.6936C53.2333 25.3829 54.7542 31.2894 54.7542 37.3849C54.7542 41.0084 54.0422 43.671 52.8306 45.7744C51.6601 47.8087 49.3788 49.8411 45.5411 49.8411V44.0412C48.827 44.0412 49.6472 41.0122 49.6472 37.5456C49.6472 32.6058 48.4991 27.1237 45.9697 23.2066C44.1748 20.4281 41.8487 18.7304 39.2896 18.7304C36.5217 18.7304 34.2944 20.8245 31.7912 24.5584C30.4604 26.5422 29.0941 28.9598 27.5602 31.6877L25.8715 34.6887C22.4792 40.7225 21.6201 42.0967 19.9239 44.3647C16.951 48.336 14.4124 49.8411 11.0705 49.8411C7.10599 49.8411 4.59906 48.1192 3.04646 45.5239C1.77902 43.4092 1.15649 40.6345 1.15649 37.4728L6.94569 37.6804Z" fill="#0081FB"/>
<path d="M5.72119 21.1031C8.37534 16.999 12.2056 14.1289 16.5988 14.1289C19.1429 14.1289 21.6723 14.8843 24.3133 17.0476C27.2025 19.4128 30.2815 23.3075 34.123 29.7264L35.5004 32.0299C38.8256 37.5869 40.7173 40.4457 41.8246 41.7937C43.2485 43.5251 44.2457 44.0412 45.5411 44.0412C48.8271 44.0412 49.6472 41.0122 49.6472 37.5456L54.7543 37.3849C54.7543 41.0084 54.0422 43.671 52.8306 45.7744C51.6602 47.8087 49.3789 49.8411 45.5411 49.8411C43.1553 49.8411 41.0417 49.3214 38.7044 47.1095C36.9076 45.4118 34.807 42.3958 33.1911 39.6847L28.3841 31.6298C25.9722 27.5874 23.7598 24.5733 22.4793 23.2084C21.1019 21.7407 19.3312 19.9681 16.5056 19.9681C14.2186 19.9681 12.2764 21.578 10.6511 24.0405L5.72119 21.1031Z" fill="url(#paint0_linear_5024_32679)"/>
<path d="M16.5055 19.9681C14.2186 19.9681 12.2764 21.578 10.6511 24.0405C8.35292 27.5201 6.94569 32.703 6.94569 37.6804C6.94569 39.7333 7.3949 41.3095 7.98201 42.263L3.04646 45.5239C1.77902 43.4092 1.15649 40.6345 1.15649 37.4728C1.15649 31.7233 2.7296 25.7307 5.72114 21.1031C8.37528 16.999 12.2056 14.1289 16.5987 14.1289L16.5055 19.9681Z" fill="url(#paint1_linear_5024_32679)"/>
</g>
<defs>
<linearGradient id="paint0_linear_5024_32679" x1="12.5262" y1="36.0051" x2="49.4316" y2="37.8631" gradientUnits="userSpaceOnUse">
<stop stop-color="#0064E1"/>
<stop offset="0.4" stop-color="#0064E1"/>
<stop offset="0.83" stop-color="#0073EE"/>
<stop offset="1" stop-color="#0082FB"/>
</linearGradient>
<linearGradient id="paint1_linear_5024_32679" x1="9.54395" y1="40.1184" x2="9.54395" y2="26.4693" gradientUnits="userSpaceOnUse">
<stop stop-color="#0082FB"/>
<stop offset="1" stop-color="#0064E0"/>
</linearGradient>
</defs>
</svg>
