<svg width="194" height="64" viewBox="0 0 194 64" fill="none" xmlns="http://www.w3.org/2000/svg">
<path d="M135.215 48.7147H123.158C119.333 48.7147 116.672 48.0607 115.092 46.8345C113.595 45.5264 112.764 43.3191 112.764 40.0489V16.0137H135.215V21.7364H119.416V29.4212H130.475L129.976 35.1438H119.416V39.7219C119.416 41.03 119.749 41.9293 120.331 42.4198C120.913 42.9102 122.077 43.1555 123.657 43.1555H135.215V48.7147Z" fill="url(#paint0_linear_3317_20385)"/>
<path d="M1.58594 48.1422V15.9316H12.8948L18.7155 39.4764L24.5363 15.9316H35.8452V48.1422H29.1929V23.2076H28.4445L22.0417 46.7524H15.3894L8.98661 23.2076H8.23822V48.1422H1.58594Z" fill="url(#paint1_linear_3317_20385)"/>
<path d="M42.9961 48.1422V15.9316H49.6485V48.1422H42.9961Z" fill="url(#paint2_linear_3317_20385)"/>
<path d="M63.6182 40.621C64.616 42.2559 66.3622 43.0736 68.94 43.0736C71.5178 43.0736 73.3472 42.2559 74.2617 40.621C75.2597 38.9859 75.6754 36.1246 75.6754 32.2822C75.6754 28.358 75.1765 25.4967 74.2617 23.7799C73.264 21.8996 71.5178 21.0821 68.94 21.0821C66.3622 21.0821 64.616 21.9813 63.6182 23.6981C62.6203 25.4967 62.2045 28.2763 62.2045 32.2004C62.2045 36.1246 62.6203 38.9042 63.6182 40.621ZM79.4173 44.7904C77.4216 47.4064 73.846 48.7962 68.94 48.7962C64.0339 48.7962 60.4583 47.4064 58.3795 44.7904C56.3838 42.0925 55.3027 37.9231 55.3027 32.2004C55.3027 26.4777 56.3007 22.3084 58.3795 19.5288C60.4583 16.7492 63.9507 15.3594 68.94 15.3594C73.9292 15.3594 77.4216 16.7492 79.4173 19.5288C81.4962 22.3084 82.494 26.4777 82.494 32.2004C82.494 37.9231 81.4962 42.0925 79.4173 44.7904Z" fill="url(#paint3_linear_3317_20385)"/>
<path d="M84.9883 21.7361V15.9316H109.103V21.7361H100.455V48.2239H93.8026V21.7361H84.9883Z" fill="url(#paint4_linear_3317_20385)"/>
<path d="M160.577 47.6517C157.168 48.3874 154.09 48.7144 151.347 48.7144C148.602 48.7144 146.44 48.3874 144.777 47.7334C143.114 47.0794 141.867 46.0166 140.952 44.5451C140.038 43.0735 139.373 41.3567 139.04 39.3946C138.707 37.4326 138.541 34.9799 138.541 32.0369C138.541 25.8237 139.456 21.4908 141.202 19.0382C143.031 16.5857 146.274 15.3594 151.098 15.3594C153.841 15.3594 157.084 15.7681 160.66 16.6674L160.411 21.8178C157.251 21.3273 154.59 21.0821 152.427 21.0821C150.348 21.0821 148.853 21.3273 147.937 21.8996C147.023 22.4719 146.357 23.4529 145.942 25.0062C145.526 26.5595 145.277 29.1756 145.277 32.9362C145.277 36.6968 145.692 39.2312 146.606 40.7027C147.522 42.0925 149.268 42.8283 151.929 42.8283C154.59 42.8283 157.417 42.583 160.411 42.1742L160.577 47.6517Z" fill="url(#paint5_linear_3317_20385)"/>
<path d="M184.856 48.1422V34.8166H172.632V48.2239H165.98V15.9316H172.632V29.0938H184.856V15.9316H191.508V48.1422H184.856Z" fill="url(#paint6_linear_3317_20385)"/>
<defs>
<linearGradient id="paint0_linear_3317_20385" x1="144.714" y1="44.1744" x2="102.341" y2="15.623" gradientUnits="userSpaceOnUse">
<stop stop-color="#57DEBA"/>
<stop offset="1" stop-color="#19CEDA"/>
</linearGradient>
<linearGradient id="paint1_linear_3317_20385" x1="29.0015" y1="87.5983" x2="12.8015" y2="-2.83961" gradientUnits="userSpaceOnUse">
<stop stop-color="#57DEBA"/>
<stop offset="1" stop-color="#19CEDA"/>
</linearGradient>
<linearGradient id="paint2_linear_3317_20385" x1="55.7206" y1="82.8122" x2="39.5204" y2="-7.62578" gradientUnits="userSpaceOnUse">
<stop stop-color="#57DEBA"/>
<stop offset="1" stop-color="#19CEDA"/>
</linearGradient>
<linearGradient id="paint3_linear_3317_20385" x1="77.5913" y1="78.8944" x2="61.3913" y2="-11.5435" gradientUnits="userSpaceOnUse">
<stop stop-color="#57DEBA"/>
<stop offset="1" stop-color="#19CEDA"/>
</linearGradient>
<linearGradient id="paint4_linear_3317_20385" x1="107.183" y1="73.5936" x2="90.9827" y2="-16.8443" gradientUnits="userSpaceOnUse">
<stop stop-color="#57DEBA"/>
<stop offset="1" stop-color="#19CEDA"/>
</linearGradient>
<linearGradient id="paint5_linear_3317_20385" x1="156.607" y1="64.7406" x2="140.407" y2="-25.6975" gradientUnits="userSpaceOnUse">
<stop stop-color="#57DEBA"/>
<stop offset="1" stop-color="#19CEDA"/>
</linearGradient>
<linearGradient id="paint6_linear_3317_20385" x1="183.87" y1="59.8568" x2="167.669" y2="-30.5813" gradientUnits="userSpaceOnUse">
<stop stop-color="#57DEBA"/>
<stop offset="1" stop-color="#19CEDA"/>
</linearGradient>
</defs>
</svg>
