<svg xmlns="http://www.w3.org/2000/svg" fill="none" viewBox="0 0 191 41"><path fill="#e03c31" d="m38.755 27.27-2.046-2.048 2.046-2.046a4.16 4.16 0 0 0 0-5.875l-7.191-7.191V6.713c0-1.165-.854-2.158-1.985-2.307a2.298 2.298 0 0 0-1.811.549c-.25.22-.447.487-.579.783L22.835 1.4a4.035 4.035 0 0 0-5.696.002L1.216 17.301a4.16 4.16 0 0 0 0 5.875l2.049 2.048-.665.662-.598.599-.01.01-.776.775a4.156 4.156 0 0 0 0 5.875l5.797 5.797c.737.738 1.707 1.215 2.748 1.276a4.128 4.128 0 0 0 3.195-1.21l5.762-5.747a1.815 1.815 0 0 1 2.566.003l5.733 5.744a4.137 4.137 0 0 0 3.196 1.21c1.04-.064 2.01-.54 2.748-1.276l5.797-5.797a4.162 4.162 0 0 0-.003-5.875ZM2.989 21.403a1.651 1.651 0 0 1 0-2.334L18.703 3.353c.71-.71 1.856-.71 2.566 0L36.982 19.07c.644.644.644 1.69 0 2.334l-2.046 2.046-12.073-12.086a4.035 4.035 0 0 0-5.701-.005L5.038 23.453l-2.049-2.051Zm29.515 4.48-1.342 1.342a1.725 1.725 0 0 1-1.1.52c-.48.03-.938-.144-1.274-.48l-5.95-5.943a4.034 4.034 0 0 0-5.699 0l-5.95 5.943a1.64 1.64 0 0 1-1.168.483c-.44 0-.856-.172-1.167-.483l-2.043-2.043 11.917-11.907a1.812 1.812 0 0 1 2.566.003L33.17 25.219l-.666.665Zm4.48 5.492-5.822 5.822a1.726 1.726 0 0 1-1.1.52c-.48.03-.938-.144-1.274-.48l-5.953-5.94a4.03 4.03 0 0 0-5.696 0l-5.953 5.94c-.336.336-.793.51-1.273.48a1.726 1.726 0 0 1-1.102-.52L2.99 31.375a1.65 1.65 0 0 1 0-2.334l.776-.776 1.273-1.27 1.977 1.978c.738.737 1.708 1.215 2.749 1.275a4.128 4.128 0 0 0 3.195-1.21l5.759-5.751a1.815 1.815 0 0 1 2.566.003l5.733 5.748a4.137 4.137 0 0 0 3.196 1.21c1.04-.063 2.01-.54 2.748-1.275l.358-.359 1.622-1.622 2.046 2.051a1.655 1.655 0 0 1-.003 2.332Z"/><path fill="#0e2638" d="M148.525 22.019a.204.204 0 0 1-.204-.202v-2.412c0-.111.09-.205.204-.205h7.045c.482 0 .795.394.81.783l.003.816c-.134 4.776-3.064 8.12-7.775 8.12-4.781 0-8.256-3.826-8.256-8.61s3.548-8.709 8.332-8.709c3.754 0 5.734 2.362 5.845 2.458a.204.204 0 0 1 .008.288l-1.789 1.896a.204.204 0 0 1-.288.008c-.098-.101-1.457-1.69-3.776-1.69-3.119 0-5.269 2.63-5.269 5.749s2.168 5.673 5.219 5.673c2.432 0 4.167-1.29 4.589-3.407a.861.861 0 0 0 .02-.15.406.406 0 0 0-.406-.406h-4.312zm13.683 6.771c-2.279 0-3.991-1.669-3.991-4.652V17.17c0-.11.091-.202.202-.202h2.599c.111 0 .202.091.202.203v6.24c0 1.822.808 2.698 2.293 2.698 1.417 0 2.395-.942 2.395-2.697V17.17c0-.11.091-.202.202-.202h2.599c.111 0 .202.091.202.203v11.227a.203.203 0 0 1-.202.202h-2.387a.203.203 0 0 1-.202-.202v-2.071a.203.203 0 0 0-.202-.203c-.111 0-.179.071-.21.177-.277.97-1.159 2.49-3.5 2.49zM75.337 16.674a6.11 6.11 0 1 0 0 12.22 6.11 6.11 0 0 0 0-12.22zm0 9.371c-1.758 0-3.183-1.46-3.183-3.26s1.425-3.262 3.183-3.262 3.182 1.46 3.182 3.261-1.425 3.261-3.183 3.261zm-8.505-6.479c-.732 0-1.465.362-1.881 1.213-.29.593-.387 1.424-.387 2.536l.005 5.082c0 .11-.09.202-.202.202h-2.602a.203.203 0 0 1-.202-.202V17.169c0-.11.091-.202.203-.202h2.386c.112 0 .203.091.203.202v2.072c0 .11.09.202.202.202s.179-.079.21-.187c.204-.705.525-1.561 1.186-2.11a1.98 1.98 0 0 1 1.27-.431c.382 0 .794.093 1.213.36a.197.197 0 0 1 .089.17v2.544a.203.203 0 0 1-.202.202.216.216 0 0 1-.114-.036c-.346-.197-.793-.389-1.377-.389zm49.532 0c-.733 0-1.465.362-1.882 1.213-.291.593-.387 1.424-.387 2.536l.005 5.082c0 .11-.09.202-.202.202h-2.601a.203.203 0 0 1-.202-.202V17.169c0-.11.091-.202.202-.202h2.387c.111 0 .202.091.202.202v2.072c0 .11.091.202.202.202s.179-.079.209-.187c.205-.705.526-1.561 1.188-2.11a1.979 1.979 0 0 1 1.27-.431c.382 0 .793.093 1.213.36a.198.198 0 0 1 .088.17v2.544a.203.203 0 0 1-.202.202.217.217 0 0 1-.114-.036c-.346-.197-.793-.389-1.376-.389zm60.416 0c-.733 0-1.465.362-1.882 1.213-.291.593-.387 1.424-.387 2.536l.005 5.082c0 .11-.09.202-.202.202h-2.601a.203.203 0 0 1-.202-.202V17.169c0-.11.091-.202.202-.202h2.387c.111 0 .202.091.202.202v2.072c0 .11.091.202.202.202s.179-.079.209-.187c.205-.705.526-1.561 1.188-2.11a1.979 1.979 0 0 1 1.27-.431c.382 0 .793.093 1.213.36a.198.198 0 0 1 .088.17v2.544a.203.203 0 0 1-.202.202.217.217 0 0 1-.114-.036c-.348-.197-.795-.389-1.376-.389zm7.297 9.224c-2.279 0-3.991-1.669-3.991-4.652V17.17c0-.11.091-.202.202-.202h2.599c.111 0 .202.091.202.203v6.24c0 1.822.808 2.698 2.294 2.698 1.417 0 2.394-.942 2.394-2.697V17.17c0-.11.091-.202.202-.202h2.599c.111 0 .202.091.202.203v11.227a.203.203 0 0 1-.202.202h-2.387a.203.203 0 0 1-.202-.202v-2.071a.203.203 0 0 0-.202-.203c-.111 0-.179.071-.209.177-.278.97-1.16 2.49-3.501 2.49zm-45.506-11.825h-2.723a.206.206 0 0 0-.192.134l-1.644 4.677c-.288.824-.778 2.206-1.043 3.234a.206.206 0 0 1-.2.154.202.202 0 0 1-.197-.152c-.278-1.028-.788-2.412-1.091-3.246l-1.705-4.67a.2.2 0 0 0-.189-.131h-2.726a.203.203 0 0 0-.187.28l4.511 11.354-1.765 4.415a.203.203 0 0 0 .187.278h2.639a.205.205 0 0 0 .19-.129l6.324-15.92a.168.168 0 0 0 .016-.074.204.204 0 0 0-.205-.204zm-84.797-5.1h-5.193a.813.813 0 0 0-.813.814v15.718c0 .113.09.202.204.202h2.6c.11 0 .204-.091.204-.202v-3.908c0-.224.182-.406.406-.406h2.594c3.476 0 6.211-2.736 6.211-6.11s-2.735-6.108-6.213-6.108zm-.263 9.475H51.18a.406.406 0 0 1-.407-.407v-5.918c0-.225.182-.407.407-.407h2.331c1.96 0 3.468 1.506 3.468 3.365s-1.505 3.367-3.468 3.367zm69.171-1.594c0-.111.09-.202.202-.202h2.409a.203.203 0 0 0 .202-.202v-2.17a.203.203 0 0 0-.202-.202h-2.687a.203.203 0 0 1-.202-.202v-2.7a.203.203 0 0 0-.202-.202h-2.324a.203.203 0 0 0-.202.202v11.01c0 2.839 1.381 3.821 3.182 3.821 1.145 0 1.827-.348 2.109-.485a.218.218 0 0 0 .132-.212l-.005-1.763c0-.139-.129-.25-.296-.187-.366.137-.674.225-1.048.225-.538 0-1.068-.253-1.068-1.245v-5.486zm-32.41 9.095c2.998 0 5.456-2.616 5.456-6.06s-2.458-6.059-5.456-6.059c-2.523 0-3.554 1.698-3.794 2.188a.203.203 0 0 1-.189.121.203.203 0 0 1-.202-.202v-1.665a.203.203 0 0 0-.202-.202h-2.387a.203.203 0 0 0-.202.202v15.92c0 .112.09.203.202.203H86.1c.11 0 .202-.091.202-.202v-.78c0-3.85-.218-5.378-.218-5.583a.203.203 0 0 1 .387-.086c.495.983 1.695 2.205 3.801 2.205zm-.735-2.796c-1.758 0-3.182-1.46-3.182-3.26s1.424-3.261 3.182-3.261 3.183 1.46 3.183 3.26-1.425 3.261-3.183 3.261zm13.718-9.371c-3.375 0-5.858 2.736-5.858 6.11s2.577 6.11 6.085 6.11c1.9 0 3.349-.661 4.319-1.44a.206.206 0 0 0 .041-.28l-1.079-1.49a.202.202 0 0 0-.283-.046c-.48.311-1.179.864-2.768.864-1.341 0-2.536-.783-3.099-2.018-.053-.119-.131-.288-.131-.366 0-.111.09-.202.202-.202h7.474c.325 0 .8-.222.828-.796.179-3.6-1.824-6.446-5.731-6.446zm2.574 5.166h-5.244a.203.203 0 0 1-.202-.202c0-.05.048-.223.093-.362.427-1.32 1.498-2.099 2.933-2.099 1.21 0 2.114.604 2.584 1.529.134.265.245.606.245.724a.411.411 0 0 1-.409.41z"/></svg>