<svg width="136" height="64" viewBox="0 0 136 64" fill="none" xmlns="http://www.w3.org/2000/svg">
<path d="M29.2047 48.1202V35.1235C29.2047 29.8211 32.3263 25.5983 38.5703 25.5983C39.5724 25.5837 40.5725 25.6939 41.5472 25.9264V31.2731C40.8377 31.2263 40.2241 31.2263 39.9396 31.2263C36.6319 31.2263 35.2097 32.7274 35.2097 35.7774V48.1202H29.2047ZM43.3449 37.0972C43.3449 30.575 48.3113 25.6016 55.2176 25.6016C62.1239 25.6016 67.0887 30.5717 67.0887 37.0972C67.0887 43.6226 62.1224 48.6361 55.2169 48.6361C48.3113 48.6361 43.3449 43.6159 43.3449 37.0972ZM61.1771 37.0972C61.1771 33.3901 58.6699 30.7629 55.2176 30.7629C51.7653 30.7629 49.2572 33.3878 49.2572 37.0972C49.2572 40.8508 51.7644 43.4315 55.2176 43.4315C58.6709 43.4315 61.1764 40.8476 61.1764 37.0972H61.1771ZM84.4944 30.8062H78.0146V39.0174C78.0146 41.8795 79.0548 43.1936 82.0352 43.1936C82.3187 43.1936 83.0275 43.1936 83.9271 43.1468V47.98C82.6975 48.3081 81.6117 48.496 80.4268 48.496C75.4132 48.496 72.0071 45.4928 72.0071 39.8155V30.8064H67.9867V26.0673H68.989C69.7894 26.0672 70.5573 25.7515 71.1243 25.1893C71.4046 24.9114 71.6269 24.5811 71.7784 24.2174C71.9299 23.8537 72.0077 23.4637 72.0071 23.07V18.6066H78.0146V26.0673H84.4944V30.8062ZM86.2912 37.0972C86.2912 30.575 91.2576 25.6016 98.1639 25.6016C105.07 25.6016 110.036 30.5717 110.036 37.0972C110.036 43.6226 105.069 48.6394 98.1639 48.6394C91.2586 48.6394 86.2912 43.6159 86.2912 37.0972ZM104.123 37.0972C104.123 33.3901 101.615 30.7629 98.1631 30.7629C94.7108 30.7629 92.2029 33.3876 92.2029 37.0972C92.2029 40.8508 94.7101 43.4315 98.1631 43.4315C101.616 43.4315 104.123 40.8474 104.123 37.0972ZM113.157 48.1202V35.5927C113.157 29.7743 116.894 25.5983 123.563 25.5983C130.185 25.5983 133.922 29.7745 133.922 35.5927V48.1202H127.963V36.0619C127.963 32.8251 126.496 30.8072 123.563 30.8072C120.631 30.8072 119.164 32.8249 119.164 36.0619V48.1202H113.157ZM2.08203 39.5884V48.1194H8.11834V39.9576C8.11834 39.1634 8.4365 38.402 9.00248 37.8404C9.56928 37.2785 10.3367 36.9632 11.1367 36.9635H17.3261C20.2116 36.9633 22.9795 35.8253 25.0238 33.7986C26.034 32.7971 26.8357 31.6069 27.3828 30.2965C27.93 28.986 28.2119 27.5809 28.2124 26.1618C28.2121 24.7425 27.9302 23.3372 27.3829 22.0265C26.8357 20.7158 26.0339 19.5255 25.0235 18.5239C22.9788 16.4969 20.2104 15.359 17.3245 15.3594H2.08203V26.0232H8.11834V20.9956H16.9177C18.283 20.9953 19.5928 21.5335 20.5603 22.4922C21.0385 22.9659 21.4179 23.5289 21.677 24.1489C21.9361 24.7689 22.0697 25.4337 22.0701 26.1051C22.0699 26.7768 21.9365 27.4418 21.6775 28.062C21.4185 28.6822 21.0391 29.2454 20.5609 29.7194C19.5933 30.6785 18.2832 31.2168 16.9175 31.2164H10.5208C9.41267 31.2158 8.31519 31.432 7.29076 31.8526C6.26714 32.2728 5.33664 32.8895 4.55235 33.6674C3.76903 34.4444 3.14748 35.3675 2.72331 36.384C2.29943 37.3997 2.08149 38.4887 2.08203 39.5884Z" fill="#6D4AFF"/>
</svg>
