<svg width="141" height="64" viewBox="0 0 141 64" fill="none" xmlns="http://www.w3.org/2000/svg">
<path d="M29.3014 49.4384V35.3794C29.3014 29.6437 32.6162 25.0757 39.2467 25.0757C40.3108 25.0599 41.3728 25.1791 42.4078 25.4306V31.2143C41.6544 31.1637 41.0028 31.1637 40.7007 31.1637C37.1883 31.1637 35.6781 32.7875 35.6781 36.0868V49.4384H29.3014ZM44.3168 37.5144C44.3168 30.4592 49.5906 25.0793 56.9243 25.0793C64.2581 25.0793 69.5302 30.4556 69.5302 37.5144C69.5302 44.5732 64.2565 49.9964 56.9236 49.9964C49.5906 49.9964 44.3168 44.5659 44.3168 37.5144ZM63.2527 37.5144C63.2527 33.5044 60.5903 30.6624 56.9243 30.6624C53.2583 30.6624 50.595 33.5019 50.595 37.5144C50.595 41.5748 53.2574 44.3665 56.9243 44.3665C60.5914 44.3665 63.2527 41.5714 63.2527 37.5144ZM88.0132 30.7093H81.1323V39.5916C81.1323 42.6876 82.2369 44.1091 85.4017 44.1091C85.7028 44.1091 86.4555 44.1091 87.4107 44.0585V49.2867C86.105 49.6416 84.952 49.8449 83.6938 49.8449C78.3699 49.8449 74.753 46.5962 74.753 40.4549V30.7095H70.4837V25.5831H71.5481C72.398 25.583 73.2134 25.2415 73.8155 24.6333C74.1132 24.3327 74.3492 23.9754 74.5101 23.582C74.671 23.1885 74.7536 22.7667 74.753 22.3408V17.5126H81.1323V25.5831H88.0132V30.7093ZM89.9212 37.5144C89.9212 30.4592 95.195 25.0793 102.529 25.0793C109.862 25.0793 115.136 30.4556 115.136 37.5144C115.136 44.5732 109.861 50 102.529 50C95.196 50 89.9212 44.5659 89.9212 37.5144ZM108.857 37.5144C108.857 33.5044 106.193 30.6624 102.528 30.6624C98.8619 30.6624 96.1988 33.5017 96.1988 37.5144C96.1988 41.5748 98.8611 44.3665 102.528 44.3665C106.194 44.3665 108.857 41.5712 108.857 37.5144ZM118.45 49.4384V35.887C118.45 29.593 122.418 25.0757 129.5 25.0757C136.532 25.0757 140.5 29.5933 140.5 35.887V49.4384H134.172V36.3945C134.172 32.8932 132.614 30.7104 129.5 30.7104C126.386 30.7104 124.829 32.893 124.829 36.3945V49.4384H118.45ZM0.500001 40.2093V49.4375H6.90992V40.6086C6.90992 39.7495 7.24777 38.9259 7.84878 38.3184C8.45066 37.7106 9.26558 37.3695 10.1151 37.3698H16.6876C19.7517 37.3696 22.6909 36.1386 24.8617 33.9462C25.9344 32.8629 26.7858 31.5754 27.3667 30.1579C27.9478 28.7403 28.2471 27.2204 28.2477 25.6853C28.2474 24.15 27.948 22.6298 27.3668 21.212C26.7858 19.7942 25.9343 18.5066 24.8614 17.4231C22.6901 15.2305 19.7504 13.9996 16.6859 14H0.500001V25.5354H6.90992V20.0969H16.2539C17.7037 20.0965 19.0946 20.6787 20.122 21.7158C20.6298 22.2282 21.0326 22.8372 21.3078 23.5079C21.5829 24.1785 21.7248 24.8977 21.7252 25.624C21.725 26.3506 21.5833 27.0699 21.3083 27.7408C21.0333 28.4117 20.6304 29.0209 20.1226 29.5337C19.0951 30.5711 17.7039 31.1534 16.2537 31.153H9.46107C8.28436 31.1524 7.11895 31.3862 6.03112 31.8412C4.94414 32.2957 3.95605 32.9628 3.12322 33.8043C2.29142 34.6448 1.6314 35.6434 1.18097 36.743C0.730857 37.8417 0.499428 39.0197 0.500001 40.2093Z" fill="#6D4AFF"/>
</svg>
