<svg width="210" height="64" viewBox="0 0 210 64" fill="none" xmlns="http://www.w3.org/2000/svg">
<path d="M45.3099 35.6656C49.4803 35.6656 55.5141 34.8055 55.5141 29.8451C55.5266 29.4623 55.4919 29.0794 55.4108 28.705L52.9272 17.9175C52.3538 15.5439 51.8505 14.4672 47.6835 12.3837C44.4499 10.7302 37.406 8 35.3225 8C33.3823 8 32.8189 10.5002 30.5054 10.5002C28.2785 10.5002 26.6251 8.63338 24.5416 8.63338C22.5414 8.63338 21.238 9.99683 20.2312 12.8004C20.2312 12.8004 17.4277 20.7077 17.0676 21.8545C17.0104 22.065 16.9857 22.2831 16.9943 22.5012C16.9943 25.5748 29.0953 35.6522 45.3099 35.6522M56.1541 31.8586C56.7309 34.5888 56.7309 34.8755 56.7309 35.2355C56.7309 39.9026 51.4838 42.4928 44.5865 42.4928C28.9986 42.5028 15.3442 33.3687 15.3442 27.3316C15.3433 26.4912 15.5146 25.6596 15.8475 24.888C10.2404 25.1681 2.98315 26.1681 2.98315 32.5753C2.98315 43.0695 27.8485 56.0039 47.5368 56.0039C62.6313 56.0039 66.4383 49.1767 66.4383 43.7862C66.4383 39.5459 62.7713 34.7322 56.1608 31.8586" fill="#EE0000"/>
<path d="M56.1542 31.858C56.7309 34.5882 56.7309 34.8749 56.7309 35.2349C56.7309 39.902 51.4838 42.4922 44.5866 42.4922C28.9987 42.5022 15.3442 33.3681 15.3442 27.331C15.3433 26.4906 15.5147 25.659 15.8476 24.8874L17.0677 21.8672C17.0118 22.0735 16.9871 22.287 16.9944 22.5006C16.9944 25.5742 29.0954 35.6516 45.31 35.6516C49.4803 35.6516 55.5142 34.7916 55.5142 29.8312C55.5266 29.4483 55.4919 29.0654 55.4108 28.6911L56.1542 31.858Z" fill="black"/>
<path d="M196.079 38.7662C196.079 42.7298 198.462 44.6566 202.809 44.6566C204.148 44.6233 205.478 44.4354 206.773 44.0966V39.4996C205.945 39.7619 205.081 39.8924 204.213 39.8863C202.423 39.8863 201.759 39.3262 201.759 37.6427V30.5988H206.946V25.8651H201.759V19.8646L196.092 21.0914V25.8651H192.328V30.5988H196.079V38.7662ZM178.411 38.8728C178.411 37.6461 179.641 37.0494 181.497 37.0494C182.632 37.056 183.763 37.197 184.864 37.4694V39.8529C183.779 40.446 182.558 40.748 181.321 40.7297C179.501 40.7297 178.411 40.0296 178.411 38.8728ZM180.144 44.7267C182.144 44.7267 183.758 44.3066 185.264 43.2899V44.4133H190.872V32.5257C190.872 28.0053 187.825 25.5251 182.741 25.5251C179.901 25.5251 177.094 26.1918 174.074 27.5586L176.107 31.7323C178.281 30.8189 180.107 30.2588 181.717 30.2588C184.051 30.2588 185.258 31.1689 185.258 33.029V33.9391C183.884 33.5835 182.47 33.4064 181.051 33.4124C176.28 33.4124 173.407 35.4126 173.407 38.9895C173.407 42.2498 176 44.7367 180.137 44.7367M149.322 44.4233H155.352V34.8058H165.45V44.4133H171.497V19.8713H165.473V29.3021H155.375V19.8713H149.345L149.322 44.4233ZM126.366 35.1225C126.366 32.4557 128.47 30.4222 131.24 30.4222C132.681 30.3929 134.081 30.907 135.16 31.8623V38.3461C134.637 38.8403 134.022 39.2261 133.349 39.4813C132.676 39.7365 131.959 39.856 131.24 39.8329C128.507 39.8329 126.366 37.7994 126.366 35.1359M135.237 44.4266H140.848V18.6445L135.18 19.8713V26.8485C133.738 26.0307 132.105 25.6075 130.447 25.6218C125.05 25.6218 120.806 29.7921 120.806 35.1225C120.79 36.3733 121.024 37.6145 121.494 38.7739C121.963 39.9333 122.659 40.9875 123.54 41.8751C124.421 42.7626 125.471 43.4657 126.627 43.9433C127.783 44.4209 129.023 44.6634 130.273 44.6566C132.062 44.6652 133.806 44.1009 135.25 43.0465L135.237 44.4266ZM109.492 30.1655C111.278 30.1655 112.785 31.3222 113.382 33.109H105.648C106.208 31.2656 107.611 30.1655 109.492 30.1655ZM99.9342 35.1659C99.9342 40.5663 104.351 44.7733 110.028 44.7733C113.149 44.7733 115.429 43.9299 117.779 41.9664L114.025 38.6328C113.149 39.5462 111.852 40.0363 110.312 40.0363C109.343 40.0635 108.389 39.7969 107.575 39.2715C106.761 38.7461 106.125 37.9865 105.751 37.0927H118.969V35.6826C118.969 29.7921 115.009 25.5518 109.608 25.5518C108.339 25.5326 107.078 25.7675 105.901 26.2425C104.723 26.7176 103.653 27.4233 102.752 28.3181C101.852 29.2129 101.139 30.2788 100.656 31.4531C100.173 32.6273 99.9301 33.8863 99.9409 35.1559M90.1567 25.0251C92.1569 25.0251 93.277 26.2852 93.277 27.7953C93.277 29.3054 92.1569 30.5655 90.1567 30.5655H84.1929V25.0251H90.1567ZM78.1558 44.4133H84.1863V35.4726H88.7766L93.407 44.4133H100.158L94.7571 34.5958C96.1296 34.0377 97.3036 33.0816 98.1282 31.8507C98.9528 30.6197 99.3902 29.1702 99.3841 27.6886C99.3841 23.2716 95.9139 19.8713 90.7168 19.8713H78.1558V44.4133Z" fill="black"/>
</svg>
