<svg width="119" height="64" viewBox="0 0 119 64" fill="none" xmlns="http://www.w3.org/2000/svg">
<path d="M115.481 42.2375L112.711 18.7661C111.967 12.4468 106.683 7.67969 100.421 7.67969H73.9679C67.7061 7.67969 62.422 12.4468 61.6769 18.7661L58.9102 42.2375C58.4893 45.8076 59.593 49.3981 61.9417 52.0873C64.2876 54.7785 67.6632 56.3197 71.2011 56.3197H103.19C106.725 56.3197 110.101 54.7785 112.45 52.0873C114.795 49.3988 115.902 45.8083 115.481 42.2375ZM107.894 48.0083C106.637 49.4482 104.902 50.2402 103.012 50.2402H71.3805C69.4869 50.2402 67.7516 49.4482 66.4979 48.0083C65.2407 46.5687 64.6752 44.7245 64.8993 42.8134L67.635 19.6051C68.0278 16.2749 70.814 13.7593 74.1161 13.7593H100.273C103.574 13.7593 106.362 16.2741 106.754 19.6051L109.493 42.8134C109.717 44.7245 109.148 46.5687 107.894 48.0083Z" fill="#004956"/>
<path d="M102.918 35.3503C102.476 34.6984 101.796 34.2511 101.004 34.0909C100.211 33.9305 99.4024 34.0767 98.7241 34.5013C90.6339 39.574 82.7606 39.5733 74.6551 34.5006C73.9768 34.076 73.1665 33.9298 72.3751 34.0917C71.583 34.2525 70.9043 34.7005 70.4626 35.3524C70.021 36.0045 69.8697 36.7829 70.0373 37.5445C70.2046 38.306 70.6706 38.9586 71.3486 39.3833C76.4139 42.5536 81.5777 44.1607 86.6965 44.1607C91.8163 44.1607 96.9762 42.5529 102.034 39.3818C102.712 38.9565 103.177 38.3032 103.344 37.5417C103.512 36.7808 103.36 36.0024 102.918 35.3503Z" fill="#004956"/>
<path d="M48.827 22.3139L45.9244 23.2896C46.2412 24.2892 46.6314 25.7166 46.6314 26.549C46.6314 27.4531 46.046 28.0003 44.9241 28.0003C43.7779 28.0003 43.0952 27.7383 43.0952 26.2631V23.7174H40.0222V26.2631C40.0222 27.7383 39.3394 28.0003 38.1196 28.0003C36.9243 28.0003 36.2418 27.7383 36.2418 26.2631V23.7174H33.1442V26.2392C33.1442 27.7383 32.3146 27.9996 30.5346 27.9996C28.7057 27.9996 28.0713 27.6428 28.0713 25.6913V14.7715H24.8275V25.8592C24.8275 27.6674 24.1931 28.0003 22.3649 28.0003H22.3642C20.9248 28.0003 20.0723 27.7159 20.0723 25.9309V17.745H17.0228V19.4359C11.2422 20.5998 9.16992 22.9559 9.16992 25.907C9.16992 28.7133 11.0716 30.5229 13.8517 30.5229C15.9262 30.5229 16.9731 29.4994 17.4376 28.119C17.8523 30.57 19.3133 31.996 22.1646 31.9974L22.169 31.9982C24.34 31.9982 25.559 31.0462 26.071 29.5949C26.7054 31.2127 28.144 31.9982 30.3389 31.9982C32.3627 31.9982 33.6798 31.2844 34.1916 29.8092C34.7037 31.3083 35.9235 31.9982 37.6552 31.9982C39.3871 31.9982 40.5823 31.2844 41.0696 29.7853C41.5816 31.2844 42.826 31.9982 44.8256 31.9982C47.8498 31.9982 49.7033 30.0705 49.7033 26.5729C49.7047 25.2881 49.3388 23.527 48.827 22.3139ZM17.0236 25.8346C16.5368 26.2154 15.6087 26.502 14.2427 26.502C12.9984 26.502 11.7556 26.1698 11.7556 25.3598C11.7556 24.4781 13.0474 23.5987 17.0228 22.9559V25.8346H17.0236Z" fill="#004956"/>
<path d="M18.8038 16.7998C19.6329 16.7998 20.3154 16.1677 20.3154 15.2798C20.3154 14.3409 19.6 13.7598 18.8038 13.7598C17.9746 13.7598 17.2754 14.3572 17.2754 15.2798C17.2754 16.2193 18.0231 16.7998 18.8038 16.7998Z" fill="#004956"/>
<path d="M14.7491 16.7998C15.5782 16.7998 16.2607 16.1677 16.2607 15.2798C16.2607 14.3409 15.5453 13.7598 14.7491 13.7598C13.92 13.7598 13.2207 14.3572 13.2207 15.2798C13.2207 16.2193 13.9684 16.7998 14.7491 16.7998Z" fill="#004956"/>
<path d="M2.66211 49.215L3.11437 46.7529C3.99862 47.3833 5.57139 47.9542 6.88764 47.9542C8.02773 47.9542 8.69599 47.5802 8.69599 46.9498C8.69599 45.2363 2.76067 46.8315 2.76067 42.6761C2.76067 40.5096 4.54944 39.0918 7.43845 39.0918C8.99096 39.0918 10.426 39.5254 11.448 40.057L10.9566 42.4598C9.99334 41.9476 8.77498 41.4749 7.59574 41.4749C6.51506 41.4749 5.84681 41.888 5.84681 42.4793C5.84681 44.2718 11.7821 42.7357 11.7821 46.615C11.7821 48.7423 9.75778 50.2385 6.7702 50.2385C4.98143 50.2392 3.54636 49.7075 2.66211 49.215Z" fill="#004956"/>
<path d="M22.5225 39.4093H25.9683V49.9802H22.5225V48.2351C21.5846 49.5041 20.2543 50.2385 18.5314 50.2385C15.6085 50.2385 12.7949 48.3545 12.7949 44.685C12.7949 41.0155 15.4774 39.0918 18.5314 39.0918C20.2325 39.0918 21.5629 39.6666 22.5225 40.8173V39.4093ZM22.5225 44.6455C21.8903 42.6817 20.6251 41.6905 19.1853 41.6905C17.637 41.6905 16.4369 42.7414 16.4369 44.6455C16.4369 46.5295 17.6579 47.6405 19.2071 47.6405C20.7127 47.6398 21.9554 46.4301 22.5225 44.6455Z" fill="#004956"/>
<path d="M27.7812 50.4V36H30.9812V50.4H27.7812Z" fill="#004956"/>
<path d="M32.5801 50.4V36H35.7801V50.4H32.5801Z" fill="#004956"/>
<path d="M46.5203 39.4093H49.701V49.9802H46.5203V48.2351C45.6547 49.5041 44.4265 50.2385 42.8361 50.2385C40.1382 50.2385 37.541 48.3545 37.541 44.685C37.541 41.0155 40.0171 39.0918 42.8361 39.0918C44.4066 39.0918 45.6346 39.6666 46.5203 40.8173V39.4093ZM46.5203 44.6455C45.9368 42.6817 44.769 41.6905 43.4398 41.6905C42.0106 41.6905 40.9028 42.7414 40.9028 44.6455C40.9028 46.5295 42.0301 47.6405 43.46 47.6405C44.8491 47.6398 45.997 46.4301 46.5203 44.6455Z" fill="#004956"/>
</svg>
