<svg width="3840" height="2160" viewBox="0 0 3840 2160" fill="none" xmlns="http://www.w3.org/2000/svg">
<path d="M2686.27 472.88C2439.9 472.88 2240.25 665.411 2240.25 903.132C2240.25 1140.85 2439.9 1333.66 2686.27 1333.66C2932.63 1333.66 3132.29 1140.85 3132.29 903.132C3132.29 665.411 2932.63 472.88 2686.27 472.88ZM2663.02 610.666C2822.27 610.666 2951.33 733.534 2951.33 885.141C2951.33 1036.75 2822.27 1159.61 2663.02 1159.61C2503.78 1159.61 2374.72 1036.75 2374.72 885.141C2374.72 733.533 2503.78 610.666 2663.02 610.666Z" fill="#5C5C5C"/>
<path d="M2984.82 0.021647C2970.62 -0.404766 2959.17 5.50963 2946.64 14.1332C2931.3 24.6951 2918.02 41.8117 2910.12 58.6794C2869.75 144.895 2831.58 227.977 2793.08 310.744C2783.61 331.09 2772.71 353.842 2756.28 369.126C2745.98 378.701 2735.77 387.341 2722.25 383.513C2708.25 379.553 2703.58 372.875 2698.73 359.165C2692.55 341.719 2692.92 307.569 2690.98 289.163C2687.18 253.192 2691.92 216.227 2682.68 181.251C2678.34 164.823 2663.62 128.281 2640.9 127.02C2606.15 125.091 2581.07 178.139 2566.19 207.813C2531.41 277.182 2520.05 354.816 2520.82 467.341C2520.9 479.335 2521.78 503.311 2521.78 503.311C2521.78 503.311 2571.24 486.684 2596.35 481.729C2610.87 478.865 2625.63 476.557 2640.62 475.089C2655.62 473.62 2670.88 472.875 2686.27 472.875C2701.67 472.875 2716.93 473.62 2731.93 475.089C2746.92 476.557 2761.68 478.865 2776.2 481.729C2805.23 487.458 2833.35 495.749 2860.03 506.631C2886.72 517.513 2911.84 530.738 2935.57 546.198C2959.3 561.658 2981.52 579.307 3001.7 598.768C3021.88 618.23 3040.18 639.518 3056.21 662.407C3072.24 685.295 3085.87 709.99 3097.16 735.728C3108.44 761.468 3117.22 788.506 3123.16 816.521C3126.13 830.528 3128.56 844.663 3130.08 859.131C3131.6 873.599 3132.29 888.267 3132.29 903.125C3132.29 917.982 3131.6 932.648 3130.08 947.119C3128.56 961.589 3126.13 975.994 3123.16 990.006C3117.22 1018.03 3108.44 1045.05 3097.16 1070.8C3092.63 1081.12 3088.08 1090.51 3082.77 1100.4C3083.58 1100.57 3087.21 1101.35 3088.02 1101.51C3138.61 1111.7 3187.3 1116.53 3238.82 1113.69C3318.84 1109.26 3402.38 1103.9 3472.9 1065.82C3496.68 1052.98 3528.02 1033.9 3528.79 1006.89C3529.49 982.318 3504.7 964.016 3483.69 951.271C3462.54 938.442 3431.26 936.787 3406.77 933.287C3370.33 928.078 3339.03 932.765 3300.25 928.307C3268.67 924.676 3221.78 918.375 3215.03 885.697C3208.59 854.556 3247.05 827.658 3269.81 805.457C3315.74 760.668 3373.57 730.108 3423.93 690.355C3482.03 644.485 3537.81 602.903 3590.49 550.905C3607.23 534.376 3623.4 521.612 3635.86 501.654C3644.74 487.444 3655.4 465.211 3653.85 448.53C3652.82 437.433 3646.74 429.058 3637.52 422.799C3622.55 412.634 3606.37 413.819 3588.27 413.945C3569.58 414.075 3553.9 418.543 3536.26 424.736C3487.68 441.787 3441.9 466.221 3395.7 488.927C3361.56 505.707 3331.42 532.074 3294.71 542.051C3272.66 548.045 3240.75 562.851 3226.37 545.095C3212.37 527.813 3234.4 501.148 3242.97 480.627C3260.58 438.48 3289.12 401.542 3313.25 362.763C3340.29 319.298 3372.04 278.902 3396.81 234.105C3408.98 212.094 3424.29 190.262 3428.63 165.487C3431.74 147.69 3432.28 127.553 3423.92 111.532C3419.13 102.336 3410.22 93.9994 3400.13 91.6106C3381.87 87.2892 3361.66 95.3457 3344.51 102.954C3319.31 114.136 3285.28 138.662 3266.21 158.568C3201.37 226.241 3148.98 285.756 3087.47 348.655C3066.41 370.183 3038.13 408.597 3010.55 396.521C2991.45 388.161 2995.4 356.604 2997.82 336.203C3005.15 274.255 3018.36 210.645 3025.49 147.507C3028.85 117.734 3035.23 85.3234 3032.68 57.86C3031.28 42.7091 3029.59 28.2142 3020.78 15.8035C3014.53 6.98147 3001.87 2.2374 2991.18 0.585239C2988.97 0.31607 2986.75 0.154933 2984.71 0.0947261L2984.82 0.021647ZM2663.07 610.674C2643.16 610.674 2623.73 612.552 2604.96 616.207C2586.2 619.863 2567.7 624.758 2550.46 631.702C2550.07 631.858 2549.88 632.508 2549.49 632.666C2549.69 633.176 2549.99 633.963 2550.18 634.469C2582.36 719.09 2620.82 805.298 2679.67 874.634C2738.88 944.387 2815.18 999.909 2896.9 1042.42C2897.34 1042.64 2898.37 1043.19 2898.81 1043.41C2899.98 1041.83 2900.99 1040.31 2902.13 1038.71C2912.49 1024.11 2921.4 1008.37 2928.69 991.95C2935.98 975.531 2941.73 958.354 2945.57 940.486C2949.41 922.618 2951.38 904.099 2951.38 885.149C2951.38 866.198 2949.41 847.679 2945.57 829.811C2941.73 811.943 2935.98 794.766 2928.69 778.347C2921.4 761.928 2912.49 746.189 2902.13 731.587C2891.77 716.985 2880.03 703.608 2866.99 691.191C2853.95 678.774 2839.72 667.299 2824.38 657.435C2809.04 647.571 2792.65 639.2 2775.41 632.256C2758.16 625.312 2739.94 619.864 2721.17 616.208C2702.4 612.552 2682.98 610.674 2663.07 610.674Z" fill="#D51100"/>
<path d="M3082.75 1100.41C3088.07 1090.52 3092.62 1081.09 3097.14 1070.76C3108.42 1045.01 3117.21 1017.99 3123.15 989.97C3126.12 975.958 3128.54 961.554 3130.07 947.083C3131.59 932.613 3132.28 917.947 3132.28 903.089C3132.28 888.232 3131.59 873.565 3130.07 859.095C3128.54 844.627 3126.12 830.493 3123.15 816.486C3117.21 788.471 3108.42 761.432 3097.14 735.693C3085.86 709.953 3072.22 685.259 3056.19 662.371C3040.16 639.482 3021.86 618.195 3001.68 598.733C2981.51 579.271 2959.28 561.622 2935.55 546.162C2911.83 530.702 2886.7 517.478 2860.02 506.595C2833.34 495.713 2805.22 487.422 2776.18 481.693C2761.66 478.829 2746.91 476.521 2731.91 475.053C2716.92 473.585 2701.66 472.839 2686.26 472.839C2670.86 472.839 2655.6 473.585 2640.61 475.053C2625.61 476.521 2610.85 478.829 2596.34 481.693C2571.22 486.648 2545.15 494.16 2521.77 502.998C2524.6 538.105 2534.45 592.149 2549.54 632.665C2549.93 632.507 2550.29 632.371 2550.68 632.215C2567.93 625.271 2586.14 619.823 2604.91 616.167C2623.68 612.511 2643.11 610.633 2663.02 610.633C2682.92 610.633 2702.35 612.511 2721.12 616.167C2739.89 619.823 2758.11 625.271 2775.35 632.215C2792.6 639.159 2808.99 647.529 2824.33 657.394C2839.66 667.258 2853.89 678.733 2866.94 691.15C2879.98 703.567 2891.71 716.944 2902.08 731.547C2912.44 746.149 2921.34 761.887 2928.64 778.306C2935.93 794.725 2941.68 811.902 2945.52 829.77C2949.36 847.639 2951.33 866.158 2951.33 885.108C2951.33 904.058 2949.36 922.577 2945.52 940.445C2941.68 958.313 2935.93 975.49 2928.64 991.909C2921.34 1008.33 2912.44 1024.07 2902.08 1038.67C2900.94 1040.27 2899.82 1041.76 2898.65 1043.34C2959.43 1071.32 3025.67 1088.75 3082.75 1100.41Z" fill="white"/>
<path d="M864.697 906.763C846.257 906.763 831.583 921.829 831.583 940.697V1321.64C831.583 1340.51 846.258 1355.58 864.697 1355.58C883.136 1355.58 898.084 1340.51 898.084 1321.64V940.697C898.084 921.829 883.136 906.763 864.697 906.763ZM994.139 906.763C975.7 906.763 960.752 921.829 960.752 940.697V1321.64C960.752 1340.51 975.7 1355.58 994.139 1355.58C1012.58 1355.58 1027.25 1340.51 1027.25 1321.64V1272.93L1078.7 1223.67L1181.33 1345.73C1191.1 1358.46 1215.24 1357.65 1226.48 1347.65C1238.79 1336.7 1236.8 1313.85 1227.03 1301.12L1127.97 1176.6L1222.93 1085.47C1237.92 1070.49 1234.49 1050.42 1221.84 1039.5C1205.98 1025.79 1187.27 1029.73 1175.59 1041.41L1027.26 1181.26V940.702C1027.26 921.833 1012.58 906.763 994.139 906.763ZM214.461 931.667C198.76 931.667 186 945.121 186 962.044C186 978.968 198.759 992.695 214.461 992.695H330.225V1323.83C330.225 1341.55 344.9 1355.57 363.339 1355.57C381.778 1355.57 396.726 1341.55 396.726 1323.83V992.695H516.869C532.571 992.695 545.33 978.968 545.33 962.044C545.33 945.121 532.57 931.667 516.869 931.667H214.461ZM1411.77 1028.27C1317.6 1028.27 1241.27 1102.69 1241.27 1194.39C1241.27 1286.09 1317.6 1360.24 1411.77 1360.24C1505.94 1360.24 1582.27 1286.09 1582.27 1194.39C1582.27 1102.69 1505.94 1028.27 1411.77 1028.27ZM1982.65 1030.19C1972.86 1030.04 1963.13 1030.73 1953.64 1032.65C1936.19 1036.18 1919.25 1042.92 1903.83 1051.8C1891.62 1058.84 1870.72 1074.79 1870.72 1074.79C1870.72 1074.79 1849.19 1044.55 1808.87 1033.74C1800 1031.37 1790.87 1028.95 1781.77 1028.87C1765.17 1028.74 1747.92 1030.21 1732.24 1035.66C1714.19 1041.93 1683.8 1066.31 1683.8 1066.31V1064.12C1683.8 1045.13 1669.13 1033.74 1650.69 1033.74C1628.02 1033.74 1617.57 1048.96 1617.57 1067.95V1321.37C1617.57 1340.36 1632.25 1355.58 1650.69 1355.58C1669.13 1355.58 1684.07 1340.36 1684.07 1321.37V1159.36C1684.07 1135.45 1699.14 1114.34 1719.38 1101.62C1728.11 1096.13 1742.81 1093.85 1753.04 1092.59C1764.18 1091.21 1774 1091.35 1789.71 1095.05C1808.95 1100.35 1829.94 1123.65 1829.94 1159.09V1321.37C1829.94 1340.36 1844.61 1355.58 1863.05 1355.58C1881.49 1355.58 1896.44 1340.36 1896.44 1321.37V1151.42C1896.44 1134.53 1913.16 1113.47 1926.82 1103.53C1939.07 1094.61 1954.08 1091.49 1969.24 1091.22C1981.58 1090.99 1993.64 1091.54 2005.36 1099.43C2014.16 1105.35 2022.32 1114.67 2027.25 1124.06C2033 1134.98 2035.46 1138.54 2035.46 1150.88C2035.46 1151.6 2035.61 1152.21 2035.74 1152.79V1321.37C2035.74 1340.36 2050.41 1355.58 2068.85 1355.58C2087.29 1355.58 2102.24 1337.31 2102.24 1321.37V1140.9C2102.24 1107.78 2091.02 1089.44 2081.44 1076.99C2071.79 1065.06 2058.99 1055.66 2045.86 1047.71C2035.3 1041.31 2023.74 1035.98 2011.66 1033.48C2002.17 1031.51 1992.43 1030.33 1982.65 1030.19ZM642.242 1030.46C543.327 1030.46 480.502 1104.88 480.502 1196.58C480.502 1288.28 549.436 1359.68 643.608 1359.68C711.602 1359.68 738.284 1347.93 767.577 1318.63C777.495 1308.72 786.131 1283 771.682 1268.55C760.24 1257.11 738.45 1261.4 729.812 1267.73C703.757 1286.82 678.366 1300.3 643.606 1300.3C594.533 1300.3 557.168 1265.37 554.937 1224.22H741.855C763.387 1224.22 772.572 1218.49 780.168 1212.72C786.154 1208.18 793.578 1192.87 793.578 1185.36C793.578 1103.85 735.807 1030.46 642.242 1030.46ZM1411.24 1087.11C1468.96 1087.11 1515.79 1135.69 1515.79 1195.75C1515.79 1255.82 1468.96 1304.68 1411.24 1304.68C1353.53 1304.68 1306.7 1255.82 1306.7 1195.75C1306.7 1135.69 1353.53 1087.11 1411.24 1087.11ZM637.863 1087.66C694.205 1087.66 719.963 1127.62 719.963 1162.91H554.116C554.116 1128.72 583.15 1087.66 637.863 1087.66Z" fill="#171717"/>
<path d="M1247.29 1442.45C1229.76 1442.45 1215.82 1456.6 1215.82 1474.2V1613.22C1193.93 1583.88 1160.26 1561.02 1108.54 1562.87C1014.43 1566.22 945.708 1628.53 945.708 1727.89C945.708 1819.59 1009.99 1891.55 1104.16 1891.55C1158.28 1891.55 1193.2 1866.17 1215.82 1835.45V1857.34C1215.82 1874.93 1229.76 1889.08 1247.29 1889.08C1264.82 1889.08 1279.04 1874.93 1279.04 1857.34V1474.2C1279.04 1456.61 1264.82 1442.45 1247.29 1442.45ZM516.052 1457.78C498.523 1457.78 484.58 1472.74 484.58 1491.44V1854.33C484.58 1873.03 498.522 1887.99 516.052 1887.99C533.582 1887.99 547.798 1873.03 547.798 1854.33V1491.44C547.798 1472.74 533.582 1457.78 516.052 1457.78ZM2476.65 1560.4C2454.77 1561.24 2431.93 1564.03 2412.34 1573.81C2396.38 1581.78 2381.69 1594.06 2372.11 1609.12C2363.34 1622.9 2358.25 1639.85 2358.43 1656.19C2358.6 1672.63 2363.83 1689.75 2373.21 1703.26C2382.7 1716.93 2398 1725.94 2412.61 1733.91C2432.47 1744.73 2455.42 1748.55 2476.65 1756.35C2493.35 1762.48 2513.12 1763.74 2526.46 1775.51C2534.15 1782.29 2540.67 1792.35 2540.96 1802.6C2541.28 1813.66 2534.31 1823.3 2525.91 1830.51C2516.04 1839 2498.97 1839.55 2485.96 1839.82C2470.74 1840.14 2458.56 1837.7 2444.09 1832.98C2434.53 1829.86 2426.36 1825.5 2417.27 1821.21C2409.87 1817.72 2403.22 1812.78 2395.65 1809.71C2388.29 1806.73 2380.4 1801.39 2372.66 1803.15C2364.16 1805.07 2356.87 1812.47 2353.23 1820.39C2350.13 1827.12 2351.6 1831.83 2354.32 1838.72C2357.87 1847.73 2365.99 1854.82 2373.75 1860.62C2385.52 1869.4 2402.67 1876.6 2416.72 1880.87C2438.05 1887.36 2456.27 1891.01 2478.57 1890.72C2501.5 1890.42 2524.35 1889.03 2545.89 1881.14C2565.87 1873.82 2578.91 1862.59 2590.5 1844.75C2600.96 1828.64 2604.8 1813.02 2603.63 1793.84C2602.85 1780.94 2602.46 1765.18 2595.7 1754.16C2588.07 1741.74 2575.67 1731.1 2563.4 1723.24C2546.26 1712.25 2529.12 1707.8 2510.31 1699.98C2495.54 1693.83 2480.27 1688.54 2465.7 1681.91C2456.49 1677.73 2445.66 1675.49 2438.61 1668.23C2433.07 1662.52 2428.15 1654.56 2428.49 1646.61C2428.87 1637.47 2434.94 1628.41 2442.17 1622.8C2451.59 1615.49 2464.72 1613.47 2476.65 1613.22C2487.51 1612.99 2499.69 1616.2 2510.04 1619.52C2519.12 1622.43 2527.06 1628.36 2536.04 1631.56C2546.8 1635.39 2556.09 1641.61 2567.51 1641.41C2577.14 1641.24 2589.45 1640.06 2594.88 1632.11C2600.06 1624.5 2598 1612.65 2593.78 1604.47C2588.96 1595.11 2578.16 1587.48 2569.15 1582.02C2556.82 1574.56 2543.34 1571.18 2529.47 1567.25C2512.39 1562.4 2494.39 1559.72 2476.65 1560.4ZM1486.28 1560.68C1392.11 1560.68 1315.78 1635.1 1315.78 1726.8C1315.78 1818.5 1392.11 1892.64 1486.28 1892.64C1580.45 1892.64 1656.78 1818.5 1656.78 1726.8C1656.78 1635.09 1580.46 1560.68 1486.28 1560.68ZM2187.7 1561.5C2088.78 1561.5 2025.68 1635.92 2025.68 1727.62C2025.68 1819.32 2094.62 1890.72 2188.79 1890.72C2256.78 1890.72 2283.47 1878.97 2312.76 1849.67C2322.68 1839.76 2331.31 1814.04 2316.86 1799.59C2305.42 1788.15 2283.63 1792.44 2274.99 1798.77C2248.94 1817.86 2223.55 1831.34 2188.79 1831.34C2139.71 1831.34 2102.35 1796.41 2100.12 1755.26H2287.04C2308.57 1755.26 2317.75 1749.53 2325.35 1743.76C2331.34 1739.22 2338.76 1723.91 2338.76 1716.4C2338.76 1634.89 2281.26 1561.5 2187.7 1561.5ZM2898.96 1562.59C2876.88 1562.31 2854.24 1564.38 2833.28 1571.35C2821.58 1575.25 2809.25 1580.26 2800.99 1589.41C2794.66 1596.42 2788.28 1606.09 2789.77 1615.41C2791.09 1623.71 2795.34 1630.62 2806.46 1634.29C2826.48 1640.9 2840.05 1628.43 2867.19 1621.16C2897.72 1612.98 2937.37 1613.4 2962.45 1632.65C2979.69 1645.89 2986.09 1687.8 2986.81 1693.13C2980.05 1691.03 2971.58 1688.46 2965.19 1687.39C2949.2 1684.7 2932.93 1684.32 2916.75 1684.38C2895.72 1684.45 2874.24 1684.25 2853.8 1688.75C2833.71 1693.18 2812.66 1697.45 2796.88 1710.65C2782.58 1722.6 2772.07 1740.67 2766.78 1758.54C2760.61 1779.38 2761.24 1807.68 2769.51 1827.78C2778.78 1850.29 2796.68 1862.74 2817.95 1874.58C2838.37 1885.93 2863.01 1890.96 2886.37 1890.72C2914.42 1890.44 2943.9 1882.55 2967.38 1867.19C2976.3 1861.35 2987.35 1844.47 2987.35 1844.47L2987.08 1858.43C2986.6 1875.17 3001.3 1889.63 3018.83 1889.63C3036.36 1889.63 3050.3 1875.74 3050.3 1858.43V1773.87C3050.3 1773.87 3050.09 1692.31 3043.18 1650.44C3039.96 1630.9 3025.14 1610.82 3011.16 1596.8C2999.07 1584.67 2985.47 1579.17 2970.93 1574.09C2948 1566.07 2923.25 1562.91 2898.96 1562.59ZM768.992 1563.96C755.639 1564.21 739.807 1565.41 729.584 1568.89C709.351 1575.77 677.587 1597.9 677.587 1597.9V1595.71C677.587 1584.64 674.121 1565.06 646.663 1565.06C624.048 1565.06 617.106 1583.56 617.106 1602.55V1855.97C617.106 1874.96 631.781 1890.18 650.22 1890.18C668.659 1890.18 683.607 1874.96 683.607 1855.97V1693.96C683.607 1670.05 698.67 1648.94 718.91 1636.21C727.639 1630.73 742.339 1628.45 752.572 1627.18C763.71 1625.81 773.528 1625.95 789.243 1629.65C808.531 1634.94 835.767 1658.24 835.767 1693.68V1855.97C835.767 1874.96 850.442 1890.18 868.88 1890.18C887.32 1890.18 902.268 1874.96 902.268 1855.97V1687.12C902.268 1650.03 891.704 1625.33 877.09 1606.38C862.076 1586.92 835.338 1573.11 811.41 1566.7C810.81 1566.54 810.099 1566.46 809.494 1566.43C800.166 1564.23 790.452 1564.04 781.306 1563.97C777.707 1563.94 773.443 1563.87 768.992 1563.96ZM1854.91 1563.96C1841.55 1564.21 1825.72 1565.41 1815.5 1568.89C1795.27 1575.77 1763.5 1597.9 1763.5 1597.9V1595.71C1763.5 1584.64 1760.04 1565.06 1732.58 1565.06C1709.96 1565.06 1703.02 1583.56 1703.02 1602.55V1855.97C1703.02 1874.96 1717.7 1890.18 1736.13 1890.18C1754.57 1890.18 1769.52 1874.96 1769.52 1855.97V1693.96C1769.52 1670.05 1784.58 1648.94 1804.82 1636.21C1813.55 1630.73 1828.25 1628.45 1838.49 1627.18C1849.62 1625.81 1859.44 1625.95 1875.16 1629.65C1894.45 1634.94 1921.68 1658.24 1921.68 1693.68V1855.97C1921.68 1874.96 1936.36 1890.18 1954.79 1890.18C1973.23 1890.18 1988.18 1874.96 1988.18 1855.97V1687.12C1988.18 1650.03 1977.62 1625.33 1963 1606.38C1947.99 1586.92 1921.25 1573.11 1897.32 1566.7C1896.72 1566.54 1896.01 1566.46 1895.41 1566.43C1886.08 1564.23 1876.37 1564.04 1867.22 1563.97C1863.62 1563.94 1859.36 1563.87 1854.91 1563.96ZM2685.76 1566.15C2668.23 1566.15 2654.29 1580.04 2654.29 1597.35V1856.79C2654.29 1874.09 2668.23 1887.98 2685.76 1887.98C2703.29 1887.98 2717.51 1874.09 2717.51 1856.79V1597.35C2717.51 1580.04 2703.29 1566.15 2685.76 1566.15ZM2183.31 1618.97C2239.65 1618.97 2265.41 1658.66 2265.41 1693.95H2099.29C2099.29 1659.76 2128.59 1618.97 2183.31 1618.97ZM1485.73 1619.52C1543.44 1619.52 1590.28 1668.1 1590.28 1728.16C1590.28 1788.22 1543.45 1837.08 1485.73 1837.08C1428.02 1837.08 1381.18 1788.23 1381.18 1728.16C1381.18 1668.1 1428.01 1619.52 1485.73 1619.52ZM1111.35 1620.61C1169.06 1620.61 1215.9 1669.19 1215.9 1729.25C1215.9 1789.32 1171.26 1831.61 1113.54 1831.61C1055.83 1831.61 1011.19 1789.32 1011.19 1729.25C1011.19 1669.19 1053.64 1620.61 1111.35 1620.61ZM2901.71 1732.27C2919.62 1731.27 2938.72 1733.62 2956.44 1736.37C2965.33 1737.75 2977.87 1740.11 2989.01 1742.39C2989.11 1743.98 2990.66 1770.67 2985.73 1783.17C2979.04 1800.09 2968.41 1819.05 2952.61 1828.6C2935.43 1838.99 2911.94 1841.26 2891.86 1840.91C2875.88 1840.63 2858.79 1836.91 2845.88 1827.5C2833.89 1818.76 2826.84 1806.99 2825.63 1792.2C2824.21 1774.78 2828.74 1758.92 2842.05 1747.59C2857.59 1734.36 2881.34 1733.4 2901.71 1732.27Z" fill="#171717"/>
</svg>
