<svg width="188" height="64" viewBox="0 0 188 64" fill="none" xmlns="http://www.w3.org/2000/svg">
<path d="M172.328 25.1746H164.319L167.469 29.7535H171.529L168.115 49.4442H175.228L178.648 29.7535H187.52L173.512 18.3398L172.328 25.1746Z" fill="#005BAC"/>
<path d="M33.2922 14H0.97565L0.0913086 19.1564H12.6401L7.38244 49.446H14.4967L19.7544 19.1564H32.4099L33.2922 14Z" fill="#005BAC"/>
<path d="M38.5549 24.6328C29.5119 24.6328 23.7236 30.3957 22.5755 37.0933C21.3008 44.5307 25.8124 49.9722 34.9365 49.9722C39.0154 49.9722 42.8294 49.1956 45.9281 47.4521L46.8905 41.9044C43.8629 44.1023 40.0104 45.3304 36.7457 45.3304C32.1965 45.3304 28.5801 43.4107 29.1492 39.01H47.9467C48.174 38.4896 48.4447 37.5728 48.6414 36.4318C49.5524 31.1173 47.6928 24.6328 38.5549 24.6328ZM42.2405 34.7314H29.8695C30.6126 32.2493 33.0156 28.8184 37.391 28.8184C42.1536 28.8184 42.6575 32.4855 42.2405 34.7314Z" fill="#005BAC"/>
<path d="M69.9704 24.6367C65.531 24.6367 62.205 26.4992 60.6381 28.3849H60.4721L54.2094 24.6367C53.9791 26.7385 53.6709 29.5959 53.1897 32.3983L50.2678 49.4497H57.3793L59.8521 35.1706C59.972 34.47 60.2068 33.7274 60.5143 33.223C61.5756 31.3474 63.8047 29.6219 66.6317 29.6219C70.5149 29.6219 71.5723 32.2762 70.9756 35.7551L68.596 49.4497H75.7103L78.2152 35.0365C79.5313 27.362 74.8716 24.6377 69.9704 24.6377" fill="#005BAC"/>
<path d="M155.307 24.6367C150.865 24.6367 147.542 26.4992 145.973 28.3849H145.807L139.546 24.6367C139.316 26.7385 139.007 29.5959 138.525 32.3983L135.603 49.4497H142.713L145.189 35.1706C145.308 34.47 145.543 33.7274 145.846 33.223C146.912 31.3474 149.139 29.6219 151.965 29.6219C155.852 29.6219 156.906 32.2762 156.311 35.7551L153.933 49.4497H161.046L163.549 35.0365C164.865 27.362 160.208 24.6377 155.307 24.6377" fill="#005BAC"/>
<path d="M123.889 24.6328C114.848 24.6328 109.061 30.3957 107.911 37.0933C106.637 44.5307 111.147 49.9722 120.272 49.9722C124.349 49.9722 128.167 49.1956 131.265 47.4521L132.226 41.9044C129.199 44.1023 125.347 45.3304 122.081 45.3304C117.535 45.3304 113.921 43.4107 114.486 39.01H133.286C133.51 38.4896 133.783 37.5728 133.98 36.4318C134.888 31.1173 133.027 24.6328 123.889 24.6328ZM127.578 34.7314H115.205C115.95 32.2493 118.352 28.8184 122.727 28.8184C127.489 28.8184 127.992 32.4855 127.578 34.7314Z" fill="#005BAC"/>
<path d="M81.1999 36.983C79.9099 44.5163 85.117 49.9669 93.9308 49.9669C97.4338 49.9669 101.619 48.9491 103.203 48.3526L104.354 41.8661C101.881 44.5584 98.5312 45.1169 96.156 45.1169C91.3126 45.1169 87.6464 42.2624 88.5001 37.2872C89.2411 32.8385 93.4013 29.4175 98.822 29.4175C101.031 29.4175 104.026 30.1682 105.916 32.6863L107.018 26.0887C105.488 25.4933 103.039 24.6445 99.4148 24.6445C89.5258 24.6445 82.446 29.7188 81.1999 36.985" fill="#005BAC"/>
</svg>
