<svg width="338" height="64" viewBox="0 0 338 64" fill="none" xmlns="http://www.w3.org/2000/svg">
<path d="M310.302 19.8719H295.872L301.547 28.0125H308.862L302.711 63.0196H315.526L321.688 28.0125H337.672L312.434 7.7207L310.302 19.8719Z" fill="#005BAC"/>
<path d="M59.8148 0H1.59323L0 9.16726H22.6079L13.1357 63.0178H25.9528L35.425 9.16726H58.2252L59.8148 0Z" fill="#005BAC"/>
<path d="M69.2959 18.9041C53.0039 18.9041 42.5758 29.1497 40.5073 41.0571C38.2109 54.2796 46.339 63.9539 62.777 63.9539C70.1254 63.9539 76.9968 62.5732 82.5794 59.4735L84.3132 49.6105C78.8588 53.518 71.918 55.7013 66.0364 55.7013C57.8406 55.7013 51.3253 52.2885 52.3506 44.4646H86.2162C86.6256 43.5394 87.1134 41.9095 87.4677 39.881C89.1089 30.4326 85.7587 18.9041 69.2959 18.9041ZM75.9358 36.8579H53.6483C54.987 32.4451 59.3163 26.3454 67.1989 26.3454C75.7792 26.3454 76.6871 32.865 75.9358 36.8579Z" fill="#005BAC"/>
<path d="M125.894 18.9058C117.896 18.9058 111.904 22.2171 109.081 25.5695H108.782L97.499 18.9058C97.0842 22.6424 96.5288 27.7225 95.6619 32.7047L90.3979 63.0196H103.21L107.665 37.6335C107.881 36.388 108.304 35.0677 108.858 34.1709C110.77 30.8364 114.786 27.7688 119.879 27.7688C126.875 27.7688 128.78 32.4876 127.705 38.6727L123.418 63.0196H136.235L140.748 37.3951C143.119 23.751 134.724 18.9075 125.894 18.9075" fill="#005BAC"/>
<path d="M279.637 18.9058C271.633 18.9058 265.647 22.2171 262.821 25.5695H262.522L251.242 18.9058C250.827 22.6424 250.271 27.7225 249.403 32.7047L244.137 63.0196H256.947L261.408 37.6335C261.622 36.388 262.045 35.0677 262.592 34.1709C264.513 30.8364 268.525 27.7688 273.616 27.7688C280.619 27.7688 282.517 32.4876 281.445 38.6727L277.162 63.0196H289.976L294.485 37.3951C296.856 23.751 288.466 18.9075 279.637 18.9075" fill="#005BAC"/>
<path d="M223.033 18.9041C206.745 18.9041 196.319 29.1497 194.248 41.0571C191.952 54.2796 200.078 63.9539 216.518 63.9539C223.863 63.9539 230.741 62.5732 236.322 59.4735L238.054 49.6105C232.6 53.518 225.661 55.7013 219.776 55.7013C211.587 55.7013 205.075 52.2885 206.093 44.4646H239.963C240.367 43.5394 240.858 41.9095 241.214 39.881C242.85 30.4326 239.496 18.9041 223.033 18.9041ZM229.679 36.8579H207.389C208.73 32.4451 213.059 26.3454 220.94 26.3454C229.52 26.3454 230.426 32.865 229.679 36.8579Z" fill="#005BAC"/>
<path d="M146.125 40.8666C143.801 54.2598 153.182 63.9502 169.061 63.9502C175.372 63.9502 182.912 62.1406 185.766 61.0801L187.84 49.5481C183.384 54.3346 177.349 55.3275 173.07 55.3275C164.344 55.3275 157.739 50.2527 159.277 41.4075C160.612 33.4983 168.107 27.4164 177.873 27.4164C181.853 27.4164 187.249 28.7509 190.654 33.2278L192.639 21.4983C189.883 20.4396 185.47 18.9307 178.941 18.9307C161.125 18.9307 148.37 27.952 146.125 40.8702" fill="#005BAC"/>
</svg>
