<svg width="280" height="80" viewBox="0 0 280 80" fill="none" xmlns="http://www.w3.org/2000/svg">
<g clip-path="url(#clip0_1050_5394)">
<path d="M0.187683 60.6485H17.5688C27.6907 60.6485 34.0838 55.6928 34.0838 48.0637C34.0838 42.3906 31.5533 38.3477 23.9618 36.5874C29.6886 34.5007 31.4866 31.3707 31.4866 27.0019C31.4866 19.8944 26.0259 15.0039 15.904 15.0039H0.187683V60.6485ZM9.51094 52.4325V41.2823H16.7031C21.764 41.2823 24.6276 43.3034 24.6276 46.6292C24.6276 50.6066 21.764 52.4325 16.7031 52.4325H9.51094ZM9.51094 33.8486V23.1547H15.0379C20.0992 23.1547 22.0305 25.3065 22.0305 28.4365C22.0305 32.088 20.0992 33.8486 15.0379 33.8486H9.51094ZM41.2907 74.2765C49.4151 74.2765 53.7436 69.647 56.6739 62.8005L71.9904 26.7411H61.3355L54.6093 46.1074C54.0101 47.7376 53.4775 49.759 53.1444 51.5197C52.8113 49.759 52.2787 47.7376 51.6795 46.1074L44.9534 26.7411H34.0986L47.817 59.0834L47.3506 60.5179C46.352 63.5176 44.1543 65.6696 40.6915 65.6696C39.2262 65.6696 37.9611 65.539 36.6291 65.2128L35.2974 73.6245C37.0954 74.1463 39.4926 74.2765 41.2907 74.2765Z" fill="#172136"/>
<path d="M89.645 61.0524H94.5654V53.2415H90.842C89.1132 53.2415 88.0495 52.2652 88.0495 50.1172V34.6902H95.3634V27.2045H88.0495V19.4586L79.073 20.3698V27.2045H74.2189V34.6902H79.073V50.5728C79.073 57.9281 82.7964 61.0524 89.645 61.0524ZM114.012 61.8986C120.86 61.8986 126.645 58.9044 129.438 54.6735L122.456 49.5313C120.86 52.135 117.868 54.0877 114.012 54.0877C109.49 54.0877 106.432 51.2888 105.434 47.3182H131.3C131.499 46.2117 131.566 45.1699 131.566 44.1935C131.566 34.4298 124.384 26.3584 114.012 26.3584C103.639 26.3584 96.1254 34.4298 96.1254 44.1935C96.1254 53.9575 103.306 61.8986 114.012 61.8986ZM105.434 40.7437C106.432 36.7081 109.623 33.9091 113.879 33.9091C118.267 33.9091 121.525 36.9684 122.523 40.7437H105.434ZM155.387 61.8986C164.896 61.8986 172.476 54.0226 172.476 44.2586C172.476 34.4949 164.896 26.4885 155.387 26.4885C149.47 26.4885 146.344 28.8318 144.483 32.412V13.5352H135.506V61.0524H144.217V55.5197C146.078 59.3601 149.204 61.8986 155.387 61.8986ZM144.217 44.2586C144.217 38.9862 148.007 34.4298 153.924 34.4298C159.643 34.4298 163.499 38.9212 163.499 44.1935C163.499 49.3361 159.643 53.9575 153.924 53.9575C148.007 53.9575 144.217 49.5313 144.217 44.2586ZM191.913 61.8986C198.097 61.8986 201.222 59.3601 203.084 55.5197V61.0524H211.794V27.2045H202.885V32.5421C201.023 28.8969 197.898 26.4885 191.913 26.4885C182.405 26.4885 174.825 34.4949 174.825 44.2586C174.825 54.0226 182.405 61.8986 191.913 61.8986ZM183.801 44.1935C183.801 38.9212 187.658 34.4298 193.376 34.4298C199.294 34.4298 203.084 38.9862 203.084 44.2586C203.084 49.5313 199.294 53.9575 193.376 53.9575C187.658 53.9575 183.801 49.3361 183.801 44.1935ZM228.963 61.8986C236.61 61.8986 242.395 57.2121 242.395 50.9633C242.395 45.8859 240.067 42.2408 230.027 39.7022C225.905 38.6608 225.373 37.6193 225.373 36.4477C225.373 34.3647 227.235 33.4534 229.695 33.4534C232.022 33.4534 234.15 34.4949 235.812 37.0986L242.328 32.2167C238.804 27.7253 235.081 26.3584 229.495 26.3584C221.383 26.3584 216.596 30.7846 216.596 36.7081C216.596 41.0041 217.992 45.1048 227.235 47.2532C232.687 48.4899 233.551 49.4663 233.551 51.2237C233.551 53.2415 231.823 54.7386 228.764 54.7386C225.838 54.7386 223.179 53.3717 220.652 50.5728L214.601 55.9753C218.391 59.9459 223.112 61.8986 228.963 61.8986ZM262.45 61.8986C269.299 61.8986 275.085 58.9044 277.876 54.6735L270.895 49.5313C269.299 52.135 266.307 54.0877 262.45 54.0877C257.929 54.0877 254.87 51.2888 253.873 47.3182H279.738C279.937 46.2117 280.004 45.1699 280.004 44.1935C280.004 34.4298 272.824 26.3584 262.45 26.3584C252.077 26.3584 244.564 34.4298 244.564 44.1935C244.564 53.9575 251.745 61.8986 262.45 61.8986ZM253.873 40.7437C254.87 36.7081 258.062 33.9091 262.317 33.9091C266.706 33.9091 269.964 36.9684 270.961 40.7437H253.873Z" fill="#172136"/>
</g>
<defs>
<clipPath id="clip0_1050_5394">
<rect width="280" height="80" fill="white"/>
</clipPath>
</defs>
</svg>
