<svg width="142" height="134" viewBox="0 0 142 134" fill="none" xmlns="http://www.w3.org/2000/svg">
<path fill-rule="evenodd" clip-rule="evenodd" d="M7.59874 101.507C14.7769 115.547 26.5406 126.796 40.9943 133.442L55.7584 102.226C55.1504 102.276 54.5297 102.301 53.8963 102.301C46.7774 102.301 41.1731 100.061 37.0835 95.5804C33.0697 91.1006 31.0627 84.6417 31.0627 76.2043V41.1484H111.718V74.748C111.718 83.4844 109.636 90.055 105.471 94.4595C101.381 98.9406 96.0803 101.181 89.5665 101.181C89.2135 101.181 88.8642 101.173 88.5188 101.159L105.422 131.223C119.369 123.6 130.309 111.569 136.476 97.0694C142.644 82.569 143.68 66.4447 139.417 51.2931C135.156 36.1416 125.844 22.8461 112.984 13.5488C100.122 4.25156 84.4604 -0.506087 68.522 0.0426682C52.5841 0.591423 37.2974 6.41455 25.1254 16.5736C12.9535 26.7328 4.60512 40.6364 1.42561 56.044C-1.75389 71.4518 0.420621 87.4659 7.59874 101.507ZM79.3429 57.0523H96.8371V74.6364C96.8371 77.9959 96.0039 80.4979 94.3381 82.141C92.7473 83.8581 90.6646 84.7157 88.0897 84.7157C85.2119 84.7157 83.0158 83.8205 81.5008 82.0282C80.0622 80.3111 79.3429 77.8467 79.3429 74.6364V57.0523ZM45.9442 57.0523H64.3474V75.7561C64.3474 79.1162 63.5144 81.6182 61.8483 83.2607C60.1821 84.9777 57.948 85.8359 55.1458 85.8359C52.1923 85.8359 49.9203 84.9777 48.3299 83.2607C46.7395 81.6182 45.9442 79.1162 45.9442 75.7561V57.0523Z" fill="#172136"/>
</svg>
