<svg width="379" height="80" viewBox="0 0 379 80" fill="none" xmlns="http://www.w3.org/2000/svg">
<g clip-path="url(#clip0_1050_5386)">
<path d="M99.1877 60.6485H116.569C126.691 60.6485 133.084 55.6928 133.084 48.0637C133.084 42.3906 130.553 38.3477 122.962 36.5874C128.689 34.5007 130.487 31.3707 130.487 27.0019C130.487 19.8944 125.026 15.0039 114.904 15.0039H99.1877V60.6485ZM108.511 52.4325V41.2823H115.703C120.764 41.2823 123.628 43.3034 123.628 46.6292C123.628 50.6066 120.764 52.4325 115.703 52.4325H108.511ZM108.511 33.8486V23.1547H114.038C119.099 23.1547 121.031 25.3065 121.031 28.4365C121.031 32.088 119.099 33.8486 114.038 33.8486H108.511ZM140.291 74.2765C148.415 74.2765 152.744 69.647 155.674 62.8005L170.99 26.7411H160.335L153.609 46.1074C153.01 47.7376 152.478 49.759 152.144 51.5197C151.811 49.759 151.279 47.7376 150.679 46.1074L143.953 26.7411H133.099L146.817 59.0834L146.351 60.5179C145.352 63.5176 143.154 65.6696 139.691 65.6696C138.226 65.6696 136.961 65.539 135.629 65.2128L134.297 73.6245C136.095 74.1463 138.493 74.2765 140.291 74.2765Z" fill="#172136"/>
<path d="M188.645 61.0524H193.565V53.2415H189.842C188.113 53.2415 187.049 52.2652 187.049 50.1172V34.6902H194.363V27.2045H187.049V19.4586L178.073 20.3698V27.2045H173.219V34.6902H178.073V50.5728C178.073 57.9281 181.796 61.0524 188.645 61.0524ZM213.012 61.8986C219.86 61.8986 225.645 58.9044 228.438 54.6735L221.456 49.5313C219.86 52.135 216.868 54.0877 213.012 54.0877C208.49 54.0877 205.432 51.2888 204.434 47.3182H230.3C230.499 46.2117 230.566 45.1699 230.566 44.1935C230.566 34.4298 223.384 26.3584 213.012 26.3584C202.639 26.3584 195.125 34.4298 195.125 44.1935C195.125 53.9575 202.306 61.8986 213.012 61.8986ZM204.434 40.7437C205.432 36.7081 208.623 33.9091 212.879 33.9091C217.267 33.9091 220.525 36.9684 221.523 40.7437H204.434ZM254.387 61.8986C263.896 61.8986 271.476 54.0226 271.476 44.2586C271.476 34.4949 263.896 26.4885 254.387 26.4885C248.47 26.4885 245.344 28.8318 243.483 32.412V13.5352H234.506V61.0524H243.217V55.5197C245.078 59.3601 248.204 61.8986 254.387 61.8986ZM243.217 44.2586C243.217 38.9862 247.007 34.4298 252.924 34.4298C258.643 34.4298 262.499 38.9212 262.499 44.1935C262.499 49.3361 258.643 53.9575 252.924 53.9575C247.007 53.9575 243.217 49.5313 243.217 44.2586ZM290.913 61.8986C297.097 61.8986 300.222 59.3601 302.084 55.5197V61.0524H310.794V27.2045H301.885V32.5421C300.023 28.8969 296.898 26.4885 290.913 26.4885C281.405 26.4885 273.825 34.4949 273.825 44.2586C273.825 54.0226 281.405 61.8986 290.913 61.8986ZM282.801 44.1935C282.801 38.9212 286.658 34.4298 292.376 34.4298C298.294 34.4298 302.084 38.9862 302.084 44.2586C302.084 49.5313 298.294 53.9575 292.376 53.9575C286.658 53.9575 282.801 49.3361 282.801 44.1935ZM327.963 61.8986C335.61 61.8986 341.395 57.2121 341.395 50.9633C341.395 45.8859 339.067 42.2408 329.027 39.7022C324.905 38.6608 324.373 37.6193 324.373 36.4477C324.373 34.3647 326.235 33.4534 328.695 33.4534C331.022 33.4534 333.15 34.4949 334.812 37.0986L341.328 32.2167C337.804 27.7253 334.081 26.3584 328.495 26.3584C320.383 26.3584 315.596 30.7846 315.596 36.7081C315.596 41.0041 316.992 45.1048 326.235 47.2532C331.687 48.4899 332.551 49.4663 332.551 51.2237C332.551 53.2415 330.823 54.7386 327.764 54.7386C324.838 54.7386 322.179 53.3717 319.652 50.5728L313.601 55.9753C317.391 59.9459 322.112 61.8986 327.963 61.8986ZM361.45 61.8986C368.299 61.8986 374.085 58.9044 376.876 54.6735L369.895 49.5313C368.299 52.135 365.307 54.0877 361.45 54.0877C356.929 54.0877 353.87 51.2888 352.873 47.3182H378.738C378.937 46.2117 379.004 45.1699 379.004 44.1935C379.004 34.4298 371.824 26.3584 361.45 26.3584C351.077 26.3584 343.564 34.4298 343.564 44.1935C343.564 53.9575 350.745 61.8986 361.45 61.8986ZM352.873 40.7437C353.87 36.7081 357.062 33.9091 361.317 33.9091C365.706 33.9091 368.964 36.9684 369.961 40.7437H352.873Z" fill="#172136"/>
<path fill-rule="evenodd" clip-rule="evenodd" d="M4.35969 57.8913C8.46325 65.8985 15.1882 72.3138 23.451 76.104L31.8849 58.3145C31.5394 58.3426 31.1867 58.3567 30.827 58.3567C26.7573 58.3567 23.5534 57.0792 21.2155 54.524C18.9209 51.9691 17.7736 48.2854 17.7736 43.4734V23.4805H63.8822V42.6429C63.8822 47.6254 62.6919 51.3727 60.3105 53.8847C57.9725 56.4403 54.9423 57.7178 51.2186 57.7178C51.0192 57.7178 50.8219 57.7138 50.6268 57.7057L60.2822 74.8385C68.2557 70.4913 74.5096 63.6298 78.0353 55.3604C81.561 47.0905 82.1536 37.8945 79.7167 29.2533C77.2806 20.6122 71.9572 13.0295 64.6052 7.72709C57.2525 2.42474 48.2993 -0.28863 39.1878 0.0243344C30.0766 0.337299 21.3376 3.65833 14.3792 9.45222C7.42086 15.2462 2.64832 23.1756 0.830685 31.9628C-0.986945 40.7502 0.256161 49.8833 4.35969 57.8913ZM45.3741 32.5507H55.375V42.5792C55.375 44.4952 54.8987 45.9221 53.9464 46.8592C53.037 47.8385 51.8463 48.3276 50.3744 48.3276C48.7292 48.3276 47.4738 47.8171 46.6077 46.7949C45.7853 45.8156 45.3741 44.4101 45.3741 42.5792V32.5507ZM26.281 32.5507H36.8016V43.2178C36.8016 45.1342 36.3253 46.5611 35.3729 47.4978C34.4204 48.4771 33.1432 48.9665 31.5413 48.9665C29.8528 48.9665 28.554 48.4771 27.6448 47.4978C26.7356 46.5611 26.281 45.1342 26.281 43.2178V32.5507Z" fill="#172136"/>
</g>
<defs>
<clipPath id="clip0_1050_5386">
<rect width="379" height="80" fill="white"/>
</clipPath>
</defs>
</svg>
