<svg xmlns="http://www.w3.org/2000/svg" width="353" height="142" fill="none"><g fill-rule="evenodd" clip-path="url(#a)" clip-rule="evenodd"><path fill="#A7AFBE" d="M86.502 116.841a430.39 430.39 0 0 0-3.191 7.085c-.964 2.195-2.95 6.536-4.413 9.645-3.742 7.949-3.735 7.917-1.725 7.917 1.523 0 1.78-.276 3.207-3.459l1.553-3.459H94.21l1.57 3.459c1.434 3.163 1.708 3.459 3.198 3.459.898 0 1.631-.097 1.631-.214 0-.296-12.218-27.079-12.466-27.327-.11-.11-.849 1.192-1.64 2.894Zm94.698-1.652c.178.463.323 6.57.323 13.57v12.729h3.194l.01-9.978.01-9.979 3.305 3.459c11.946 12.503 15.678 16.335 16.253 16.69.506.313.651-2.612.651-13.199v-13.602h-3.77l.068 9.355c.038 5.146-.037 9.461-.166 9.59-.13.129-1.624-1.267-3.321-3.102-1.698-1.835-5.931-6.27-9.407-9.856-5.904-6.09-7.925-7.695-7.15-5.677Zm114.242-.486c-3.567 1.466-5.515 5.127-4.296 8.069.915 2.209 3.032 3.982 6.425 5.382 4.235 1.746 5.323 2.919 5.323 5.734 0 3.036-1.747 4.939-4.535 4.939-2.612 0-3.93-.81-4.833-2.97-.757-1.811-1.875-2.269-3.314-1.357-1.028.652.368 3.725 2.511 5.528 3.418 2.875 8.208 2.578 11.33-.703 2.701-2.839 3.181-5.909 1.426-9.117-1.073-1.96-1.945-2.636-6.045-4.685-4.578-2.289-4.798-2.479-4.95-4.285-.191-2.275 1.032-3.604 3.716-4.04 1.454-.235 2.16-.014 3.468 1.087 1.587 1.334 1.684 1.349 2.797.448l1.153-.934-1.627-1.559c-1.353-1.296-2.145-1.585-4.689-1.712-1.684-.085-3.421-.006-3.86.175ZM46.844 128.184v13.304h3.194v-10.94l3.662-.576c5.759-.907 7.517-2.745 7.517-7.862 0-5.159-2.892-7.231-10.098-7.231h-4.275v13.305Zm70.8 0v13.304h3.194V135.9c0-4.51.148-5.588.767-5.588.421 0 2.494 2.515 4.606 5.588 3.753 5.462 3.885 5.588 5.887 5.588h2.048l-4.226-5.721c-4.081-5.524-4.186-5.739-3.05-6.253 3.589-1.624 5.405-4.525 5.012-8.008-.533-4.723-3.385-6.627-9.927-6.627h-4.311v13.305Zm30.875-11.974c0 1.271.142 1.33 3.194 1.33h3.194v23.948h3.194V117.54h3.194c3.051 0 3.194-.059 3.194-1.33v-1.331h-15.97v1.331Zm76.123 11.974v13.304H239.015v-3.193h-11.179v-10.111h10.646v-1.331c0-.732-.299-1.339-.665-1.349-.366-.011-2.702-.071-5.19-.134l-4.525-.113-.157-3.859-.156-3.858h11.226v-2.661H224.642v13.305Zm33.004 0v13.304h3.194v-5.838c0-5.002.116-5.792.809-5.526.445.17 2.518 2.797 4.606 5.837 3.544 5.157 3.917 5.527 5.579 5.527.981 0 1.772-.18 1.76-.399-.012-.22-1.791-2.794-3.954-5.721l-3.931-5.322 2.116-1.002c4.135-1.959 5.511-8.127 2.526-11.321-2.118-2.266-3.827-2.844-8.419-2.844h-4.286v13.305Zm-200.933-9.349c2.524 1.654 2.04 6.15-.82 7.596-.732.369-2.348.676-3.593.68l-2.262.008v-9.727l2.729.323c1.5.178 3.276.682 3.946 1.12Zm70.44.163c.978.726 1.453 1.626 1.567 2.963.295 3.454-1.038 4.721-5.699 5.416l-2.183.326v-10.301l2.456.277c1.351.152 3.088.746 3.859 1.319Zm140.003 0c1.033.768 1.445 1.603 1.562 3.161.241 3.198-1.096 4.53-4.862 4.842l-3.016.25v-9.849l2.456.277c1.352.152 3.089.746 3.86 1.319ZM90.58 126.38c1.124 2.524 2.044 4.8 2.044 5.059 0 .258-2.062.47-4.582.47-4.506 0-4.578-.021-4.278-1.215.525-2.091 4.131-9.544 4.46-9.215.172.172 1.232 2.377 2.356 4.901Z"/><path fill="#4D5E80" d="m176.932 2.48-6.521 2.41v15.952l-3.742-.314-3.743-.314.149 6.49.149 6.49 3.569.156 3.568.157.159 24.59c.156 24.38.167 24.61 1.384 27.249 1.611 3.498 3.366 5.257 6.653 6.67 7.644 3.288 22.665.565 25.092-4.549.776-1.634 2.022-14.324 1.461-14.884-.101-.1-1.028.75-2.059 1.892-2.947 3.26-7.715 6.187-10.763 6.607-3.345.46-5.321-.42-6.572-2.921-.84-1.68-.931-3.953-.931-23.242l-.001-21.38 7.664-.173c9.982-.225 10.295-.505 11.276-10.11l.363-3.552-2.066.479c-1.136.263-5.48.485-9.651.491l-7.586.013V10.31c0-7.983-.153-10.362-.666-10.31-.365.038-3.599 1.154-7.186 2.48ZM28.002 20.405c-4.012.873-6.598 1.946-9.639 3.997-1.31.884-2.458 1.607-2.553 1.607-.094 0-.287-1.203-.428-2.673-.141-1.47-.378-2.793-.526-2.94-.214-.214-5.45 1.502-14.612 4.79-.441.158-.292 1.194.515 3.583 1.097 3.249 1.135 4.24 1.152 29.968.015 23.738-.083 26.972-.914 29.978-.513 1.853-.932 3.47-.932 3.592 0 .35 17.885.26 18.236-.091.174-.173-.078-1.31-.557-2.528-.754-1.914-.894-5.526-1.032-26.693l-.16-24.48 2.403-1.791c4.127-3.078 8.338-4.468 12.838-4.241 4.52.228 6.279 1.219 7.931 4.47 1.02 2.007 1.061 3.059.982 25.243-.082 23.104-.225 25.182-2.029 29.403-.37.867.252.931 8.975.931 5.573 0 9.373-.205 9.373-.506 0-.278-.386-1.895-.857-3.592-.704-2.536-.905-7.216-1.13-26.255l-.275-23.17L56.8 37.22c3.413-2.997 7.336-4.508 12.277-4.733 5.566-.251 7.66.638 9.254 3.93 1.106 2.284 1.124 2.775.94 26.693-.158 20.67-.315 24.705-1.033 26.607-.466 1.234-.72 2.371-.562 2.528.446.446 18.208.335 18.201-.113-.003-.22-.39-1.716-.862-3.326-.71-2.428-.919-7.459-1.228-29.536-.415-29.674-.419-29.706-4.147-33.544-4.024-4.142-12.149-6.56-19.732-5.873-5.2.471-11.414 2.484-14.86 4.814-1.525 1.031-2.91 1.875-3.078 1.875-.168 0-.99-.7-1.828-1.556-4.356-4.455-13.768-6.402-22.14-4.58Zm95.592-.006c-9.697 1.844-16.53 5.883-16.53 9.77 0 1.49 2.074 9.722 2.599 10.313.181.203 1.635-.715 3.231-2.042 5.587-4.641 11.96-6.894 18.232-6.446 6.423.46 7.877 2.481 7.877 10.95v5.263l-3.593.342c-9.059.862-17.83 4.14-22.792 8.518-6.975 6.154-9.058 17.523-4.865 26.554 1.658 3.574 4.659 6.559 8.36 8.317 2.63 1.249 3.551 1.39 9.05 1.39 6.908 0 9.665-.709 14.42-3.707l2.881-1.817.728 1.432c1.227 2.411 3.374 4.358 4.805 4.358 1.243 0 10.826-5.293 11.471-6.337.158-.255-.298-.848-1.014-1.317s-1.971-1.992-2.791-3.384l-1.488-2.532-.293-23.681c-.226-18.188-.463-24.114-1.021-25.545-2.891-7.403-8.431-10.517-19.447-10.932-3.74-.14-7.288.052-9.82.533Zm115.487-.268c-2.83.586-5.326 1.796-8.131 3.945-2.715 2.079-2.752 2.062-3.246-1.46-.158-1.133-.393-2.165-.521-2.293-.128-.128-3.384.92-7.236 2.328-6.718 2.455-6.991 2.614-6.713 3.89.159.732.585 2.648.946 4.258.47 2.098.655 10.233.655 28.737 0 22.826-.106 26.188-.919 29.08-.505 1.798-.919 3.414-.919 3.591 0 .178 4.073.323 9.05.323 6.888 0 9.048-.16 9.044-.665-.004-.366-.395-1.863-.871-3.326-.728-2.237-.906-6.394-1.119-26.1l-.254-23.44 1.92-1.464c3.216-2.452 6.159-3.519 9.744-3.532 1.811-.006 3.88.212 4.599.485 1.285.489 1.335.4 2.985-5.246 1.417-4.847 1.581-5.958 1.051-7.122-1.027-2.251-5.001-3.037-10.065-1.99Zm25.456 2.594c-4.005 1.367-7.421 2.628-7.591 2.802-.17.174.076 1.371.546 2.66 1.241 3.405 1.974 22.541 1.562 40.814-.305 13.545-.584 17.244-1.668 22.066l-.329 1.463h9.111c6.938 0 9.11-.159 9.106-.665-.003-.366-.399-1.863-.878-3.326-.759-2.314-.905-6.945-1.116-35.523-.178-24.22-.401-32.85-.851-32.819-.335.023-3.886 1.16-7.892 2.528Zm20.325-1.734c0 .166 1.617 2.373 3.593 4.902 5.135 6.574 20.364 28.46 20.36 29.26-.002.215-1.222 1.708-2.713 3.318-4.365 4.714-11.084 13.225-14.18 17.962-3.051 4.669-7.593 13.776-7.593 15.227 0 .767.965.87 8.164.87h8.164l.922-3.313c1.732-6.231 7.144-15.117 13.306-21.848l1.842-2.013.886 1.214c3.595 4.922 10.772 15.615 12.247 18.246.986 1.758 1.955 4.212 2.154 5.455l.361 2.259h10.313c5.672 0 10.312-.21 10.312-.465s-1.257-1.878-2.795-3.605c-1.537-1.726-3.54-4.09-4.452-5.255-1.416-1.808-17.614-24.782-18.617-26.405-.192-.31 1.082-2.037 2.833-3.837 6.402-6.585 12.083-14.296 15.954-21.657 2.114-4.02 4.415-9.315 4.415-10.157 0-.254-3.566-.462-7.924-.462h-7.925l-.339 2.266c-.683 4.549-4.425 10.932-11.072 18.888-2.017 2.414-3.744 4.39-3.837 4.39-.345 0-9.286-13.146-10.857-15.965-.897-1.61-2.045-4.423-2.55-6.253l-.918-3.326h-10.027c-5.515 0-10.027.136-10.027.304ZM138.91 68.288l-.173 7.689-1.863 1.936c-2.731 2.838-4.557 3.615-8.607 3.665-2.797.034-3.87-.191-5.057-1.06-2.452-1.793-3.455-4.27-3.245-8.014.208-3.716 1.717-6.205 5.127-8.46 2.22-1.47 8.875-3.37 11.955-3.415l2.035-.03-.172 7.69Z"/></g><defs><clipPath id="a"><path fill="#fff" d="M0 0h353v142H0z"/></clipPath></defs></svg>