<svg width="303" height="164" viewBox="0 0 303 164" fill="none" xmlns="http://www.w3.org/2000/svg">
<g clip-path="url(#clip0_3580_33532)">
<path d="M66.8033 81.2959L67.1469 80.3311C68.1209 77.5656 68.7285 76.0854 68.6093 59.2859L68.4815 42.0168C68.4616 38.2749 68.402 34.9855 67.3883 32.8097C66.3745 30.6338 64.614 29.3885 60.4029 29.3742C53.1621 29.4371 49.2151 33.3364 47.341 35.246L47.5199 59.4376C47.5767 67.0501 47.6079 70.8892 48.0168 74.9718C48.3008 77.8833 48.7693 78.8911 49.306 80.4771L49.624 81.4162L33.4386 81.5393L33.9071 80.5143C34.4608 79.2947 34.8441 78.4359 35.1309 75.6073C35.4177 72.7788 35.5342 68.095 35.4717 59.5292L35.3326 40.9775C35.3326 38.5269 35.2701 35.621 34.2138 33.4538C33.1575 31.2866 31.2493 29.7578 26.8792 29.7606C21.0269 29.8093 17.4576 32.7295 14.2091 35.5351L14.3909 59.6895C14.4477 67.302 14.476 71.1412 14.8849 75.2237C15.1689 78.1353 15.6374 79.1373 16.1713 80.7291L16.4865 81.6681L0.556557 81.7883L0.89164 80.8264C1.85993 78.0608 2.47326 76.5778 2.354 59.7811L2.27166 48.7017C2.27166 47.9315 2.18362 36.8349 1.76337 31.4841C1.47941 28.2032 0.868922 26.6658 0.215825 24.8422L-0.0227051 24.1694L13.0052 19.4055L13.6355 24.9653C16.1911 22.6978 21.3023 19.0848 29.7812 19.0305C32.2857 19.0133 36.8801 19.3625 41.023 21.8733C42.6813 22.8095 43.6496 23.9833 44.5327 25.1743C47.199 22.9813 53.0514 18.8472 62.3821 18.7814C67.7631 18.7642 75.4015 20.4619 78.5392 26.0045C80.1861 29.1194 80.4587 32.0166 80.5013 38.315L80.6575 59.1971C80.7256 68.0979 80.8818 71.5449 81.1572 74.7284C81.4412 77.5054 81.9154 78.6621 82.4464 80.2367L82.7673 81.1757L66.8033 81.2959Z" fill="#4D5E80"/>
<path d="M148.091 75.7131C146.282 72.2776 146.282 68.1092 146.248 64.7567L145.987 29.7662L139.854 29.812L139.777 19.4225V18.6295L140.561 18.7039C142.875 18.9215 143.911 19.0389 146.047 19.1419L145.942 5.33983L157.944 0.859375L158.081 19.0847L168.241 19.0102C170.08 18.9919 171.909 18.7242 173.678 18.2143L174.681 17.9281L174.578 18.973C174.215 22.4658 173.959 24.7418 173.505 26.3307C173.051 27.9196 172.25 28.936 170.984 29.2938C170.157 29.54 169.229 29.5801 168.064 29.5801L158.16 29.6546L158.401 62.2001C158.401 65.0087 158.62 67.3534 159.344 68.8478C160.068 70.3423 161.13 71.0952 163.516 71.1124C167.775 71.0952 171.591 68.1435 174.709 64.6823L175.998 63.2508L175.947 65.189C175.791 70.6858 175.567 73.5659 175.138 75.3209C174.709 77.0758 173.866 77.8116 173.042 78.2897C170.992 79.6868 166.56 81.542 160.523 81.5964H160.412C153.62 81.6479 149.906 79.14 148.1 75.6988" fill="#4D5E80"/>
<path d="M182.637 80.4098L182.972 79.4479C183.943 76.6823 184.548 75.1993 184.432 58.4026L184.352 47.4548C184.313 42.167 184.259 35.2159 183.841 30.0798C183.685 26.8046 183.08 25.2873 182.421 23.4636L182.183 22.7994L194.64 18.0183L195.381 23.5237C197.806 21.1017 201.824 17.7091 208.494 17.6662C209.379 17.6473 210.262 17.7542 211.118 17.984C212.225 18.2703 213.568 19.1291 213.58 20.8039C213.58 21.743 213.296 22.5532 212.935 23.9761L210.982 30.6323L210.289 30.4033C209.105 30.0168 208.241 29.6818 206.418 29.6904C200.782 29.7362 197.477 33.0286 196.168 34.3742L196.344 58.3138C196.412 67.2118 196.56 70.6587 196.838 73.8451C197.122 76.6193 197.593 77.7759 198.124 79.3534L198.442 80.2924L182.637 80.4098Z" fill="#4D5E80"/>
<path d="M220.307 80.1295L220.67 79.1561C221.627 76.5394 222.246 74.9161 222.127 58.1194L222.045 46.9054C222.008 41.8867 221.954 34.6693 221.533 29.8252C221.37 27.5532 220.856 25.3208 220.009 23.209L219.725 22.5048L233.866 17.7266L234.167 58.0364C234.232 66.9372 234.385 70.3841 234.661 73.5705C234.945 76.3447 235.416 77.5013 235.95 79.0759L236.271 80.015L220.307 80.1295Z" fill="#4D5E80"/>
<path d="M260.52 18.3055H261.131L261.227 18.9154C261.875 23.0065 263.755 26.6452 266.18 30.0464L273.392 40.3242C284.245 27.5012 285.446 23.6563 286.284 18.7064L286.383 18.1109L299.879 18.0078L299.544 18.9697C295.555 30.4214 288.186 40.1038 279.815 48.744L293.042 67.4932C296.904 72.9757 299.05 75.2231 301.89 78.3093L302.992 79.5003L284.682 79.6406V78.9249C284.634 76.185 284.662 75.7756 280.139 68.9218L271.456 56.3078C267.707 60.3331 259.637 69.6576 257.971 79.2541L257.871 79.8439L243.594 79.9526L243.949 78.9792C248.325 66.9922 256.321 57.0465 264.962 47.9224L253.515 31.3432C250.726 27.271 247.722 23.3528 244.517 19.6053L243.497 18.4287L260.535 18.297" fill="#4D5E80"/>
<path d="M136.489 75.7623C133.365 73.094 132.039 71.5366 131.92 63.7123L131.707 35.0832C131.678 32.246 131.681 28.049 129.251 24.5133C126.82 20.9776 121.973 18.3122 112.841 18.3924C107.627 18.4353 102.482 19.5375 98.592 21.1637C94.7444 22.8156 91.956 24.7996 91.8623 27.3934C91.8793 28.2923 92.1463 29.2915 92.1463 29.4547V29.552L92.1718 29.6408L94.2163 37.0586L95.0681 36.1253C97.1547 33.8521 99.6752 32.0274 102.478 30.7606C105.282 29.4938 108.31 28.8111 111.381 28.7533C115.357 28.739 117.211 29.7954 118.219 31.3299C119.227 32.8644 119.42 35.2034 119.432 37.7686L119.471 42.896C113.193 43.3799 106.222 44.6796 100.688 47.8546C94.9602 51.1241 90.7804 56.5579 90.8628 64.9319C90.894 68.585 91.7686 72.8765 94.3157 76.3062C96.8627 79.736 101.116 82.2124 107.556 82.1494H107.619C115.74 82.0865 120.241 78.6452 122.422 76.6498C123.995 80.7008 125.906 81.9576 127.249 82.0006C128.22 81.9634 129.103 81.3793 129.611 81.1417L137.25 76.4064L136.489 75.7623ZM119.69 63.5663C119.468 65.7335 119.122 68.2529 115.715 70.4373C114.033 71.4639 112.109 72.0175 110.143 72.0405C103.726 72.092 102.857 67.1736 102.84 64.7887C102.775 56.1599 111.79 53.8152 119.627 53.3972L119.69 63.5663Z" fill="#4D5E80"/>
<path d="M63.1602 152.328C61.9619 152.423 61.2889 153.582 60.4967 154.619C59.7896 155.681 58.9122 156.683 58.7617 156.603H45.8701V138.741H62.3878L62.5411 138.529C62.6458 138.376 62.6986 138.193 62.6916 138.008C62.6405 137.034 61.7432 135.657 60.721 134.237C59.6221 132.875 58.7163 131.641 57.6287 131.506C56.5525 131.612 55.7887 132.689 54.8204 133.676C54.3632 134.183 53.9174 134.675 53.5398 135.028C53.3413 135.221 53.1178 135.387 52.8753 135.52H21.3279C19.184 135.755 13.4708 138.019 11.1055 138.002C10.5546 138.002 10.4126 137.873 10.3928 137.853C10.2905 137.281 12.8887 134.197 15.6857 131.518C18.5082 128.735 21.5238 126.018 22.3785 125.165C23.3099 124.223 25.7377 121.89 27.9242 119.697C29.0202 118.6 30.0567 117.538 30.8262 116.694C31.3941 116.009 31.8058 115.64 32.0358 115.211H32.28L32.2062 114.621C31.8143 113.312 28.37 110.438 26.8111 109.831C26.745 109.81 26.676 109.799 26.6066 109.8C25.6951 109.954 25.4112 110.71 24.7098 111.729C23.7756 113.278 22.6596 115.563 21.7112 117.487C21.2342 118.446 20.8054 119.316 20.4618 119.949C20.2943 120.266 20.1466 120.521 20.0359 120.69C20.0045 120.741 19.9704 120.789 19.9337 120.836C19.4992 120.893 17.0941 121.005 14.7884 120.991C12.7852 121.027 10.7816 120.942 8.78844 120.736C8.95313 120.109 9.98673 118.159 11.026 116.539C12.1306 114.764 13.238 113.149 13.3431 112.995C14.1751 111.849 16.3218 109.322 18.2555 106.96C20.104 104.623 21.7027 102.84 21.9838 101.766L22.0378 101.66L22.0151 101.509C21.7311 100.535 20.5754 99.9054 19.2692 99.0064C17.9176 98.1905 16.7136 97.4891 15.9555 97.4376H15.9214C15.8166 97.436 15.7134 97.4638 15.6232 97.5177C15.2654 97.7124 15.3052 97.8756 15.0326 98.2306C13.5759 100.561 9.35351 109.284 8.18361 111.211C7.56459 112.233 5.52011 114.744 3.66021 117.063C1.78042 119.496 0.130642 121.311 -0.0170146 122.322C-0.0201048 122.387 -0.0104638 122.452 0.011374 122.514L0.0511319 122.628L0.13063 122.717C0.13063 122.717 1.363 123.982 2.68623 125.259C4.106 126.542 5.16515 127.764 6.09369 127.93C7.10457 127.721 7.37716 126.785 8.01038 125.841C8.35965 125.219 8.67484 124.601 8.84521 124.257C10.1344 124.206 15.0922 124.011 17.591 124.011H17.9176C16.5915 125.282 13.5617 128.085 10.6512 130.851C8.71461 132.691 6.78939 134.572 5.34406 136.084C3.89305 137.693 2.9276 138.592 2.80834 139.52C2.83106 140.587 3.54094 141.841 4.37861 142.975C5.26171 144.069 6.11073 145.025 7.13297 145.099H7.25507C8.67485 144.833 19.5049 139.027 23.0799 138.893C26.0671 138.749 35.6591 138.735 39.4641 138.735H40.5488L40.5091 156.508C38.5753 156.479 31.6752 156.396 26.7798 156.396C25.3601 156.396 24.0823 156.396 23.1651 156.422C22.7051 156.422 22.3331 156.445 22.0605 156.457C21.9242 156.457 21.8191 156.474 21.7226 156.488C21.7009 156.491 21.6789 156.491 21.6573 156.488C21.5806 156.488 21.5181 156.488 21.2597 156.697C21.1515 156.835 21.097 157.008 21.1064 157.184C21.149 157.928 21.6743 158.818 22.0151 159.365C22.3274 159.651 22.4098 159.634 22.5006 159.626C22.5657 159.616 22.6322 159.627 22.6909 159.657C24.0255 159.789 29.1111 159.835 35.4688 159.835C48.8147 159.835 67.5955 159.64 67.5955 159.64H67.8113L67.959 159.488C68.0261 159.416 68.0781 159.331 68.1123 159.238C68.1464 159.145 68.1619 159.046 68.1578 158.947C68.1095 158.054 67.3059 156.657 66.3121 155.185C65.2643 153.771 64.3244 152.443 63.1403 152.322M32.2119 114.718C32.2068 114.791 32.1875 114.862 32.1551 114.927C32.1781 114.859 32.1961 114.789 32.209 114.718M29.3695 146.654C29.4322 146.55 29.4647 146.429 29.4632 146.307C29.2588 145.477 28.7334 145.666 28.4126 145.609C24.4514 145.66 3.31377 151.661 1.76906 152.569C1.60858 152.672 1.47756 152.815 1.38891 152.985C1.30027 153.155 1.25708 153.345 1.26363 153.536C1.40844 155.237 3.53526 157.507 4.73071 158.043C4.80585 158.067 4.88446 158.08 4.96355 158.08C6.1732 158.022 11.716 155.661 17.4576 153.058C20.2971 151.764 23.1055 150.41 25.2749 149.285C27.4698 148.105 28.8953 147.358 29.3809 146.654M29.219 105.293C30.2753 105.391 32.5129 105.419 35.2105 105.419C39.4982 105.419 44.8933 105.333 48.1475 105.273C43.7887 112.273 38.0358 118.463 33.3051 123.052C30.8461 125.434 28.6653 127.384 27.095 128.801C26.3085 129.505 25.6752 130.078 25.2266 130.519C24.7865 131.034 24.5167 131.074 24.3974 131.712C24.4011 131.829 24.4382 131.942 24.5042 132.037C24.5702 132.133 24.6624 132.207 24.7694 132.251C24.9046 132.293 25.0454 132.314 25.1868 132.314C27.1461 132.231 31.5929 129.101 36.1333 125.972C40.5034 122.866 45.1319 119.674 45.4016 119.82C45.6487 119.677 50.1351 122.929 54.2042 126.118C58.4635 129.325 62.3679 132.482 63.8388 132.614C63.9202 132.613 64.0011 132.602 64.0802 132.583C64.7276 132.19 64.6055 131.833 64.7333 131.337C64.8011 130.747 64.8314 130.153 64.8241 129.559C64.8043 127.77 64.6793 125.838 64.2562 124.996L63.8076 125.262L64.2562 124.99C62.9898 122.986 58.9321 121.383 55.1015 119.88C53.1933 119.147 51.3476 118.477 49.9903 117.919C49.4517 117.705 48.9263 117.458 48.4172 117.18C48.3183 117.121 48.2234 117.055 48.1333 116.983C48.8091 115.76 51.146 112.886 53.3637 110.232C55.8 107.234 58.0262 104.772 58.279 103.793C58.279 103.727 58.279 103.69 58.279 103.656C58.1597 102.556 56.9784 101.637 55.7007 100.564C54.3661 99.5561 53.1167 98.6915 52.2165 98.6314C52.088 98.6292 51.9611 98.6597 51.8474 98.7201C51.2965 99.0522 50.9047 99.8109 50.3453 100.644C49.9648 101.248 49.624 101.832 49.4735 102.093C46.8242 102.064 39.3079 101.984 33.8957 101.984C32.2147 101.984 30.7353 101.984 29.6648 102.01C29.131 102.01 28.6965 102.033 28.387 102.044C28.2308 102.044 28.1031 102.064 28.0008 102.075C27.9678 102.087 27.9317 102.087 27.8986 102.075C27.8475 102.075 27.7907 102.061 27.5096 102.299C27.4045 102.434 27.3511 102.603 27.3591 102.774C27.3988 103.518 27.927 104.409 28.2678 104.953C28.7647 105.408 28.8101 105.185 29.2162 105.302" fill="#A7AFBE"/>
<path d="M109.294 144.313C105.333 144.367 84.1899 150.37 82.6451 151.275C82.4844 151.377 82.3536 151.521 82.2663 151.691C82.1789 151.861 82.1382 152.052 82.1482 152.243C82.2902 153.941 84.4028 156.217 85.6096 156.746C85.6848 156.771 85.7634 156.783 85.8425 156.783C87.0521 156.729 92.5921 154.361 98.3365 151.759C101.176 150.465 103.979 149.119 106.148 147.991C108.343 146.809 109.771 146.067 110.254 145.36C110.313 145.253 110.345 145.133 110.348 145.011C110.141 144.175 109.615 144.373 109.297 144.313M141.952 104.232C140.757 104.326 140.084 105.491 139.291 106.522C138.584 107.587 137.704 108.586 137.556 108.526C137.619 108.526 135.251 108.552 132.76 108.552C131.42 108.552 130.043 108.552 128.989 108.515C128.458 108.515 128.013 108.48 127.7 108.455C127.668 108.457 127.636 108.457 127.604 108.455L127.689 102.511C127.689 102.511 127.797 100.541 129.393 100.381L129.617 100.353L129.745 100.169C129.822 100.059 129.864 99.9287 129.867 99.7942C129.606 98.7292 128.475 98.3628 127.081 97.5039C125.662 96.7796 124.168 96.1183 123.171 96.0954C123.027 96.0875 122.883 96.1087 122.746 96.1579C122.61 96.207 122.485 96.2831 122.379 96.3816L122.231 96.5448V96.7596C122.231 96.7596 122.416 101.976 122.416 105.566C122.416 106.459 122.416 107.255 122.379 107.836C122.362 108.1 122.348 108.314 122.331 108.466C121.933 108.5 121.05 108.526 119.988 108.523C116.441 108.523 110.334 108.34 107.23 108.34C106.639 108.34 106.157 108.34 105.81 108.363C105.663 108.367 105.516 108.38 105.37 108.4C105.354 108.411 105.335 108.419 105.315 108.422C105.296 108.426 105.276 108.425 105.256 108.42C105.177 108.42 105.08 108.4 104.805 108.775C102.562 114.089 100.926 117.885 100.46 118.967H91.8084C93.1061 117.215 95.7042 113.725 98.1548 110.347C99.6313 108.314 101.051 106.339 102.11 104.776C103.019 103.373 103.638 102.557 103.857 101.913L103.97 101.833L103.933 101.512C103.649 100.539 102.488 99.9116 101.179 99.0098C99.8273 98.1967 98.6233 97.4982 97.8708 97.4438C97.7543 97.4411 97.6394 97.4708 97.5386 97.5297C97.178 97.7158 97.2177 97.8818 96.9451 98.2397C95.4913 100.564 91.2802 109.288 90.099 111.217C89.4572 112.268 87.6428 114.724 85.993 117.015C84.3375 119.402 82.895 121.229 82.7758 122.199C82.7695 122.274 82.7822 122.349 82.8127 122.417L82.861 122.531L82.9547 122.617C82.9547 122.617 83.9655 123.508 85.0645 124.404C86.2514 125.306 87.1714 126.182 88.0091 126.299C89.1449 126.079 89.9967 124.484 90.3574 123.848C91.0928 123.848 93.2253 123.8 95.1165 123.8C95.991 123.8 96.8202 123.8 97.4165 123.831H97.4449C96.4425 125.074 94.3214 127.693 92.1804 130.416C90.7095 132.288 89.2357 134.201 88.1283 135.732C87.0152 137.344 86.2854 138.249 86.1917 139.033C86.2798 140.677 87.8955 142.835 89.8207 142.956C89.8433 142.959 89.8662 142.959 89.8888 142.956C91.3881 142.956 96.3857 142.177 101.133 141.049C103.298 140.561 105.427 139.921 107.503 139.134C109.206 138.389 110.473 137.819 110.598 136.557C110.595 136.318 110.526 136.084 110.399 135.881C109.913 135.349 109.547 135.498 108.885 135.437C106.103 135.437 99.1259 136.614 95.6474 136.614C95.2035 136.623 94.7597 136.591 94.3214 136.52C94.2243 136.501 94.1292 136.474 94.0374 136.437C94.2021 135.475 97.7572 130.382 101.568 125.297C105.424 120.078 109.567 114.533 111.063 111.601H122.24C122.24 112.674 122.24 115.323 122.24 118.887C119.789 118.856 116.879 118.827 114.573 118.827C113.437 118.827 112.458 118.827 111.733 118.85C111.376 118.85 111.083 118.87 110.865 118.884C110.799 118.908 110.729 118.916 110.66 118.907C110.569 118.893 110.49 118.884 110.16 119.148C110.054 119.283 110 119.453 110.01 119.626C110.047 120.37 110.578 121.257 110.916 121.801C111.262 122.174 111.384 122.062 111.634 122.145C112.877 122.264 114.126 122.309 115.374 122.28C117.396 122.28 119.897 122.231 122.254 122.182C122.254 124.994 122.254 128.151 122.254 131.447C119.378 131.409 114.726 131.352 111.251 131.352C109.97 131.352 108.851 131.352 108.036 131.381C107.628 131.381 107.298 131.401 107.057 131.418C106.932 131.418 106.835 131.435 106.744 131.447C106.726 131.457 106.706 131.462 106.685 131.464C106.608 131.464 106.54 131.464 106.304 131.667C106.198 131.806 106.141 131.978 106.145 132.154C106.191 132.895 106.713 133.791 107.057 134.332C107.451 134.733 107.545 134.587 107.835 134.676C108.627 134.776 110.197 134.805 112.165 134.805C115.257 134.805 119.264 134.722 122.263 134.662C122.263 141.375 122.282 148.283 122.291 153.557C122.291 156.268 122.291 158.547 122.308 160.142C122.308 160.949 122.308 161.573 122.308 162.011V162.509C122.308 162.569 122.308 162.612 122.308 162.641V162.71V162.744C122.308 162.744 122.308 162.773 122.308 162.801C122.308 162.83 122.26 162.867 122.51 163.105C123.273 163.591 125.735 164.032 126.786 164.072C126.973 164.087 127.16 164.045 127.323 163.952C127.632 163.611 127.507 163.666 127.553 163.603C127.587 163.299 127.578 160.19 127.584 155.839C127.584 148.129 127.558 137.041 127.555 134.527H139.161C139.161 136.797 139.087 145.79 138.755 147.41C138.221 148.186 136.225 148.593 134.211 148.555C132.578 148.537 130.948 148.395 129.336 148.129L128.725 148.02V148.641C128.964 151.287 134.475 155.315 137.602 155.484H137.653C142.716 155.361 142.991 149.506 143.21 144.204C143.38 138.701 143.659 133.754 146.759 133.866H146.938L147.072 133.757C147.159 133.69 147.231 133.603 147.28 133.504C147.329 133.405 147.355 133.295 147.356 133.184C147.268 132.271 146.396 131.335 145.368 130.241C144.295 129.219 143.224 128.266 142.182 128.209C140.226 128.375 138.536 131.55 137.784 131.475H127.581V122.028H143.483L143.633 121.87C143.698 121.801 143.749 121.719 143.782 121.629C143.815 121.54 143.83 121.445 143.826 121.349C143.761 120.464 142.937 119.345 141.955 118.1C140.918 116.923 139.922 115.809 138.811 115.738C136.855 115.907 135.168 119.059 134.413 118.99H127.581V111.572H147.637L147.79 111.403C147.909 111.274 147.973 111.102 147.966 110.925C147.878 109.978 146.83 108.635 145.587 107.132C144.289 105.7 143.099 104.363 141.932 104.252" fill="#A7AFBE"/>
<path d="M195.918 153.942C197.741 154.652 198.232 155.288 198.232 156.347C198.232 158.823 195.495 159.745 183.358 159.745H175.007C168.695 159.745 167.15 158.471 167.15 154.157V121.623C165.059 123.698 162.793 125.586 160.378 127.265C160.133 127.434 159.838 127.515 159.542 127.494C159.246 127.473 158.965 127.352 158.745 127.151C166.557 119.344 173.159 107.683 176.441 98.7222C176.503 98.5501 176.599 98.3928 176.724 98.2601C176.849 98.1274 177 98.0221 177.167 97.9509C177.334 97.8797 177.514 97.844 177.696 97.8462C177.877 97.8484 178.056 97.8883 178.222 97.9635L184.082 100.626C184.167 100.665 184.241 100.725 184.295 100.802C184.349 100.879 184.382 100.968 184.391 101.062C184.4 101.156 184.384 101.25 184.344 101.335C184.305 101.421 184.244 101.494 184.168 101.548C183.739 101.851 183.1 101.943 182.038 101.757C202.946 110.317 199.643 123.332 193.334 119.298C191.511 114.205 186.039 107.769 181.197 103.311C177.886 109.199 173.882 114.662 169.271 119.581L173.264 121.299C173.362 121.34 173.467 121.361 173.573 121.362H186.042L188.14 119.244C188.372 119.01 188.682 118.872 189.01 118.856C189.337 118.84 189.659 118.948 189.912 119.158L193.399 122.049C193.547 122.171 193.66 122.332 193.724 122.514C193.789 122.695 193.803 122.891 193.766 123.081C193.728 123.27 193.64 123.445 193.511 123.588C193.381 123.731 193.216 123.835 193.033 123.89C192.672 123.99 192.305 124.068 191.934 124.122C191.934 136.146 191.585 141.013 189.409 142.937C188.154 144.082 186.388 144.655 184.375 144.766C184.103 144.781 183.835 144.689 183.628 144.51C183.422 144.331 183.291 144.078 183.265 143.804C183.168 142.814 182.893 141.975 182.251 141.38C181.561 140.807 180.113 140.315 178.491 139.948C178.191 139.884 177.924 139.714 177.739 139.468C177.553 139.222 177.462 138.917 177.48 138.608C179.516 138.749 182.876 139.032 183.935 139.032C184.994 139.032 185.409 138.892 185.761 138.459C186.612 137.54 186.743 132.871 186.743 123.395H172.5V152.963C172.5 154.306 172.991 154.729 175.939 154.729H183.515C187.024 154.729 189.549 154.729 190.67 154.589C191.585 154.517 191.934 154.303 192.286 153.527C192.916 152.253 193.899 147.867 194.881 143.057C195.107 143.057 195.324 143.148 195.484 143.309C195.643 143.47 195.733 143.688 195.733 143.916L195.918 153.942ZM205.947 144.606C205.947 145.179 203.701 146.304 201.736 146.304H200.753V107.826C200.754 107.639 200.793 107.455 200.869 107.284C200.945 107.113 201.056 106.961 201.194 106.836C201.332 106.711 201.495 106.617 201.671 106.56C201.848 106.503 202.034 106.483 202.219 106.504L208.403 107.191C208.261 108.113 207.702 108.82 205.947 109.032V144.606ZM221.624 102.123C221.09 102.488 220.478 102.718 219.838 102.796V155.225C219.838 159.184 219.046 161.666 213.131 162.614C212.788 162.67 212.436 162.587 212.153 162.384C211.869 162.181 211.676 161.874 211.615 161.529C211.407 160.352 211.013 159.416 210.226 158.832C209.337 157.936 207.869 157.329 205.203 156.854C204.959 156.81 204.738 156.681 204.579 156.489C204.42 156.298 204.334 156.056 204.334 155.806V155.66C204.334 155.66 211.433 156.155 212.822 156.155C214.085 156.155 214.437 155.803 214.437 154.741V99.0485C214.437 98.8624 214.476 98.6783 214.551 98.5081C214.626 98.338 214.735 98.1856 214.872 98.0609C215.009 97.9362 215.171 97.8419 215.346 97.7842C215.522 97.7265 215.707 97.7066 215.891 97.7259L221.232 100.692C221.39 100.709 221.539 100.774 221.66 100.878C221.781 100.981 221.868 101.119 221.91 101.273C221.953 101.428 221.948 101.591 221.897 101.743C221.846 101.894 221.751 102.027 221.624 102.123Z" fill="#A7AFBE"/>
<path d="M262.241 124.356C260.075 126.16 257.494 128.364 254.347 130.892V154.654C254.347 158.88 253.615 161.565 247.515 162.536C247.171 162.593 246.818 162.51 246.534 162.306C246.25 162.101 246.057 161.792 245.999 161.445C245.783 160.091 245.371 159.043 244.664 158.33C243.733 157.391 242.248 156.727 239.724 156.243C239.437 156.19 239.178 156.037 238.991 155.811C238.804 155.585 238.702 155.3 238.701 155.006C238.701 155.006 245.718 155.501 247.192 155.501C248.455 155.501 248.805 155.146 248.805 154.087V135.192C247.05 136.606 245.227 138.021 243.191 139.506C243.184 139.602 243.172 139.698 243.154 139.793C243.113 140.007 243.008 140.203 242.853 140.355C242.698 140.507 242.501 140.607 242.287 140.642C242.074 140.678 241.855 140.646 241.66 140.552C241.465 140.458 241.304 140.306 241.197 140.116L238.795 135.822C238.74 135.724 238.706 135.616 238.695 135.504C238.685 135.392 238.698 135.279 238.734 135.173C238.77 135.066 238.828 134.969 238.904 134.887C238.98 134.805 239.073 134.74 239.176 134.697C241.339 133.778 244.801 132.057 248.805 130.007V115.965H239.925C239.694 115.965 239.47 115.888 239.286 115.747C239.102 115.606 238.97 115.408 238.909 115.183L238.747 114.588C238.725 114.509 238.721 114.426 238.737 114.345C238.752 114.265 238.785 114.189 238.835 114.124C238.884 114.058 238.948 114.005 239.021 113.969C239.093 113.933 239.174 113.914 239.255 113.915H248.805V98.6899C248.805 98.5408 248.836 98.3935 248.896 98.2573C248.956 98.1211 249.043 97.9992 249.153 97.8994C249.263 97.7995 249.392 97.724 249.533 97.6777C249.673 97.6314 249.822 97.6153 249.969 97.6306L255.725 99.5659C255.883 99.5817 256.033 99.6454 256.155 99.7485C256.277 99.8516 256.366 99.9894 256.409 100.144C256.452 100.299 256.448 100.463 256.397 100.615C256.347 100.767 256.252 100.9 256.125 100.997C255.595 101.362 254.985 101.593 254.347 101.67V113.923H256.312L258.803 110.462C258.888 110.344 258.997 110.244 259.123 110.17C259.248 110.096 259.388 110.049 259.532 110.031C259.676 110.014 259.823 110.027 259.962 110.069C260.101 110.111 260.231 110.181 260.342 110.276C261.313 111.112 262.923 112.532 264.277 113.872C264.45 114.042 264.569 114.261 264.618 114.499C264.667 114.738 264.644 114.986 264.552 115.212C264.461 115.437 264.305 115.63 264.104 115.766C263.903 115.901 263.667 115.974 263.425 115.973H254.339V127.222C256.988 125.816 259.637 124.41 262.358 122.927C262.372 122.92 262.387 122.918 262.403 122.922C262.418 122.926 262.431 122.935 262.44 122.947C262.585 123.167 262.645 123.432 262.606 123.693C262.568 123.954 262.435 124.191 262.233 124.359M297.12 132.661C296.479 132.817 295.826 132.913 295.169 132.947C292.434 139.246 288.638 144.831 283.453 149.501C288.814 153.034 295.319 155.481 302.574 157.045C302.702 157.071 302.815 157.144 302.891 157.25C302.968 157.356 303.003 157.487 302.989 157.617L302.958 158.001C300.97 158.287 299.434 159.512 298.482 161.416C298.311 161.758 298.023 162.026 297.672 162.171C297.32 162.316 296.929 162.329 296.569 162.206C289.836 159.916 284.262 156.859 279.736 152.624C273.693 157.056 266.106 160.469 256.772 162.736C256.598 162.778 256.416 162.759 256.254 162.682C256.092 162.606 255.96 162.476 255.881 162.315L255.597 161.743C264.226 158.914 271.314 154.812 276.996 149.79C272.997 145.121 270.121 139.389 268.156 132.106H263.67C263.444 132.105 263.225 132.032 263.044 131.897C262.862 131.762 262.729 131.573 262.662 131.356L261.866 129.586H288.737L291.676 127.648C291.92 127.419 292.241 127.292 292.575 127.292C292.908 127.292 293.229 127.419 293.473 127.648L297.423 131.333C297.526 131.428 297.602 131.549 297.643 131.683C297.685 131.817 297.69 131.96 297.659 132.097C297.628 132.234 297.561 132.36 297.466 132.463C297.371 132.565 297.25 132.641 297.117 132.681M299.672 119.818C300.425 119.736 301.182 119.927 301.808 120.356C302.051 120.517 302.247 120.742 302.375 121.006C302.503 121.27 302.558 121.564 302.535 121.857C302.535 123.906 300.78 124.969 294.464 124.969H291.029C286.818 124.969 286.258 123.766 286.258 120.442V104.364H273.838V108.115C273.838 114.204 272.563 123.073 261.344 128.619C261.132 128.725 260.89 128.756 260.658 128.706C260.426 128.657 260.218 128.53 260.066 128.347L259.887 128.132C267.534 122.189 268.659 114.676 268.659 108.115V101.349C268.659 101.175 268.701 101.003 268.783 100.85C268.864 100.696 268.982 100.565 269.126 100.468C269.269 100.37 269.435 100.311 269.607 100.293C269.779 100.276 269.953 100.301 270.112 100.368L274.832 102.311H285.622L287.743 100.021C287.928 99.8202 288.182 99.699 288.453 99.683C288.724 99.667 288.991 99.7574 289.197 99.9352L292.798 103.013C292.943 103.137 293.053 103.299 293.114 103.481C293.176 103.664 293.187 103.859 293.147 104.048C293.107 104.236 293.017 104.409 292.886 104.55C292.755 104.69 292.589 104.792 292.406 104.845C292.067 104.944 291.723 105.021 291.375 105.077V118.942C291.375 119.721 291.517 120.004 292.568 120.004H294.953C295.726 120.023 296.5 120 297.27 119.933H298.321L299.672 119.818ZM269.63 132.114C271.661 137.899 275.257 142.995 280.011 146.827C283.979 142.559 287.099 137.565 289.203 132.114H269.63Z" fill="#A7AFBE"/>
</g>
<defs>
<clipPath id="clip0_3580_33532">
<rect width="303" height="164" fill="white"/>
</clipPath>
</defs>
</svg>
