<svg width="118" height="40" viewBox="0 0 118 40" fill="none" xmlns="http://www.w3.org/2000/svg">
<path d="M50.2153 20.5126C50.2153 26.0648 45.8814 30.1561 40.5627 30.1561C35.2441 30.1561 30.9102 26.0648 30.9102 20.5126C30.9102 14.9213 35.2441 10.8691 40.5627 10.8691C45.8814 10.8691 50.2153 14.9213 50.2153 20.5126ZM45.9899 20.5126C45.9899 17.0431 43.478 14.6691 40.5627 14.6691C37.6474 14.6691 35.1356 17.0431 35.1356 20.5126C35.1356 23.9474 37.6474 26.3561 40.5627 26.3561C43.478 26.3561 45.9899 23.9431 45.9899 20.5126Z" fill="#EA4335"/>
<path d="M71.0395 20.5126C71.0395 26.0648 66.7056 30.1561 61.3869 30.1561C56.0683 30.1561 51.7344 26.0648 51.7344 20.5126C51.7344 14.9257 56.0683 10.8691 61.3869 10.8691C66.7056 10.8691 71.0395 14.9213 71.0395 20.5126ZM66.8141 20.5126C66.8141 17.0431 64.3022 14.6691 61.3869 14.6691C58.4717 14.6691 55.9598 17.0431 55.9598 20.5126C55.9598 23.9474 58.4717 26.3561 61.3869 26.3561C64.3022 26.3561 66.8141 23.9431 66.8141 20.5126Z" fill="#FBBC05"/>
<path d="M90.9931 11.4517V28.7648C90.9931 35.8865 86.8023 38.7952 81.8481 38.7952C77.1845 38.7952 74.3776 35.6691 73.3191 33.1126L76.9979 31.5778C77.653 33.1474 79.2581 34.9996 81.8437 34.9996C85.015 34.9996 86.9802 33.0387 86.9802 29.3474V27.9604H86.8327C85.887 29.13 84.0649 30.1517 81.7656 30.1517C76.9545 30.1517 72.5469 25.9517 72.5469 20.5474C72.5469 15.1039 76.9545 10.8691 81.7656 10.8691C84.0606 10.8691 85.8826 11.8909 86.8327 13.0257H86.9802V11.4561H90.9931V11.4517ZM87.2795 20.5474C87.2795 17.1517 85.0193 14.6691 82.1431 14.6691C79.2278 14.6691 76.7853 17.1517 76.7853 20.5474C76.7853 23.9083 79.2278 26.3561 82.1431 26.3561C85.0193 26.3561 87.2795 23.9083 87.2795 20.5474Z" fill="#4285F4"/>
<path d="M97.6096 1.30469V29.5656H93.4883V1.30469H97.6096Z" fill="#34A853"/>
<path d="M113.669 23.687L116.948 25.8783C115.89 27.4478 113.339 30.1522 108.931 30.1522C103.465 30.1522 99.3828 25.9174 99.3828 20.5087C99.3828 14.7739 103.5 10.8652 108.458 10.8652C113.452 10.8652 115.894 14.8478 116.692 17L117.131 18.0957L104.268 23.4348C105.252 25.3696 106.784 26.3565 108.931 26.3565C111.083 26.3565 112.575 25.2957 113.669 23.687ZM103.574 20.2174L112.172 16.6391C111.699 15.4348 110.276 14.5957 108.602 14.5957C106.454 14.5957 103.465 16.4957 103.574 20.2174Z" fill="#EA4335"/>
<path d="M15.3097 18.0051V13.9138H29.0663C29.2007 14.6268 29.2701 15.4703 29.2701 16.3833C29.2701 19.4529 28.4329 23.2486 25.7345 25.9529C23.1099 28.692 19.7564 30.1529 15.314 30.1529C7.08007 30.1529 0.15625 23.4312 0.15625 15.179C0.15625 6.92682 7.08007 0.205078 15.314 0.205078C19.8692 0.205078 23.1142 1.99638 25.5523 4.33116L22.6717 7.21812C20.9234 5.57464 18.5547 4.29638 15.3097 4.29638C9.29691 4.29638 4.59426 9.1529 4.59426 15.179C4.59426 21.2051 9.29691 26.0616 15.3097 26.0616C19.2098 26.0616 21.431 24.492 22.8539 23.0659C24.0079 21.9094 24.7671 20.2573 25.0664 18.0007L15.3097 18.0051Z" fill="#4285F4"/>
</svg>
