<svg width="152" height="40" viewBox="0 0 152 40" fill="none" xmlns="http://www.w3.org/2000/svg">
<path d="M63.3522 10.5784V29.6462H59.9808V14.6833H59.9358L53.9122 29.6462H51.6646L45.5061 14.6833H45.4611V29.6462H42.3594V10.5784H47.2143L52.7884 24.7027H52.8783L58.7671 10.5784H63.3522ZM66.1393 12.035C66.1393 11.5054 66.3191 11.064 66.7237 10.7109C67.1282 10.3578 67.5778 10.1812 68.1172 10.1812C68.7016 10.1812 69.1961 10.3578 69.5557 10.7109C69.9153 11.064 70.1401 11.5054 70.1401 12.035C70.1401 12.5647 69.9603 13.0061 69.5557 13.3592C69.1511 13.7123 68.7016 13.8888 68.1172 13.8888C67.5328 13.8888 67.0833 13.7123 66.7237 13.3592C66.364 12.9619 66.1393 12.5205 66.1393 12.035ZM69.7804 15.9633V29.6462H66.4989V15.9633H69.7804ZM79.715 27.3069C80.2094 27.3069 80.7489 27.2186 81.3333 26.9538C81.9176 26.7331 82.4571 26.4241 82.9516 26.071V29.0724C82.4121 29.3814 81.8277 29.6021 81.1535 29.7345C80.4792 29.8669 79.7599 29.9552 78.9508 29.9552C76.883 29.9552 75.2197 29.3373 73.961 28.0573C72.6574 26.7772 72.0281 25.1441 72.0281 23.202C72.0281 20.9951 72.7024 19.1854 74.006 17.773C75.3096 16.3606 77.1527 15.6544 79.5801 15.6544C80.2094 15.6544 80.8388 15.7426 81.4232 15.8751C82.0525 16.0075 82.547 16.2282 82.9066 16.4047V19.4944C82.4121 19.1413 81.8727 18.8323 81.3782 18.6558C80.8388 18.4792 80.2994 18.3468 79.7599 18.3468C78.4563 18.3468 77.4224 18.7441 76.6132 19.5827C75.8041 20.4213 75.4445 21.5248 75.4445 22.9372C75.4445 24.3055 75.849 25.409 76.6132 26.1593C77.3774 26.9097 78.4113 27.3069 79.715 27.3069ZM92.2567 15.7426C92.5265 15.7426 92.7512 15.7426 92.976 15.7868C93.2007 15.8309 93.3806 15.8751 93.5154 15.9192V19.1854C93.3356 19.053 93.1108 18.9206 92.7512 18.8323C92.3916 18.7441 92.032 18.6558 91.5375 18.6558C90.7284 18.6558 90.0541 19.0089 89.5146 19.671C88.9752 20.333 88.6605 21.3482 88.6605 22.7606V29.6462H85.379V15.9633H88.6605V18.1261H88.7055C89.0202 17.3758 89.4697 16.802 90.0541 16.3606C90.6834 15.9633 91.4026 15.7426 92.2567 15.7426ZM93.6952 23.0255C93.6952 20.7744 94.3695 18.9647 95.6282 17.6406C96.9318 16.3164 98.7299 15.6544 101.022 15.6544C103.18 15.6544 104.888 16.2723 106.102 17.5523C107.316 18.8323 107.945 20.5537 107.945 22.7165C107.945 24.9234 107.271 26.689 106.012 28.0131C104.709 29.3373 102.955 29.9993 100.708 29.9993C98.5501 29.9993 96.8419 29.3814 95.5832 28.1455C94.3246 26.8655 93.6952 25.1441 93.6952 23.0255ZM97.1116 22.8931C97.1116 24.3055 97.4263 25.409 98.1006 26.1593C98.7749 26.9097 99.7189 27.3069 100.933 27.3069C102.101 27.3069 103.045 26.9538 103.675 26.1593C104.304 25.409 104.619 24.3055 104.619 22.8048C104.619 21.3482 104.304 20.2448 103.675 19.4503C103.045 18.6999 102.101 18.3027 100.978 18.3027C99.7638 18.3027 98.8648 18.6999 98.1905 19.4944C97.4263 20.333 97.1116 21.4365 97.1116 22.8931ZM112.845 19.5827C112.845 20.0241 112.98 20.4213 113.295 20.6861C113.609 20.951 114.239 21.2599 115.272 21.6572C116.576 22.1868 117.52 22.7606 118.015 23.3786C118.554 24.0407 118.824 24.791 118.824 25.7179C118.824 26.9979 118.329 28.0131 117.295 28.8076C116.306 29.6021 114.913 29.9552 113.205 29.9552C112.62 29.9552 111.991 29.8669 111.272 29.7345C110.552 29.6021 109.968 29.4255 109.474 29.2049V26.0269C110.058 26.4241 110.732 26.7772 111.407 26.9979C112.081 27.2186 112.71 27.351 113.295 27.351C114.014 27.351 114.598 27.2628 114.913 27.0421C115.272 26.8214 115.452 26.5124 115.452 26.0269C115.452 25.5855 115.272 25.2324 114.913 24.8793C114.553 24.5703 113.834 24.2172 112.845 23.82C111.631 23.3344 110.777 22.7606 110.283 22.1427C109.788 21.5248 109.519 20.7303 109.519 19.7592C109.519 18.5234 110.013 17.5082 111.002 16.7137C111.991 15.9192 113.295 15.5219 114.868 15.5219C115.362 15.5219 115.902 15.5661 116.486 15.6985C117.071 15.8309 117.61 15.9633 118.015 16.0957V19.2296C117.565 18.9647 117.071 18.6999 116.486 18.4792C115.902 18.2585 115.317 18.1703 114.778 18.1703C114.149 18.1703 113.654 18.3027 113.34 18.5234C113.025 18.8323 112.845 19.1413 112.845 19.5827ZM120.217 23.0255C120.217 20.7744 120.892 18.9647 122.15 17.6406C123.454 16.3164 125.252 15.6544 127.545 15.6544C129.702 15.6544 131.41 16.2723 132.624 17.5523C133.838 18.8323 134.467 20.5537 134.467 22.7165C134.467 24.9234 133.793 26.689 132.534 28.0131C131.231 29.3373 129.477 29.9993 127.23 29.9993C125.072 29.9993 123.364 29.3814 122.105 28.1455C120.892 26.8655 120.217 25.1441 120.217 23.0255ZM123.634 22.8931C123.634 24.3055 123.948 25.409 124.623 26.1593C125.297 26.9097 126.241 27.3069 127.455 27.3069C128.623 27.3069 129.567 26.9538 130.197 26.1593C130.826 25.409 131.141 24.3055 131.141 22.8048C131.141 21.3482 130.826 20.2448 130.197 19.4503C129.567 18.6999 128.623 18.3027 127.5 18.3027C126.286 18.3027 125.387 18.6999 124.712 19.4944C123.993 20.333 123.634 21.4365 123.634 22.8931ZM145.391 18.6116H140.491V29.6462H137.164V18.6116H134.827V15.9633H137.164V14.0654C137.164 12.653 137.659 11.4612 138.603 10.5343C139.547 9.6074 140.761 9.16602 142.244 9.16602C142.649 9.16602 143.008 9.21015 143.323 9.21015C143.638 9.21015 143.907 9.29843 144.132 9.38671V12.1674C144.042 12.1233 143.817 12.035 143.548 11.9467C143.278 11.8585 142.963 11.8143 142.604 11.8143C141.929 11.8143 141.39 12.035 141.03 12.4323C140.671 12.8295 140.491 13.4916 140.491 14.2861V15.9192H145.391V12.8295L148.672 11.8585V15.9192H151.999V18.5675H148.672V24.9676C148.672 25.8062 148.852 26.38 149.122 26.7331C149.436 27.0862 149.931 27.2628 150.605 27.2628C150.785 27.2628 151.01 27.2186 151.279 27.1304C151.549 27.0421 151.774 26.9538 151.954 26.8214V29.4697C151.729 29.6021 151.414 29.6904 150.92 29.7787C150.425 29.8669 149.976 29.9111 149.481 29.9111C148.088 29.9111 147.054 29.558 146.38 28.8517C145.705 28.1455 145.346 27.0421 145.346 25.5855L145.391 18.6116Z" fill="#737373"/>
<path d="M15.3981 3.7334H0V19.1867H15.3981V3.7334Z" fill="#F25022"/>
<path d="M32.4176 3.7334H17.0195V19.1867H32.4176V3.7334Z" fill="#7FBA00"/>
<path d="M15.3981 20.8135H0V36.2668H15.3981V20.8135Z" fill="#00A4EF"/>
<path d="M32.4176 20.8135H17.0195V36.2668H32.4176V20.8135Z" fill="#FFB900"/>
</svg>
