<svg width="152" height="40" viewBox="0 0 152 40" fill="none" xmlns="http://www.w3.org/2000/svg">
<g clip-path="url(#clip0_1994_28704)">
<path d="M151.88 17.5289C151.88 17.5289 151.789 17.9554 151.728 18.2025C151.439 19.2682 150.755 20.0558 149.965 20.7508C149.068 21.5539 148.019 22.079 146.818 22.1408C145.663 22.2025 143.049 22.1408 143.049 22.1408C143.049 21.5539 143.049 20.1639 143.049 20.1639C143.049 20.1639 145.055 20.1794 145.846 20.1176C147.381 19.994 148.597 19.2836 149.342 17.9091C149.752 17.1523 149.843 16.2875 149.615 15.3917C149.205 13.8473 148.171 13.0133 146.742 12.5654C146.438 12.4728 146.104 12.411 145.785 12.3955C144.326 12.3801 142.851 12.3955 141.331 12.3955C141.331 12.5963 141.331 12.7662 141.331 12.9515C141.331 18.4496 141.331 24.5346 141.331 30.0327C140.738 30.0327 139.568 30.0327 138.93 30.0327C138.93 29.8782 138.93 29.7547 138.93 29.6311C138.93 23.2991 138.93 16.4728 138.93 10.1407C140.936 10.1407 143.459 10.0944 145.466 10.1562C147.7 10.2179 149.6 11.0519 150.983 12.9206C151.454 13.5538 151.774 14.2488 151.88 15.0365C151.88 15.0365 152.003 15.8002 152.002 16.2933C152.001 16.7783 151.88 17.5289 151.88 17.5289Z" fill="#172136"/>
<path d="M85.2717 31.6596C85.8189 31.3353 86.4573 30.9588 87.0197 30.6345C88.8893 33.4298 91.3517 34.5572 94.4373 32.8893C96.3525 31.8545 97.0821 30.1711 96.7933 28.0553C96.7173 28.1016 96.6413 28.1325 96.5805 28.1943C95.7445 29.1055 94.6805 29.6306 93.5405 29.9858C93.1453 30.1094 92.7197 30.1402 92.3093 30.1711C91.8381 30.202 91.3669 30.1866 90.8957 30.1866C89.2997 30.1403 87.9621 29.4607 86.7765 28.426C85.7581 27.5302 84.9981 26.4491 84.5421 25.1673C84.3597 24.6576 84.2685 24.1171 84.1925 23.5765C84.1165 23.1441 84.0557 22.6808 84.0861 22.2484C84.2533 19.1904 85.6213 16.8893 88.3269 15.4684C89.6341 14.7734 91.0325 14.5727 92.4613 14.7425C93.7533 14.897 94.9389 15.3912 95.9725 16.2406C96.9909 17.0592 97.8421 18.0013 98.3741 19.2059C98.6173 19.7619 98.8301 20.3642 98.9061 20.9511C99.2405 23.6692 98.9821 26.3874 99.0581 29.1055C99.0885 30.341 98.7389 31.4684 98.0245 32.4723C97.2037 33.5997 96.1397 34.4182 94.8477 34.9588C93.7381 35.4221 92.5981 35.6383 91.4125 35.5457C89.9989 35.4221 88.6613 35.0514 87.4757 34.202C86.6549 33.6152 85.9861 32.9202 85.4845 32.0399C85.4541 31.9935 85.2869 31.706 85.2717 31.6596ZM91.6709 17.0128C88.8437 16.843 86.2445 19.6229 86.3509 22.6962C86.4421 25.4607 88.7221 28.0553 91.7773 28.009C94.4677 27.9781 96.8693 25.507 96.8389 22.341C96.8085 19.7464 94.4525 16.8121 91.6709 17.0128Z" fill="#172136"/>
<path d="M137.394 30.0019C136.528 30.0019 135.722 30.0019 134.871 30.0019C134.354 28.72 133.822 27.4227 133.29 26.1409C132.941 25.3069 132.439 24.2412 132.09 23.4073C132.09 23.4073 131.953 23.4073 131.755 23.4073C129.84 23.4073 127.925 23.4073 126.025 23.4073C125.873 23.4073 125.523 23.4073 125.523 23.4073L126.466 21.3687C127.773 21.415 129.962 21.3841 131.36 21.3841C130.22 18.6196 129.11 15.9015 127.94 13.0752C125.508 18.8049 123.137 24.3957 120.766 30.0173C119.884 30.0173 118.942 30.0173 117.969 30.0173C118.622 28.5501 119.276 27.1293 119.899 25.693C120.538 24.2567 121.146 22.7895 121.784 21.3532C122.422 19.9169 123.076 18.4961 123.699 17.0598C124.277 15.747 124.839 14.4343 125.417 13.137C125.812 12.2258 126.307 11.0674 126.732 10.1562C126.732 10.1562 128.57 10.1564 129.072 10.1564C129.482 11.2066 130.235 12.8281 130.676 13.8783C131.117 14.9439 131.542 16.0096 131.998 17.0752C132.515 18.3107 133.032 19.5463 133.549 20.7818C134.035 21.9401 134.537 23.1138 135.008 24.2721C135.373 25.137 135.722 26.0173 136.087 26.8976C136.482 27.886 136.923 28.9053 137.394 30.0019Z" fill="#172136"/>
<path d="M53.3537 22.2491C53.3537 21.5386 53.3537 20.1332 53.3537 20.1332C53.3537 20.1332 54.6609 20.1178 55.3145 20.1332C56.1657 20.1487 56.9865 20.056 57.7465 19.6545C58.7953 19.0985 59.6617 18.28 59.8441 17.0753C60.1329 15.222 59.6617 13.9402 57.7921 12.8745C57.1841 12.5348 56.5305 12.3649 55.8313 12.3649C54.4785 12.3649 52.8673 12.3957 51.5145 12.3957C51.5145 18.2645 51.5145 24.1023 51.5145 29.9865C50.6937 29.9865 49.9185 29.9865 49.0977 29.9865C49.0977 29.8321 49.0977 29.6931 49.0977 29.5541C49.0977 23.2684 49.0977 16.4421 49.0977 10.1564C51.1497 10.1564 53.7489 10.0946 55.8009 10.1564C57.6553 10.2181 59.3121 10.8668 60.6345 12.2413C61.3337 12.9672 61.8049 13.8166 62.0481 14.805C62.2761 15.7162 62.2913 16.6274 62.1241 17.5232C61.8809 18.8514 61.1665 19.9325 60.1177 20.8128C59.3577 21.446 58.5065 21.8475 57.5793 22.1101C57.2753 22.2027 56.6065 22.2491 56.6065 22.2491C56.6065 22.2491 54.4785 22.2491 53.3537 22.2491Z" fill="#172136"/>
<path d="M116.189 24.6432C116.766 25.0139 117.344 25.3691 117.921 25.7397C116.948 27.3923 115.641 28.6741 113.939 29.5081C113.255 29.8324 112.51 30.0641 111.765 30.1722C110.762 30.3112 109.728 30.3729 108.725 30.2957C107.631 30.2031 106.597 29.8015 105.655 29.2146C103.922 28.149 102.63 26.6664 101.749 24.844C101.338 23.9946 101.08 23.0988 100.897 22.1722C100.669 20.983 100.7 19.7938 100.791 18.62C100.912 17.122 101.368 15.6857 102.189 14.4348C102.63 13.7707 103.132 13.1375 103.664 12.566C104.652 11.5004 105.868 10.7591 107.221 10.2958C108.604 9.83243 110.063 9.80155 111.477 10.0023C113.483 10.2958 115.216 11.2533 116.614 12.7668C117.101 13.2919 117.496 13.9097 117.952 14.512C117.359 14.8826 116.584 15.2593 116.052 15.599C115.444 14.7187 114.819 13.8235 113.681 13.1375C112.784 12.5976 111.157 12.2571 111.157 12.2571C111.157 12.2571 110.261 12.1181 109.805 12.1336C107.905 12.1954 106.309 12.9521 104.986 14.3266C104.302 15.0371 103.74 15.8556 103.375 16.7668C103.116 17.4 102.965 18.095 102.858 18.7745C102.752 19.4077 102.691 20.0718 102.737 20.7204C102.828 22.1104 103.208 23.4386 103.968 24.6123C104.56 25.539 105.29 26.3421 106.202 26.9598C106.962 27.4695 107.753 27.9019 108.665 28.01C109.212 28.0872 109.759 28.149 110.306 28.149C111.598 28.1645 112.738 27.6548 113.802 26.9753C114.669 26.4193 115.611 25.5235 116.189 24.6432Z" fill="#172136"/>
<path d="M79.9376 30.0021C79.9376 30.0021 79.9376 29.6469 79.9376 29.477C79.9376 26.7434 79.9528 24.0252 79.9224 21.2916C79.9072 19.7936 79.1472 18.6816 77.992 17.8167C77.004 17.0754 75.8792 17.0291 74.7696 17.2299C73.7664 17.4152 72.976 18.0328 72.368 18.8668C71.7904 19.639 71.5624 20.504 71.5776 21.477C71.608 24.1642 71.5776 27.3148 71.5928 30.0021C71.5928 30.0021 69.936 30.0021 69.3128 30.0021C69.3128 30.0021 69.3128 29.755 69.3128 29.6314C69.3128 26.6971 69.252 23.7627 69.3432 20.8283C69.404 18.8515 70.3768 17.2761 71.9424 16.0869C72.5808 15.6081 73.28 15.253 74.04 15.0676C74.9672 14.8514 75.9096 14.7896 76.8824 14.975C77.7792 15.1449 78.5848 15.4383 79.3448 15.9324C80.3784 16.6274 81.1384 17.554 81.64 18.7123C82.0808 19.7316 82.2328 20.7974 82.2328 21.9094C82.2328 24.4577 82.2015 27.4538 82.2167 30.0021C81.6239 29.9866 80.5608 30.0021 79.9376 30.0021Z" fill="#172136"/>
<path d="M64.4648 15.8242C65.2248 15.8242 65.9544 15.8242 66.6992 15.8242C66.6992 20.5655 66.6992 25.276 66.6992 30.0018C65.9392 30.0018 65.2096 30.0018 64.4648 30.0018C64.4648 25.2605 64.4648 20.5346 64.4648 15.8242Z" fill="#172136"/>
<path d="M66.6988 12.8588C65.9388 12.8588 65.2092 12.8588 64.4492 12.8588C64.4492 12.0866 64.4492 11.3453 64.4492 10.5576C65.194 10.5576 65.9388 10.5576 66.6988 10.5576C66.6988 11.3298 66.6988 12.0866 66.6988 12.8588Z" fill="#172136"/>
<path d="M7.75391 9.88178C7.75391 8.64711 8.91978 7.75766 10.0867 8.10206L22.6178 11.8005C23.2672 11.9922 23.7139 12.5966 23.7139 13.2836V30.5237C23.7139 31.2363 23.234 31.8563 22.5526 32.0244L10.0084 35.1198C8.86016 35.4031 7.75391 34.5194 7.75391 33.3189V9.88178Z" fill="#172D72"/>
<path d="M12.1599 6.30678C12.1599 5.3878 13.0219 4.72178 13.8935 4.96738L30.5022 9.64763C31.1604 9.8331 31.6159 10.4419 31.6159 11.1358V20.6245C31.6159 21.3437 31.1271 21.9678 30.4373 22.1294L13.8351 26.0171C12.978 26.2179 12.1599 25.5564 12.1599 24.6626V6.30678Z" fill="#00AEEF"/>
<path d="M12.1602 8.72559L22.6149 11.8005C23.2648 11.9917 23.7122 12.5965 23.7122 13.284V23.7063L13.8351 26.0172C12.9781 26.2176 12.1602 25.5562 12.1602 24.6626V8.72559Z" fill="#3D3FEA"/>
</g>
<defs>
<clipPath id="clip0_1994_28704">
<rect width="152" height="40" fill="white"/>
</clipPath>
</defs>
</svg>
