<svg width="46" height="16" viewBox="0 0 46 16" fill="none" xmlns="http://www.w3.org/2000/svg">
<rect x="0.5" y="0.5" width="15" height="15" rx="1.5" stroke="#172136"/>
<g clip-path="url(#clip0_2109_14967)">
<path d="M9.88021 6.55273H6.54688V9.88607H9.88021V6.55273Z" stroke="#172136" stroke-miterlimit="10" stroke-linecap="square"/>
<path d="M4.04688 5.30273C4.04688 4.61523 4.60937 4.05273 5.29687 4.05273C5.98437 4.05273 6.54687 4.61523 6.54687 5.30273C6.54687 5.61523 6.54687 6.55273 6.54687 6.55273C6.54687 6.55273 5.67187 6.55273 5.29687 6.55273C4.60937 6.55273 4.04688 5.99023 4.04688 5.30273Z" stroke="#172136" stroke-miterlimit="10" stroke-linecap="square"/>
<path d="M12.375 5.30273C12.375 4.61523 11.8125 4.05273 11.125 4.05273C10.4375 4.05273 9.875 4.61523 9.875 5.30273C9.875 5.61523 9.875 6.55273 9.875 6.55273C9.875 6.55273 10.75 6.55273 11.125 6.55273C11.8125 6.55273 12.375 5.99023 12.375 5.30273Z" stroke="#172136" stroke-miterlimit="10" stroke-linecap="square"/>
<path d="M12.375 11.1357C12.375 11.8232 11.8125 12.3857 11.125 12.3857C10.4375 12.3857 9.875 11.8232 9.875 11.1357C9.875 10.8232 9.875 9.88574 9.875 9.88574C9.875 9.88574 10.75 9.88574 11.125 9.88574C11.8125 9.88574 12.375 10.4482 12.375 11.1357Z" stroke="#172136" stroke-miterlimit="10" stroke-linecap="square"/>
<path d="M4.04688 11.1357C4.04688 11.8232 4.60937 12.3857 5.29687 12.3857C5.98437 12.3857 6.54687 11.8232 6.54687 11.1357C6.54687 10.8232 6.54687 9.88574 6.54687 9.88574C6.54687 9.88574 5.67187 9.88574 5.29687 9.88574C4.60937 9.88574 4.04688 10.4482 4.04688 11.1357Z" stroke="#172136" stroke-miterlimit="10" stroke-linecap="square"/>
</g>
<rect x="30.5" y="0.5" width="15" height="15" rx="1.5" stroke="#172136"/>
<path d="M20 8.45083H26V7.54917H20V8.45083ZM22.5406 11H23.4594V5H22.5406V11Z" fill="#172136"/>
<path d="M35.5 12V4H36.6697V7.82031H36.7644L40.0161 4H41.4886L38.3618 7.60156L41.5 12H40.0918L37.5858 8.42578L36.6697 9.51172V12H35.5Z" fill="#172136"/>
<defs>
<clipPath id="clip0_2109_14967">
<rect width="10" height="10" fill="white" transform="translate(3 3)"/>
</clipPath>
</defs>
</svg>
