<svg width="96" height="96" viewBox="0 0 96 96" fill="none" xmlns="http://www.w3.org/2000/svg">
<rect y="2.12132" width="7.21165" height="20.951" rx="3.60582" transform="matrix(-0.707107 0.707107 0.707107 0.707107 67.4453 71.6238)" stroke="#172136" stroke-width="3"/>
<path fill-rule="evenodd" clip-rule="evenodd" d="M63.1536 72.6303C50.8111 84.9728 30.7999 84.9728 18.4574 72.6303C6.11494 60.2878 6.11494 40.2767 18.4574 27.9342C30.7999 15.5917 50.8111 15.5917 63.1536 27.9342C75.4961 40.2767 75.4961 60.2878 63.1536 72.6303ZM17.0927 69.6403L12.2783 57.7573L10.9495 47.9118L14.1297 34.0847L28.9092 22.1037L28.4625 22.5594C11.6263 39.7331 15.3938 68.1532 36.1232 80.347L25.8016 76.8005L17.0927 69.6403Z" fill="#5647EB"/>
<circle cx="31.6049" cy="31.6049" r="30.1049" transform="matrix(-0.707107 0.707107 0.707107 0.707107 40.8047 5.58594)" stroke="#172136" stroke-width="3" stroke-linejoin="round"/>
<path d="M75.133 15.7282L69.5898 21.4966" stroke="#172136" stroke-width="3" stroke-linecap="round" stroke-linejoin="round"/>
<path d="M52.6129 4.31726L50.9688 12.1465" stroke="#172136" stroke-width="3" stroke-linecap="round" stroke-linejoin="round"/>
<path d="M87.4295 37.782L79.6719 39.7363" stroke="#172136" stroke-width="3" stroke-linecap="round" stroke-linejoin="round"/>
</svg>
