<svg width="94" height="40" viewBox="0 0 94 40" fill="none" xmlns="http://www.w3.org/2000/svg">
<g clip-path="url(#clip0_1994_28691)">
<path d="M93.8847 30.7035C93.8847 30.7035 93.8471 30.9498 93.8223 31.0719C93.5017 32.5747 92.582 33.4839 91.1189 33.8523C90.7339 33.9491 90.3386 33.9701 89.9431 33.9721C89.0567 33.9786 88.1679 33.9742 87.2815 33.9742C87.2065 33.9742 87.1295 33.9742 87.0277 33.9742C87.011 34.2205 87.0213 34.4542 87.0193 34.6899C87.0172 34.9277 87.0193 35.1657 87.0193 35.4055C87.0193 35.6518 87.0193 35.8959 87.0193 36.1422C87.0193 36.38 87.0193 36.6177 87.0193 36.8578C87.0193 37.0956 87.0193 37.3334 87.0193 37.5901C86.372 37.7228 85.7373 37.7311 85.0859 37.5945C85.0859 33.8754 85.0859 30.1585 85.0859 26.4267C85.1484 26.4226 85.2087 26.4141 85.2691 26.4141C86.8361 26.4141 88.4033 26.4141 89.9702 26.4141C90.6216 26.4141 91.2563 26.5046 91.8578 26.7657C92.9545 27.2433 93.5954 28.0959 93.8369 29.2661C93.8576 29.3671 93.8868 29.5712 93.8868 29.5712C93.8868 29.5712 93.9328 29.9173 93.9323 30.1385C93.9319 30.3597 93.8847 30.7035 93.8847 30.7035ZM87.0277 32.2127C87.0837 32.2168 87.1316 32.2233 87.1774 32.2233C88.0868 32.2233 88.9942 32.2274 89.9037 32.2168C90.1514 32.2148 90.4031 32.1811 90.6444 32.1263C91.3354 31.9705 91.8225 31.577 91.9931 30.8571C92.1054 30.3857 92.0908 29.9101 91.9806 29.4408C91.8514 28.8936 91.5185 28.5295 90.992 28.3442C90.7278 28.2516 90.4571 28.1906 90.1782 28.1843C89.1669 28.1673 88.1536 28.1631 87.142 28.1569C87.1047 28.1569 87.065 28.1737 87.0277 28.182C87.0277 29.527 87.0277 30.8636 87.0277 32.2127Z" fill="#172136"/>
<path d="M47.3409 37.5247C46.8935 37.6869 46.3401 37.6952 45.8883 37.5459C45.8883 37.4175 45.8883 37.2806 45.8883 37.1417C45.8883 36.9942 45.8947 36.847 45.8842 36.6998C45.8717 36.5249 45.774 36.4618 45.6138 36.5334C45.5117 36.5777 45.4181 36.6387 45.3265 36.7018C44.7271 37.106 44.0821 37.4069 43.3891 37.6025C40.794 38.335 38.3362 37.1523 37.2 34.8097C36.8255 34.0373 36.6403 33.2164 36.5986 32.3597C36.5466 31.2885 36.7234 30.2592 37.2041 29.3016C38.0491 27.6221 39.4017 26.6055 41.2414 26.2855C42.309 26.1002 43.3704 26.1887 44.4129 26.4793C45.3536 26.7422 46.1403 27.2664 46.7957 27.9903C47.0393 28.2576 47.2619 28.544 47.5136 28.8429C47.0268 29.2069 46.5606 29.5541 46.0799 29.9141C46.0236 29.8426 45.9738 29.7772 45.9239 29.712C45.3577 28.9818 44.6647 28.426 43.77 28.1756C42.7211 27.8829 41.6847 27.8998 40.6878 28.3903C39.6453 28.9039 38.9461 29.7309 38.634 30.8528C38.3134 32.0062 38.4298 33.1385 39.0065 34.1929C39.6368 35.3463 40.6274 35.9463 41.9283 36.0136C42.6462 36.0514 43.3413 35.9505 43.9905 35.6221C44.7939 35.2159 45.3431 34.5887 45.5826 33.7025C45.6261 33.5364 45.6366 33.3615 45.6678 33.1618C44.5628 33.1618 43.4932 33.1618 42.409 33.1618C42.409 32.6293 42.409 32.1198 42.409 31.6106C42.5587 31.5684 47.0518 31.5558 47.343 31.5979C47.3409 33.57 47.3409 35.5422 47.3409 37.5247Z" fill="#172136"/>
<path d="M48.9414 11.6239C49.549 11.4933 50.1461 11.487 50.7455 11.6091C50.8059 11.6217 50.8683 11.6723 50.908 11.7228C51.3762 12.3142 51.8528 12.8993 52.3043 13.5013C53.7319 15.4081 55.0409 17.3992 56.2958 19.426C56.3436 19.5018 56.3915 19.5776 56.4373 19.647C56.4539 19.647 56.4623 19.6491 56.4664 19.647C56.4726 19.6449 56.479 19.6386 56.481 19.6323C56.4851 19.6197 56.4872 19.6049 56.4892 19.5923C56.4913 19.5776 56.4913 19.5649 56.4913 19.5502C56.4913 19.5081 56.4913 19.466 56.4913 19.4239C56.4913 16.8646 56.4913 14.3053 56.4913 11.7459C56.4913 11.7249 56.4935 11.7038 56.4956 11.6828C56.4956 11.6765 56.4976 11.668 56.4997 11.6617C56.5017 11.6554 56.5058 11.6491 56.5081 11.6428C56.8328 11.506 57.7274 11.4639 58.3519 11.6217C58.3913 11.7691 58.4059 22.5221 58.3621 22.8231C58.1853 22.8462 58.0042 22.8778 57.819 22.8967C57.3946 22.9409 56.9742 22.9072 56.556 22.8378C56.4457 22.8188 56.4122 22.741 56.3664 22.6652C55.9982 22.0464 55.634 21.4255 55.2594 20.8109C53.9066 18.6052 52.477 16.4542 50.9704 14.3537C50.9349 14.3031 50.8955 14.2569 50.8371 14.2127C50.8164 14.5683 50.8184 14.9198 50.8184 15.2713C50.8184 15.6291 50.8184 15.9869 50.8184 16.3447C50.8184 16.7025 50.8184 17.0603 50.8184 17.4181C50.8184 17.7822 50.8184 18.1464 50.8184 18.5126C50.8184 18.8704 50.8184 19.2282 50.8184 19.586C50.8184 19.9438 50.8184 20.3016 50.8184 20.6594C50.8184 21.0172 50.8184 21.375 50.8184 21.7328C50.8184 22.0885 50.8184 22.4463 50.8184 22.8125C50.1858 22.9514 49.5718 22.9514 48.9455 22.8167C48.9414 19.0872 48.9414 15.366 48.9414 11.6239Z" fill="#172136"/>
<path d="M60.2266 31.9955C60.2433 28.7649 62.8259 26.1801 66.0245 26.2013C69.1334 26.2223 71.7349 28.7396 71.7265 32.023C71.7181 35.3695 69.017 37.8446 65.9329 37.8193C62.778 37.7919 60.21 35.1801 60.2266 31.9955ZM62.1433 32.0124C62.1474 34.1423 63.8623 35.8766 65.9683 35.8787C68.0847 35.8829 69.8098 34.1319 69.7973 31.9976C69.785 29.8635 68.0658 28.1313 65.9642 28.1398C63.8582 28.146 62.139 29.8886 62.1433 32.0124Z" fill="#172136"/>
<path d="M49.7032 26.4073C49.7615 26.4032 49.8216 26.3967 49.882 26.3967C51.5198 26.3967 53.1556 26.3946 54.7934 26.4032C55.5384 26.4073 56.275 26.4979 56.9805 26.7545C57.584 26.9755 58.0855 27.3354 58.4227 27.9015C58.6683 28.3121 58.789 28.7647 58.8327 29.2361C58.8847 29.7981 58.8619 30.3578 58.6557 30.8946C58.3354 31.7343 57.734 32.2921 56.9265 32.6435C56.5935 32.7889 56.246 32.8836 55.8879 32.932C55.8255 32.9403 55.7653 32.9656 55.6528 32.9992C55.7423 33.0688 55.784 33.1151 55.836 33.1361C56.812 33.555 57.5132 34.2958 58.1044 35.1481C58.6204 35.8932 59.0991 36.6679 59.5944 37.4297C59.613 37.4571 59.6215 37.4886 59.6422 37.5329C59.38 37.6276 59.1198 37.6633 58.8619 37.6801C58.4311 37.7096 58.0023 37.6822 57.5756 37.617C57.4633 37.6002 57.4073 37.5497 57.3571 37.4571C57.1305 37.032 56.9015 36.6068 56.6684 36.1838C56.3499 35.6071 56.0004 35.0513 55.5883 34.5377C55.4573 34.3757 55.3095 34.2264 55.1659 34.0748C54.783 33.6727 54.3023 33.475 53.7653 33.4034C53.0681 33.3108 52.3669 33.3529 51.6677 33.3529C51.6552 33.3529 51.6426 33.3633 51.6073 33.378C51.6073 34.7737 51.6073 36.1794 51.6073 37.5771C51.0911 37.7264 50.3545 37.7306 49.7114 37.5981C49.6699 37.4403 49.6615 26.643 49.7032 26.4073ZM51.6219 28.0511C51.5802 28.3962 51.5948 31.5071 51.6365 31.6608C51.6613 31.6628 51.6884 31.6691 51.7155 31.6691C52.6457 31.6691 53.5739 31.6776 54.5041 31.6649C54.991 31.6587 55.4719 31.5829 55.9214 31.3787C56.3374 31.1914 56.6559 30.905 56.814 30.461C56.9368 30.1179 56.9555 29.7601 56.912 29.4022C56.8265 28.714 56.5083 28.3437 55.8401 28.1753C55.5737 28.108 55.2949 28.0596 55.0201 28.0552C53.9318 28.0384 52.8435 28.0405 51.7529 28.0363C51.7114 28.0363 51.6718 28.0449 51.6219 28.0511Z" fill="#172136"/>
<path d="M47.5336 22.8131C46.8677 22.9541 46.2307 22.9457 45.5752 22.8173C45.5566 22.7626 45.5315 22.7057 45.5149 22.6468C45.3214 22.0028 45.1237 21.3608 44.9385 20.7168C44.8699 20.4748 44.7305 20.3211 44.5056 20.218C43.9126 19.9401 43.284 19.8118 42.6431 19.7234C41.6608 19.5866 40.6786 19.6371 39.6962 19.7276C39.6277 19.7339 39.5611 19.7507 39.4841 19.7655C39.3716 20.1085 39.2593 20.4453 39.1531 20.7842C38.9597 21.405 38.766 22.0259 38.5849 22.651C38.5476 22.7794 38.4892 22.8278 38.3623 22.8489C37.7673 22.9478 37.1783 22.9352 36.5664 22.8152C37.6798 18.9615 39.0636 15.2298 40.7472 11.6055C41.617 11.6055 42.4828 11.6055 43.3694 11.6055C45.0572 15.213 46.4471 18.9404 47.5336 22.8131ZM44.183 18.3995C44.1538 18.3048 44.1372 18.2459 44.1165 18.1869C43.567 16.5852 42.9282 15.0193 42.2643 13.4618C42.2249 13.3692 42.1998 13.2408 42.075 13.2345C41.9355 13.2282 41.9064 13.3629 41.8647 13.4618C41.1719 15.074 40.5162 16.7031 39.9669 18.37C39.9482 18.4248 39.9377 18.4816 39.917 18.5679C41.332 18.149 42.7368 18.1827 44.183 18.3995Z" fill="#172136"/>
<path d="M80.8919 26.4243C81.4061 26.2812 82.3153 26.2812 82.8127 26.4222C82.817 26.477 82.8252 26.5358 82.8252 26.5969C82.8252 28.7563 82.8252 30.9158 82.8252 33.0752C82.8252 33.7381 82.7502 34.3906 82.5361 35.0199C82.1155 36.2471 81.2915 37.0826 80.0824 37.4973C78.7611 37.9519 77.4208 37.9561 76.1014 37.4929C74.655 36.9858 73.8018 35.9291 73.4958 34.4243C73.4147 34.0287 73.373 33.6183 73.371 33.2141C73.3587 31.0063 73.3648 28.7985 73.3648 26.5886C73.3648 26.5337 73.371 26.477 73.3753 26.4095C74.0121 26.2791 74.6425 26.2812 75.3002 26.4095C75.3002 26.5063 75.3002 26.5948 75.3002 26.6833C75.3002 28.7522 75.3002 30.819 75.3002 32.8879C75.3002 33.2962 75.323 33.7003 75.4396 34.0939C75.7643 35.1821 76.4967 35.7904 77.5976 35.9524C78.2054 36.0429 78.8025 35.984 79.3707 35.7335C80.0617 35.4261 80.4946 34.8874 80.7256 34.1717C80.8566 33.7614 80.8919 33.3342 80.8919 32.9047C80.8939 30.8296 80.8919 28.7542 80.8919 26.6789C80.8919 26.5989 80.8919 26.5148 80.8919 26.4243Z" fill="#172136"/>
<path d="M64.0468 13.4356C62.7003 13.4356 61.3787 13.4356 60.0469 13.4356C60.0469 12.8274 60.0469 12.2423 60.0469 11.6445C63.4057 11.6445 66.7499 11.6445 70.111 11.6445C70.111 12.2381 70.111 12.8232 70.111 13.4314C68.7832 13.4314 67.4616 13.4314 66.1131 13.4314C66.1131 16.5696 66.1131 19.6846 66.1131 22.8101C65.416 22.949 64.7439 22.9511 64.0488 22.8122C64.0468 19.6909 64.0468 16.5759 64.0468 13.4356Z" fill="#172136"/>
<path d="M17.0777 11.4702C16.7947 11.4037 16.5698 11.1826 16.4921 10.8942C16.4134 10.5941 16.4091 10.2784 16.4794 9.97613C16.753 8.40749 16.9983 6.83302 17.3542 5.27753C17.6378 4.01882 18.0475 2.76742 18.7905 1.709C19.325 0.947348 20.0992 0.293873 20.9967 0.0628912C22.528 -0.331825 23.1647 1.20903 22.6329 2.51744C22.1835 3.6212 21.0988 4.18256 20.3005 4.97491C18.8415 6.42514 18.3864 8.8753 17.9653 10.8313C17.9326 11.0389 17.8197 11.2239 17.6525 11.3443C17.4853 11.4647 17.2779 11.5101 17.0777 11.4702Z" fill="url(#paint0_linear_1994_28691)"/>
<path d="M14.2542 9.47143C13.715 9.47509 13.1831 9.34152 12.7059 9.08256C12.2408 8.80772 11.6283 8.32092 11.0527 8.52705C10.4217 8.75364 10.1764 9.65857 9.68726 10.1015C8.99816 10.7228 8.15879 11.0635 7.3818 11.54C6.70769 11.9488 6.06366 12.4081 5.45489 12.9142C0.412636 17.147 -1.3585 24.278 1.08988 30.4886C3.53826 36.6992 9.63231 40.5337 16.1088 39.939C23.6873 39.2755 29.6084 32.6865 29.6622 24.8609C29.7198 16.6335 23.4476 9.83689 15.475 9.48751C15.0667 9.46998 14.6569 9.48606 14.2542 9.47143Z" fill="url(#paint1_linear_1994_28691)"/>
<path d="M4.05634 3.76302C4.18023 3.35012 4.41409 2.98136 4.73124 2.69876C5.34944 2.17948 6.25768 2.26942 6.76874 2.90049C7.9796 4.39456 7.06224 6.68247 7.01403 8.40166C6.97291 9.85042 7.43938 11.3474 8.00652 12.6266C8.11572 12.8751 8.29862 13.128 8.33265 13.4116C8.40759 13.8361 8.20512 14.2613 7.83356 14.4598C7.22953 14.7683 6.84105 14.1134 6.59434 13.647C6.02753 12.5542 5.51593 11.4319 5.06161 10.2846C4.56359 9.12533 4.20044 7.90934 3.97977 6.66198C3.94434 6.43687 3.91456 6.21026 3.89328 5.98367C3.87203 5.75708 3.85925 5.57286 3.85216 5.36673C3.82858 4.82397 3.89768 4.28113 4.05634 3.76302Z" fill="url(#paint2_linear_1994_28691)"/>
<path d="M28.586 22.7723C28.1069 17.0708 23.6873 12.4468 18.7262 12.4541C13.7651 12.4614 10.1651 17.0664 10.6444 22.7416C11.1236 28.4166 15.502 33.0422 20.4532 33.0657C25.4045 33.089 29.064 28.4812 28.586 22.7723ZM26.0013 29.2427C24.7545 30.7019 22.9765 31.562 21.0912 31.6183C18.9644 31.6855 16.8787 30.7968 15.2028 29.1155C13.5109 27.4056 12.4568 25.136 12.2253 22.705C11.9701 20.1087 12.6918 17.6161 14.2103 15.8648C15.46 14.4056 17.2415 13.5473 19.1289 13.495C19.2026 13.495 19.2707 13.495 19.3515 13.495C21.4386 13.495 23.4916 14.4321 25.1235 16.1264C26.7641 17.8404 27.7791 20.0867 27.9962 22.4843C28.2331 25.0441 27.5 27.5088 26.0013 29.2427Z" fill="#172136"/>
</g>
<defs>
<linearGradient id="paint0_linear_1994_28691" x1="18.5124" y1="10.9761" x2="23.44" y2="1.63705" gradientUnits="userSpaceOnUse">
<stop stop-color="#0066FF"/>
<stop offset="0.2" stop-color="#1677FF"/>
<stop offset="1" stop-color="#04A6FF"/>
</linearGradient>
<linearGradient id="paint1_linear_1994_28691" x1="2.01195" y1="29.355" x2="27.6449" y2="19.9505" gradientUnits="userSpaceOnUse">
<stop stop-color="#0066FF"/>
<stop offset="0.2" stop-color="#1677FF"/>
<stop offset="1" stop-color="#04A6FF"/>
</linearGradient>
<linearGradient id="paint2_linear_1994_28691" x1="6.35995" y1="14.435" x2="3.37171" y2="3.19699" gradientUnits="userSpaceOnUse">
<stop stop-color="#0066FF"/>
<stop offset="0.2" stop-color="#1677FF"/>
<stop offset="1" stop-color="#04A6FF"/>
</linearGradient>
<clipPath id="clip0_1994_28691">
<rect width="94" height="40" fill="white"/>
</clipPath>
</defs>
</svg>
