<svg width="20" height="20" viewBox="0 0 20 20" fill="none" xmlns="http://www.w3.org/2000/svg">
<path d="M3.74063 12.1545C3.6291 11.6826 3.57206 11.1994 3.57063 10.7145C3.57381 9.58354 3.87456 8.47331 4.44265 7.49535C5.01074 6.51739 5.82618 5.70614 6.80706 5.14309C6.58596 4.69799 6.46157 4.21113 6.44206 3.71452C5.15092 4.37306 4.06641 5.37491 3.30778 6.60989C2.54915 7.84488 2.14579 9.26515 2.14206 10.7145C2.14351 11.3773 2.22944 12.0371 2.39777 12.6781C2.01186 13.011 1.75606 13.4696 1.67556 13.9729C1.59507 14.4762 1.69506 14.9917 1.95788 15.4284C2.2207 15.865 2.62941 16.1947 3.11181 16.3592C3.5942 16.5237 4.11921 16.5124 4.59406 16.3273C5.0689 16.1421 5.46302 15.7951 5.70676 15.3475C5.9505 14.8999 6.02817 14.3805 5.92605 13.8812C5.82392 13.3819 5.54858 12.9347 5.14867 12.6187C4.74876 12.3028 4.25004 12.1384 3.74063 12.1545Z" fill="currentColor"/>
<path d="M12.1005 3.1481C12.0044 2.64724 11.7343 2.19651 11.3379 1.87559C10.9415 1.55468 10.4444 1.38426 9.93455 1.39448C9.42466 1.40469 8.9348 1.59488 8.55159 1.9314C8.16839 2.26793 7.91652 2.72912 7.84054 3.23343C7.76455 3.73773 7.86933 4.25266 8.13636 4.68717C8.40339 5.12167 8.81546 5.44776 9.2997 5.60776C9.78395 5.76777 10.3092 5.7514 10.7825 5.56153C11.2559 5.37166 11.6468 5.02054 11.8862 4.57024C13.1998 4.97598 14.3491 5.7911 15.1665 6.89653C15.9838 8.00196 16.4262 9.33977 16.4291 10.7145V10.731C16.9224 10.7635 17.4034 10.8988 17.8412 11.1281C17.8491 10.9902 17.8584 10.8524 17.8584 10.7145C17.8544 8.99814 17.2898 7.33005 16.2504 5.96417C15.211 4.59829 13.7538 3.60942 12.1005 3.1481Z" fill="currentColor"/>
<path d="M17.2566 12.4288C16.8438 12.1887 16.3625 12.0938 15.8896 12.1594C15.4166 12.2249 14.9792 12.447 14.6473 12.7903C14.3154 13.1336 14.1081 13.5782 14.0585 14.0531C14.0089 14.528 14.1199 15.0058 14.3737 15.4102C13.3687 16.3552 12.0847 16.9494 10.7138 17.104C9.34293 17.2585 7.95888 16.965 6.76871 16.2674C6.49606 16.6758 6.1411 17.0227 5.72656 17.286C7.22034 18.2708 9.00795 18.7105 10.7881 18.5311C12.5683 18.3517 14.2322 17.5641 15.4994 16.301C15.7182 16.3807 15.9487 16.4239 16.1816 16.4288C16.6537 16.4293 17.1128 16.2739 17.4876 15.9867C17.8623 15.6994 18.1317 15.2965 18.2538 14.8404C18.376 14.3843 18.3441 13.9007 18.1631 13.4646C17.9821 13.0285 17.6622 12.6644 17.253 12.4288H17.2566Z" fill="currentColor"/>
</svg>
