<svg width="20" height="20" viewBox="0 0 20 20" fill="none" xmlns="http://www.w3.org/2000/svg">
<g clip-path="url(#clip0_1950_12487)">
<path fill-rule="evenodd" clip-rule="evenodd" d="M17.7389 15.0275C16.7392 14.9989 15.9636 15.1039 15.3136 15.3841C15.1264 15.4612 14.826 15.4612 14.8014 15.7026C14.9014 15.8039 14.9134 15.9697 15.0011 16.11C15.151 16.3649 15.4139 16.7081 15.6512 16.8862L16.4511 17.472C16.9387 17.7773 17.4887 17.9556 17.9636 18.2612C18.2388 18.4396 18.5137 18.6687 18.7888 18.8599C18.9289 18.9618 19.0138 19.1275 19.1889 19.1909V19.1524C19.1015 19.0382 19.0763 18.8727 18.9891 18.7449L18.6137 18.3759C18.2514 17.8794 17.8011 17.4463 17.3136 17.0902C16.9135 16.81 16.0387 16.4282 15.8762 15.9574L15.8515 15.9289C16.1261 15.9003 16.4511 15.8013 16.714 15.7248C17.1393 15.6107 17.5265 15.6358 17.9636 15.5214L18.5641 15.343V15.2289C18.3391 14.9998 18.1766 14.6942 17.9393 14.4779C17.3018 13.9178 16.6013 13.3702 15.8762 12.9119C15.4887 12.6574 14.9885 12.4916 14.5761 12.2756C14.4256 12.1992 14.176 12.1609 14.0886 12.0337C13.863 11.754 13.7383 11.3845 13.5758 11.0532L12.5508 8.83811C12.3258 8.34162 12.188 7.84512 11.9134 7.38687C10.6256 5.22255 9.22522 3.9114 7.07501 2.62537C6.61269 2.358 6.06267 2.24301 5.47791 2.10319L4.54037 2.05183C4.34004 1.96281 4.14026 1.72084 3.96514 1.60613C3.2526 1.14787 1.41481 0.154881 0.889448 1.46346C0.551814 2.29095 1.38959 3.1056 1.67399 3.52591C1.88694 3.81867 2.16153 4.14966 2.31199 4.48066C2.39605 4.69695 2.42407 4.92636 2.51177 5.15549C2.71155 5.71562 2.89928 6.33966 3.16182 6.86184C3.30192 7.1292 3.44902 7.40969 3.62414 7.65138C3.72417 7.79405 3.89929 7.85511 3.93656 8.08424C3.76144 8.33905 3.74939 8.72055 3.64936 9.03928C3.19909 10.478 3.37421 12.2602 4.01165 13.3194C4.21199 13.6376 4.68412 14.3381 5.32464 14.0704C5.88727 13.8413 5.76174 13.1157 5.92426 12.4791C5.96208 12.3264 5.93686 12.2245 6.01168 12.1224V12.1509L6.52443 13.2076C6.91194 13.8313 7.58721 14.4807 8.14956 14.9139C8.44937 15.143 8.68697 15.5379 9.06187 15.6778V15.6392H9.03721C8.96212 15.5251 8.84948 15.4737 8.74945 15.3847C8.52446 15.1556 8.27452 14.8754 8.0994 14.6208C7.5746 13.9081 7.11228 13.1185 6.69955 12.3039C6.49921 11.9092 6.32409 11.4764 6.16214 11.0818C6.08649 10.9288 6.08649 10.6994 5.9618 10.6235C5.77407 10.9031 5.49948 11.1457 5.36135 11.4892C5.12374 12.0365 5.09908 12.7113 5.01166 13.4116C4.96123 13.4244 4.98365 13.4116 4.96123 13.4401C4.56167 13.3385 4.42382 12.9179 4.27391 12.5618C3.89901 11.6579 3.83625 10.2066 4.16127 9.16255C4.24869 8.89518 4.62415 8.05485 4.47425 7.80033C4.3986 7.55836 4.14922 7.41854 4.01137 7.22736C3.84886 6.98539 3.6743 6.68007 3.56166 6.41271C3.26185 5.69936 3.11195 4.91039 2.78664 4.19732C2.63618 3.86632 2.37392 3.52248 2.16125 3.21717C1.92365 2.87333 1.66166 2.63136 1.47393 2.22418C1.41145 2.08151 1.32403 1.85495 1.42406 1.702C1.44871 1.60014 1.49915 1.55933 1.59862 1.53651C1.76113 1.39383 2.22401 1.57474 2.38652 1.65064C2.84884 1.84182 3.23635 2.01987 3.62386 2.28695C3.79898 2.41422 3.98671 2.65619 4.21171 2.7201H4.47453C4.87465 2.80913 5.32436 2.74864 5.69898 2.86277C6.36164 3.07963 6.96153 3.3975 7.49951 3.74163C9.13696 4.79825 10.4875 6.30057 11.3998 8.09594C11.5497 8.3887 11.6122 8.65606 11.75 8.96167C12.0129 9.58571 12.3379 10.222 12.5999 10.8335C12.8627 11.4319 13.1126 12.0434 13.4875 12.5399C13.6753 12.8072 14.4251 12.947 14.7624 13.0871C15.0126 13.2013 15.3999 13.304 15.6254 13.4438C16.0502 13.7112 16.4752 14.0168 16.8751 14.3095C17.0749 14.4619 17.7003 14.7804 17.7375 15.0343L17.7389 15.0275ZM4.99009 3.96419C4.81737 3.96264 4.64518 3.98403 4.47789 4.02782V4.05636H4.50255C4.60258 4.26009 4.7777 4.40019 4.90267 4.57853L5.19043 5.18973L5.21508 5.1612C5.3902 5.03394 5.47791 4.8302 5.47791 4.52489C5.40281 4.43586 5.39048 4.34655 5.328 4.25752C5.25291 4.13026 5.0904 4.06634 4.99009 3.96476V3.96419Z" fill="#00678C"/>
</g>
<defs>
<clipPath id="clip0_1950_12487">
<rect width="20" height="20" fill="white"/>
</clipPath>
</defs>
</svg>
