<svg width="24" height="25" viewBox="0 0 24 25" fill="none" xmlns="http://www.w3.org/2000/svg">
<path d="M1.13668 2.05475C1.02806 2.05335 0.920455 2.07574 0.821412 2.12035C0.722369 2.16497 0.634292 2.23072 0.563365 2.31299C0.492438 2.39527 0.440381 2.49207 0.410848 2.59661C0.381314 2.70114 0.375022 2.81088 0.392411 2.9181L3.55184 22.098C3.5912 22.3327 3.71201 22.546 3.89304 22.7005C4.07407 22.855 4.30374 22.9407 4.54172 22.9427H19.6988C19.8772 22.945 20.0505 22.8831 20.1871 22.7684C20.3237 22.6536 20.4145 22.4936 20.4431 22.3175L23.6099 2.92555C23.6273 2.81832 23.621 2.70859 23.5915 2.60405C23.562 2.49952 23.5099 2.40271 23.439 2.32044C23.3681 2.23816 23.28 2.17241 23.1809 2.1278C23.0819 2.08318 22.9743 2.06079 22.8657 2.06219L1.13668 2.05475ZM14.4405 15.9168H9.60276L8.29284 9.07694H15.6127L14.4405 15.9168Z" fill="#2684FF"/>
<path d="M22.6018 9.07812H15.6168L14.4446 15.918H9.60681L3.89453 22.702C4.07559 22.8586 4.30642 22.9456 4.54577 22.9476H19.7066C19.885 22.9499 20.0582 22.888 20.1948 22.7733C20.3315 22.6585 20.4223 22.4985 20.4508 22.3224L22.6018 9.07812Z" fill="url(#paint0_linear_2245_25034)"/>
<defs>
<linearGradient id="paint0_linear_2245_25034" x1="24.2168" y1="10.9909" x2="12.6732" y2="20.004" gradientUnits="userSpaceOnUse">
<stop offset="0.18" stop-color="#0052CC"/>
<stop offset="1" stop-color="#2684FF"/>
</linearGradient>
</defs>
</svg>
