<svg width="20" height="20" viewBox="0 0 20 20" fill="none" xmlns="http://www.w3.org/2000/svg">
<path d="M6.65974 11.2222C6.64279 11.2054 6.62933 11.1853 6.62015 11.1632C6.61097 11.1411 6.60625 11.1175 6.60625 11.0935C6.60625 11.0696 6.61097 11.0459 6.62015 11.0239C6.62933 11.0018 6.64279 10.9817 6.65974 10.9648L8.93109 8.69276C9.06392 8.55524 9.13741 8.37105 9.13575 8.17986C9.13409 7.98868 9.05741 7.80579 8.92221 7.6706C8.78702 7.53541 8.60414 7.45872 8.41295 7.45706C8.22176 7.4554 8.03758 7.52889 7.90005 7.66172L4.98339 10.5784C4.91559 10.6461 4.86181 10.7265 4.82511 10.815C4.78842 10.9036 4.76953 10.9984 4.76953 11.0943C4.76953 11.1901 4.78842 11.285 4.82511 11.3735C4.86181 11.462 4.91559 11.5424 4.98339 11.6102L7.90005 14.5268C8.03687 14.6636 8.22244 14.7405 8.41594 14.7405C8.60943 14.7405 8.795 14.6636 8.93182 14.5268C9.06865 14.39 9.14551 14.2044 9.14551 14.0109C9.14551 13.8174 9.06865 13.6319 8.93182 13.495L6.65974 11.2222Z" fill="currentColor"/>
<path d="M11.8474 7.66157C11.7801 7.59193 11.6997 7.53638 11.6107 7.49816C11.5218 7.45995 11.4261 7.43983 11.3293 7.43899C11.2324 7.43815 11.1364 7.4566 11.0468 7.49326C10.9572 7.52993 10.8758 7.58407 10.8073 7.65253C10.7389 7.721 10.6847 7.80241 10.648 7.89202C10.6114 7.98163 10.5929 8.07765 10.5938 8.17447C10.5946 8.27129 10.6147 8.36697 10.6529 8.45593C10.6912 8.54489 10.7467 8.62535 10.8164 8.69261L13.0884 10.9647C13.1054 10.9816 13.1189 11.0017 13.1281 11.0239C13.1373 11.046 13.142 11.0698 13.142 11.0938C13.142 11.1177 13.1373 11.1415 13.1281 11.1636C13.1189 11.1858 13.1054 11.2059 13.0884 11.2228L10.8164 13.4949C10.7467 13.5622 10.6912 13.6426 10.6529 13.7316C10.6147 13.8206 10.5946 13.9162 10.5938 14.0131C10.5929 14.1099 10.6114 14.2059 10.648 14.2955C10.6847 14.3851 10.7389 14.4665 10.8073 14.535C10.8758 14.6034 10.9572 14.6576 11.0468 14.6943C11.1364 14.7309 11.2324 14.7494 11.3293 14.7485C11.4261 14.7477 11.5218 14.7276 11.6107 14.6894C11.6997 14.6511 11.7801 14.5956 11.8474 14.5259L14.7641 11.6093C14.8319 11.5416 14.8856 11.4611 14.9223 11.3726C14.959 11.2841 14.9779 11.1892 14.9779 11.0934C14.9779 10.9976 14.959 10.9027 14.9223 10.8142C14.8856 10.7256 14.8319 10.6452 14.7641 10.5775L11.8474 7.66157Z" fill="currentColor"/>
<path d="M18.75 5.84375C18.75 5.65703 18.7132 5.47213 18.6418 5.29962C18.5703 5.12711 18.4656 4.97037 18.3335 4.83833C18.2015 4.7063 18.0448 4.60157 17.8723 4.53011C17.6997 4.45865 17.5148 4.42188 17.3281 4.42188H10C9.93227 4.42181 9.8659 4.40287 9.80833 4.3672C9.75076 4.33152 9.70427 4.28051 9.67406 4.2199L9.12937 3.13052C9.01141 2.89404 8.82985 2.69514 8.60508 2.55616C8.38031 2.41718 8.12125 2.34362 7.85698 2.34375H2.67188C2.29477 2.34375 1.93311 2.49355 1.66646 2.76021C1.3998 3.02686 1.25 3.38852 1.25 3.76563L1.25 16.2344C1.25 16.6115 1.3998 16.9731 1.66646 17.2398C1.93311 17.5064 2.29477 17.6562 2.67188 17.6562H17.3281C17.7052 17.6562 18.0669 17.5064 18.3335 17.2398C18.6002 16.9731 18.75 16.6115 18.75 16.2344V5.84375ZM17.3267 15.8333C17.3267 15.93 17.2883 16.0228 17.2199 16.0911C17.1515 16.1595 17.0588 16.1979 16.9621 16.1979L3.07292 16.2336C2.97622 16.2336 2.88349 16.1952 2.81512 16.1269C2.74674 16.0585 2.70833 15.9658 2.70833 15.8691L2.67333 4.16667C2.67333 4.06997 2.71174 3.97724 2.78012 3.90887C2.84849 3.84049 2.94122 3.80208 3.03792 3.80208L7.59958 3.78385C7.66756 3.78365 7.73424 3.80246 7.79209 3.83815C7.84994 3.87384 7.89666 3.92499 7.92698 3.98583L8.48188 5.09635C8.59954 5.33238 8.78081 5.53084 9.00525 5.66934C9.22968 5.80784 9.48835 5.88087 9.75208 5.88021L16.9271 5.84375C17.0238 5.84375 17.1165 5.88216 17.1849 5.95053C17.2533 6.01891 17.2917 6.11164 17.2917 6.20833L17.3267 15.8333Z" fill="currentColor"/>
</svg>
