<svg width="24" height="24" viewBox="0 0 24 24" fill="none" xmlns="http://www.w3.org/2000/svg">
<path d="M19.7039 4.75705C18.2669 4.07628 16.7303 3.58152 15.1239 3.2998C14.9266 3.66096 14.6961 4.14672 14.5372 4.53314C12.8295 4.27311 11.1376 4.27311 9.46131 4.53314C9.30243 4.14672 9.0667 3.66096 8.86765 3.2998C7.25948 3.58152 5.72116 4.0781 4.28412 4.76066C1.38558 9.19553 0.599837 13.5202 0.99271 17.7836C2.91517 19.2372 4.77827 20.1202 6.60992 20.698C7.06216 20.0678 7.46551 19.3979 7.81298 18.6918C7.15121 18.4372 6.51738 18.123 5.91848 17.7583C6.07736 17.6391 6.23278 17.5145 6.38293 17.3863C10.0358 19.1162 14.0047 19.1162 17.6139 17.3863C17.7658 17.5145 17.9212 17.6391 18.0783 17.7583C17.4777 18.1248 16.8421 18.439 16.1803 18.6937C16.5278 19.3979 16.9294 20.0696 17.3834 20.6998C19.2168 20.122 21.0816 19.239 23.0041 17.7836C23.4651 12.8413 22.2166 8.55629 19.7039 4.75705ZM8.31063 15.1617C7.21408 15.1617 6.31482 14.1252 6.31482 12.863C6.31482 11.6008 7.19488 10.5625 8.31063 10.5625C9.4264 10.5625 10.3256 11.5989 10.3064 12.863C10.3082 14.1252 9.4264 15.1617 8.31063 15.1617ZM15.6862 15.1617C14.5896 15.1617 13.6904 14.1252 13.6904 12.863C13.6904 11.6008 14.5704 10.5625 15.6862 10.5625C16.8019 10.5625 17.7012 11.5989 17.682 12.863C17.682 14.1252 16.8019 15.1617 15.6862 15.1617Z" fill="currentColor"/>
</svg>
