<svg width="16" height="16" viewBox="0 0 16 16" fill="none" xmlns="http://www.w3.org/2000/svg">
<g clip-path="url(#clip0_112_2)">
<path d="M7.41 15.512V14.216C5.664 14.072 4.17 13.244 3.18 11.516L5.358 10.13C6.006 11.426 7.05 11.984 8.148 11.984C9.318 11.984 10.038 11.408 10.038 10.544C10.038 9.284 8.706 8.888 7.158 8.492C5.214 7.988 3.972 6.854 3.972 4.946C3.972 2.984 5.322 1.598 7.41 1.256V-0.580001H9.39V1.256C10.812 1.508 11.802 2.3 12.576 3.524L10.416 4.856C9.804 3.884 9.228 3.434 8.292 3.434C7.284 3.434 6.546 3.974 6.546 4.82C6.546 5.756 7.446 6.062 8.544 6.404C10.02 6.872 12.612 7.52 12.612 10.4C12.612 12.29 11.424 13.676 9.39 14.09V15.512H7.41Z" fill="white"/>
</g>
<defs>
<clipPath id="clip0_112_2">
<rect width="16" height="16" fill="white"/>
</clipPath>
</defs>
</svg>
