<svg width="20" height="20" viewBox="0 0 20 20" fill="none" xmlns="http://www.w3.org/2000/svg">
<path d="M18.5288 8.22296L18.5041 8.15974L16.1042 1.8979C16.0554 1.77509 15.9691 1.67082 15.8576 1.59998C15.7452 1.52906 15.6137 1.49477 15.481 1.50183C15.3483 1.50889 15.2211 1.55695 15.1169 1.63939C15.0137 1.72216 14.9393 1.83541 14.9043 1.96298L13.2817 6.92861H6.71737L5.09488 1.96298C5.05984 1.83541 4.98541 1.72216 4.88221 1.63939C4.77846 1.5564 4.65133 1.50797 4.51866 1.5009C4.38599 1.49383 4.25443 1.52848 4.14245 1.59998C4.03045 1.67053 3.94378 1.77486 3.89494 1.8979L1.49233 8.16796L1.46758 8.23029C1.12269 9.13335 1.08029 10.124 1.34677 11.0532C1.61325 11.9824 2.1742 12.8 2.94527 13.383L2.95443 13.3894L2.97552 13.4059L6.63582 16.1458L8.44532 17.5163L9.54537 18.3495C9.67457 18.4472 9.83212 18.5 9.99409 18.5C10.156 18.5 10.3136 18.4472 10.4428 18.3495L11.5428 17.5163L13.3532 16.1458L17.0346 13.3894L17.0447 13.382C17.8184 12.7996 18.3815 11.9813 18.6493 11.0506C18.917 10.12 18.8747 9.1275 18.5288 8.22296Z" fill="#E24329"/>
<path d="M18.531 8.21947L18.5062 8.15625C17.3358 8.39743 16.2329 8.89348 15.2759 9.60914L10.0059 13.6031C11.8025 14.9617 13.3664 16.1423 13.3664 16.1423L17.0478 13.3859L17.0579 13.3785C17.8296 12.7947 18.3906 11.9757 18.6563 11.0452C18.9221 10.1146 18.8781 9.12286 18.531 8.21947Z" fill="#FC6D26"/>
<path d="M6.63867 16.1486L8.44545 17.5191L9.54545 18.3523C9.6747 18.4499 9.8322 18.5028 9.99416 18.5028C10.1561 18.5028 10.3137 18.4499 10.4429 18.3523L11.5429 17.5191L13.3534 16.1486C13.3534 16.1486 11.7895 14.9679 9.99278 13.6094L6.63867 16.1486Z" fill="#FCA326"/>
<path d="M4.7238 9.61607C3.76702 8.90013 2.66397 8.40436 1.49342 8.16406L1.46867 8.2264C1.12289 9.1299 1.08003 10.1213 1.34654 11.0513C1.61305 11.9812 2.17451 12.7994 2.94635 13.3827L2.95552 13.3891L2.97661 13.4056L6.6369 16.1456L10.0048 13.6064L4.7238 9.61607Z" fill="#FC6D26"/>
</svg>
