<svg width="20" height="20" viewBox="0 0 20 20" fill="none" xmlns="http://www.w3.org/2000/svg">
<path d="M17.1747 1.42871H2.82754C2.4568 1.42909 2.10136 1.57658 1.83928 1.8388C1.57719 2.10103 1.42988 2.45654 1.42969 2.82728V17.1744C1.43025 17.5449 1.57773 17.9001 1.83978 18.162C2.10183 18.4239 2.45705 18.5712 2.82754 18.5716H17.1747C17.5452 18.5712 17.9004 18.4239 18.1625 18.162C18.4245 17.9001 18.572 17.5449 18.5725 17.1744V2.82728C18.5724 2.45654 18.425 2.10103 18.163 1.8388C17.9009 1.57658 17.5454 1.42909 17.1747 1.42871ZM16.7868 17.143L3.2154 17.1723C3.12068 17.1723 3.02984 17.1347 2.96286 17.0677C2.89589 17.0007 2.85826 16.9099 2.85826 16.8151L2.82826 3.21443C2.82826 3.11971 2.86589 3.02886 2.93286 2.96189C2.99984 2.89491 3.09068 2.85728 3.1854 2.85728L16.7868 2.828C16.8816 2.828 16.9724 2.86562 17.0394 2.9326C17.1063 2.99958 17.144 3.09042 17.144 3.18514V16.7859C17.144 16.8806 17.1063 16.9714 17.0394 17.0384C16.9724 17.1054 16.8816 17.143 16.7868 17.143Z" fill="currentColor"/>
<path d="M4.64397 13.9287H9.39112C9.54498 14.4446 9.86125 14.897 10.2929 15.2187C10.7245 15.5404 11.2485 15.7142 11.7868 15.7142C12.3252 15.7142 12.8491 15.5404 13.2808 15.2187C13.7124 14.897 14.0287 14.4446 14.1825 13.9287H15.3583C15.5477 13.9287 15.7294 13.8535 15.8633 13.7195C15.9973 13.5856 16.0725 13.4039 16.0725 13.2144C16.0725 13.025 15.9973 12.8433 15.8633 12.7094C15.7294 12.5754 15.5477 12.5001 15.3583 12.5001H14.1825C14.0287 11.9843 13.7124 11.5318 13.2808 11.2101C12.8491 10.8884 12.3252 10.7147 11.7868 10.7147C11.2485 10.7147 10.7245 10.8884 10.2929 11.2101C9.86125 11.5318 9.54498 11.9843 9.39112 12.5001H4.64397C4.45453 12.5001 4.27285 12.5754 4.1389 12.7094C4.00494 12.8433 3.92969 13.025 3.92969 13.2144C3.92969 13.4039 4.00494 13.5856 4.1389 13.7195C4.27285 13.8535 4.45453 13.9287 4.64397 13.9287ZM11.7868 12.143C11.9987 12.143 12.2059 12.2058 12.3821 12.3236C12.5583 12.4413 12.6956 12.6086 12.7767 12.8044C12.8578 13.0002 12.879 13.2156 12.8377 13.4235C12.7963 13.6313 12.6943 13.8222 12.5444 13.972C12.3946 14.1219 12.2037 14.2239 11.9959 14.2653C11.788 14.3066 11.5726 14.2854 11.3768 14.2043C11.181 14.1232 11.0137 13.9859 10.896 13.8097C10.7782 13.6335 10.7154 13.4263 10.7154 13.2144C10.7154 12.9303 10.8283 12.6577 11.0292 12.4568C11.2301 12.2559 11.5027 12.143 11.7868 12.143Z" fill="currentColor"/>
<path d="M4.64397 7.50014H5.46254C5.61641 8.01602 5.93268 8.46845 6.36433 8.79015C6.79597 9.11184 7.31992 9.28561 7.85826 9.28561C8.39659 9.28561 8.92055 9.11184 9.35219 8.79015C9.78384 8.46845 10.1001 8.01602 10.254 7.50014H15.3583C15.5477 7.50014 15.7294 7.42489 15.8633 7.29093C15.9973 7.15698 16.0725 6.9753 16.0725 6.78586C16.0725 6.59642 15.9973 6.41474 15.8633 6.28078C15.7294 6.14683 15.5477 6.07157 15.3583 6.07157H10.254C10.1001 5.55569 9.78384 5.10326 9.35219 4.78157C8.92055 4.45987 8.39659 4.2861 7.85826 4.2861C7.31992 4.2861 6.79597 4.45987 6.36433 4.78157C5.93268 5.10326 5.61641 5.55569 5.46254 6.07157H4.64397C4.45453 6.07157 4.27285 6.14683 4.1389 6.28078C4.00494 6.41474 3.92969 6.59642 3.92969 6.78586C3.92969 6.9753 4.00494 7.15698 4.1389 7.29093C4.27285 7.42489 4.45453 7.50014 4.64397 7.50014ZM7.85826 5.71443C8.07017 5.71443 8.27732 5.77727 8.45351 5.895C8.62971 6.01273 8.76704 6.18006 8.84813 6.37584C8.92922 6.57162 8.95044 6.78705 8.9091 6.99488C8.86776 7.20272 8.76572 7.39363 8.61587 7.54347C8.46603 7.69331 8.27512 7.79536 8.06728 7.8367C7.85945 7.87804 7.64402 7.85682 7.44824 7.77573C7.25246 7.69464 7.08513 7.55731 6.9674 7.38111C6.84967 7.20492 6.78683 6.99777 6.78683 6.78586C6.78683 6.5017 6.89971 6.22918 7.10064 6.02824C7.30158 5.82731 7.5741 5.71443 7.85826 5.71443Z" fill="currentColor"/>
</svg>
