<svg width="26" height="26" viewBox="0 0 26 26" fill="none" xmlns="http://www.w3.org/2000/svg">
<path d="M21.9375 3.25H4.0625C3.575 3.25 3.25 3.575 3.25 4.0625V21.9375C3.25 22.425 3.575 22.75 4.0625 22.75H21.9375C22.425 22.75 22.75 22.425 22.75 21.9375V4.0625C22.75 3.575 22.425 3.25 21.9375 3.25ZM9.01875 19.9062H6.175V10.5625H9.1V19.9062H9.01875ZM7.55625 9.2625C6.6625 9.2625 5.85 8.53125 5.85 7.55625C5.85 6.6625 6.58125 5.85 7.55625 5.85C8.45 5.85 9.2625 6.58125 9.2625 7.55625C9.2625 8.53125 8.53125 9.2625 7.55625 9.2625ZM19.9062 19.9062H16.9812V15.3562C16.9812 14.3 16.9812 12.9187 15.5188 12.9187C13.975 12.9187 13.8125 14.0563 13.8125 15.275V19.9062H10.8875V10.5625H13.65V11.8625C14.0563 11.1313 14.95 10.4 16.4125 10.4C19.3375 10.4 19.9062 12.35 19.9062 14.8688V19.9062Z" fill="currentColor"/>
</svg>
