<svg width="24" height="25" viewBox="0 0 24 25" fill="none" xmlns="http://www.w3.org/2000/svg">
<path fill-rule="evenodd" clip-rule="evenodd" d="M21.2867 18.5345C20.087 18.5003 19.1563 18.6263 18.3763 18.9625C18.1517 19.055 17.7912 19.055 17.7616 19.3447C17.8817 19.4662 17.8961 19.6652 18.0014 19.8336C18.1813 20.1394 18.4966 20.5513 18.7814 20.765L19.7414 21.4679C20.3264 21.8343 20.9865 22.0483 21.5564 22.415C21.8865 22.6291 22.2164 22.904 22.5466 23.1334C22.7147 23.2557 22.8166 23.4546 23.0267 23.5306V23.4844C22.9218 23.3474 22.8915 23.1488 22.787 22.9954L22.3364 22.5527C21.9017 21.9569 21.3613 21.4371 20.7763 21.0098C20.2962 20.6735 19.2464 20.2154 19.0514 19.6504L19.0218 19.6162C19.3513 19.5819 19.7414 19.4631 20.0568 19.3714C20.5672 19.2344 21.0318 19.2645 21.5564 19.1272L22.2769 18.9132V18.7763C22.0069 18.5013 21.8119 18.1346 21.5271 17.875C20.7622 17.2029 19.9216 16.5458 19.0514 15.9959C18.5864 15.6905 17.9862 15.4915 17.4913 15.2323C17.3107 15.1405 17.0112 15.0947 16.9063 14.9419C16.6356 14.6064 16.486 14.163 16.291 13.7654L15.061 11.1073C14.791 10.5115 14.6256 9.91571 14.2961 9.3658C12.7508 6.76862 11.0703 5.19525 8.49001 3.65201C7.93523 3.33117 7.27521 3.19318 6.57349 3.0254L5.44845 2.96376C5.20804 2.85693 4.96831 2.56657 4.75817 2.42892C3.90313 1.87901 1.69777 0.68742 1.06734 2.25771C0.662177 3.2507 1.66751 4.22828 2.00879 4.73265C2.26433 5.08396 2.59383 5.48116 2.77439 5.87836C2.87526 6.1379 2.90889 6.4132 3.01413 6.68816C3.25386 7.36031 3.47914 8.10916 3.79419 8.73577C3.9623 9.0566 4.13883 9.3932 4.34897 9.68322C4.46901 9.85442 4.67915 9.9277 4.72387 10.2027C4.51372 10.5084 4.49927 10.9662 4.37923 11.3487C3.83891 13.0751 4.04905 15.2138 4.81398 16.4848C5.05439 16.8666 5.62094 17.7073 6.38957 17.3861C7.06472 17.1111 6.91409 16.2404 7.10911 15.4765C7.1545 15.2933 7.12424 15.171 7.21401 15.0484V15.0827L7.82932 16.3506C8.29433 17.0991 9.10465 17.8785 9.77947 18.3982C10.1392 18.6732 10.4244 19.1471 10.8742 19.3149V19.2686H10.8447C10.7545 19.1317 10.6194 19.07 10.4993 18.9632C10.2293 18.6883 9.92943 18.352 9.71928 18.0466C9.08952 17.1912 8.53473 16.2438 8.03946 15.2662C7.79906 14.7927 7.58891 14.2732 7.39457 13.7997C7.30379 13.6161 7.30379 13.3408 7.15416 13.2498C6.92889 13.5853 6.59938 13.8764 6.43361 14.2886C6.14849 14.9454 6.1189 15.7552 6.014 16.5954C5.95347 16.6109 5.98037 16.5954 5.95348 16.6297C5.47401 16.5078 5.30858 16.0031 5.1287 15.5757C4.67882 14.491 4.6035 12.7495 4.99353 11.4966C5.09843 11.1758 5.54899 10.1674 5.3691 9.86195C5.27832 9.57159 4.97907 9.40381 4.81364 9.1744C4.61863 8.88403 4.40915 8.51765 4.27399 8.19681C3.91422 7.34079 3.73434 6.39402 3.34397 5.53834C3.16341 5.14115 2.8487 4.72854 2.5935 4.36216C2.30837 3.94956 1.994 3.6592 1.76872 3.17058C1.69374 2.99937 1.58883 2.7275 1.70887 2.54397C1.73846 2.42173 1.79898 2.37276 1.91834 2.34537C2.11336 2.17416 2.66881 2.39125 2.86383 2.48233C3.41861 2.71175 3.88362 2.92541 4.34863 3.24591C4.55878 3.39862 4.78406 3.68899 5.05405 3.76569H5.36943C5.84958 3.87252 6.38923 3.79993 6.83878 3.93689C7.63397 4.19712 8.35384 4.57857 8.99941 4.99151C10.9644 6.25946 12.585 8.06225 13.6798 10.2167C13.8597 10.568 13.9346 10.8888 14.1001 11.2556C14.4154 12.0044 14.8055 12.768 15.1199 13.5018C15.4352 14.2198 15.7352 14.9536 16.185 15.5494C16.4103 15.8702 17.3101 16.038 17.7149 16.2061C18.0152 16.3431 18.4798 16.4664 18.7505 16.6341C19.2602 16.955 19.7703 17.3217 20.2501 17.673C20.4898 17.8559 21.2403 18.238 21.285 18.5427L21.2867 18.5345ZM5.98811 5.25859C5.78084 5.25673 5.57422 5.2824 5.37347 5.33495V5.36919H5.40306C5.5231 5.61367 5.73324 5.7818 5.8832 5.9958L6.22851 6.72924L6.2581 6.695C6.46825 6.54229 6.57349 6.29781 6.57349 5.93143C6.48338 5.8246 6.46858 5.71742 6.3936 5.61059C6.30349 5.45788 6.10848 5.38118 5.98811 5.25928V5.25859Z" fill="#00678C"/>
</svg>
