<svg width="20" height="20" viewBox="0 0 20 20" fill="none" xmlns="http://www.w3.org/2000/svg">
<g clip-path="url(#clip0_1950_12578)">
<path d="M14.3795 14.2559C14.4983 13.282 14.4627 13.1392 15.1994 13.2969L15.3865 13.3131C15.953 13.3385 16.694 13.2234 17.1294 13.0243C18.0666 12.5961 18.6223 11.8812 17.6982 12.0691C15.5902 12.4972 15.4453 11.7945 15.4453 11.7945C17.6712 8.54271 18.6017 4.41493 17.7985 3.40454C15.6079 0.64854 11.8159 1.95179 11.7525 1.98562L11.7323 1.9893C11.3158 1.90421 10.8497 1.85337 10.326 1.84504C9.37212 1.8296 8.6483 2.09126 8.09923 2.5013C8.09923 2.5013 1.33462 -0.242684 1.64932 5.95215C1.71625 7.26996 3.56784 15.9239 5.7762 13.31C6.58335 12.3542 7.36338 11.546 7.36338 11.546C7.75071 11.7994 8.21444 11.9286 8.70081 11.8822L8.7384 11.8506C8.72663 11.9693 8.73182 12.0854 8.75345 12.2228C8.18465 12.8486 8.35178 12.9585 7.21439 13.189C6.06366 13.4225 6.73971 13.8383 7.18098 13.9469C7.71609 14.0787 8.95399 14.2653 9.79064 13.1124L9.75732 13.2439C9.98049 13.4197 9.9654 14.5074 9.99705 15.2845C10.0287 16.0617 10.0816 16.7869 10.2425 17.2145C10.4034 17.642 10.5932 18.7434 12.088 18.4279C13.3373 18.1643 14.2925 17.785 14.3795 14.2559Z" fill="#172136" stroke="#172136" stroke-width="2.11503"/>
<path d="M17.6986 12.069C15.5904 12.4972 15.4455 11.7944 15.4455 11.7944C17.6714 8.54248 18.6019 4.41462 17.7989 3.40435C15.6082 0.648517 11.8161 1.95185 11.7529 1.98568L11.7325 1.98927C11.316 1.90415 10.8499 1.85343 10.326 1.84501C9.37208 1.82962 8.6485 2.09124 8.09944 2.5012C8.09944 2.5012 1.3347 -0.242666 1.64932 5.95212C1.71625 7.27002 3.56779 15.9239 5.77624 13.31C6.58343 12.3542 7.36333 11.5461 7.36333 11.5461C7.7507 11.7994 8.21444 11.9287 8.70059 11.8822L8.73836 11.8507C8.72662 11.9694 8.73198 12.0854 8.75348 12.2228C8.18456 12.8487 8.35173 12.9586 7.21442 13.1891C6.06361 13.4226 6.73967 13.8383 7.18106 13.947C7.71617 14.0787 8.95415 14.2654 9.79063 13.1125L9.75727 13.244C9.98019 13.4198 10.1367 14.3875 10.1105 15.2647C10.0843 16.1419 10.0667 16.7442 10.2424 17.2146C10.418 17.685 10.5931 18.7434 12.0882 18.428C13.3375 18.1644 13.9849 17.4813 14.0749 16.3419C14.1388 15.5318 14.2835 15.6516 14.2926 14.9273L14.4086 14.5845C14.5424 13.4864 14.4299 13.1321 15.1995 13.2969L15.3866 13.3131C15.9531 13.3385 16.6945 13.2234 17.1297 13.0242C18.0667 12.5961 18.6224 11.8812 17.6985 12.069H17.6986Z" fill="#336791"/>
<path d="M9.88067 12.7031C9.82262 14.7464 9.89525 16.8038 10.0983 17.3039C10.3015 17.8039 10.7363 18.7765 12.2315 18.4611C13.4807 18.1975 13.9352 17.6872 14.1324 16.5609C14.2777 15.7322 14.5577 13.4308 14.5937 12.9593" stroke="white" stroke-width="0.705011" stroke-linecap="round" stroke-linejoin="round"/>
<path d="M8.08834 2.45586C8.08834 2.45586 1.31899 -0.268238 1.63369 5.92655C1.70062 7.24445 3.55229 15.8986 5.7607 13.2846C6.56772 12.3287 7.29758 11.579 7.29758 11.579" stroke="white" stroke-width="0.705011" stroke-linecap="round" stroke-linejoin="round"/>
<path d="M11.7442 1.96051C11.5099 2.03284 15.5098 0.520839 17.7829 3.3807C18.5859 4.39101 17.6554 8.51887 15.4295 11.7709" stroke="white" stroke-width="0.705011" stroke-linecap="round" stroke-linejoin="round"/>
<path d="M15.429 11.7706C15.429 11.7706 15.5741 12.4736 17.6823 12.0451C18.606 11.8573 18.0501 12.5722 17.1133 13.0006C16.3444 13.3519 14.6207 13.4419 14.5925 12.9565C14.5201 11.7039 15.4997 12.0844 15.429 11.7706ZM15.429 11.7706C15.3651 11.4879 14.927 11.2105 14.6372 10.5187C14.3842 9.91489 11.1672 5.28439 15.5294 5.9721C15.6892 5.93954 14.3917 1.88686 10.3093 1.82096C6.22793 1.75506 6.36184 6.76284 6.36184 6.76284" stroke="white" stroke-width="0.705011" stroke-linecap="round" stroke-linejoin="bevel"/>
<path d="M8.73783 12.1986C8.16882 12.8244 8.33616 12.9343 7.19877 13.1649C6.04796 13.3985 6.7241 13.8141 7.16537 13.9227C7.70047 14.0546 8.93845 14.2412 9.77494 13.088C10.0297 12.7369 9.77343 12.1766 9.42352 12.0338C9.25446 11.9649 9.02839 11.8784 8.73783 12.1986Z" stroke="white" stroke-width="0.705011" stroke-linecap="round" stroke-linejoin="round"/>
<path d="M8.7009 12.1907C8.64357 11.8227 8.8237 11.3848 9.01674 10.8726C9.30684 10.104 9.97618 9.33529 9.44074 6.89724C9.04163 5.08042 6.36471 6.51914 6.36304 6.76548C6.3614 7.01175 6.48411 8.01414 6.31832 9.18142C6.10198 10.7046 7.3027 11.9928 8.68536 11.861" stroke="white" stroke-width="0.705011" stroke-linecap="round" stroke-linejoin="round"/>
<path d="M8.06311 6.72438C8.05104 6.80852 8.21956 7.03304 8.43929 7.06304C8.65865 7.09316 8.84641 6.91771 8.85831 6.83365C8.87021 6.74951 8.7019 6.65683 8.48208 6.62671C8.2626 6.59655 8.07476 6.64045 8.06315 6.72438H8.06311Z" fill="white" stroke="white" stroke-width="0.235002"/>
<path d="M14.7453 6.55249C14.7572 6.63663 14.5889 6.86115 14.3691 6.89115C14.1496 6.92127 13.9618 6.74581 13.9498 6.66176C13.9382 6.57762 14.1065 6.48494 14.3261 6.45482C14.5457 6.4247 14.7334 6.46856 14.7453 6.55253V6.55249Z" fill="white" stroke="white" stroke-width="0.117501"/>
<path d="M15.531 5.96875C15.5672 6.62873 15.3866 7.07826 15.3639 7.78083C15.3302 8.80203 15.8584 9.97088 15.0625 11.1412" stroke="white" stroke-width="0.705011" stroke-linecap="round" stroke-linejoin="round"/>
</g>
<defs>
<clipPath id="clip0_1950_12578">
<rect width="20" height="20" fill="white"/>
</clipPath>
</defs>
</svg>
