<svg width="20" height="20" viewBox="0 0 20 20" fill="none" xmlns="http://www.w3.org/2000/svg">
<path d="M9.34158 3.40313C6.97084 2.91755 4.44397 3.9517 2.64958 6.23636C2.59043 6.31161 2.56092 6.40592 2.56661 6.50145C2.57231 6.59699 2.61282 6.68712 2.68049 6.75481L4.54218 8.61689C5.79027 6.58534 7.4201 4.8148 9.34158 3.40313Z" fill="currentColor"/>
<path d="M11.373 15.4479L13.2449 17.3194C13.3126 17.387 13.4027 17.4276 13.4983 17.4332C13.5938 17.4389 13.6881 17.4094 13.7634 17.3503C16.0621 15.5441 17.097 12.9985 16.5888 10.6152C15.1754 12.545 13.4048 14.1855 11.373 15.4479Z" fill="currentColor"/>
<path d="M4.94667 11.0909C5.21956 10.4759 6.13203 8.60976 7.9076 6.70419C10.011 4.44675 13.3143 2.14285 18.2232 1.77524C17.8344 6.66223 15.5307 9.96619 13.2779 12.0759C11.3776 13.8554 9.52067 14.7762 8.90813 15.0523L4.94667 11.0909ZM4.77568 10.9199C4.77586 10.9201 4.77605 10.9202 4.77623 10.9204L4.77592 10.9201L4.77568 10.9199Z" stroke="currentColor" stroke-width="1.5"/>
<circle cx="11.5" cy="8.5" r="1.75" stroke="currentColor" stroke-width="1.5"/>
<path d="M5.45979 14.54C5.11331 14.1942 4.64383 14 4.15436 14C3.66489 14 3.19541 14.1942 2.84893 14.54C2.18529 15.2035 2.01823 17.4208 2.00069 17.6716C1.99786 17.7137 2.00373 17.756 2.01792 17.7957C2.03211 17.8355 2.05432 17.8719 2.08318 17.9027C2.11204 17.9335 2.14692 17.958 2.18566 17.9748C2.22439 17.9915 2.26616 18.0001 2.30836 18H2.32897C2.57972 17.9828 4.79646 17.8154 5.45979 17.1522C5.80571 16.8056 6 16.3358 6 15.8461C6 15.3564 5.80571 14.8866 5.45979 14.54Z" stroke="currentColor" stroke-width="1.5"/>
</svg>
