<svg width="20" height="20" viewBox="0 0 20 20" fill="none" xmlns="http://www.w3.org/2000/svg">
<path d="M15.8249 14.2525L12.3934 12.275C11.9113 11.9981 11.2949 12.1628 11.0159 12.6437C10.9078 12.8331 10.8654 13.0415 10.8858 13.244V17.1086C10.8858 17.6609 11.3358 18.1098 11.8909 18.1098C12.4445 18.1098 12.8945 17.6609 12.8945 17.1086V14.8864L14.8169 15.9939C15.299 16.2722 15.9169 16.1061 16.1944 15.6252C16.4735 15.1443 16.3084 14.5293 15.8249 14.2525Z" fill="#29B5E8"/>
<path d="M7.29202 10.0147C7.29786 9.65772 7.10942 9.32547 6.79972 9.14623L3.36827 7.17021C3.21926 7.08424 3.04835 7.03906 2.87743 7.03906C2.52538 7.03906 2.19815 7.22705 2.02286 7.53015C1.75114 7.99938 1.9133 8.60122 2.38368 8.87227L4.36162 10.0104L2.38368 11.1499C2.15579 11.2811 1.99218 11.4924 1.92498 11.7459C1.85632 11.9995 1.89138 12.2647 2.02286 12.4921C2.19815 12.7952 2.52538 12.9831 2.87597 12.9831C3.04835 12.9831 3.21926 12.938 3.36827 12.852L6.79972 10.876C7.10649 10.6982 7.29494 10.3689 7.29202 10.0147Z" fill="#29B5E8"/>
<path d="M4.1475 5.76688L7.57896 7.7429C7.97922 7.9746 8.47298 7.89882 8.78851 7.59134C8.98865 7.40773 9.11281 7.14543 9.11281 6.85398V2.89321C9.11281 2.33945 8.66288 1.89062 8.10923 1.89062C7.55412 1.89062 7.10419 2.33945 7.10419 2.89321V5.14755L5.15547 4.02548C4.6734 3.74715 4.05693 3.91182 3.77792 4.3927C3.4989 4.87359 3.66543 5.48855 4.1475 5.76688Z" fill="#29B5E8"/>
<path d="M11.8618 10.17C11.8618 10.2458 11.8179 10.3507 11.7639 10.4061L10.4039 11.7628C10.3498 11.8167 10.2432 11.8604 10.1672 11.8604H9.82101C9.74504 11.8604 9.6384 11.8167 9.58435 11.7628L8.22287 10.4061C8.16882 10.3507 8.125 10.2458 8.125 10.17V9.82467C8.125 9.74743 8.16882 9.64251 8.22287 9.58859L9.58435 8.23045C9.6384 8.17653 9.74504 8.13281 9.82101 8.13281H10.1672C10.2432 8.13281 10.3498 8.17653 10.4039 8.23045L11.7639 9.58859C11.8179 9.64251 11.8618 9.74743 11.8618 9.82467V10.17ZM10.6478 10.0039V9.98934C10.6478 9.93396 10.6157 9.85673 10.5762 9.81592L10.1745 9.41664C10.1351 9.37584 10.0577 9.34378 10.0007 9.34378H9.98608C9.93057 9.34378 9.85314 9.37584 9.81224 9.41664L9.41198 9.81592C9.37254 9.85527 9.3404 9.9325 9.3404 9.98934V10.0039C9.3404 10.0607 9.37254 10.138 9.41198 10.1773L9.81224 10.5781C9.85314 10.6174 9.93057 10.6495 9.98608 10.6495H10.0007C10.0577 10.6495 10.1351 10.6174 10.1745 10.5781L10.5762 10.1773C10.6157 10.138 10.6478 10.0607 10.6478 10.0039Z" fill="#29B5E8"/>
<path d="M12.393 7.7429L15.8245 5.76688C16.3065 5.49001 16.4731 4.87359 16.194 4.3927C15.915 3.91182 15.2986 3.74715 14.8165 4.02548L12.8941 5.13298V2.89321C12.8941 2.33945 12.4441 1.89062 11.8905 1.89062C11.3354 1.89062 10.8854 2.33945 10.8854 2.89321V6.77529C10.8664 6.97639 10.9059 7.18623 11.0155 7.37567C11.2945 7.85656 11.9109 8.02123 12.393 7.7429Z" fill="#29B5E8"/>
<path d="M8.267 12.1584C8.03911 12.1146 7.79516 12.1511 7.57896 12.2749L4.1475 14.2524C3.66543 14.5293 3.4989 15.1442 3.77792 15.6251C4.05693 16.1075 4.6734 16.2722 5.15547 15.9938L7.10419 14.8717V17.1086C7.10419 17.6609 7.55412 18.1097 8.10923 18.1097C8.66288 18.1097 9.11281 17.6609 9.11281 17.1086V13.1478C9.11281 12.648 8.74615 12.2341 8.267 12.1584Z" fill="#29B5E8"/>
<path d="M17.9713 7.51182C17.6938 7.02947 17.0758 6.8648 16.5938 7.14314L13.1623 9.11915C12.8336 9.30859 12.6525 9.65542 12.6583 10.0081C12.6554 10.3593 12.8366 10.7017 13.1623 10.8882L16.5938 12.8657C17.0758 13.1426 17.6923 12.9779 17.9713 12.497C18.2503 12.0161 18.0838 11.4012 17.6017 11.1229L15.6589 10.0037L17.6017 8.88454C18.0853 8.60766 18.2503 7.99271 17.9713 7.51182Z" fill="#29B5E8"/>
</svg>
