<svg width="24" height="25" viewBox="0 0 24 25" fill="none" xmlns="http://www.w3.org/2000/svg">
<path fill-rule="evenodd" clip-rule="evenodd" d="M13.3254 13.186V8.35938H10.4066V13.186L6.30078 15.5993L7.76016 18.1676L11.866 15.7543L15.9719 18.1676L17.4313 15.5993L13.3254 13.186Z" fill="#669DF6"/>
<path fill-rule="evenodd" clip-rule="evenodd" d="M13.3262 13.186V8.35938H11.8668V14.0274L7.03125 16.8835L7.76094 18.1676L11.8668 15.7543L15.9727 18.1676L17.4321 15.5993L13.3262 13.186Z" fill="#4285F4"/>
<path fill-rule="evenodd" clip-rule="evenodd" d="M10.3984 2.125L8.1875 3.47557V7.60478L11.8686 9.63064V6.18779L10.3984 5.50143V2.125Z" fill="#AECBFA"/>
<path fill-rule="evenodd" clip-rule="evenodd" d="M13.3377 5.50143L11.8675 6.18779V9.63064L15.5486 7.60478V3.47557L13.3377 2.125V5.50143ZM18.5545 17.9666L18.4673 19.5053L21.4079 21.1991L19.0337 22.5275L15.505 20.4574L15.6248 16.2175L19.1861 14.0034L22.7583 16.0846V18.8411L19.8287 17.1252L18.5545 17.9666ZM5.18045 17.9666L3.90621 17.1252L0.976562 18.8411V16.0846L4.49432 14.0145L8.05564 16.2285L8.17544 20.4684L4.70125 22.5607L2.32703 21.1991L5.26757 19.4721L5.18045 17.9666Z" fill="#669DF6"/>
<path fill-rule="evenodd" clip-rule="evenodd" d="M22.7583 18.8468L22.7039 16.0903L19.1861 14.0312L15.6248 16.2564L18.5545 17.9723L19.8178 17.1309L22.7583 18.8468ZM0.976562 18.8468L3.9171 17.1309L5.18045 17.9723L8.1101 16.2564L4.54877 14.0312L1.03102 16.0903L0.976562 18.8468Z" fill="#AECBFA"/>
</svg>
