<svg width="20" height="20" viewBox="0 0 20 20" fill="none" xmlns="http://www.w3.org/2000/svg">
<path d="M15.775 6.26541V6.26477C15.0932 5.09692 14.062 4.16417 12.8218 3.59356C11.5816 3.02295 10.1927 2.84223 8.84429 3.07602C7.49588 3.3098 6.25353 3.94673 5.28645 4.90003C4.31938 5.85334 3.6746 7.07668 3.43995 8.40341C2.33912 8.65436 1.37686 9.30842 0.748989 10.2325C0.121121 11.1566 -0.125175 12.2812 0.0602217 13.3776C0.245618 14.4739 0.848776 15.4596 1.74695 16.134C2.64513 16.8085 3.77084 17.121 4.895 17.008H13.9962C14.145 17.0195 14.2944 17.0306 14.4465 17.0306C15.8035 17.0306 17.1135 16.5419 18.1292 15.6569C19.1449 14.7718 19.796 13.5517 19.9595 12.2267C20.123 10.9018 19.7876 9.56386 19.0167 8.46552C18.2458 7.36719 17.0926 6.58449 15.775 6.26523L15.775 6.26541ZM9.99345 8.3469V14.2318L8.27358 13.2565V9.32419L6.55288 10.3015V8.34829L9.99327 6.39436L11.713 7.37037L9.99345 8.3469ZM13.4501 12.2747L11.723 13.2552V9.33451L13.4501 8.35276V12.2747Z" fill="#D32D3B"/>
</svg>
