<svg width="20" height="20" viewBox="0 0 20 20" fill="none" xmlns="http://www.w3.org/2000/svg">
<path d="M1 15.0129V4.98518C1.01222 4.97928 1.02471 4.97446 1.03637 4.96803C3.98246 3.32675 6.92781 1.6845 9.87243 0.0412581C9.96766 -0.0123491 10.036 -0.0144933 10.1326 0.0393819C13.0487 1.6685 15.9663 3.29504 18.8853 4.91898C18.9672 4.96454 19 5.01467 19 5.1066C18.9974 8.36788 18.9974 11.629 19 14.8899C19 14.9829 18.9672 15.033 18.8853 15.0775C15.9626 16.7036 13.041 18.3325 10.1206 19.9641C10.0326 20.0132 9.97099 20.0113 9.88436 19.9625C8.5493 19.2159 7.21295 18.4707 5.8753 17.7268C4.25057 16.8217 2.62547 15.9171 1 15.0129ZM10.0065 16.6879V16.5003C10.0065 13.266 10.006 10.0317 10.0049 6.79737C10.0049 6.70544 10.0207 6.64513 10.1159 6.5934C11.0304 6.08895 11.9417 5.57861 12.8537 5.06961C12.8962 5.04603 12.937 5.01976 12.9925 4.98679C12.9525 4.95999 12.9289 4.94042 12.9025 4.92568C11.9664 4.40336 11.0306 3.88061 10.0954 3.3574C10.0174 3.31371 9.96349 3.32684 9.89325 3.36598C7.97367 4.43812 6.05307 5.50848 4.13146 6.57705C4.04817 6.62261 4.01652 6.67193 4.0168 6.76467C4.02041 7.79232 4.01902 8.81997 4.01957 9.84709C4.01957 9.8881 4.0254 9.92884 4.03012 9.98754L7.00444 8.33107V8.53344C7.00444 10.6465 7.00398 12.7596 7.00305 14.8728C7.00305 14.9676 7.01583 15.0363 7.11411 15.0909C8.03308 15.597 8.94873 16.1095 9.86549 16.6187C9.90297 16.6399 9.94378 16.6573 10.0065 16.6879ZM12.9908 15.0261C13.0558 14.9931 13.0969 14.9743 13.136 14.9524C14.0522 14.4417 14.9684 13.9315 15.8846 13.4219C15.9807 13.3683 16.0193 13.3123 16.0193 13.2029C16.0158 11.072 16.0149 8.94103 16.0165 6.80997V6.64432C15.9513 6.67702 15.911 6.69552 15.8727 6.71669C14.9565 7.22596 14.0403 7.74032 13.1227 8.24664C13.0197 8.3032 12.987 8.36404 12.9872 8.47635C12.9907 10.6028 12.9916 12.7292 12.9897 14.8556L12.9908 15.0261Z" fill="#E30D33"/>
</svg>
