<svg width="24" height="24" viewBox="0 0 24 24" fill="none" xmlns="http://www.w3.org/2000/svg">
<path d="M23.0984 5.14615C22.2659 5.49231 21.3988 5.76923 20.4969 5.87308C21.4334 5.31923 22.1619 4.41923 22.5088 3.34615C21.6416 3.86538 20.6703 4.24615 19.6297 4.45385C18.7625 3.55385 17.5831 3 16.265 3C13.7328 3 11.7209 5.04231 11.7209 7.53462C11.7209 7.88077 11.7556 8.22692 11.825 8.57308C8.04406 8.4 4.67938 6.56538 2.45938 3.83077C2.07781 4.48846 1.835 5.28462 1.835 6.11538C1.835 7.70769 2.63281 9.09231 3.84688 9.88846C3.08375 9.85385 2.39 9.64615 1.80031 9.33462C1.80031 9.36923 1.80031 9.36923 1.80031 9.40385C1.80031 11.6192 3.36125 13.4538 5.4425 13.8692C5.06094 13.9731 4.64469 14.0423 4.22844 14.0423C3.95094 14.0423 3.63875 14.0077 3.36125 13.9731C3.95094 15.7731 5.61594 17.0885 7.62781 17.1231C6.06687 18.3346 4.08969 19.0615 1.97375 19.0615C1.59219 19.0615 1.24531 19.0269 0.898438 18.9923C2.91031 20.2385 5.30375 21 7.87063 21C16.265 21 20.8438 14.0769 20.8438 8.05385C20.8438 7.84615 20.8438 7.67308 20.8438 7.46538C21.7109 6.84231 22.4741 6.04615 23.0984 5.14615Z" fill="currentColor"/>
</svg>
