<svg width="16" height="16" viewBox="0 0 16 16" fill="none" xmlns="http://www.w3.org/2000/svg">
<path d="M8.75762 11.5057L8.99637 1.00575C8.99962 0.8655 8.88662 0.75 8.74637 0.75H7.25787C7.11762 0.75 7.00487 0.8655 7.00787 1.00575L7.24662 11.5057C7.24962 11.6415 7.36062 11.75 7.49662 11.75H8.50787C8.64362 11.75 8.75437 11.6415 8.75762 11.5057Z" fill="white"/>
<path d="M8 15.5C8.69036 15.5 9.25 14.9404 9.25 14.25C9.25 13.5596 8.69036 13 8 13C7.30964 13 6.75 13.5596 6.75 14.25C6.75 14.9404 7.30964 15.5 8 15.5Z" fill="white"/>
</svg>
